<svg width="66" height="60" viewBox="0 0 66 60" fill="none" xmlns="http://www.w3.org/2000/svg">
<path d="M20.058 45.625C19.1104 45.625 18.3054 45.3208 17.6429 44.7125C16.9788 44.1056 16.6468 43.3681 16.6468 42.5C16.6468 41.6319 16.9788 40.8944 17.6429 40.2875C18.3054 39.6792 19.1104 39.375 20.058 39.375C21.0056 39.375 21.8106 39.6792 22.4732 40.2875C23.1372 40.8944 23.4692 41.6319 23.4692 42.5C23.4692 43.3681 23.1372 44.1056 22.4732 44.7125C21.8106 45.3208 21.0056 45.625 20.058 45.625ZM28.0175 44.5833V40.4167H57.5814V44.5833H28.0175ZM20.058 33.125C19.1104 33.125 18.3054 32.8208 17.6429 32.2125C16.9788 31.6056 16.6468 30.8681 16.6468 30C16.6468 29.1319 16.9788 28.3944 17.6429 27.7875C18.3054 27.1792 19.1104 26.875 20.058 26.875C21.0056 26.875 21.8106 27.1792 22.4732 27.7875C23.1372 28.3944 23.4692 29.1319 23.4692 30C23.4692 30.8681 23.1372 31.6056 22.4732 32.2125C21.8106 32.8208 21.0056 33.125 20.058 33.125ZM28.0175 32.0833V27.9167H57.5814V32.0833H28.0175ZM20.058 20.625C19.1104 20.625 18.3054 20.3208 17.6429 19.7125C16.9788 19.1056 16.6468 18.3681 16.6468 17.5C16.6468 16.6319 16.9788 15.8944 17.6429 15.2875C18.3054 14.6792 19.1104 14.375 20.058 14.375C21.0056 14.375 21.8106 14.6792 22.4732 15.2875C23.1372 15.8944 23.4692 16.6319 23.4692 17.5C23.4692 18.3681 23.1372 19.1056 22.4732 19.7125C21.8106 20.3208 21.0056 20.625 20.058 20.625ZM28.0175 19.5833V15.4167H57.5814V19.5833H28.0175Z" fill="black"/>
</svg>
