<svg width="99" height="120" viewBox="0 0 99 120" fill="none" xmlns="http://www.w3.org/2000/svg">
<path d="M15.7299 38.0511C15.7299 38.0511 7.60158 13.9998 35.9533 16.9352C64.3051 19.8707 50.7589 9.22517 61.4723 2.61892C72.1858 -3.98733 103.752 16.5653 90.5459 36.3886C77.3394 56.2118 111.651 38.0782 118.809 67.8887C123.225 86.285 112.267 99.8252 103.227 107.501" stroke="#CCDDE2" stroke-miterlimit="10"/>
<path d="M105.992 84.5172C103.861 72.179 96.3172 61.1379 84.0605 57.1862C80.9251 56.181 77.7189 55.4112 74.469 54.8835V54.9001C74.2995 55.9243 73.8982 56.8965 73.2957 57.7419C72.0182 59.492 70.2576 60.9295 68.2191 61.6785C66.1383 62.4486 63.5607 62.5483 61.6294 61.3372C60.4667 60.6094 59.3388 59.3274 59.1349 57.9443C58.9024 56.3859 59.6966 54.9107 60.814 53.8809C51.3433 53.9579 42.4343 55.5162 35.295 57.2904C35.5425 58.3264 35.8851 59.3374 36.3188 60.3104C36.9257 61.6669 37.7832 62.8965 38.8466 63.9344C40.1728 62.6206 41.334 61.1501 42.3045 59.5554C43.2328 59.8592 44.0515 60.4294 44.6585 61.1948C45.2654 61.9603 45.6342 62.8871 45.7186 63.8604V63.9103C46.093 67.4452 42.6895 70.1013 39.8296 71.7351C36.5257 73.6347 32.8428 75.0571 29.2248 76.2394C27.733 76.7287 25.7941 77.1454 24.2192 76.6351C24.0496 76.581 23.8841 76.5149 23.7239 76.4372C22.1535 75.6671 21.1025 74.0529 20.2826 72.5777C17.9466 68.3874 16.4276 63.8197 15.3978 59.1311C8.25093 60.0447 7.43251 55.2051 7.0082 54.0183L0.894214 71.11C0.57349 72.3385 0.538911 73.6243 0.792742 74.8683C1.04672 76.1124 1.58262 77.2818 2.35922 78.2864C3.13566 79.291 4.13226 80.1041 5.27216 80.6634C6.41221 81.2227 7.66521 81.5131 8.93496 81.5124H34.2456L45.7427 111.003L49.0013 119.373H67.6136C66.1036 119.373 65.2776 119.004 64.6781 118.403C64.059 117.784 63.7105 116.944 63.7087 116.069C63.7087 114.257 65.1961 112.771 67.6136 112.771H67.7842C67.6015 112.771 67.4263 112.754 67.2436 112.738C67.3569 112.725 67.4692 112.707 67.5803 112.682C67.4606 112.679 67.3412 112.67 67.2225 112.655C68.3129 112.526 69.3233 112.018 70.0771 111.22C70.8309 110.421 71.2802 109.384 71.3463 108.288C71.3493 108.231 71.3493 108.174 71.3463 108.117V108.029C71.3203 106.906 70.8907 105.829 70.1365 104.996C69.3821 104.163 68.353 103.629 67.2376 103.492C67.3644 103.481 67.4852 103.471 67.6075 103.471C67.4973 103.444 67.375 103.427 67.2602 103.41C67.4414 103.394 67.6241 103.382 67.7993 103.382L81.4165 103.454L83.9216 103.465H86.8948C87.0322 103.465 87.1711 103.465 87.3025 103.481L91.7192 103.504L94.6698 103.521C95.903 103.531 97.0817 104.029 97.9484 104.906C98.8152 105.784 99.2993 106.968 99.2949 108.202C99.2934 108.899 99.1317 109.586 98.8223 110.211C100.088 110.049 101.262 109.464 102.153 108.55C104.278 106.381 105.193 103.133 105.826 100.245C106.945 95.1023 106.878 89.683 105.992 84.5172ZM71.5879 84.8646C69.0224 88.8132 64.654 88.4584 64.654 88.4584C64.654 88.4584 64.2916 88.8117 63.446 87.3077C62.6004 85.8038 60.1919 84.7755 60.1919 84.7755C60.0001 86.2855 59.603 88.5807 55.6619 85.606C51.7208 82.6313 52.9092 78.2945 53.2459 76.0039C53.5826 73.7132 54.925 72.9537 54.925 72.9537L56.5105 72.1171C56.5105 72.1171 51.9247 70.9378 51.7042 70.894C51.4837 70.8502 47.3992 67.4301 51.5441 66.5271C55.6891 65.6241 62.1504 69.2149 63.3992 69.9246C64.6479 70.6343 71.9458 76.8072 71.9458 76.8072C71.9458 76.8072 74.167 80.9219 71.5879 84.8646Z" fill="#353642"/>
<path d="M15.3916 59.1338C15.3916 59.1338 18.848 58.714 20.1421 56.2467L19.0141 62.5751C19.0141 62.5751 32.7642 57.8941 35.2859 57.2901C35.2859 57.2901 36.0982 62.5283 39.3327 63.9341L42.6698 59.691C42.6698 59.691 46.854 60.748 45.7094 66.4498C44.5648 72.1515 28.734 76.9171 26.0492 76.8069C23.3644 76.6966 20.4743 75.0447 17.5147 66.1674L15.3916 59.1338Z" fill="#353642"/>
<path d="M21.0224 45.0366C21.8982 46.4621 22.7786 47.8845 23.6876 49.2888C24.2478 50.154 25.2685 51.3877 24.1829 52.2922C23.8295 52.5631 23.4028 52.721 22.9582 52.7452C22.2606 52.8071 21.5283 52.6395 21.104 52.04L18.99 48.5368C18.5687 47.8381 17.8996 47.3238 17.1162 47.096C16.3327 46.8683 15.4922 46.9439 14.762 47.3077" stroke="black" stroke-miterlimit="10"/>
<path d="M29.0179 49.6507C29.5706 50.9644 29.1961 51.8115 28.5498 52.2373C27.4928 52.9304 26.078 52.5982 25.329 51.5865L21.03 45.0437" stroke="black" stroke-miterlimit="10"/>
<path d="M24.6616 43.1341C26.226 45.0367 28.1995 48.57 29.2913 50.0453C30.383 51.5206 32.0712 50.6312 32.0712 50.6312C33.4423 49.8928 33.2097 48.6682 32.6103 47.1808C31.1335 43.5297 29.0255 41.1016 26.6744 39.5101C19.3887 34.5814 11.9142 38.2175 9.68996 46.7248L0.894214 71.1098C0.57349 72.3385 0.538911 73.6243 0.792742 74.8684C1.04672 76.1124 1.58262 77.2818 2.35922 78.2864C3.13566 79.291 4.13226 80.1041 5.27216 80.6634C6.41221 81.2226 7.6652 81.513 8.93496 81.5122H34.2456L49.0058 119.374" stroke="black" stroke-miterlimit="10"/>
<path d="M33.6989 45.5061C35.5109 44.8779 35.4278 41.9878 32.8563 41.0123C30.016 39.9342 24.9726 38.4091 23.7057 38.0286C23.6978 38.0225 23.6883 38.0189 23.6785 38.018C23.5894 37.9908 23.5275 37.9682 23.4792 37.9576L23.4082 37.9349" stroke="black" stroke-miterlimit="10"/>
<path d="M60.4712 74.4028C58.8857 72.4972 54.546 71.4176 51.7132 70.8951C51.2371 70.8057 50.803 70.5639 50.4761 70.2064C50.1493 69.8488 49.9476 69.3948 49.9012 68.9125C49.8683 68.5872 49.9059 68.2586 50.0114 67.9491C50.1803 67.4739 50.5039 67.0692 50.9301 66.7998C51.3564 66.5304 51.8609 66.4119 52.3625 66.4632C57.1945 66.9525 62.1775 68.4731 65.8634 71.7482C65.8634 71.7482 83.7312 85.3835 85.8649 86.7108C86.7452 87.2454 87.5666 86.6142 86.9702 85.7746L86.783 85.4545C85.7328 83.6522 84.4897 81.9693 83.0759 80.4353" stroke="black" stroke-miterlimit="10"/>
<path d="M60.8019 53.879C38.3301 54.0663 19.0142 62.5736 19.0142 62.5736L20.9424 51.765" stroke="black" stroke-miterlimit="10"/>
<path d="M95.704 112.704C95.704 112.704 93.2563 112.15 92.6055 114.11C91.9547 116.07 91.2752 119.188 95.9547 119.372C100.634 119.556 97.886 118.637 97.6157 117.122C97.3454 115.608 95.704 112.704 95.704 112.704Z" fill="#353642"/>
<path d="M58.3119 76.8901C58.3119 76.8901 55.6709 74.8878 53.2927 76.9173C53.1926 77.0054 53.1051 77.1071 53.033 77.2193" stroke="black" stroke-miterlimit="10"/>
<g opacity="0.77">
<path opacity="0.77" d="M25.3201 51.5795C26.0751 52.5927 27.4884 52.9234 28.5409 52.2288C29.1796 51.806 29.5541 50.9634 29.015 49.6618C29.1132 49.8053 29.2023 49.9321 29.2899 50.0484C30.3801 51.5297 32.0698 50.6373 32.0698 50.6373C33.4409 49.8989 33.2098 48.6743 32.6104 47.1854C32.0237 45.7107 31.2541 44.3157 30.3197 43.0329C30.9312 42.4606 31.6575 41.8823 32.4231 42.136C33.2491 42.4108 33.4801 43.4467 33.5737 44.3104C33.6175 44.712 33.6613 45.1092 33.7051 45.5108L34.3665 51.424C34.5869 53.387 34.8074 55.3787 35.2861 57.2949C35.5336 58.3309 35.8762 59.3418 36.3099 60.3149C36.9167 61.6713 37.7743 62.9009 38.8376 63.9389C40.1638 62.625 41.325 61.1546 42.2955 59.5599C43.2238 59.8637 44.0426 60.4339 44.6496 61.1993C45.2564 61.9647 45.6252 62.8915 45.7096 63.8649V63.9147C46.0841 67.4496 42.6805 70.1057 39.8206 71.7395C36.5167 73.6391 32.8338 75.0615 29.2159 76.2439C27.724 76.7331 25.7852 77.1499 24.2102 76.6395C24.0407 76.5854 23.8752 76.5193 23.7149 76.4417C22.1445 75.6716 21.0936 74.0574 20.2737 72.5821C16.3477 65.5229 14.7169 57.4172 13.8577 49.39C15.576 49.1529 17.2884 48.8887 18.9796 48.5248C18.9796 48.5248 18.9796 48.5369 18.9902 48.5414L20.9396 51.7743L21.0996 52.0431C21.5224 52.6471 22.2548 52.8087 22.9539 52.7483C23.3984 52.7262 23.8255 52.5681 24.177 52.2953C25.2612 51.3893 24.2434 50.1601 23.6817 49.2949" fill="white"/>
<path opacity="0.77" d="M25.3201 51.5795C26.0751 52.5927 27.4884 52.9234 28.5409 52.2288C29.1796 51.806 29.5541 50.9634 29.015 49.6618C29.1132 49.8053 29.2023 49.9321 29.2899 50.0484C30.3801 51.5297 32.0698 50.6373 32.0698 50.6373C33.4409 49.8989 33.2098 48.6743 32.6104 47.1854C32.0237 45.7107 31.2541 44.3157 30.3197 43.0329C30.9312 42.4606 31.6575 41.8823 32.4231 42.136C33.2491 42.4108 33.4801 43.4467 33.5737 44.3104C33.6175 44.712 33.6613 45.1092 33.7051 45.5108L34.3665 51.424C34.5869 53.387 34.8074 55.3787 35.2861 57.2949C35.5336 58.3309 35.8762 59.3418 36.3099 60.3149C36.9167 61.6713 37.7743 62.9009 38.8376 63.9389C40.1638 62.625 41.325 61.1546 42.2955 59.5599C43.2238 59.8637 44.0426 60.4339 44.6496 61.1993C45.2564 61.9647 45.6252 62.8915 45.7096 63.8649V63.9147C46.0841 67.4496 42.6805 70.1057 39.8206 71.7395C36.5167 73.6391 32.8338 75.0615 29.2159 76.2439C27.724 76.7331 25.7852 77.1499 24.2102 76.6395C24.0407 76.5854 23.8752 76.5193 23.7149 76.4417C22.1445 75.6716 21.0936 74.0574 20.2737 72.5821C16.3477 65.5229 14.7169 57.4172 13.8577 49.39C15.576 49.1529 17.2884 48.8887 18.9796 48.5248C18.9796 48.5248 18.9796 48.5369 18.9902 48.5414L20.9396 51.7743L21.0996 52.0431C21.5224 52.6471 22.2548 52.8087 22.9539 52.7483C23.3984 52.7262 23.8255 52.5681 24.177 52.2953C25.2612 51.3893 24.2434 50.1601 23.6817 49.2949" fill="#2079FF"/>
<path opacity="0.77" d="M25.7837 52.0582C26.4526 52.9642 27.5957 52.8495 28.541 52.2289C29.1117 51.8514 29.5798 51.9616 29.0982 50.7974C29.1872 50.9242 29.1993 50.4954 29.2778 50.5905C30.2518 51.9133 29.2899 50.0439 29.2899 50.0439C30.6489 51.7608 33.607 50.1436 33.0649 48.8163C32.4911 47.3863 31.8871 45.2723 31.1216 44.2153C31.7256 43.6445 31.6093 43.7291 32.3779 44.1836C32.5843 44.3162 32.7572 44.4951 32.8827 44.706C33.0083 44.917 33.083 45.1542 33.1012 45.3991C33.1631 45.9744 33.225 46.5256 33.2869 47.0873L33.8758 52.3723C34.0736 54.1284 34.2699 55.9027 34.6972 57.612C34.9181 58.5363 35.2245 59.438 35.6123 60.3058C36.1529 61.5003 37.8894 63.4889 38.8377 64.3995C40.017 63.2292 41.4303 61.0775 42.2956 59.6475C43.9566 60.1579 43.8841 61.7464 44.0019 63.4814V63.5267C44.3371 66.6811 41.299 69.0503 38.7531 70.5104C35.8026 72.2062 32.5153 73.4746 29.2854 74.5316C27.9536 74.9695 26.2231 75.347 24.8173 74.8849C24.6657 74.837 24.5177 74.7778 24.3749 74.7082C22.9736 74.0197 22.0344 72.5806 21.302 71.2624C18.0963 65.5048 16.6089 58.968 15.7905 52.4146C15.7304 51.9241 15.8632 51.4298 16.1606 51.0354C16.4581 50.6409 16.8971 50.3774 17.3851 50.3006C18.3047 50.1496 19.2212 49.9986 20.1318 49.7963L20.1574 49.8083L21.897 52.6939C22.276 53.23 22.3379 52.8102 22.9615 52.7558C23.3556 52.7211 24.1197 52.6441 24.4247 52.3889C25.3926 51.5826 24.846 51.2489 24.3447 50.4773" fill="#2079FF"/>
</g>
<path d="M57.9933 79.8046C57.9933 79.8046 52.9786 78.1556 52.9031 80.928" stroke="black" stroke-miterlimit="10"/>
<path opacity="0.54" d="M13.1057 108.045L3.27103 82.8495C3.14917 82.362 3.14011 81.8531 3.2443 81.3614C3.34864 80.8699 3.56366 80.4085 3.87291 80.0124C4.18231 79.6163 4.57778 79.2959 5.02957 79.0756C5.48121 78.8553 5.97725 78.7408 6.47978 78.7408H45.5435C46.4206 78.7407 47.2723 79.0359 47.9613 79.5789C48.6501 80.1217 49.1362 80.8808 49.3411 81.7337L60.1074 106.923C60.2238 107.409 60.2285 107.915 60.1213 108.403C60.014 108.891 59.7976 109.349 59.4882 109.741C59.1788 110.134 58.7845 110.451 58.335 110.669C57.8855 110.887 57.3923 111 56.8926 111H16.8942C16.0236 111.001 15.1778 110.71 14.4914 110.175C13.8049 109.64 13.3172 108.89 13.1057 108.045Z" fill="white"/>
<path d="M59.6256 84.0546C59.6256 84.0546 60.4395 84.8005 60.13 85.8666C59.9004 86.6563 59.1152 87.1546 58.3376 86.8843C55.8612 86.0282 53.6309 84.5741 53.0873 82.1022C52.8305 80.8507 52.7749 79.5661 52.9227 78.297C53.042 77.1207 53.2157 75.8508 53.6113 74.7319C54.2153 73.0135 56.065 71.8161 57.8604 72.6435" stroke="black" stroke-miterlimit="10"/>
<path d="M13.1057 108.045L3.27103 82.8495C3.14917 82.362 3.14011 81.8531 3.2443 81.3614C3.34864 80.8699 3.56366 80.4085 3.87291 80.0124C4.18231 79.6163 4.57778 79.2959 5.02957 79.0756C5.48121 78.8553 5.97725 78.7408 6.47978 78.7408H45.5435C46.4206 78.7407 47.2723 79.0359 47.9613 79.5789C48.6501 80.1217 49.1362 80.8808 49.3411 81.7337L60.1074 106.923C60.2238 107.409 60.2285 107.915 60.1213 108.403C60.014 108.891 59.7976 109.349 59.4882 109.741C59.1788 110.134 58.7845 110.451 58.335 110.669C57.8855 110.887 57.3923 111 56.8926 111H16.8942C16.0236 111.001 15.1778 110.71 14.4914 110.175C13.8049 109.64 13.3172 108.89 13.1057 108.045Z" fill="#2079FF"/>
<path d="M13.1057 108.045L3.27103 82.8495C3.14917 82.362 3.14011 81.8531 3.2443 81.3614C3.34864 80.8699 3.56366 80.4085 3.87291 80.0124C4.18231 79.6163 4.57778 79.2959 5.02957 79.0756C5.48121 78.8553 5.97725 78.7408 6.47978 78.7408H45.5435C46.4206 78.7407 47.2723 79.0359 47.9613 79.5789C48.6501 80.1217 49.1362 80.8808 49.3411 81.7337L60.1074 106.923C60.2238 107.409 60.2285 107.915 60.1213 108.403C60.014 108.891 59.7976 109.349 59.4882 109.741C59.1788 110.134 58.7845 110.451 58.335 110.669C57.8855 110.887 57.3923 111 56.8926 111H16.8942C16.0236 111.001 15.1778 110.71 14.4914 110.175C13.8049 109.64 13.3172 108.89 13.1057 108.045Z" stroke="black" stroke-linecap="square" stroke-linejoin="round"/>
<path d="M14.5446 107.031L5.47104 83.7767C5.35885 83.3268 5.35069 82.8574 5.44703 82.4039C5.54337 81.9505 5.74178 81.5248 6.02732 81.1595C6.31271 80.7943 6.67768 80.4988 7.09429 80.2955C7.51105 80.0923 7.96858 79.9866 8.43215 79.9866H44.4698C45.2789 79.9863 46.0645 80.2585 46.7001 80.7592C47.3356 81.26 47.7841 81.9601 47.973 82.7468L57.9073 105.987C58.0145 106.436 58.0187 106.903 57.9197 107.353C57.8206 107.803 57.6207 108.225 57.3352 108.587C57.0498 108.949 56.6859 109.242 56.2711 109.443C55.8563 109.644 55.4012 109.749 54.9402 109.749H18.0388C17.2368 109.749 16.4577 109.482 15.8248 108.99C15.1918 108.498 14.7414 107.808 14.5446 107.031Z" fill="#2079FF"/>
<path d="M91.6709 103.383L98.5807 119.372" stroke="black" stroke-miterlimit="10"/>
<path d="M60.1799 47.2062C59.0595 48.313 57.3864 48.3115 56.4336 47.2877" stroke="black" stroke-miterlimit="10"/>
<path d="M30.3196 43.028C30.9311 42.4557 31.6574 41.8774 32.423 42.1311C33.249 42.4059 33.48 43.4418 33.5736 44.3055C33.8383 46.6792 34.1026 49.0505 34.3664 51.4193C34.7016 54.4393 35.0549 57.5316 36.3098 60.307C36.9166 61.6634 37.7741 62.893 38.8375 63.931" stroke="black" stroke-miterlimit="10"/>
<path d="M45.7094 63.9128V63.863C45.625 62.8898 45.2563 61.9628 44.6494 61.1974C44.0424 60.4321 43.2237 59.8619 42.2953 59.558C41.3249 61.1527 40.1637 62.6233 38.8374 63.937C35.3604 67.3944 30.8936 69.6842 26.0568 70.4889C26.2893 71.4145 26.768 72.2571 27.0987 73.148C27.4294 74.0389 27.594 75.0702 27.1923 75.9294C26.685 77.0257 25.2293 76.8822 24.2176 76.6391C24.207 76.6391 24.201 76.6391 24.1904 76.6391" stroke="black" stroke-miterlimit="10"/>
<path d="M18.9825 48.5232C17.2913 48.8871 15.579 49.1514 13.8606 49.3884C14.7198 57.4156 16.3445 65.5213 20.2766 72.5805C21.0965 74.0558 22.1475 75.67 23.7179 76.4401C23.8781 76.5178 24.0436 76.584 24.2132 76.6379C25.7881 77.1558 27.7269 76.7315 29.2188 76.2423C32.8428 75.0584 36.5197 73.6375 39.8235 71.7379C42.6759 70.1026 46.0795 67.448 45.7125 63.9131C45.677 63.5238 45.5975 63.1398 45.4755 62.7685" stroke="black" stroke-miterlimit="10"/>
<path d="M47.2617 32.5108C47.5151 33.5675 48.0936 34.5179 48.9158 35.2282C49.738 35.9386 50.7624 36.3729 51.8446 36.47C51.9344 36.0342 52.1294 35.6266 52.4123 35.2833C53.6203 33.8593 54.1352 36.5305 57.9993 34.6128C63.3538 31.9492 65.3862 33.4773 65.3862 33.4773C65.5644 33.6102 65.5372 34.8362 65.5674 35.0596C65.7184 36.3326 65.8543 37.5995 66.0038 38.8709C66.0944 39.647 66.1835 40.4173 66.2681 41.1874C66.341 41.0563 66.4217 40.9296 66.5097 40.8082C66.9974 39.0823 67.8687 37.0439 69.7471 37.9212C70.1275 38.1067 70.4586 38.3792 70.7135 38.7169C71.9593 40.3537 71.0155 41.9347 69.7124 43.1049C69.3858 43.4681 69.0207 43.7945 68.6237 44.079C68.8381 44.523 69.7139 46.2851 69.7139 46.2912C69.8045 46.4694 72.8653 43.0053 73.0933 42.6278C73.4339 41.703 73.6167 40.7276 73.6339 39.7423C73.6837 35.691 72.0348 30.9751 68.7536 28.6512C67.9397 28.0759 68.1994 27.5217 68.1496 26.7395C68.1461 26.6973 68.1299 26.6571 68.103 26.6242C68.0763 26.5913 68.0401 26.5672 67.9995 26.5553C67.9587 26.5434 67.9153 26.5441 67.875 26.5573C67.8347 26.5706 67.7994 26.5956 67.7736 26.6295C66.7452 27.8133 64.1994 27.6955 64.1994 27.6955C55.3629 25.4819 52.3927 29.4109 50.6094 30.1115C49.8817 30.3871 49.0808 30.4004 48.3444 30.1493C48.301 30.393 48.1919 30.6202 48.0288 30.8066C47.8656 30.9929 47.6548 31.1311 47.4188 31.2063L47.4641 31.6153C47.5026 31.9284 47.431 32.2449 47.2617 32.5108Z" fill="#2079FF"/>
<path d="M51.8507 36.4766C50.7684 36.3794 49.7441 35.9451 48.9219 35.2348C48.0997 34.5245 47.521 33.5739 47.2678 32.5174C47.1686 32.1121 47.1059 31.6987 47.0806 31.2822L47.15 31.2747C47.245 31.2676 47.3385 31.2472 47.4279 31.2143C47.6639 31.1391 47.8747 31.0009 48.0379 30.8146C48.201 30.6284 48.3102 30.401 48.3535 30.1573C48.3811 30.0221 48.3867 29.8833 48.3701 29.7465L48.1436 27.7473C48.1436 27.7473 49.7412 28.9357 51.5139 28.2411C53.2867 27.5465 56.2629 23.6174 65.1039 25.8251C65.1039 25.8251 67.1001 25.9428 68.1239 24.759C68.1497 24.7252 68.1851 24.7001 68.2254 24.687C68.2657 24.6737 68.3091 24.6731 68.3498 24.685C68.3904 24.6969 68.4267 24.721 68.4534 24.7537C68.4803 24.7866 68.4964 24.827 68.4999 24.8692C68.5528 25.6529 68.8427 26.2071 69.6581 26.7809C72.9393 29.1063 74.5882 33.8205 74.5369 37.8718C74.5218 39.5525 73.9631 41.212 73.1009 42.6359C72.8729 43.0134 69.8121 46.4773 69.7215 46.2992C69.7215 46.2992 68.8457 44.5309 68.6313 44.087L68.5799 43.9889L68.6781 43.9239C69.0426 43.6764 69.3907 43.4055 69.72 43.1131C71.0216 41.9428 71.9669 40.3618 70.7211 38.725C70.4661 38.3874 70.1351 38.1147 69.7547 37.9292C67.8703 37.0519 67.005 39.0904 66.5173 40.8163C66.4226 41.1461 66.3643 41.4854 66.3436 41.828C66.321 41.6166 66.2983 41.4128 66.2757 41.2014C66.1911 40.4313 66.102 39.6612 66.0114 38.8851C65.8604 37.6136 65.7185 36.3467 65.575 35.0738C65.5524 34.8564 65.5751 33.6242 65.3939 33.4913C65.3939 33.4913 63.3599 31.9632 58.0069 34.6269C54.1428 36.5446 53.6279 33.8719 52.4199 35.2973C52.137 35.6408 51.942 36.0482 51.8522 36.4842C51.8245 36.6241 51.8069 36.7659 51.7993 36.9085C51.7964 36.9269 51.7964 36.9458 51.7993 36.9643C51.7812 37.2769 51.7752 37.588 51.7676 37.893C51.7389 40.836 52.0621 43.9103 53.2172 46.6434C54.6215 49.9564 58.3376 53.224 62.2017 51.6793C63.4097 51.1946 64.4924 50.4139 65.4829 49.5849" stroke="black" stroke-miterlimit="10"/>
<path d="M54.4949 43.6543C54.8792 43.5256 55.0646 43.0444 54.9091 42.5795C54.7536 42.1144 54.3158 41.8417 53.9314 41.9703C53.5471 42.0988 53.3617 42.5801 53.5172 43.0451C53.6729 43.5102 54.1106 43.7829 54.4949 43.6543Z" fill="black"/>
<path d="M60.2444 43.4702C60.6287 43.3417 60.8141 42.8605 60.6586 42.3954C60.5029 41.9303 60.0653 41.6576 59.6809 41.7862C59.2966 41.9149 59.1112 42.3961 59.2667 42.8611C59.4222 43.3261 59.86 43.5988 60.2444 43.4702Z" fill="black"/>
<path d="M58.0461 44.466C58.0461 44.466 56.133 45.5517 56.0167 44.4253C55.9805 44.078 55.5124 40.6759 55.5124 40.6759C55.5124 40.6759 53.9661 39.0376 51.5969 40.2486" stroke="black" stroke-miterlimit="10"/>
<path d="M57.616 39.7227C57.616 39.7227 60.7054 38.1794 62.75 40.4037" stroke="black" stroke-miterlimit="10"/>
<path d="M60.4487 52.0581L60.8036 53.8792C59.6847 54.9105 58.8934 56.3888 59.1245 57.9456C59.3298 59.3257 60.4593 60.6107 61.6175 61.334C63.5533 62.542 66.1278 62.4469 68.2116 61.6783C70.2486 60.9233 72.0108 59.4903 73.2883 57.7417C73.8898 56.8964 74.2906 55.9251 74.46 54.9014V54.8833" stroke="black" stroke-miterlimit="10"/>
<path d="M60.8035 53.879L61.495 57.1678" stroke="black" stroke-miterlimit="10"/>
<path d="M70.5838 45.5062L71.6287 52.4447C71.7316 53.1239 72.075 53.7436 72.5963 54.191C73.1175 54.6386 73.7819 54.8842 74.469 54.8833C77.7211 55.4103 80.9291 56.1795 84.0665 57.1846C96.3232 61.1377 103.867 72.1789 105.998 84.5156C106.884 89.6813 106.951 95.0992 105.838 100.236C105.205 103.128 104.29 106.376 102.165 108.541C99.4066 111.365 95.1726 110.202 91.9125 108.926C81.791 104.99 73.3727 97.9863 66.1036 89.9682C62.2168 85.6798 57.1946 82.243 57.1946 82.243" stroke="black" stroke-miterlimit="10"/>
<path d="M17.8892 101.826C16.7537 101.816 15.7646 100.899 15.5094 99.6233C15.0051 97.1137 14.8722 93.233 18.5521 92.3859C23.15 91.3289 26.6864 96.336 28.4199 99.501C29.0028 100.558 28.3429 101.917 27.2572 101.917L17.8892 101.826Z" fill="#D7E8F0"/>
<path d="M19.4073 90.255C20.3833 89.6054 20.3984 87.912 19.4406 86.4729C18.483 85.0335 16.9153 84.3933 15.9391 85.0429C14.9629 85.6925 14.9479 87.3858 15.9056 88.825C16.8634 90.2643 18.431 90.9046 19.4073 90.255Z" fill="#D7E8F0"/>
<path d="M94.9703 112.787C94.8993 112.797 94.8193 112.808 94.7498 112.825H94.7226L83.982 112.769L67.8658 112.686C67.8039 112.686 67.7435 112.686 67.6831 112.686C67.5633 112.683 67.4439 112.674 67.3252 112.659C68.4171 112.532 69.4292 112.024 70.1836 111.224C70.9379 110.425 71.386 109.385 71.449 108.287C71.452 108.23 71.452 108.173 71.449 108.116V108.029C71.4446 106.955 71.0704 105.916 70.3894 105.085C69.7086 104.255 68.7624 103.685 67.7102 103.47C67.6 103.443 67.4792 103.426 67.3629 103.41C67.5457 103.393 67.7269 103.381 67.9035 103.381L81.5192 103.454L84.0258 103.464L87.4067 103.481C88.5642 103.586 89.6409 104.12 90.4259 104.977C91.2108 105.835 91.6478 106.954 91.6513 108.116C91.6514 108.336 91.6348 108.555 91.6015 108.772C91.4405 109.878 90.8877 110.891 90.0436 111.624C89.1995 112.358 88.1203 112.764 87.002 112.769H95.1832C94.7121 112.769 94.8434 112.769 94.9703 112.787Z" fill="white"/>
<path d="M73.1839 118.403C73.4907 118.712 73.8557 118.956 74.2576 119.123C74.6597 119.289 75.0908 119.374 75.5259 119.373H67.6165C66.1065 119.373 65.282 119.004 64.681 118.403C64.0635 117.783 63.7157 116.944 63.7131 116.069C63.7131 114.257 65.199 112.771 67.6165 112.771H75.5259C74.8729 112.77 74.2344 112.963 73.6911 113.325C73.1478 113.687 72.7242 114.203 72.4743 114.806C72.2242 115.409 72.1589 116.073 72.2866 116.713C72.4142 117.354 72.7292 117.942 73.1914 118.403H73.1839Z" fill="#D7E8F0"/>
<path d="M99.3054 108.199C99.3034 108.897 99.1411 109.585 98.8313 110.209C98.6099 110.682 98.3062 111.111 97.9343 111.476C97.3211 112.084 96.551 112.509 95.7101 112.704C95.3634 112.784 95.0088 112.824 94.6531 112.825C94.7256 112.808 94.8041 112.797 94.8735 112.787C94.7467 112.775 94.6153 112.77 95.088 112.77H86.9053C88.0243 112.766 89.1046 112.36 89.9493 111.626C90.794 110.892 91.3471 109.879 91.5078 108.772C91.5411 108.555 91.5577 108.336 91.5576 108.116C91.5541 106.954 91.117 105.834 90.3316 104.977C89.5463 104.12 88.4693 103.586 87.3115 103.481L91.7282 103.503L94.6788 103.52C95.9118 103.53 97.0905 104.028 97.9574 104.905C98.8245 105.782 99.309 106.966 99.3054 108.199Z" fill="#2079FF"/>
<path d="M99.3055 108.198C99.2963 109.432 98.7986 110.612 97.9211 111.479C97.0438 112.347 95.8583 112.831 94.6245 112.826L67.7586 112.687C67.5789 112.687 67.3992 112.674 67.218 112.656C68.3505 112.527 69.3965 111.988 70.158 111.14C70.9193 110.292 71.3432 109.194 71.3492 108.054C71.3551 106.915 70.9427 105.812 70.1903 104.956C69.4377 104.1 68.3975 103.55 67.2663 103.41C67.4459 103.391 67.6263 103.382 67.8069 103.383L94.6728 103.522C95.9065 103.53 97.0866 104.027 97.9548 104.903C98.8231 105.78 99.3087 106.965 99.3055 108.198Z" stroke="black" stroke-linecap="square" stroke-linejoin="round"/>
<path d="M91.5546 108.115C91.5522 109.349 91.0611 110.531 90.1888 111.403C89.3166 112.275 88.1343 112.766 86.9008 112.769H67.7857C67.6051 112.768 67.4247 112.758 67.2451 112.739C68.3767 112.604 69.4198 112.059 70.1768 111.208C70.9336 110.355 71.3516 109.255 71.3516 108.116C71.3516 106.976 70.9336 105.876 70.1768 105.024C69.4198 104.172 68.3767 103.627 67.2451 103.493C67.4248 103.476 67.606 103.464 67.7857 103.464H86.9008C88.1337 103.467 89.3153 103.958 90.1875 104.829C91.0595 105.701 91.551 106.882 91.5546 108.115Z" stroke="black" stroke-linecap="square" stroke-linejoin="round"/>
<path d="M63.7131 116.07C63.713 116.503 63.7983 116.931 63.9641 117.332C64.13 117.732 64.373 118.095 64.6795 118.401C65.2835 119.005 66.1035 119.372 67.615 119.372H95.0864C94.6138 119.372 94.7421 119.363 94.8705 119.351C94.0667 119.256 93.3256 118.87 92.7877 118.265C92.2499 117.66 91.9528 116.879 91.9528 116.07C91.9528 115.26 92.2499 114.479 92.7877 113.874C93.3256 113.269 94.0667 112.883 94.8705 112.788C94.7421 112.776 94.6138 112.767 95.0864 112.767H67.615C65.1959 112.769 63.7131 114.255 63.7131 116.07Z" stroke="black" stroke-linecap="square" stroke-linejoin="round"/>
<path d="M72.2146 116.07C72.2166 116.945 72.5652 117.784 73.184 118.403C73.803 119.021 74.6418 119.37 75.517 119.372H94.4871C94.6139 119.372 94.7423 119.363 94.8706 119.351C94.0669 119.256 93.3258 118.87 92.7879 118.265C92.25 117.66 91.953 116.879 91.953 116.07C91.953 115.26 92.25 114.479 92.7879 113.874C93.3258 113.269 94.0669 112.883 94.8706 112.788C94.7423 112.776 94.6139 112.767 94.4871 112.767H75.517C74.6419 112.77 73.8033 113.118 73.1845 113.737C72.5657 114.356 72.217 115.195 72.2146 116.07Z" stroke="black" stroke-linecap="square" stroke-linejoin="round"/>
<path d="M41.4635 90.874H32.9893C32.6016 90.8734 32.2224 90.7599 31.8981 90.5476C31.5737 90.3353 31.3181 90.0333 31.1623 89.6781C31.1022 89.546 31.0763 89.4007 31.0875 89.2559C31.0985 89.1111 31.1461 88.9716 31.2257 88.85C31.3052 88.7286 31.4143 88.6293 31.5426 88.5612C31.671 88.4932 31.8143 88.4588 31.9595 88.461H40.9682C40.5439 89.1753 40.7598 90.1673 41.4635 90.874Z" fill="#D7E8F0"/>
<path d="M46.9431 90.0009C46.9426 90.2319 46.8508 90.4533 46.6875 90.6165C46.5242 90.7799 46.3029 90.8719 46.0718 90.8722H41.4633C40.7597 90.167 40.5437 89.1749 40.968 88.4562H45.0375C45.4248 88.4563 45.8037 88.5688 46.1283 88.7799C46.4528 88.9912 46.7092 89.2921 46.8661 89.6461C46.9149 89.7583 46.941 89.8788 46.9431 90.0009Z" fill="#2079FF"/>
<path d="M44.8231 90.8738C44.7992 90.9199 44.7714 90.9638 44.74 91.0052C44.136 91.8312 42.8238 91.9112 41.8046 91.1653C41.6841 91.0763 41.5701 90.9789 41.4633 90.8738C40.7597 90.1687 40.5437 89.1766 40.968 88.4578C40.9919 88.4118 41.0197 88.3678 41.0511 88.3265C41.6551 87.4945 42.9612 87.4205 43.9805 88.1604C44.1032 88.2522 44.2188 88.3532 44.3263 88.4624C45.0239 89.1645 45.2413 90.1505 44.8231 90.8738Z" fill="white"/>
<path d="M49.0739 95.3211C49.0722 95.5523 48.9794 95.7735 48.8152 95.9365C48.6512 96.0994 48.4293 96.1909 48.1981 96.1909H39.3057C39.7345 95.4691 39.5201 94.4846 38.8149 93.7749H47.1683C47.5562 93.7751 47.9355 93.888 48.2603 94.1C48.5849 94.3122 48.8409 94.6142 48.9969 94.9693C49.0467 95.08 49.0728 95.1997 49.0739 95.3211Z" fill="#2079FF"/>
<path d="M39.3057 96.1904H35.1214C34.7341 96.1907 34.355 96.0784 34.0303 95.8671C33.7057 95.6559 33.4494 95.3548 33.2928 95.0005C33.2435 94.8897 33.2173 94.7701 33.2158 94.6487C33.2157 94.5345 33.238 94.4213 33.2817 94.3156C33.3253 94.21 33.3893 94.1142 33.4701 94.0332C33.5509 93.9524 33.6469 93.8884 33.7525 93.8448C33.8582 93.8011 33.9713 93.7788 34.0856 93.7789H38.8149C39.5201 94.4841 39.739 95.4686 39.3057 96.1904Z" fill="#D7E8F0"/>
<path d="M39.3057 96.1906C39.2861 96.238 39.2601 96.2827 39.2287 96.3235C38.6247 97.154 37.317 97.2295 36.2993 96.4881C36.1761 96.3962 36.0601 96.2952 35.952 96.1861C35.2529 95.4809 35.0385 94.4964 35.4567 93.7701C35.4809 93.7235 35.5087 93.6791 35.5398 93.6372C36.1438 92.8112 37.456 92.7312 38.4737 93.4786C38.595 93.5667 38.709 93.664 38.815 93.7701C39.5201 94.4843 39.7391 95.4688 39.3057 96.1906Z" fill="white"/>
<path d="M42.2683 101.471H36.944C36.5569 101.471 36.1782 101.358 35.8537 101.147C35.529 100.936 35.2726 100.635 35.1154 100.281C35.0555 100.149 35.03 100.003 35.0411 99.8584C35.0525 99.7133 35.1 99.5734 35.1796 99.4516C35.2593 99.3299 35.3684 99.23 35.4967 99.1616C35.6252 99.0931 35.7687 99.0582 35.9142 99.0599H41.773C41.3532 99.7832 41.5692 100.766 42.2683 101.471Z" fill="#2079FF"/>
<path d="M50.8962 100.607C50.895 100.837 50.8028 101.057 50.6398 101.219C50.4768 101.381 50.2562 101.471 50.0265 101.471H42.2681C41.569 100.766 41.353 99.7815 41.7728 99.0552H48.9906C49.3784 99.0552 49.7579 99.1683 50.0827 99.3803C50.4073 99.5924 50.6632 99.8944 50.8192 100.25C50.8689 100.362 50.8952 100.484 50.8962 100.607Z" fill="#D7E8F0"/>
<path d="M45.628 101.471C45.6039 101.518 45.5761 101.562 45.545 101.604C44.941 102.435 43.6348 102.51 42.6156 101.769C42.4931 101.677 42.3776 101.576 42.2698 101.467C41.5707 100.762 41.3548 99.7772 41.7745 99.0508C41.7976 99.0042 41.8248 98.9596 41.8561 98.918C42.4601 98.092 43.7723 98.021 44.7915 98.7594C44.9126 98.8474 45.0268 98.9448 45.1328 99.0508C45.8364 99.7651 46.0508 100.756 45.628 101.471Z" fill="white"/>
<path d="M5.40308 53.3311L5.53596 53.3688L5.48613 53.5621C5.45457 53.4866 5.42678 53.4094 5.40308 53.3311Z" fill="#353642"/>
<path d="M29.034 65.4116C31.0218 64.8282 32.0661 62.424 31.3668 60.0418C30.6675 57.6598 28.4894 56.2016 26.5017 56.785C24.514 57.3686 23.4697 59.7727 24.1689 62.1549C24.8682 64.5371 27.0464 65.9951 29.034 65.4116Z" fill="#D7E8F0"/>
</svg>
