<svg width="80" height="80" viewBox="0 0 80 80" fill="none" xmlns="http://www.w3.org/2000/svg">
<g clip-path="url(#clip0_100_671)">
<g filter="url(#filter0_d_100_671)">
<path d="M6.67988 73.3332L11.1865 56.7732C8.21701 51.6827 6.65687 45.8931 6.66655 39.9998C6.66655 21.5898 21.5899 6.6665 39.9999 6.6665C58.4099 6.6665 73.3332 21.5898 73.3332 39.9998C73.3332 58.4098 58.4099 73.3332 39.9999 73.3332C34.1091 73.3427 28.3221 71.7837 23.2332 68.8165L6.67988 73.3332ZM27.9699 24.3598C27.5394 24.3866 27.1188 24.4999 26.7332 24.6932C26.3716 24.8979 26.0415 25.1539 25.7532 25.4532C25.3532 25.8298 25.1265 26.1565 24.8832 26.4732C23.6513 28.0765 22.9886 30.0446 22.9999 32.0665C23.0065 33.6998 23.4332 35.2898 24.0999 36.7765C25.4632 39.7832 27.7065 42.9665 30.6699 45.9165C31.3832 46.6265 32.0799 47.3398 32.8299 48.0032C36.5078 51.2414 40.8907 53.5766 45.6299 54.8232L47.5266 55.1132C48.1432 55.1465 48.7599 55.0998 49.3799 55.0698C50.3507 55.0197 51.2986 54.7569 52.1565 54.2998C52.5931 54.075 53.0191 53.8303 53.4332 53.5665C53.4332 53.5665 53.5765 53.4732 53.8499 53.2665C54.2999 52.9332 54.5765 52.6965 54.9499 52.3065C55.2266 52.0198 55.4665 51.6832 55.6499 51.2998C55.9099 50.7565 56.1699 49.7198 56.2765 48.8565C56.3565 48.1965 56.3332 47.8365 56.3232 47.6132C56.3099 47.2565 56.0132 46.8865 55.6899 46.7298L53.7499 45.8598C53.7499 45.8598 50.8499 44.5965 49.0799 43.7898C48.8933 43.7085 48.6933 43.6622 48.4899 43.6532C48.2618 43.6297 48.0314 43.6554 47.814 43.7284C47.5967 43.8014 47.3975 43.9201 47.2299 44.0765V44.0698C47.2132 44.0698 46.9899 44.2598 44.5799 47.1798C44.4416 47.3657 44.251 47.5062 44.0326 47.5834C43.8141 47.6605 43.5776 47.6709 43.3532 47.6132C43.136 47.5551 42.9233 47.4816 42.7165 47.3932C42.3032 47.2198 42.1599 47.1532 41.8765 47.0298L41.8599 47.0232C39.9529 46.1906 38.1873 45.066 36.6265 43.6898C36.2065 43.3232 35.8165 42.9232 35.4165 42.5365C34.1051 41.2806 32.9623 39.8599 32.0165 38.3098L31.8199 37.9932C31.6786 37.7804 31.5644 37.5508 31.4799 37.3098C31.3532 36.8198 31.6832 36.4265 31.6832 36.4265C31.6832 36.4265 32.4932 35.5398 32.8699 35.0598C33.1835 34.6609 33.4761 34.2459 33.7465 33.8165C34.1399 33.1832 34.2632 32.5332 34.0565 32.0298C33.1232 29.7498 32.1565 27.4798 31.1632 25.2265C30.9665 24.7798 30.3832 24.4598 29.8532 24.3965C29.6732 24.3765 29.4932 24.3565 29.3132 24.3432C28.8656 24.3209 28.417 24.3287 27.9699 24.3598Z" fill="#25D366"/>
</g>
</g>
<defs>
<filter id="filter0_d_100_671" x="-3.3335" y="-3.3335" width="86.6667" height="86.6665" filterUnits="userSpaceOnUse" color-interpolation-filters="sRGB">
<feFlood flood-opacity="0" result="BackgroundImageFix"/>
<feColorMatrix in="SourceAlpha" type="matrix" values="0 0 0 0 0 0 0 0 0 0 0 0 0 0 0 0 0 0 127 0" result="hardAlpha"/>
<feOffset/>
<feGaussianBlur stdDeviation="5"/>
<feComposite in2="hardAlpha" operator="out"/>
<feColorMatrix type="matrix" values="0 0 0 0 0 0 0 0 0 0 0 0 0 0 0 0 0 0 0.25 0"/>
<feBlend mode="normal" in2="BackgroundImageFix" result="effect1_dropShadow_100_671"/>
<feBlend mode="normal" in="SourceGraphic" in2="effect1_dropShadow_100_671" result="shape"/>
</filter>
<clipPath id="clip0_100_671">
<rect width="80" height="80" fill="white"/>
</clipPath>
</defs>
</svg>
