<svg width="80" height="80" viewBox="0 0 80 80" fill="none" xmlns="http://www.w3.org/2000/svg">
<g clip-path="url(#clip0_91_172)">
<g filter="url(#filter0_d_91_172)">
<path d="M50 40C50 41.9778 49.4135 43.9112 48.3147 45.5557C47.2159 47.2002 45.6541 48.4819 43.8268 49.2388C41.9996 49.9957 39.9889 50.1937 38.0491 49.8079C36.1093 49.422 34.3275 48.4696 32.9289 47.0711C31.5304 45.6725 30.578 43.8907 30.1921 41.9509C29.8063 40.0111 30.0043 38.0004 30.7612 36.1732C31.5181 34.3459 32.7998 32.7841 34.4443 31.6853C36.0888 30.5865 38.0222 30 40 30C42.6496 30.0082 45.1884 31.0645 47.062 32.938C48.9355 34.8116 49.9918 37.3504 50 40ZM71.25 26.25V53.75C71.25 58.3913 69.4063 62.8425 66.1244 66.1244C62.8425 69.4063 58.3913 71.25 53.75 71.25H26.25C21.6087 71.25 17.1575 69.4063 13.8756 66.1244C10.5937 62.8425 8.75 58.3913 8.75 53.75V26.25C8.75 21.6087 10.5937 17.1575 13.8756 13.8756C17.1575 10.5937 21.6087 8.75 26.25 8.75H53.75C58.3913 8.75 62.8425 10.5937 66.1244 13.8756C69.4063 17.1575 71.25 21.6087 71.25 26.25ZM55 40C55 37.0333 54.1203 34.1332 52.472 31.6664C50.8238 29.1997 48.4811 27.2771 45.7403 26.1418C42.9994 25.0065 39.9834 24.7094 37.0736 25.2882C34.1639 25.867 31.4912 27.2956 29.3934 29.3934C27.2956 31.4912 25.867 34.1639 25.2882 37.0736C24.7094 39.9834 25.0065 42.9994 26.1418 45.7403C27.2771 48.4811 29.1997 50.8238 31.6664 52.472C34.1332 54.1203 37.0333 55 40 55C43.9782 55 47.7936 53.4196 50.6066 50.6066C53.4196 47.7936 55 43.9782 55 40ZM60 23.75C60 23.0083 59.7801 22.2833 59.368 21.6666C58.956 21.0499 58.3703 20.5693 57.6851 20.2855C56.9998 20.0016 56.2458 19.9274 55.5184 20.0721C54.791 20.2167 54.1228 20.5739 53.5984 21.0983C53.0739 21.6228 52.7167 22.291 52.5721 23.0184C52.4274 23.7458 52.5016 24.4998 52.7855 25.1851C53.0693 25.8703 53.5499 26.456 54.1666 26.868C54.7833 27.2801 55.5083 27.5 56.25 27.5C57.2446 27.5 58.1984 27.1049 58.9016 26.4017C59.6049 25.6984 60 24.7446 60 23.75Z" fill="url(#paint0_linear_91_172)"/>
</g>
</g>
<defs>
<filter id="filter0_d_91_172" x="-1.25" y="-1.25" width="82.5" height="82.5" filterUnits="userSpaceOnUse" color-interpolation-filters="sRGB">
<feFlood flood-opacity="0" result="BackgroundImageFix"/>
<feColorMatrix in="SourceAlpha" type="matrix" values="0 0 0 0 0 0 0 0 0 0 0 0 0 0 0 0 0 0 127 0" result="hardAlpha"/>
<feOffset/>
<feGaussianBlur stdDeviation="5"/>
<feComposite in2="hardAlpha" operator="out"/>
<feColorMatrix type="matrix" values="0 0 0 0 0 0 0 0 0 0 0 0 0 0 0 0 0 0 0.25 0"/>
<feBlend mode="normal" in2="BackgroundImageFix" result="effect1_dropShadow_91_172"/>
<feBlend mode="normal" in="SourceGraphic" in2="effect1_dropShadow_91_172" result="shape"/>
</filter>
<linearGradient id="paint0_linear_91_172" x1="40" y1="8.75" x2="40" y2="71.25" gradientUnits="userSpaceOnUse">
<stop stop-color="#9747FF"/>
<stop offset="0.354167" stop-color="#3F56A8"/>
<stop offset="0.744792" stop-color="#D826E1"/>
<stop offset="1" stop-color="#AB3434"/>
</linearGradient>
<clipPath id="clip0_91_172">
<rect width="80" height="80" fill="white"/>
</clipPath>
</defs>
</svg>
