<svg width="80" height="80" viewBox="0 0 80 80" fill="none" xmlns="http://www.w3.org/2000/svg">
  <g clip-path="url(#clip0_386_152)">
    <g filter="url(#filter0_d_386_152)">
      <path d="M56.8516 9H23.6484C15.5583 9 9 15.5583 9 23.6484V56.8516C9 64.9417 15.5583 71.5 23.6484 71.5H56.8516C64.9417 71.5 71.5 64.9417 71.5 56.8516V23.6484C71.5 15.5583 64.9417 9 56.8516 9Z" fill="url(#paint0_radial_386_152)"/>
      <path d="M56.8516 9H23.6484C15.5583 9 9 15.5583 9 23.6484V56.8516C9 64.9417 15.5583 71.5 23.6484 71.5H56.8516C64.9417 71.5 71.5 64.9417 71.5 56.8516V23.6484C71.5 15.5583 64.9417 9 56.8516 9Z" fill="url(#paint1_radial_386_152)"/>
      <path d="M40.2522 15.8359C33.6218 15.8359 32.7896 15.865 30.1855 15.9834C27.5864 16.1025 25.8123 16.5139 24.26 17.1177C22.6541 17.7412 21.292 18.5754 19.9351 19.9329C18.5769 21.29 17.7427 22.6521 17.1172 24.2573C16.5117 25.8101 16.0999 27.585 15.9829 30.1829C15.8665 32.7871 15.8359 33.6196 15.8359 40.2502C15.8359 46.8809 15.8652 47.7104 15.9834 50.3145C16.103 52.9136 16.5144 54.6877 17.1177 56.24C17.7417 57.8459 18.5759 59.208 19.9333 60.5649C21.29 61.9231 22.6521 62.7593 24.2568 63.3828C25.8103 63.9866 27.5847 64.3979 30.1833 64.5171C32.7876 64.6355 33.6191 64.6646 40.2493 64.6646C46.8804 64.6646 47.71 64.6355 50.314 64.5171C52.9131 64.3979 54.6892 63.9866 56.2427 63.3828C57.8479 62.7593 59.208 61.9231 60.5645 60.5649C61.9226 59.208 62.7566 57.8459 63.3823 56.2407C63.9824 54.6877 64.3945 52.9131 64.5166 50.3149C64.6335 47.7109 64.6641 46.8809 64.6641 40.2502C64.6641 33.6196 64.6335 32.7876 64.5166 30.1833C64.3945 27.5842 63.9824 25.8103 63.3823 24.2581C62.7566 22.6521 61.9226 21.29 60.5645 19.9329C59.2065 18.575 57.8484 17.7407 56.2412 17.1179C54.6848 16.5139 52.9097 16.1023 50.3105 15.9834C47.7063 15.865 46.8772 15.8359 40.2446 15.8359H40.2522ZM38.062 20.2356C38.7122 20.2346 39.4375 20.2356 40.2522 20.2356C46.771 20.2356 47.5435 20.259 50.1177 20.376C52.498 20.4849 53.79 20.8826 54.6506 21.2168C55.79 21.6592 56.6023 22.1882 57.4563 23.043C58.3108 23.8975 58.8396 24.7112 59.2832 25.8506C59.6174 26.71 60.0156 28.002 60.124 30.3823C60.241 32.9561 60.2664 33.729 60.2664 40.2446C60.2664 46.7603 60.241 47.5334 60.124 50.1069C60.0151 52.4873 59.6174 53.7793 59.2832 54.6389C58.8408 55.7783 58.3108 56.5896 57.4563 57.4436C56.6018 58.2981 55.7905 58.8269 54.6506 59.2695C53.791 59.6052 52.498 60.002 50.1177 60.1108C47.5439 60.2278 46.771 60.2532 40.2522 60.2532C33.7332 60.2532 32.9604 60.2278 30.387 60.1108C28.0066 60.001 26.7146 59.6033 25.8533 59.269C24.7141 58.8264 23.9001 58.2976 23.0457 57.4431C22.1912 56.5886 21.6624 55.7769 21.2188 54.637C20.8845 53.7773 20.4863 52.4854 20.3779 50.105C20.261 47.5312 20.2375 46.7583 20.2375 40.2385C20.2375 33.719 20.261 32.95 20.3779 30.3762C20.4868 27.9958 20.8845 26.7039 21.2188 25.8433C21.6614 24.7039 22.1912 23.8901 23.0459 23.0356C23.9004 22.1812 24.7141 21.6521 25.8535 21.2087C26.7141 20.873 28.0066 20.4763 30.387 20.3669C32.6392 20.2651 33.512 20.2346 38.062 20.2295V20.2356ZM53.2844 24.2893C51.667 24.2893 50.3547 25.6003 50.3547 27.218C50.3547 28.8355 51.667 30.1477 53.2844 30.1477C54.9019 30.1477 56.2141 28.8355 56.2141 27.218C56.2141 25.6006 54.9019 24.2883 53.2844 24.2883V24.2893ZM40.2522 27.7124C33.3284 27.7124 27.7146 33.3262 27.7146 40.2502C27.7146 47.1743 33.3284 52.7854 40.2522 52.7854C47.1763 52.7854 52.7881 47.1743 52.7881 40.2502C52.7881 33.3264 47.1758 27.7124 40.2517 27.7124H40.2522ZM40.2522 32.1121C44.7466 32.1121 48.3904 35.7554 48.3904 40.2502C48.3904 44.7446 44.7466 48.3884 40.2522 48.3884C35.7576 48.3884 32.1143 44.7446 32.1143 40.2502C32.1143 35.7554 35.7576 32.1121 40.2522 32.1121Z" fill="white"/>
    </g>
  </g>
  <defs>
    <filter id="filter0_d_386_152" x="-1" y="-1" width="82.5" height="82.5" filterUnits="userSpaceOnUse" color-interpolation-filters="sRGB">
      <feFlood flood-opacity="0" result="BackgroundImageFix"/>
      <feColorMatrix in="SourceAlpha" type="matrix" values="0 0 0 0 0 0 0 0 0 0 0 0 0 0 0 0 0 0 127 0" result="hardAlpha"/>
      <feOffset/>
      <feGaussianBlur stdDeviation="5"/>
      <feComposite in2="hardAlpha" operator="out"/>
      <feColorMatrix type="matrix" values="0 0 0 0 0 0 0 0 0 0 0 0 0 0 0 0 0 0 0.25 0"/>
      <feBlend mode="normal" in2="BackgroundImageFix" result="effect1_dropShadow_386_152"/>
      <feBlend mode="normal" in="SourceGraphic" in2="effect1_dropShadow_386_152" result="shape"/>
    </filter>
    <radialGradient id="paint0_radial_386_152" cx="0" cy="0" r="1" gradientUnits="userSpaceOnUse" gradientTransform="translate(25.6016 76.3137) rotate(-90) scale(61.9421 57.6111)">
      <stop stop-color="#FFDD55"/>
      <stop offset="0.1" stop-color="#FFDD55"/>
      <stop offset="0.5" stop-color="#FF543E"/>
      <stop offset="1" stop-color="#C837AB"/>
    </radialGradient>
    <radialGradient id="paint1_radial_386_152" cx="0" cy="0" r="1" gradientUnits="userSpaceOnUse" gradientTransform="translate(-1.46899 13.5022) rotate(78.681) scale(27.6885 114.133)">
      <stop stop-color="#3771C8"/>
      <stop offset="0.128" stop-color="#3771C8"/>
      <stop offset="1" stop-color="#6600FF" stop-opacity="0"/>
    </radialGradient>
    <clipPath id="clip0_386_152">
      <rect width="80" height="80" fill="white"/>
    </clipPath>
  </defs>
</svg>
