<svg width="238" height="256" viewBox="0 0 238 256" fill="none" xmlns="http://www.w3.org/2000/svg">
  <path d="M53.506 55.4457C54.5876 52.1568 55.7914 48.8907 57.1096 45.7158C59.7356 39.3974 60.3388 33.4095 64.0282 28.1256" stroke="#CCDDE2" stroke-width="3" stroke-miterlimit="10"/>
  <path d="M72.5796 22.0693C75.7542 18.5296 78.7234 14.7249 84.1184 11.8834C95.5194 5.89839 110.098 5.29134 128.706 13.7558" stroke="#CCDDE2" stroke-width="3" stroke-miterlimit="10"/>
  <path d="M206.937 254.037C224.968 226.098 230.8 194.512 227.787 162.207" stroke="#CCDDE2" stroke-width="3" stroke-miterlimit="10"/>
  <path d="M43.3608 116.499V116.844C43.5376 123.114 38.2518 149.106 23.2602 157.362C8.26858 165.619 -2.42003 201.859 31.38 216.078C65.18 230.297 63.3392 254.037 63.3392 254.037" stroke="#CCDDE2" stroke-width="3" stroke-miterlimit="10"/>
  <path d="M128.708 40.5915V9.88559C128.713 7.77607 129.48 5.75446 130.841 4.2628C132.201 2.77113 134.046 1.93081 135.97 1.92554H228.738C230.663 1.93081 232.507 2.77113 233.868 4.2628C235.229 5.75446 235.995 7.77607 236 9.88559V154.267C235.997 156.375 235.23 158.396 233.868 159.885C232.507 161.374 230.662 162.21 228.738 162.21H135.97C135.07 162.216 134.178 162.028 133.344 161.657" stroke="black" stroke-width="3" stroke-linecap="round" stroke-linejoin="round"/>
  <path d="M138.453 6.79053H226.255C229.838 6.79053 232.742 9.97412 232.742 13.9013V150.248C232.742 154.175 229.838 157.359 226.255 157.359H138.453C134.87 157.359 131.966 154.175 131.966 150.248V13.9013C131.966 9.97412 134.87 6.79053 138.453 6.79053Z" fill="#2079FF"/>
  <path d="M140.042 18.441H223.564C225.356 18.441 226.809 20.0336 226.809 21.9978V43.0764C226.809 45.0409 225.356 46.6332 223.564 46.6332H140.042C138.25 46.6332 136.797 45.0409 136.797 43.0764V21.9978C136.797 20.0336 138.25 18.441 140.042 18.441Z" fill="#2079FF"/>
  <path d="M182.354 30.315C180.885 30.315 179.694 29.0097 179.694 27.3994C179.694 25.7892 180.885 24.4839 182.354 24.4839C183.823 24.4839 185.014 25.7892 185.014 27.3994C185.014 29.0097 183.823 30.315 182.354 30.315Z" fill="#D7E8F0"/>
  <path d="M189.788 40.5921C189.788 38.431 189.004 36.3584 187.61 34.8306C186.216 33.3024 184.326 32.444 182.354 32.444C180.383 32.444 178.492 33.3024 177.098 34.8306C175.704 36.3584 174.921 38.431 174.921 40.5921H189.788Z" fill="#D7E8F0"/>
  <path d="M181.813 76.8403C184.649 76.8386 187.421 77.7589 189.78 79.4848C192.138 81.2105 193.976 83.6644 195.062 86.5357C196.148 89.4071 196.433 92.5669 195.88 95.6156C195.327 98.6642 193.962 101.465 191.957 103.663C189.952 105.86 187.397 107.357 184.616 107.963C181.834 108.569 178.952 108.257 176.332 107.067C173.713 105.877 171.474 103.861 169.9 101.276C168.325 98.691 167.486 95.6523 167.487 92.5438C167.489 88.3797 169 84.3868 171.686 81.4425C174.372 78.4979 178.015 76.8426 181.813 76.8403ZM181.813 104.46C182.368 104.46 182.9 104.218 183.293 103.788C183.685 103.358 183.905 102.775 183.905 102.167C183.905 101.559 183.685 100.976 183.293 100.546C182.9 100.116 182.368 99.874 181.813 99.874C181.259 99.874 180.727 100.116 180.334 100.546C179.942 100.976 179.722 101.559 179.722 102.167C179.722 102.775 179.942 103.358 180.334 103.788C180.727 104.218 181.259 104.46 181.813 104.46ZM179.159 86.7897C179.609 90.1926 179.988 93.7807 180.901 97.0896C181.124 97.8762 182.487 97.8762 182.721 97.0896C183.375 94.5993 183.877 92.0636 184.224 89.5C184.504 87.6361 185.5 84.6208 184.546 82.8025C183.717 81.1866 181.358 80.9871 179.996 81.8335C178.303 82.8994 178.964 85.1082 179.159 86.8011V86.7897Z" fill="#D7E8F0"/>
  <path d="M217.808 59.2194H147.818" stroke="white" stroke-width="3" stroke-miterlimit="10"/>
  <path d="M217.808 66.7684H147.818" stroke="white" stroke-width="3" stroke-miterlimit="10"/>
  <path d="M217.808 115.399H147.818" stroke="white" stroke-width="3" stroke-miterlimit="10"/>
  <path d="M201.55 122.541H164.076" stroke="white" stroke-width="3" stroke-miterlimit="10"/>
  <path d="M210.372 169.312C210.372 169.312 197.918 115.065 159.128 101.815L143.362 97.6913C143.362 97.6913 140.869 85.4847 141.786 84.2022C142.704 82.9197 144.589 80.292 148.042 80.862C151.495 81.432 160.421 81.6144 162.706 69.653C164.991 57.6915 156.547 29.2599 134.6 25.0077C112.653 20.7555 112.141 38.4198 112.141 38.4198L128.261 79.3658L125.76 112.397L125.445 161.603L210.372 169.312Z" fill="white"/>
  <path d="M76.3288 127.406C76.5888 127.489 79.9064 128.546 81.2116 131.066C81.4601 130.489 81.8532 130.002 82.3449 129.661C82.8366 129.319 83.4065 129.139 83.9884 129.139H122.949C123.643 129.138 124.316 129.395 124.858 129.867C125.401 130.34 125.781 131.001 125.937 131.741L133.609 167.802C134.129 167.691 134.649 167.623 135.19 167.566L153.297 162.613C154.073 162.399 154.895 162.51 155.6 162.925C156.306 163.34 156.846 164.028 157.113 164.855C157.234 165.227 157.294 165.618 157.29 166.012C157.29 166.907 156.981 167.769 156.424 168.424C155.867 169.079 155.104 169.478 154.29 169.541L145.728 170.145C153.975 174.4 164.009 182.505 172.383 189.952C180.532 175.967 172.885 161.986 167.134 154.456C167.875 146.157 171.629 126.888 190.362 127.412C183.909 118.34 175.862 110.566 165.891 105.361C131.737 146.858 92.6646 112.931 91.8352 112.201C85.9922 116.38 80.7633 121.509 76.3288 127.412" fill="#2E2E2E"/>
  <path d="M79.8778 246.445V253.615H192.668V243.458C188.274 243.743 183.652 242.603 179.447 240.525C174.125 237.869 169.528 233.742 165.597 229.034C161.554 224.161 159.334 217.403 156.757 211.527C152.888 202.677 147.764 196.373 139.631 193.703L140.151 196.154C140.255 196.647 140.257 197.16 140.155 197.654C140.054 198.148 139.852 198.611 139.565 199.008C139.278 199.405 138.913 199.725 138.497 199.946C138.081 200.167 137.626 200.282 137.164 200.283H98.0076C98.7876 207.693 102.077 248.163 79.8778 246.453" fill="#2E2E2E"/>
  <path d="M97.9894 57.8571C98.0208 61.6912 98.4766 65.5065 99.3466 69.2201C99.7433 70.9808 100.595 72.5782 101.8 73.8214C103.005 75.0645 104.511 75.9002 106.138 76.2282C106.203 73.6404 107.206 71.369 108.738 69.9582C108.598 67.7674 108.618 65.5678 108.798 63.3804C108.899 61.9355 109.058 60.5874 109.224 59.3761C109.323 58.6867 109.466 58.0059 109.653 57.3384C110.176 56.7231 110.791 56.2109 111.473 55.8251C113.883 54.3374 118.844 52.7556 128.035 55.0812C129.536 55.458 130.948 56.1753 132.179 57.1874C132.207 57.2062 132.231 57.229 132.252 57.2558C133.082 58.0937 134.137 59.1538 135.229 59.7039C136.36 60.2739 137.541 60.2967 138.531 58.9487C138.557 58.9202 138.57 58.8945 138.594 58.866C139.114 58.1222 139.61 57.156 140.528 56.9651C142.462 56.5661 143.404 58.6751 143.648 60.4478C143.861 62.0865 143.422 63.5315 142.78 64.908C142.242 66.0272 141.539 67.0412 140.7 67.9091C140.484 68.1376 140.287 68.3853 140.109 68.6501C140.19 68.6657 140.269 68.6897 140.346 68.7213C140.524 68.7869 140.698 68.8649 140.866 68.955C143.206 70.1093 144.873 73.002 144.909 76.3878C144.909 76.4933 148.832 76.4306 149.329 76.3878C151.243 76.194 153.128 75.5898 154.474 74.008C158.296 69.5193 158.278 62.8589 156.708 57.649C155.221 52.7043 153.328 47.8764 150.847 43.4276C145.473 33.8003 137.135 26.6981 126.579 26.0597C124.047 25.9203 121.51 26.0827 119.01 26.5442C117.828 26.7485 116.658 27.0341 115.508 27.3992C104.747 32.5463 97.9166 44.2142 97.979 57.8571" fill="#2E2E2E"/>
  <path d="M104.222 167.611C105.493 171.187 108.519 173.234 110.982 172.171C113.444 171.108 114.411 167.368 113.142 163.792C111.873 160.215 108.844 158.166 106.382 159.232C103.92 160.298 102.95 164.037 104.222 167.613" fill="#2079FF"/>
  <path d="M97.68 199.553C97.68 199.553 104.586 252.321 76.9632 246.473C49.4916 240.65 39.0942 118.143 118.613 100.524" stroke="black" stroke-width="3" stroke-miterlimit="10"/>
  <path d="M162.352 148.753C162.352 148.753 184.64 169.356 172.63 189.961" stroke="black" stroke-width="3" stroke-miterlimit="10"/>
  <path d="M97.1782 184.897C97.5604 184.922 98.1064 184.643 98.4782 184.532C98.9496 184.395 99.4168 184.249 99.8796 184.093C102.595 183.167 105.15 181.749 107.438 179.898C107.958 179.49 108.883 179.228 109.518 179.496C109.871 179.638 110.183 179.881 110.421 180.201C110.658 180.52 110.814 180.904 110.87 181.311C111.065 182.782 110.118 184.221 109.086 185.165C107.862 186.288 106.59 187.322 105.106 187.995C103.672 188.625 102.194 189.124 100.686 189.485C100.002 189.659 99.3076 189.77 98.629 189.961" stroke="black" stroke-width="3" stroke-miterlimit="10"/>
  <path d="M88.6242 170.62C88.3434 172.244 88.138 173.932 88.2784 175.582C88.3954 176.978 88.853 178.608 90.27 178.948C90.5394 179.026 90.8189 179.054 91.0968 179.03C96.432 178.685 100.829 176.665 105.849 172.686C110.87 168.708 112.638 177.87 108.051 179.495" stroke="black" stroke-width="3" stroke-miterlimit="10"/>
  <path d="M107.859 186.27C107.982 186.159 108.099 186.04 108.21 185.914C110.709 183.049 111.161 188.803 108.538 190.496L108.2 190.716C108.023 190.798 107.833 190.895 107.646 191.001C107.557 191.026 107.459 191.069 107.368 191.098M107.368 191.098C104.996 192.238 102.472 192.967 99.9862 193.711C102.446 192.831 104.898 191.964 107.368 191.098ZM107.368 191.098C107.581 191.001 107.784 190.904 107.997 190.793C108.062 190.763 108.13 190.74 108.2 190.724C108.244 190.702 108.292 190.693 108.341 190.698C108.389 190.703 108.435 190.722 108.475 190.753C108.534 190.806 108.578 190.878 108.6 190.958C109.003 192.018 108.675 193.355 108.161 194.304C107.62 195.307 106.692 196.08 105.776 196.63C103.314 198.143 100.452 199.038 97.6878 199.574C97.1751 199.69 96.6499 199.728 96.1278 199.685" stroke="black" stroke-width="3" stroke-miterlimit="10"/>
  <path d="M73.8328 206.214C73.8328 206.214 82.3062 190.385 83.25 176.622C83.8272 168.103 86.11 166.299 87.7428 166.177" stroke="black" stroke-width="3" stroke-miterlimit="10"/>
  <path d="M90.27 178.945L88.6216 170.62L87.7428 166.174L81.2272 133.211C81.1304 132.72 81.1354 132.212 81.2412 131.723C81.3473 131.235 81.5514 130.779 81.8392 130.388C82.1268 129.997 82.4905 129.682 82.9039 129.465C83.3171 129.248 83.7695 129.136 84.2276 129.136H123.191C123.884 129.135 124.557 129.392 125.1 129.865C125.642 130.337 126.023 130.998 126.179 131.738L133.851 167.802L139.452 194.116L139.972 196.581C140.075 197.074 140.076 197.587 139.974 198.081C139.872 198.574 139.67 199.037 139.382 199.433C139.095 199.83 138.73 200.15 138.315 200.371C137.899 200.591 137.443 200.707 136.982 200.708H97.8282" stroke="black" stroke-width="3" stroke-miterlimit="10"/>
  <path d="M138.578 58.0001C138.578 58.0001 136.516 48.4156 124.873 47.1445C113.231 45.8734 110.313 55.4095 110.313 55.4095L110.68 56.3699C110.68 56.3699 125.986 49.6382 134.439 59.2456C134.439 59.2456 137.483 60.7589 138.578 58.0058" fill="#2079FF"/>
  <path d="M135.437 167.565L153.546 162.606C153.978 162.489 154.428 162.471 154.866 162.555C155.304 162.638 155.722 162.821 156.093 163.09C156.463 163.36 156.779 163.712 157.019 164.123C157.259 164.533 157.418 164.994 157.487 165.476C157.556 165.958 157.533 166.451 157.418 166.922C157.304 167.393 157.102 167.834 156.824 168.215C156.547 168.596 156.199 168.91 155.805 169.136C155.411 169.362 154.978 169.496 154.534 169.529L145.972 170.147" stroke="black" stroke-width="3" stroke-miterlimit="10"/>
  <path d="M92.0692 112.187C92.0692 112.187 131.623 147.311 166.135 105.361" stroke="black" stroke-width="3" stroke-miterlimit="10"/>
  <path d="M167.376 154.449C168.117 146.15 171.868 126.867 190.617 127.406" stroke="black" stroke-width="3" stroke-miterlimit="10"/>
  <path d="M76.5654 127.4C76.5654 127.4 80.0988 128.466 81.4534 131.071" stroke="black" stroke-width="3" stroke-miterlimit="10"/>
  <path d="M220.109 254.042H52.1722" stroke="black" stroke-width="3" stroke-miterlimit="10"/>
  <path d="M108.738 69.9694C107.154 71.4286 106.138 73.8112 106.138 76.5073C106.138 80.9818 108.974 84.6013 112.479 84.6013C112.876 84.599 113.271 84.5482 113.657 84.4502C109.575 81.0302 108.748 69.9694 108.748 69.9694" fill="#2079FF"/>
  <path d="M131.828 88.0308C129.861 89.1041 127.707 89.7072 125.511 89.8001C123.315 89.893 121.126 89.4735 119.088 88.5695C107.602 83.3112 108.041 67.8129 109.234 59.3883C109.33 58.7049 109.465 58.0289 109.64 57.3648V57.3506C110.958 52.5341 114.398 48.6096 118.93 47.4953C127.707 45.3207 135.734 50.7756 139.064 58.1201" stroke="black" stroke-width="3" stroke-miterlimit="10"/>
  <path d="M109.531 57.5154C109.531 57.5154 109.567 57.4584 109.643 57.3643V57.3501C110.423 56.3868 114.939 51.7897 128.012 55.0929C129.512 55.4688 130.923 56.1864 132.153 57.199C132.182 57.2173 132.209 57.2404 132.231 57.2674" stroke="black" stroke-width="3" stroke-miterlimit="10"/>
  <path d="M144.376 80.8626H150.842C155.509 80.8626 159.209 76.1772 160.818 71.7796C163.08 65.5951 161.632 59.2653 159.596 53.2546C157.891 48.2244 155.722 43.3366 152.87 38.9619C146.485 29.1721 136.844 23.626 125.763 24.652C124.78 24.7432 123.801 24.876 122.827 25.051C107.947 27.6958 97.914 41.3331 97.9894 57.8488C98.0206 61.6855 98.4761 65.5039 99.3466 69.2203C99.7467 70.9796 100.6 72.5756 101.804 73.8182C103.009 75.0608 104.514 75.8973 106.14 76.2285" stroke="black" stroke-width="3" stroke-miterlimit="10"/>
  <path d="M140.104 68.6501C140.282 68.385 140.48 68.1362 140.694 67.9062C141.534 67.0398 142.237 66.0266 142.774 64.908C143.417 63.5315 143.856 62.0865 143.643 60.4478C143.404 58.6865 142.462 56.5661 140.523 56.9651C139.605 57.1589 139.116 58.1222 138.588 58.866C136.581 61.716 133.817 58.8518 132.122 57.1304" stroke="black" stroke-width="3" stroke-miterlimit="10"/>
  <path d="M108.738 69.9694C107.154 71.4286 106.138 73.8112 106.138 76.5073C106.138 80.9818 108.974 84.6013 112.479 84.6013C112.876 84.599 113.271 84.5482 113.657 84.4502" stroke="black" stroke-width="3" stroke-miterlimit="10"/>
  <path d="M122.307 75.4621C120.888 76.508 117.458 77.3659 118.147 74.2651C118.974 70.5914 120.087 62.7425 113.272 62.144C113.272 62.144 110.272 62.2837 108.79 63.4009" stroke="black" stroke-width="3" stroke-miterlimit="10"/>
  <path d="M119.741 81.6033C119.741 81.6033 123.173 83.5983 124.873 79.6226" stroke="black" stroke-width="3" stroke-miterlimit="10"/>
  <path d="M126.701 67.5103C126.834 68.7729 126.384 69.8644 125.695 69.9528C125.006 70.0411 124.34 69.0978 124.205 67.8267C124.07 66.5556 124.525 65.4754 125.211 65.3871C125.898 65.2987 126.569 66.2421 126.701 67.5103Z" fill="black"/>
  <path d="M115.526 68.2539C115.659 69.5136 115.209 70.608 114.52 70.6963C113.831 70.7847 113.166 69.8413 113.033 68.5702C112.9 67.2991 113.35 66.2161 114.037 66.1306C114.723 66.0451 115.394 66.9856 115.526 68.2539Z" fill="black"/>
  <path d="M122.307 62.9506C122.307 62.9506 124.408 59.3995 129.169 62.7682" stroke="black" stroke-width="3" stroke-miterlimit="10"/>
  <path d="M118.615 88.335V108.034" stroke="black" stroke-width="3" stroke-miterlimit="10"/>
  <path d="M189.663 206.214C189.663 206.214 182.255 198.519 172.635 189.969C164.261 182.522 154.217 174.402 145.967 170.15C144.912 169.611 143.887 169.13 142.891 168.725C140.515 167.732 137.965 167.342 135.432 167.585C134.902 167.633 134.374 167.711 133.851 167.819" stroke="black" stroke-width="3" stroke-miterlimit="10"/>
  <path d="M139.452 194.116C147.587 196.786 152.712 203.09 156.578 211.94C159.149 217.816 161.375 224.574 165.418 229.447C169.346 234.153 173.943 238.282 179.265 240.938C188.922 245.755 200.812 245.384 207.085 234.911C211.329 227.808 212.998 218.985 213.845 210.686C215.301 196.262 210.705 155.604 190.617 127.403C184.164 118.331 176.114 110.557 166.146 105.353C159.149 101.71 151.24 99.3277 142.275 98.6522L139.764 84.4507" stroke="black" stroke-width="3" stroke-miterlimit="10"/>
  <path d="M79.6984 246.923V254.043" stroke="black" stroke-width="3" stroke-miterlimit="10"/>
  <path d="M192.489 244.382V254.043" stroke="black" stroke-width="3" stroke-miterlimit="10"/>
  <path d="M132.244 76.5081C132.22 78.6447 132.912 80.7167 134.189 82.3306C134.905 82.6937 135.685 82.8812 136.475 82.8807C139.977 82.8807 142.816 79.2612 142.816 74.7867C142.841 72.6503 142.148 70.5786 140.869 68.967C140.153 68.6019 139.373 68.4132 138.583 68.4141C135.081 68.4141 132.244 72.0364 132.244 76.5081Z" fill="#2079FF"/>
  <path d="M138.578 84.6021C135.08 84.6021 132.244 80.9783 132.244 76.5081C132.244 72.0378 135.08 68.4141 138.578 68.4141C142.076 68.4141 144.912 72.0378 144.912 76.5081C144.912 80.9783 142.076 84.6021 138.578 84.6021Z" stroke="black" stroke-width="3" stroke-miterlimit="10"/>
  <path d="M63.2768 5.77384C67.1789 4.49878 71.3381 4.52069 75.2287 5.83682C79.1194 7.15293 82.5665 9.70413 85.1345 13.1678C87.7022 16.6315 89.2755 20.8521 89.6551 25.2958C90.0347 29.7395 89.2037 34.2069 87.267 38.1331C85.3305 42.0589 82.3754 45.2675 78.7751 47.3522C75.1752 49.4373 71.0919 50.3051 67.0416 49.8466C62.9916 49.3877 59.1566 47.6227 56.0215 44.7747C52.8864 41.9267 50.5924 38.1237 49.4292 33.8464C47.8694 28.1107 48.4521 21.9311 51.049 16.6663C53.6459 11.4018 58.0443 7.48361 63.2768 5.77384ZM73.6196 43.8043C73.9982 43.6803 74.351 43.476 74.6575 43.2026C74.9641 42.9293 75.2186 42.5925 75.4063 42.2114C75.5943 41.8304 75.7118 41.4126 75.7521 40.9816C75.7927 40.5507 75.7555 40.1152 75.6424 39.7003C75.5293 39.2853 75.3429 38.8986 75.0935 38.5625C74.8442 38.2265 74.5369 37.9475 74.1893 37.7418C73.4873 37.3259 72.6631 37.2327 71.8984 37.483C71.1337 37.7332 70.491 38.3061 70.1117 39.0758C69.7323 39.8453 69.6473 40.7488 69.8756 41.587C70.1039 42.4252 70.6265 43.1297 71.3287 43.5455C72.0307 43.9613 72.8549 44.0545 73.6196 43.8043ZM63.2196 20.7364C63.263 20.8504 63.3046 20.9615 63.3444 21.0698C65.0315 25.619 67.1297 29.9718 69.6078 34.063C70.2084 35.0605 72.0908 34.4449 72.096 33.2479C72.0609 29.5281 71.8004 25.8148 71.316 22.1329C71.0144 19.4425 71.2484 14.8369 69.2646 12.7677C67.5044 10.9152 64.1842 11.7104 62.619 13.4888C60.89 15.4639 62.3876 18.5675 63.2274 20.7364H63.2196Z" fill="#D7E8F0"/>
  <path d="M49.034 135.169C50.4624 136.761 51.428 138.782 51.8087 140.976C52.1893 143.169 51.9681 145.438 51.1727 147.493C50.3771 149.549 49.0436 151.3 47.3401 152.525C45.6368 153.749 43.6403 154.393 41.6034 154.374C39.5663 154.355 37.5802 153.674 35.8962 152.417C34.2121 151.161 32.9062 149.385 32.1431 147.314C31.3797 145.244 31.1941 142.972 31.6088 140.786C32.0237 138.6 33.0208 136.597 34.474 135.033C36.4216 132.935 39.0494 131.771 41.78 131.797C44.5102 131.823 47.1193 133.036 49.034 135.169ZM36.1172 149.086C36.3972 149.398 36.7789 149.576 37.1782 149.58C37.5776 149.583 37.9619 149.413 38.2466 149.106C38.5313 148.799 38.6932 148.381 38.6966 147.943C38.7 147.505 38.5448 147.084 38.2648 146.772C38.1262 146.617 37.9611 146.494 37.7791 146.409C37.5971 146.325 37.4016 146.28 37.204 146.278C37.0061 146.277 36.8101 146.317 36.6268 146.399C36.4435 146.48 36.2763 146.6 36.1354 146.752C35.9944 146.904 35.8821 147.085 35.8049 147.284C35.7277 147.484 35.6869 147.698 35.6853 147.915C35.6835 148.131 35.7209 148.347 35.795 148.548C35.8691 148.748 35.9786 148.931 36.1172 149.086ZM43.0436 138.698C41.6734 140.664 40.1836 142.688 39.1072 144.865C38.8472 145.389 39.5362 146.159 40.0198 145.88C41.5135 144.993 42.951 143.997 44.3228 142.899C45.3368 142.123 47.2504 141.157 47.6196 139.712C47.955 138.424 46.8578 137.002 45.7736 136.66C44.4424 136.244 43.7352 137.734 43.0436 138.698Z" fill="#2079FF"/>
  <path d="M8.65598 44.7531C7.63002 43.3697 7.00134 41.6836 6.84977 39.9086C6.69793 38.1337 7.02941 36.349 7.80291 34.7806C8.57641 33.2123 9.75657 31.9306 11.1946 31.0973C12.6324 30.2642 14.2634 29.9171 15.8814 30.1001C17.4991 30.2831 19.0313 30.9879 20.2837 32.125C21.5361 33.2624 22.4529 34.7812 22.918 36.4898C23.3832 38.1981 23.3756 40.0192 22.8964 41.723C22.4173 43.4267 21.4878 44.9363 20.226 46.0612C19.388 46.8082 18.4239 47.3668 17.3889 47.7054C16.3538 48.044 15.268 48.1557 14.1937 48.034C13.1194 47.9126 12.0773 47.5603 11.127 46.9974C10.177 46.4343 9.33718 45.6716 8.65598 44.7531ZM19.8802 34.7524C19.7806 34.6179 19.6579 34.5065 19.519 34.4241C19.3802 34.3417 19.2278 34.2902 19.0708 34.2722C18.9138 34.2542 18.7552 34.2705 18.6038 34.3201C18.4525 34.3694 18.3113 34.4509 18.1889 34.5601C18.0662 34.6692 17.9645 34.8037 17.8894 34.9559C17.8142 35.1081 17.7672 35.2748 17.7508 35.4473C17.7344 35.6194 17.7492 35.7932 17.7945 35.9591C17.8394 36.125 17.9138 36.2795 18.0134 36.414C18.2144 36.6853 18.5056 36.858 18.8228 36.8942C19.1397 36.9301 19.4572 36.8267 19.7047 36.6063C19.9522 36.386 20.1098 36.0668 20.1428 35.7191C20.1755 35.3714 20.0812 35.0237 19.8802 34.7524ZM13.6584 42.4474C14.883 40.9968 16.2012 39.5205 17.2126 37.8675C17.457 37.4713 16.9526 36.8044 16.5574 36.9868C15.3052 37.5719 14.09 38.248 12.92 39.0103C12.062 39.5433 10.4734 40.1503 10.0808 41.2732C9.72719 42.2679 10.502 43.4905 11.3418 43.8382C12.3792 44.2771 13.0448 43.1514 13.6584 42.4303V42.4474Z" fill="#2079FF"/>
  <path d="M90.4 104.187C87.4984 109.602 87.631 113.458 88.385 119.708C88.6866 122.088 86.3492 123.698 84.4538 122.501C67.7072 111.956 52.076 120.295 32.108 115.125C24.776 113.239 15.6344 109.328 9.36841 103.041C7.28919 99.6572 6.1782 95.6701 6.1782 91.59C6.1782 74.49 27.4982 60.6077 53.792 60.6077C70.6426 60.6077 85.447 66.3077 93.91 74.8947C93.91 74.8947 93.91 74.8947 93.9334 74.9204C96.081 78.4458 97.2614 82.299 97.2614 86.3204C97.2744 92.4564 93.1118 99.1083 90.4 104.187Z" fill="#D7E8F0"/>
  <path d="M97.199 86.3201C97.199 86.4626 97.199 86.6051 97.199 86.7533C97.1054 92.7383 94.365 98.3157 91.1202 103.141C88.9466 106.367 86.3674 109.952 86.9784 113.908C87.2384 115.652 88.1354 117.234 88.359 118.984C88.5826 120.734 87.7324 122.917 86.1204 123.008C85.096 123.065 84.225 122.267 83.4138 121.583C78.6168 117.508 72.382 115.983 66.3188 115.715C60.2556 115.447 54.2002 116.325 48.1344 116.513C39.388 116.798 30.5038 115.59 22.4256 111.913C15.1872 108.624 8.55461 103.226 4.19961 96.0158C-0.0799917 88.9364 2.4498 78.6564 7.0154 72.5004C11.295 66.7235 17.496 63.027 23.8556 60.4221C40.961 53.4225 60.4844 53.5821 77.3532 61.2515C82.3608 63.5315 87.2046 66.4955 90.959 70.7847C94.6172 74.9628 97.16 80.5317 97.199 86.3201Z" stroke="black" stroke-width="3" stroke-miterlimit="10"/>
  <path d="M27.0146 93.1312C23.3873 93.1312 20.447 89.9082 20.447 85.9321C20.447 81.9561 23.3873 78.733 27.0146 78.733C30.6419 78.733 33.5822 81.9561 33.5822 85.9321C33.5822 89.9082 30.6419 93.1312 27.0146 93.1312Z" fill="white"/>
  <path d="M48.2566 93.1312C44.6294 93.1312 41.689 89.9082 41.689 85.9321C41.689 81.9561 44.6294 78.733 48.2566 78.733C51.8839 78.733 54.8242 81.9561 54.8242 85.9321C54.8242 89.9082 51.8839 93.1312 48.2566 93.1312Z" fill="white"/>
  <path d="M69.912 93.1312C66.2848 93.1312 63.3444 89.9082 63.3444 85.9321C63.3444 81.9561 66.2848 78.733 69.912 78.733C73.5393 78.733 76.4796 81.9561 76.4796 85.9321C76.4796 89.9082 73.5393 93.1312 69.912 93.1312Z" fill="white"/>
</svg>
