<svg width="42" height="43" viewBox="0 0 42 43" fill="none" xmlns="http://www.w3.org/2000/svg">
<path d="M1.53334 19.0001L19.1333 1.40008C19.4 1.13341 19.6889 0.94408 20 0.83208C20.3111 0.721858 20.6444 0.666747 21 0.666747C21.3556 0.666747 21.6889 0.721858 22 0.83208C22.3111 0.94408 22.6 1.13341 22.8667 1.40008L40.4667 19.0001C40.9556 19.489 41.2116 20.0996 41.2347 20.8321C41.256 21.5663 41 22.2001 40.4667 22.7334C39.9778 23.2667 39.3671 23.545 38.6347 23.5681C37.9004 23.5894 37.2667 23.3334 36.7333 22.8001L23.6667 9.73341L23.6667 39.5334C23.6667 40.289 23.4116 40.9227 22.9013 41.4347C22.3893 41.945 21.7556 42.2001 21 42.2001C20.2444 42.2001 19.6116 41.945 19.1013 41.4347C18.5893 40.9227 18.3333 40.289 18.3333 39.5334L18.3333 9.73341L5.26667 22.8001C4.77778 23.289 4.15556 23.545 3.4 23.5681C2.64445 23.5894 2.02223 23.3334 1.53334 22.8001C1 22.3112 0.733335 21.689 0.733335 20.9334C0.733335 20.1779 1.00001 19.5334 1.53334 19.0001Z" fill="white"/>
</svg>
