<svg width="92" height="100" viewBox="0 0 92 100" fill="none" xmlns="http://www.w3.org/2000/svg">
<rect width="92" height="100" rx="30" fill="#2079FF"/>
<path d="M65.6 58.0499C66.6208 55.5708 67.175 52.9166 67.175 49.9999C67.175 47.8999 66.8542 45.8874 66.3 44.0208C64.4042 44.4583 62.4208 44.6916 60.35 44.6916C56.1091 44.6962 51.9292 43.681 48.1628 41.7318C44.3964 39.7826 41.1538 36.9565 38.7083 33.4916C36.0924 39.8213 31.1575 44.9127 24.9125 47.7249C24.7958 48.4541 24.7958 49.2416 24.7958 49.9999C24.7958 52.7845 25.3443 55.5418 26.4099 58.1144C27.4755 60.687 29.0374 63.0246 31.0064 64.9936C34.983 68.9701 40.3763 71.2041 46 71.2041C49.0625 71.2041 52.0083 70.5333 54.6625 69.3374C56.325 72.5166 57.0833 74.0916 57.025 74.0916C52.2417 75.6958 48.5375 76.4833 46 76.4833C38.9417 76.4833 32.2042 73.7124 27.2458 68.7249C24.23 65.7184 21.9882 62.0254 20.7125 57.9624H16.8333V44.6916H20.0125C20.9757 40.0031 23.1902 35.6628 26.421 32.1313C29.6518 28.5997 33.7783 26.0086 38.3628 24.633C42.9473 23.2573 47.8187 23.1484 52.46 24.3178C57.1014 25.4872 61.3396 27.8913 64.725 31.2749C68.4007 34.9361 70.9078 39.6052 71.9292 44.6916H75.1667V57.9624H74.9917L64.6083 67.4999L49.15 65.7499V60.8791H63.2375L65.6 58.0499ZM38.0375 49.3291C38.9125 49.3291 39.7583 49.6791 40.3708 50.3208C40.9864 50.9414 41.3318 51.78 41.3318 52.6541C41.3318 53.5282 40.9864 54.3669 40.3708 54.9874C39.7583 55.5999 38.9125 55.9499 38.0375 55.9499C36.2 55.9499 34.7125 54.4916 34.7125 52.6541C34.7125 50.8166 36.2 49.3291 38.0375 49.3291ZM53.9333 49.3291C55.7708 49.3291 57.2292 50.8166 57.2292 52.6541C57.2292 54.4916 55.7708 55.9499 53.9333 55.9499C52.0958 55.9499 50.6083 54.4916 50.6083 52.6541C50.6083 51.7723 50.9587 50.9265 51.5822 50.303C52.2058 49.6794 53.0515 49.3291 53.9333 49.3291Z" fill="white"/>
</svg>
