<svg width="92" height="100" viewBox="0 0 92 100" fill="none" xmlns="http://www.w3.org/2000/svg">
<rect width="92" height="100" rx="30" fill="#2079FF"/>
<path d="M71.3333 49.9999C71.3333 43.8115 68.875 37.8766 64.4992 33.5008C60.1233 29.1249 54.1884 26.6666 48 26.6666C41.8116 26.6666 35.8767 29.1249 31.5008 33.5008C27.125 37.8766 24.6667 43.8115 24.6667 49.9999C24.6667 56.1883 27.125 62.1232 31.5008 66.4991C35.8767 70.8749 41.8116 73.3332 48 73.3332C54.1884 73.3332 60.1233 70.8749 64.4992 66.4991C68.875 62.1232 71.3333 56.1883 71.3333 49.9999ZM77.1667 49.9999C77.1667 57.7354 74.0938 65.1541 68.6239 70.6239C63.1541 76.0937 55.7355 79.1666 48 79.1666C44.1698 79.1666 40.3771 78.4122 36.8384 76.9464C33.2997 75.4806 30.0844 73.3322 27.376 70.6239C21.9062 65.1541 18.8333 57.7354 18.8333 49.9999C18.8333 42.2644 21.9062 34.8458 27.376 29.376C32.8459 23.9062 40.2645 20.8333 48 20.8333C51.8302 20.8333 55.6229 21.5877 59.1616 23.0534C62.7003 24.5192 65.9156 26.6676 68.6239 29.376C71.3323 32.0843 73.4807 35.2997 74.9465 38.8383C76.4122 42.377 77.1667 46.1697 77.1667 49.9999ZM42.1667 42.7083C42.1667 45.0416 40.125 47.0833 37.7917 47.0833C35.4583 47.0833 33.4167 45.0416 33.4167 42.7083C33.4167 40.3749 35.4583 38.3333 37.7917 38.3333C40.125 38.3333 42.1667 40.3749 42.1667 42.7083ZM62.5833 42.7083C62.5833 45.0416 60.5417 47.0833 58.2083 47.0833C55.875 47.0833 53.8333 45.0416 53.8333 42.7083C53.8333 40.3749 55.875 38.3333 58.2083 38.3333C60.5417 38.3333 62.5833 40.3749 62.5833 42.7083ZM48 65.2541C42.8958 65.2541 38.4042 63.1249 35.7792 59.9749L39.9208 55.8333C41.2333 57.9333 44.3542 59.4207 48 59.4207C51.6458 59.4207 54.7667 57.9333 56.0792 55.8333L60.2208 59.9749C57.5958 63.1249 53.1042 65.2541 48 65.2541Z" fill="white"/>
</svg>
