<svg width="48" height="52" viewBox="0 0 48 52" fill="none" xmlns="http://www.w3.org/2000/svg">
<path d="M46.5 14.0155C46.1249 13.7333 45.686 13.5373 45.2175 13.4428C44.7491 13.3483 44.2639 13.3579 43.8 13.4709L26.5 17.6857V51.475L45.4 46.8813C46.076 46.7174 46.6746 46.344 47.1005 45.8204C47.5264 45.2969 47.755 44.6534 47.75 43.9925V16.336C47.7423 15.8845 47.6257 15.4407 47.409 15.0385C47.1924 14.6363 46.8814 14.2863 46.5 14.0155ZM21.5 17.6857L4.14998 13.4709C3.69321 13.3707 3.21869 13.3676 2.7605 13.4618C2.30231 13.5559 1.87183 13.745 1.49998 14.0155C1.12105 14.2961 0.815624 14.6557 0.607484 15.0664C0.399345 15.4771 0.29411 15.9278 0.299976 16.3833V43.9925C0.300503 44.6494 0.531699 45.2874 0.957152 45.8061C1.38261 46.3248 1.97814 46.6947 2.64998 46.8576L21.5 51.475V17.6857Z" fill="#2079FF"/>
<circle cx="24.5" cy="7.5" r="7.5" fill="#2079FF"/>
<rect x="21.3684" y="18" width="5.26316" height="34" fill="black"/>
<path d="M25.5789 16.0281L45.4842 11.3446C46.2931 11.1543 47.1188 11.6519 47.3285 12.456V12.456C47.5381 13.2601 47.0523 14.0663 46.2434 14.2566L26.3381 18.9401L25.5789 16.0281Z" fill="black"/>
<path d="M22.1918 16.0281L2.28656 11.3446C1.47764 11.1543 0.651928 11.6519 0.442286 12.456V12.456C0.232643 13.2601 0.718453 14.0663 1.52737 14.2566L21.4327 18.9401L22.1918 16.0281Z" fill="black"/>
<rect x="21.3684" y="16" width="5.26316" height="2" fill="black"/>
</svg>
