<svg width="42" height="32" viewBox="0 0 42 32" fill="none" xmlns="http://www.w3.org/2000/svg">
  <path d="M4.05801 31.625C3.11045 31.625 2.3054 31.3208 1.64287 30.7125C0.978815 30.1056 0.64679 29.3681 0.64679 28.5C0.64679 27.6319 0.978815 26.8944 1.64287 26.2875C2.3054 25.6792 3.11045 25.375 4.05801 25.375C5.00557 25.375 5.81062 25.6792 6.47315 26.2875C7.1372 26.8944 7.46923 27.6319 7.46923 28.5C7.46923 29.3681 7.1372 30.1056 6.47315 30.7125C5.81062 31.3208 5.00557 31.625 4.05801 31.625ZM12.0175 30.5833V26.4167H41.5814V30.5833H12.0175ZM4.05801 19.125C3.11045 19.125 2.3054 18.8208 1.64287 18.2125C0.978815 17.6056 0.64679 16.8681 0.64679 16C0.64679 15.1319 0.978815 14.3944 1.64287 13.7875C2.3054 13.1792 3.11045 12.875 4.05801 12.875C5.00557 12.875 5.81062 13.1792 6.47315 13.7875C7.1372 14.3944 7.46923 15.1319 7.46923 16C7.46923 16.8681 7.1372 17.6056 6.47315 18.2125C5.81062 18.8208 5.00557 19.125 4.05801 19.125ZM12.0175 18.0833V13.9167H41.5814V18.0833H12.0175ZM4.05801 6.625C3.11045 6.625 2.3054 6.32083 1.64287 5.7125C0.978815 5.10556 0.64679 4.36806 0.64679 3.5C0.64679 2.63194 0.978815 1.89444 1.64287 1.2875C2.3054 0.679167 3.11045 0.375 4.05801 0.375C5.00557 0.375 5.81062 0.679167 6.47315 1.2875C7.1372 1.89444 7.46923 2.63194 7.46923 3.5C7.46923 4.36806 7.1372 5.10556 6.47315 5.7125C5.81062 6.32083 5.00557 6.625 4.05801 6.625ZM12.0175 5.58333V1.41667H41.5814V5.58333H12.0175Z" fill="black"/>
</svg>
