<svg width="34" height="38" viewBox="0 0 34 38" fill="none" xmlns="http://www.w3.org/2000/svg">
<path d="M17.0256 0C7.81722 0 0.358887 3.72917 0.358887 8.33333C0.358887 12.9375 7.81722 16.6667 17.0256 16.6667C26.2339 16.6667 33.6922 12.9375 33.6922 8.33333C33.6922 3.72917 26.2339 0 17.0256 0ZM0.358887 12.5V18.75C0.358887 23.3542 7.81722 27.0833 17.0256 27.0833C26.2339 27.0833 33.6922 23.3542 33.6922 18.75V12.5C33.6922 17.1042 26.2339 20.8333 17.0256 20.8333C7.81722 20.8333 0.358887 17.1042 0.358887 12.5ZM0.358887 22.9167V29.1667C0.358887 33.7708 7.81722 37.5 17.0256 37.5C26.2339 37.5 33.6922 33.7708 33.6922 29.1667V22.9167C33.6922 27.5208 26.2339 31.25 17.0256 31.25C7.81722 31.25 0.358887 27.5208 0.358887 22.9167Z" fill="black"/>
</svg>
