<svg width="46" height="42" viewBox="0 0 46 42" fill="none" xmlns="http://www.w3.org/2000/svg">
<path d="M38.9851 10.625C40.7101 10.625 42.3644 11.2527 43.5842 12.3701C44.8039 13.4875 45.4892 15.0031 45.4892 16.5833V24.4583C45.4892 25.2408 45.3209 26.0156 44.9941 26.7385C44.6672 27.4614 44.1881 28.1182 43.5842 28.6715C42.9802 29.2248 42.2632 29.6637 41.4741 29.9631C40.685 30.2625 39.8392 30.4166 38.9851 30.4166H22.7477C22.7477 31.2291 23.4754 32.4166 24.3623 32.4166H34.1184V35.9166C34.1184 37.4969 33.4332 39.0124 32.2134 40.1298C30.9937 41.2472 29.3393 41.875 27.6144 41.875H17.881C16.156 41.875 14.5017 41.2472 13.282 40.1298C12.0622 39.0124 11.377 37.4969 11.377 35.9166V28.1041C11.377 27.3227 11.5453 26.5489 11.8725 25.8271C12.1996 25.1054 12.6791 24.4499 13.2833 23.8983C13.8876 23.3467 14.6048 22.9098 15.3937 22.6126C16.1827 22.3155 17.028 22.1639 17.881 22.1666H29.8203C30.6733 22.1667 31.518 22.0124 32.3058 21.7127C33.0937 21.413 33.8092 20.9738 34.4113 20.4202C35.0135 19.8667 35.4904 19.2097 35.8148 18.4869C36.1392 17.7641 36.3046 16.9898 36.3016 16.2083V10.625H38.9851ZM29.2517 35.1875C28.3421 35.1875 27.6144 35.8125 27.6144 37.0416C27.6144 38.2708 28.3421 38.5208 29.2517 38.5208C29.4638 38.5208 29.6738 38.4826 29.8696 38.4082C30.0655 38.3339 30.2435 38.2249 30.3935 38.0876C30.5434 37.9502 30.6623 37.7872 30.7435 37.6077C30.8246 37.4282 30.8664 37.2359 30.8664 37.0416C30.8664 35.8125 30.1387 35.1875 29.2517 35.1875ZM6.51029 31.4583C4.7853 31.4583 3.13097 30.8306 1.91122 29.7132C0.691473 28.5958 0.00622559 27.0802 0.00622559 25.5V17.625C0.00622559 16.8425 0.174458 16.0677 0.501318 15.3448C0.828177 14.6219 1.30726 13.9651 1.91122 13.4118C3.13097 12.2944 4.7853 11.6666 6.51029 11.6666H22.7477C22.7477 10.8541 22.02 9.66665 21.133 9.66665H11.377V6.16665C11.377 4.5864 12.0622 3.07087 13.282 1.95347C14.5017 0.836064 16.156 0.208313 17.881 0.208313H27.6144C28.4685 0.208313 29.3143 0.36243 30.1034 0.661864C30.8925 0.961298 31.6095 1.40019 32.2134 1.95347C32.8174 2.50675 33.2965 3.16359 33.6233 3.88649C33.9502 4.60939 34.1184 5.38419 34.1184 6.16665V13.9791C34.1184 14.7606 33.95 15.5344 33.6229 16.2562C33.2958 16.9779 32.8163 17.6334 32.2121 18.185C31.6078 18.7366 30.8906 19.1735 30.1016 19.4707C29.3127 19.7678 28.4674 19.9194 27.6144 19.9166H15.6751C14.822 19.9166 13.9774 20.0709 13.1895 20.3706C12.4017 20.6703 11.6862 21.1095 11.0841 21.6631C10.4819 22.2166 10.005 22.8736 9.6806 23.5964C9.35622 24.3192 9.19078 25.0935 9.19378 25.875V31.4583H6.51029ZM16.2436 6.89581C17.1533 6.89581 17.881 6.27081 17.881 5.04165C17.881 3.81248 17.1533 3.56248 16.2436 3.56248C15.3567 3.56248 14.629 3.81248 14.629 5.04165C14.629 6.27081 15.3567 6.89581 16.2436 6.89581Z" fill="black"/>
</svg>
