<svg width="38" height="43" viewBox="0 0 38 43" fill="none" xmlns="http://www.w3.org/2000/svg">
<g clip-path="url(#clip0_759_478)">
<path d="M35.7327 9.29964L20.2922 0.385173C19.4027 -0.128391 17.9471 -0.128391 17.0576 0.385173L1.61728 9.29964C0.72774 9.8132 0 11.0738 0 12.1009V29.9298C0.069203 31.1261 0.680209 32.1168 1.6172 32.7311L17.0578 41.6455C17.9471 42.1592 19.4028 42.1592 20.2922 41.6455L35.7327 32.7311C36.7382 32.0624 37.3105 31.0558 37.35 29.9298V12.1009C37.3139 11.0202 36.6668 9.93018 35.7328 9.29964H35.7327ZM6.22499 21.0155C6.15184 8.85856 22.4347 3.49061 29.4565 14.7865L24.0685 17.9044C20.8159 12.5247 12.7398 14.4483 12.45 21.0155C12.537 27.068 20.4747 29.8795 24.0689 24.1261L29.4569 27.2439C23.2686 37.9865 6.53693 34.1215 6.22499 21.0155ZM31.1249 21.707H29.7415V23.0904H28.3585V21.707H26.9751V20.3238H28.3585V18.9405H29.7417V20.3238H31.125V21.707H31.1249ZM36.3125 21.707H34.929V23.0904H33.5458V21.707H32.1626V20.3238H33.546V18.9405H34.9291V20.3238H36.3125L36.3125 21.707Z" fill="black"/>
</g>
<defs>
<clipPath id="clip0_759_478">
<rect width="37.3516" height="42.0308" fill="white"/>
</clipPath>
</defs>
</svg>
