<svg width="66" height="60" viewBox="0 0 66 60" fill="none" xmlns="http://www.w3.org/2000/svg">
<rect x="0.5" y="0.5" width="64.4954" height="59" rx="9.5" stroke="black"/>
<path d="M35.5057 29.5455H39.1534V41.7159C39.1534 42.8409 38.9006 43.8182 38.3949 44.6477C37.8949 45.4773 37.1989 46.1165 36.3068 46.5653C35.4148 47.0142 34.3778 47.2386 33.196 47.2386C32.1449 47.2386 31.1903 47.054 30.3324 46.6847C29.4801 46.3097 28.804 45.7415 28.304 44.9801C27.804 44.2131 27.5568 43.25 27.5625 42.0909H31.2358C31.2472 42.5511 31.3409 42.946 31.517 43.2756C31.6989 43.5994 31.946 43.8494 32.2585 44.0256C32.5767 44.196 32.9517 44.2812 33.3835 44.2812C33.8381 44.2812 34.2216 44.1847 34.5341 43.9915C34.8523 43.7926 35.0938 43.5028 35.2585 43.1222C35.4233 42.7415 35.5057 42.2727 35.5057 41.7159V29.5455ZM51.6733 34.5653C51.6051 33.8778 51.3125 33.3437 50.7955 32.9631C50.2784 32.5824 49.5767 32.392 48.6903 32.392C48.0881 32.392 47.5795 32.4773 47.1648 32.6477C46.75 32.8125 46.4318 33.0426 46.2102 33.3381C45.9943 33.6335 45.8864 33.9688 45.8864 34.3438C45.875 34.6562 45.9403 34.929 46.0824 35.1619C46.2301 35.3949 46.4318 35.5966 46.6875 35.767C46.9432 35.9318 47.2386 36.0767 47.5739 36.2017C47.9091 36.321 48.267 36.4233 48.6477 36.5085L50.2159 36.8835C50.9773 37.054 51.6761 37.2812 52.3125 37.5653C52.9489 37.8494 53.5 38.1989 53.9659 38.6136C54.4318 39.0284 54.7926 39.517 55.0483 40.0795C55.3097 40.642 55.4432 41.2869 55.4489 42.0142C55.4432 43.0824 55.1705 44.0085 54.6307 44.7926C54.0966 45.571 53.3239 46.1761 52.3125 46.608C51.3068 47.0341 50.0938 47.2472 48.6733 47.2472C47.2642 47.2472 46.0369 47.0312 44.9915 46.5994C43.9517 46.1676 43.1392 45.5284 42.554 44.6818C41.9744 43.8295 41.6705 42.7756 41.642 41.5199H45.2131C45.2528 42.1051 45.4205 42.5937 45.7159 42.9858C46.017 43.3722 46.4176 43.6648 46.9176 43.8636C47.4233 44.0568 47.9943 44.1534 48.6307 44.1534C49.2557 44.1534 49.7983 44.0625 50.2585 43.8807C50.7244 43.6989 51.0852 43.446 51.3409 43.1222C51.5966 42.7983 51.7244 42.4261 51.7244 42.0057C51.7244 41.6136 51.608 41.2841 51.375 41.017C51.1477 40.75 50.8125 40.5227 50.3693 40.3352C49.9318 40.1477 49.3949 39.9773 48.7585 39.8239L46.858 39.3466C45.3864 38.9886 44.2244 38.429 43.3722 37.6676C42.5199 36.9062 42.0966 35.8807 42.1023 34.5909C42.0966 33.5341 42.3778 32.6108 42.946 31.821C43.5199 31.0312 44.3068 30.4148 45.3068 29.9716C46.3068 29.5284 47.4432 29.3068 48.7159 29.3068C50.0114 29.3068 51.142 29.5284 52.108 29.9716C53.0795 30.4148 53.8352 31.0312 54.375 31.821C54.9148 32.6108 55.1932 33.5256 55.2102 34.5653H51.6733Z" fill="black"/>
</svg>
