<svg width="256" height="253" viewBox="0 0 256 253" fill="none" xmlns="http://www.w3.org/2000/svg">
  <path d="M221.63 79.3131C221.63 79.3131 238.802 28.5028 178.906 34.7041C119.011 40.9055 147.628 18.416 124.995 4.45973C102.362 -9.49652 35.6754 33.9226 63.5751 75.8009C91.4748 117.679 18.9885 79.3705 3.86787 142.347C-5.46288 181.211 17.6869 209.816 36.7855 226.031" stroke="#CCDDE2" stroke-width="3" stroke-miterlimit="10"/>
  <path d="M30.9445 177.477C35.4456 151.411 51.3829 128.086 77.2761 119.738C83.8998 117.614 90.6731 115.988 97.539 114.873V114.908C97.8969 117.072 98.7448 119.126 100.018 120.912C102.716 124.609 106.436 127.646 110.742 129.228C115.138 130.855 120.584 131.065 124.664 128.507C127.12 126.969 129.503 124.261 129.933 121.339C130.425 118.047 128.747 114.93 126.386 112.755C146.394 112.918 165.215 116.21 180.297 119.958C179.774 122.146 179.05 124.282 178.134 126.338C176.852 129.203 175.041 131.801 172.794 133.994C169.992 131.218 167.539 128.112 165.489 124.743C163.528 125.385 161.798 126.589 160.516 128.206C159.234 129.823 158.455 131.781 158.277 133.838V133.943C157.485 141.411 164.676 147.022 170.718 150.473C177.697 154.486 185.478 157.491 193.121 159.989C196.273 161.023 200.369 161.903 203.696 160.825C204.054 160.711 204.404 160.571 204.742 160.407C208.06 158.78 210.28 155.37 212.012 152.253C216.947 143.401 220.156 133.751 222.332 123.846C237.43 125.776 239.159 115.552 240.055 113.045L252.972 149.153C253.649 151.748 253.722 154.464 253.186 157.093C252.65 159.721 251.517 162.191 249.877 164.314C248.236 166.436 246.131 168.154 243.723 169.335C241.315 170.517 238.667 171.13 235.985 171.129H182.514L158.226 233.429L151.342 251.111H112.022C115.212 251.111 116.957 250.333 118.223 249.064C119.531 247.755 120.267 245.982 120.271 244.132C120.271 240.304 117.129 237.165 112.022 237.165H111.661C112.047 237.165 112.417 237.13 112.803 237.095C112.564 237.069 112.327 237.029 112.092 236.977C112.345 236.971 112.597 236.951 112.848 236.919C110.544 236.647 108.41 235.574 106.817 233.888C105.225 232.201 104.276 230.009 104.136 227.694C104.13 227.573 104.13 227.453 104.136 227.333V227.148C104.191 224.775 105.098 222.5 106.692 220.74C108.285 218.98 110.459 217.852 112.816 217.562C112.548 217.54 112.293 217.518 112.034 217.518C112.267 217.46 112.526 217.425 112.768 217.39C112.385 217.355 111.999 217.329 111.629 217.329L82.8618 217.483L77.5696 217.505H71.2885C70.9982 217.505 70.7047 217.505 70.4272 217.54L61.0964 217.588L54.8631 217.623C52.2579 217.645 49.7678 218.697 47.9367 220.551C46.1057 222.404 45.0829 224.907 45.0922 227.512C45.0954 228.985 45.437 230.437 46.0906 231.758C43.4161 231.415 40.9362 230.179 39.0535 228.249C34.5652 223.665 32.632 216.803 31.2954 210.704C28.9316 199.839 29.072 188.39 30.9445 177.477ZM103.626 178.21C109.045 186.552 118.274 185.803 118.274 185.803C118.274 185.803 119.04 186.549 120.826 183.372C122.612 180.195 127.7 178.022 127.7 178.022C128.106 181.212 128.945 186.061 137.27 179.777C145.596 173.492 143.086 164.331 142.374 159.491C141.663 154.652 138.827 153.048 138.827 153.048L135.478 151.28C135.478 151.28 145.166 148.789 145.631 148.697C146.097 148.604 154.726 141.379 145.97 139.471C137.213 137.563 123.563 145.149 120.925 146.649C118.287 148.148 102.869 161.189 102.869 161.189C102.869 161.189 98.177 169.881 103.626 178.21Z" fill="#353642"/>
  <path d="M222.345 123.852C222.345 123.852 215.043 122.965 212.309 117.753L214.692 131.122C214.692 131.122 185.644 121.233 180.316 119.957C180.316 119.957 178.6 131.023 171.767 133.993L164.717 125.029C164.717 125.029 155.878 127.262 158.296 139.308C160.714 151.353 194.158 161.421 199.83 161.188C205.501 160.955 211.607 157.465 217.859 138.711L222.345 123.852Z" fill="#353642"/>
  <path d="M210.449 94.0707C208.599 97.082 206.739 100.087 204.819 103.054C203.635 104.882 201.479 107.488 203.772 109.399C204.519 109.971 205.42 110.305 206.359 110.356C207.833 110.486 209.38 110.132 210.277 108.866L214.743 101.465C215.633 99.9891 217.046 98.9026 218.701 98.4212C220.357 97.9401 222.132 98.1 223.675 98.8684" stroke="black" stroke-width="3" stroke-miterlimit="10"/>
  <path d="M193.558 103.818C192.39 106.594 193.182 108.383 194.547 109.283C196.78 110.747 199.769 110.045 201.351 107.908L210.433 94.0856" stroke="black" stroke-width="3" stroke-miterlimit="10"/>
  <path d="M202.761 90.0512C199.456 94.0706 195.287 101.535 192.981 104.652C190.674 107.769 187.108 105.89 187.108 105.89C184.211 104.33 184.703 101.743 185.969 98.6004C189.089 90.887 193.542 85.7575 198.509 82.3952C213.901 71.9831 229.691 79.6646 234.39 97.6371L252.972 149.152C253.649 151.748 253.722 154.464 253.186 157.093C252.65 159.721 251.517 162.191 249.877 164.313C248.236 166.436 246.131 168.154 243.723 169.335C241.315 170.516 238.667 171.13 235.985 171.128H182.514L151.332 251.114" stroke="black" stroke-width="3" stroke-miterlimit="10"/>
  <path d="M183.669 95.0624C179.841 93.7354 180.016 87.6297 185.449 85.569C191.449 83.2913 202.104 80.0694 204.78 79.2655C204.797 79.2528 204.817 79.2451 204.838 79.2432C205.026 79.1858 205.157 79.1379 205.259 79.1156L205.409 79.0677" stroke="black" stroke-width="3" stroke-miterlimit="10"/>
  <path d="M127.11 156.109C130.46 152.083 139.628 149.803 145.612 148.699C146.618 148.51 147.535 147.999 148.226 147.244C148.916 146.488 149.342 145.529 149.44 144.51C149.51 143.823 149.43 143.129 149.207 142.475C148.851 141.471 148.167 140.616 147.267 140.047C146.366 139.478 145.3 139.228 144.241 139.336C134.033 140.37 123.506 143.582 115.719 150.501C115.719 150.501 77.9716 179.307 73.4641 182.111C71.6043 183.24 69.8689 181.907 71.129 180.133L71.5246 179.457C73.7432 175.649 76.3692 172.094 79.356 168.853" stroke="black" stroke-width="3" stroke-miterlimit="10"/>
  <path d="M126.412 112.751C173.885 113.147 214.692 131.119 214.692 131.119L210.618 108.285" stroke="black" stroke-width="3" stroke-miterlimit="10"/>
  <path d="M52.678 237.023C52.678 237.023 57.849 235.853 59.2239 239.993C60.5988 244.134 62.0343 250.721 52.1485 251.111C42.2627 251.5 48.0685 249.557 48.6395 246.357C49.2105 243.158 52.678 237.023 52.678 237.023Z" fill="#353642"/>
  <path d="M131.672 161.364C131.672 161.364 137.251 157.134 142.276 161.421C142.487 161.607 142.672 161.822 142.824 162.059" stroke="black" stroke-width="3" stroke-miterlimit="10"/>
  <g opacity="0.77">
    <path opacity="0.77" d="M201.37 107.893C199.775 110.033 196.789 110.732 194.566 109.265C193.217 108.371 192.426 106.591 193.564 103.842C193.357 104.145 193.169 104.413 192.984 104.658C190.681 107.788 187.111 105.902 187.111 105.902C184.214 104.342 184.703 101.755 185.969 98.61C187.208 95.4947 188.834 92.5474 190.808 89.8375C189.516 88.6285 187.982 87.4068 186.365 87.9427C184.62 88.5233 184.132 90.7116 183.934 92.5363C183.841 93.3848 183.749 94.2238 183.656 95.0723L182.259 107.564C181.793 111.711 181.328 115.919 180.316 119.967C179.793 122.156 179.07 124.291 178.153 126.347C176.871 129.213 175.06 131.81 172.813 134.003C170.012 131.227 167.559 128.121 165.508 124.752C163.547 125.394 161.817 126.598 160.535 128.215C159.253 129.832 158.474 131.79 158.296 133.847V133.952C157.505 141.42 164.695 147.031 170.737 150.483C177.716 154.496 185.497 157.501 193.14 159.998C196.292 161.032 200.388 161.912 203.715 160.834C204.073 160.72 204.423 160.58 204.761 160.416C208.079 158.789 210.299 155.379 212.031 152.263C220.325 137.349 223.77 120.225 225.586 103.267C221.955 102.767 218.338 102.208 214.765 101.44C214.765 101.44 214.765 101.465 214.743 101.475L210.624 108.304L210.286 108.872C209.393 110.148 207.846 110.49 206.369 110.362C205.43 110.315 204.528 109.981 203.785 109.405C201.495 107.491 203.645 104.894 204.831 103.066" fill="white"/>
    <path opacity="0.77" d="M201.37 107.893C199.775 110.033 196.789 110.732 194.566 109.265C193.217 108.371 192.426 106.591 193.564 103.842C193.357 104.145 193.169 104.413 192.984 104.658C190.681 107.788 187.111 105.902 187.111 105.902C184.214 104.342 184.703 101.755 185.969 98.61C187.208 95.4947 188.834 92.5474 190.808 89.8375C189.516 88.6285 187.982 87.4068 186.365 87.9427C184.62 88.5233 184.132 90.7116 183.934 92.5363C183.841 93.3848 183.749 94.2238 183.656 95.0723L182.259 107.564C181.793 111.711 181.328 115.919 180.316 119.967C179.793 122.156 179.07 124.291 178.153 126.347C176.871 129.213 175.06 131.81 172.813 134.003C170.012 131.227 167.559 128.121 165.508 124.752C163.547 125.394 161.817 126.598 160.535 128.215C159.253 129.832 158.474 131.79 158.296 133.847V133.952C157.505 141.42 164.695 147.031 170.737 150.483C177.716 154.496 185.497 157.501 193.14 159.998C196.292 161.032 200.388 161.912 203.715 160.834C204.073 160.72 204.423 160.58 204.761 160.416C208.079 158.789 210.299 155.379 212.031 152.263C220.325 137.349 223.77 120.225 225.586 103.267C221.955 102.767 218.338 102.208 214.765 101.44C214.765 101.44 214.765 101.465 214.743 101.475L210.624 108.304L210.286 108.872C209.393 110.148 207.846 110.49 206.369 110.362C205.43 110.315 204.528 109.981 203.785 109.405C201.495 107.491 203.645 104.894 204.831 103.066" fill="#2079FF"/>
    <path opacity="0.77" d="M200.391 108.904C198.978 110.818 196.563 110.576 194.566 109.265C193.36 108.467 192.371 108.7 193.389 106.241C193.201 106.508 193.175 105.603 193.009 105.803C190.952 108.598 192.984 104.649 192.984 104.649C190.113 108.276 183.864 104.859 185.009 102.055C186.221 99.0343 187.497 94.5683 189.114 92.3353C187.838 91.1295 188.084 91.3081 186.46 92.2683C186.024 92.5484 185.659 92.9264 185.394 93.3721C185.128 93.8177 184.97 94.3188 184.932 94.8363C184.801 96.0517 184.671 97.216 184.54 98.4027L183.296 109.568C182.878 113.278 182.463 117.026 181.56 120.637C181.094 122.59 180.446 124.495 179.627 126.328C178.485 128.851 174.817 133.052 172.813 134.976C170.322 132.504 167.336 127.958 165.508 124.937C161.999 126.015 162.152 129.371 161.904 133.037V133.132C161.195 139.796 167.614 144.801 172.992 147.886C179.225 151.468 186.17 154.148 192.993 156.381C195.807 157.306 199.463 158.104 202.433 157.127C202.753 157.026 203.065 156.901 203.367 156.754C206.328 155.3 208.312 152.259 209.859 149.475C216.631 137.311 219.773 123.502 221.502 109.657C221.629 108.621 221.349 107.576 220.721 106.743C220.092 105.91 219.165 105.353 218.134 105.191C216.191 104.872 214.255 104.553 212.331 104.126L212.277 104.151L208.602 110.247C207.801 111.38 207.671 110.493 206.353 110.378C205.52 110.305 203.906 110.142 203.262 109.603C201.217 107.899 202.372 107.194 203.431 105.564" fill="#2079FF"/>
  </g>
  <path d="M132.345 167.521C132.345 167.521 142.939 164.037 143.099 169.894" stroke="black" stroke-width="3" stroke-miterlimit="10"/>
  <path opacity="0.54" d="M227.174 227.182L247.951 173.954C248.208 172.924 248.227 171.849 248.007 170.81C247.787 169.772 247.332 168.797 246.679 167.96C246.026 167.123 245.19 166.446 244.236 165.981C243.281 165.515 242.234 165.274 241.172 165.274H158.647C156.794 165.273 154.994 165.897 153.539 167.044C152.084 168.191 151.057 169.795 150.624 171.596L127.879 224.812C127.633 225.838 127.623 226.907 127.85 227.938C128.077 228.969 128.534 229.936 129.187 230.764C129.841 231.593 130.674 232.263 131.624 232.724C132.573 233.185 133.615 233.425 134.671 233.425H219.171C221.01 233.426 222.797 232.812 224.247 231.681C225.697 230.55 226.727 228.966 227.174 227.182Z" fill="white"/>
  <path d="M128.897 176.499C128.897 176.499 127.177 178.075 127.831 180.327C128.316 181.996 129.975 183.048 131.618 182.477C136.849 180.669 141.561 177.597 142.709 172.375C143.252 169.731 143.369 167.017 143.057 164.336C142.805 161.851 142.438 159.168 141.602 156.804C140.326 153.174 136.419 150.644 132.626 152.392" stroke="black" stroke-width="3" stroke-miterlimit="10"/>
  <path d="M227.174 227.182L247.951 173.954C248.208 172.924 248.227 171.849 248.007 170.81C247.787 169.772 247.332 168.797 246.679 167.96C246.026 167.123 245.19 166.446 244.236 165.981C243.281 165.515 242.234 165.274 241.172 165.274H158.647C156.794 165.273 154.994 165.897 153.539 167.044C152.084 168.191 151.057 169.795 150.624 171.596L127.879 224.812C127.633 225.838 127.623 226.907 127.85 227.938C128.077 228.969 128.534 229.936 129.187 230.764C129.841 231.593 130.674 232.263 131.624 232.724C132.573 233.185 133.615 233.425 134.671 233.425H219.171C221.01 233.426 222.797 232.812 224.247 231.681C225.697 230.55 226.727 228.966 227.174 227.182Z" fill="#2079FF"/>
  <path d="M227.174 227.182L247.951 173.954C248.208 172.924 248.227 171.849 248.007 170.81C247.787 169.772 247.332 168.797 246.679 167.96C246.026 167.123 245.19 166.446 244.236 165.981C243.281 165.515 242.234 165.274 241.172 165.274H158.647C156.794 165.273 154.994 165.897 153.539 167.044C152.084 168.191 151.057 169.795 150.624 171.596L127.879 224.812C127.633 225.838 127.623 226.907 127.85 227.938C128.077 228.969 128.534 229.936 129.187 230.764C129.841 231.593 130.674 232.263 131.624 232.724C132.573 233.185 133.615 233.425 134.671 233.425H219.171C221.01 233.426 222.797 232.812 224.247 231.681C225.697 230.55 226.727 228.966 227.174 227.182Z" stroke="black" stroke-width="3" stroke-linecap="square" stroke-linejoin="round"/>
  <path d="M224.134 225.038L243.303 175.912C243.54 174.962 243.557 173.97 243.354 173.012C243.15 172.054 242.731 171.155 242.128 170.383C241.525 169.612 240.754 168.987 239.874 168.558C238.993 168.129 238.027 167.905 237.047 167.905H160.915C159.206 167.905 157.546 168.48 156.203 169.538C154.86 170.596 153.913 172.075 153.514 173.737L132.527 222.834C132.3 223.781 132.291 224.768 132.501 225.719C132.71 226.67 133.132 227.562 133.736 228.326C134.338 229.091 135.107 229.709 135.984 230.134C136.86 230.559 137.821 230.78 138.795 230.78H216.752C218.447 230.782 220.093 230.218 221.43 229.178C222.767 228.137 223.718 226.681 224.134 225.038Z" fill="#2079FF"/>
  <path d="M61.1985 217.332L46.601 251.111" stroke="black" stroke-width="3" stroke-miterlimit="10"/>
  <path d="M127.726 98.6541C130.093 100.992 133.627 100.989 135.64 98.8263" stroke="black" stroke-width="3" stroke-miterlimit="10"/>
  <path d="M190.808 89.8273C189.516 88.6183 187.982 87.3966 186.365 87.9325C184.62 88.5131 184.132 90.7014 183.934 92.5261C183.375 97.5408 182.816 102.55 182.259 107.554C181.551 113.934 180.804 120.467 178.153 126.33C176.871 129.196 175.06 131.794 172.813 133.986" stroke="black" stroke-width="3" stroke-miterlimit="10"/>
  <path d="M158.296 133.948V133.843C158.474 131.787 159.253 129.829 160.535 128.212C161.817 126.595 163.547 125.39 165.508 124.748C167.559 128.117 170.012 131.224 172.813 133.999C180.159 141.303 189.595 146.141 199.814 147.841C199.322 149.796 198.311 151.576 197.612 153.458C196.914 155.34 196.566 157.519 197.415 159.334C198.487 161.65 201.562 161.347 203.699 160.834C203.721 160.834 203.734 160.834 203.756 160.834" stroke="black" stroke-width="3" stroke-miterlimit="10"/>
  <path d="M214.759 101.436C218.332 102.205 221.949 102.763 225.579 103.264C223.764 120.222 220.332 137.346 212.025 152.259C210.293 155.376 208.073 158.786 204.755 160.413C204.416 160.577 204.067 160.717 203.709 160.831C200.381 161.925 196.285 161.029 193.134 159.995C185.478 157.494 177.71 154.492 170.73 150.479C164.704 147.025 157.514 141.417 158.289 133.949C158.364 133.126 158.532 132.315 158.79 131.531" stroke="black" stroke-width="3" stroke-miterlimit="10"/>
  <path d="M155.016 67.6087C154.481 69.841 153.259 71.8488 151.522 73.3494C149.785 74.8503 147.621 75.7677 145.335 75.9728C145.145 75.0522 144.733 74.1912 144.135 73.4658C141.583 70.4577 140.496 76.1008 132.332 72.0495C121.021 66.4223 116.727 69.6506 116.727 69.6506C116.35 69.9313 116.408 72.5213 116.344 72.9934C116.025 75.6826 115.738 78.359 115.422 81.0449C115.231 82.6846 115.043 84.3118 114.864 85.9387C114.71 85.6618 114.539 85.3942 114.353 85.1377C113.323 81.4915 111.482 77.1854 107.514 79.0388C106.711 79.4305 106.011 80.0063 105.473 80.7196C102.841 84.1775 104.835 87.5175 107.588 89.9897C108.277 90.7569 109.049 91.4466 109.887 92.0476C109.435 92.9854 107.584 96.7082 107.584 96.7209C107.393 97.0973 100.927 89.7792 100.445 88.9817C99.7254 87.0281 99.3394 84.9674 99.3031 82.8859C99.1978 74.3271 102.681 64.3644 109.613 59.455C111.333 58.2396 110.784 57.0689 110.889 55.4165C110.896 55.3272 110.931 55.2423 110.987 55.1728C111.044 55.1032 111.12 55.0525 111.206 55.0273C111.292 55.0021 111.384 55.0037 111.469 55.0315C111.554 55.0595 111.629 55.1125 111.683 55.1839C113.856 57.6849 119.234 57.4361 119.234 57.4361C137.902 52.7595 144.177 61.0599 147.944 62.5401C149.481 63.1222 151.173 63.1503 152.729 62.6198C152.821 63.1347 153.051 63.6148 153.396 64.0084C153.741 64.4021 154.186 64.694 154.685 64.8528L154.589 65.717C154.508 66.3783 154.659 67.0469 155.016 67.6087Z" fill="#2079FF"/>
  <path d="M145.322 75.9868C147.608 75.7814 149.772 74.864 151.509 73.3634C153.246 71.8628 154.469 69.8547 155.004 67.6227C155.213 66.7665 155.346 65.893 155.399 65.0132L155.252 64.9973C155.052 64.9823 154.854 64.9392 154.666 64.8697C154.167 64.7108 153.722 64.4189 153.377 64.0253C153.032 63.632 152.802 63.1516 152.71 62.6367C152.652 62.3512 152.64 62.058 152.675 61.769L153.153 57.5454C153.153 57.5454 149.778 60.056 146.033 58.5886C142.288 57.1212 136.001 48.8208 117.323 53.4846C117.323 53.4846 113.106 53.7334 110.943 51.2324C110.889 51.161 110.814 51.108 110.729 51.0803C110.644 51.0522 110.552 51.0509 110.466 51.0761C110.38 51.1013 110.304 51.152 110.247 51.2213C110.191 51.2908 110.156 51.376 110.149 51.4653C110.037 53.1209 109.425 54.2916 107.702 55.5038C100.77 60.4164 97.287 70.3756 97.3955 78.9344C97.4274 82.4849 98.6077 85.9907 100.429 88.9988C100.911 89.7963 107.377 97.1142 107.568 96.7378C107.568 96.7378 109.419 93.0023 109.872 92.0644L109.98 91.8571L109.773 91.7199C109.003 91.1971 108.267 90.6248 107.572 90.0069C104.822 87.5346 102.825 84.1947 105.457 80.7367C105.995 80.0235 106.695 79.4474 107.498 79.0556C111.479 77.2022 113.307 81.5087 114.338 85.1549C114.538 85.8516 114.661 86.5684 114.704 87.2922C114.752 86.8456 114.8 86.4149 114.848 85.9683C115.027 84.3414 115.215 82.7145 115.406 81.0749C115.725 78.3889 116.025 75.7125 116.328 73.0233C116.376 72.564 116.328 69.9609 116.711 69.6802C116.711 69.6802 121.008 66.4519 132.316 72.0791C140.48 76.1304 141.567 70.4841 144.119 73.4954C144.717 74.2212 145.129 75.0818 145.319 76.0028C145.377 76.2985 145.415 76.598 145.43 76.8992C145.437 76.9381 145.437 76.978 145.43 77.0172C145.469 77.6775 145.482 78.3347 145.497 78.9791C145.558 85.1964 144.875 91.6912 142.435 97.4651C139.468 104.464 131.618 111.367 123.455 108.104C120.903 107.08 118.615 105.431 116.523 103.679" stroke="black" stroke-width="3" stroke-miterlimit="10"/>
  <path d="M139.736 91.1502C138.924 90.8784 138.532 89.8618 138.861 88.8796C139.189 87.8971 140.114 87.3209 140.926 87.5927C141.738 87.8642 142.13 88.8809 141.801 89.8634C141.472 90.8459 140.548 91.422 139.736 91.1502Z" fill="black"/>
  <path d="M127.589 90.7614C126.778 90.4899 126.386 89.4732 126.714 88.4907C127.043 87.5082 127.968 86.9321 128.78 87.2039C129.592 87.4757 129.983 88.4923 129.655 89.4745C129.326 90.457 128.402 91.0331 127.589 90.7614Z" fill="black"/>
  <path d="M132.233 92.8652C132.233 92.8652 136.275 95.1588 136.521 92.779C136.597 92.0453 137.586 84.8583 137.586 84.8583C137.586 84.8583 140.853 81.3971 145.858 83.9555" stroke="black" stroke-width="3" stroke-miterlimit="10"/>
  <path d="M133.143 82.8444C133.143 82.8444 126.616 79.5842 122.297 84.2831" stroke="black" stroke-width="3" stroke-miterlimit="10"/>
  <path d="M127.158 108.904L126.408 112.751C128.772 114.93 130.444 118.053 129.956 121.342C129.522 124.258 127.136 126.972 124.689 128.5C120.599 131.052 115.161 130.851 110.758 129.228C106.455 127.633 102.732 124.605 100.034 120.911C98.7626 119.126 97.916 117.073 97.5581 114.911V114.873" stroke="black" stroke-width="3" stroke-miterlimit="10"/>
  <path d="M126.408 112.751L124.947 119.699" stroke="black" stroke-width="3" stroke-miterlimit="10"/>
  <path d="M105.747 95.0627L103.539 109.721C103.322 111.156 102.596 112.465 101.495 113.41C100.394 114.356 98.9904 114.875 97.5389 114.873C90.6686 115.986 83.8915 117.611 77.2633 119.734C51.3701 128.086 35.4328 151.411 30.9317 177.473C29.0592 188.386 28.9189 199.832 31.2699 210.684C32.6065 216.793 34.5396 223.655 39.028 228.229C44.8561 234.195 53.8008 231.738 60.6881 229.043C82.0706 220.726 99.8549 205.931 115.212 188.992C123.423 179.933 134.033 172.672 134.033 172.672" stroke="black" stroke-width="3" stroke-miterlimit="10"/>
  <path d="M217.068 214.044C219.467 214.021 221.557 212.085 222.096 209.389C223.161 204.088 223.442 195.889 215.668 194.1C205.954 191.867 198.483 202.445 194.821 209.131C193.59 211.364 194.984 214.235 197.278 214.235L217.068 214.044Z" fill="#D7E8F0"/>
  <path d="M213.861 189.598C211.799 188.226 211.767 184.648 213.791 181.608C215.814 178.567 219.126 177.215 221.188 178.587C223.251 179.959 223.282 183.537 221.259 186.577C219.236 189.618 215.924 190.97 213.861 189.598Z" fill="#D7E8F0"/>
  <path d="M54.2283 237.199C54.3783 237.221 54.5473 237.243 54.6941 237.278H54.7515L77.442 237.16L111.489 236.985C111.62 236.985 111.747 236.985 111.875 236.985C112.128 236.979 112.38 236.96 112.631 236.927C110.324 236.66 108.186 235.586 106.592 233.897C104.999 232.208 104.052 230.011 103.919 227.692C103.913 227.572 103.913 227.452 103.919 227.332V227.147C103.928 224.879 104.719 222.683 106.157 220.928C107.596 219.175 109.595 217.969 111.817 217.516C112.05 217.459 112.305 217.424 112.551 217.389C112.165 217.354 111.782 217.328 111.409 217.328L82.6449 217.481L77.3495 217.504L70.2071 217.539C67.7616 217.762 65.4871 218.889 63.8286 220.701C62.1705 222.512 61.2473 224.876 61.24 227.332C61.2396 227.795 61.2747 228.258 61.3452 228.716C61.6853 231.054 62.8531 233.193 64.6363 234.742C66.4196 236.292 68.6995 237.15 71.062 237.16H53.7786C54.7738 237.16 54.4963 237.16 54.2283 237.199Z" fill="white"/>
  <path d="M100.254 249.064C99.6055 249.715 98.8344 250.232 97.9853 250.584C97.1358 250.935 96.225 251.114 95.306 251.111H112.015C115.205 251.111 116.947 250.333 118.217 249.064C119.521 247.753 120.256 245.981 120.261 244.132C120.261 240.304 117.122 237.165 112.015 237.165H95.306C96.6853 237.163 98.0344 237.57 99.1822 238.336C100.33 239.101 101.225 240.19 101.753 241.464C102.281 242.738 102.419 244.141 102.149 245.494C101.88 246.847 101.214 248.089 100.238 249.064H100.254Z" fill="#D7E8F0"/>
  <path d="M45.0698 227.507C45.074 228.981 45.4169 230.434 46.0715 231.753C46.5391 232.751 47.1806 233.657 47.9663 234.43C49.2618 235.713 50.8887 236.611 52.6652 237.023C53.3976 237.192 54.1467 237.278 54.8982 237.278C54.7451 237.243 54.5792 237.221 54.4325 237.199C54.7004 237.173 54.978 237.163 53.9795 237.163H71.2661C68.902 237.155 66.6199 236.296 64.8354 234.746C63.0509 233.196 61.8824 231.056 61.543 228.716C61.4725 228.258 61.4374 227.795 61.4377 227.332C61.4451 224.876 62.3686 222.511 64.0277 220.7C65.6868 218.888 67.9619 217.761 70.408 217.539L61.0773 217.586L54.844 217.622C52.239 217.644 49.7489 218.696 47.9176 220.548C46.0859 222.4 45.0622 224.902 45.0698 227.507Z" fill="#2079FF"/>
  <path d="M45.0699 227.505C45.0893 230.111 46.1407 232.604 47.9944 234.436C49.8478 236.269 52.3523 237.292 54.9589 237.282L111.715 236.989C112.095 236.989 112.475 236.96 112.857 236.922C110.465 236.651 108.255 235.511 106.646 233.72C105.038 231.928 104.143 229.609 104.13 227.201C104.117 224.793 104.989 222.465 106.578 220.656C108.168 218.848 110.366 217.685 112.755 217.389C112.376 217.349 111.995 217.33 111.613 217.332L54.8568 217.625C52.2506 217.643 49.7576 218.693 47.9233 220.544C46.0891 222.396 45.0632 224.899 45.0699 227.505Z" stroke="black" stroke-width="3" stroke-linecap="square" stroke-linejoin="round"/>
  <path d="M61.4441 227.329C61.4492 229.935 62.4866 232.433 64.3295 234.275C66.172 236.118 68.6698 237.156 71.2757 237.161H111.658C112.039 237.158 112.421 237.137 112.8 237.097C110.409 236.813 108.206 235.662 106.607 233.862C105.008 232.062 104.125 229.738 104.125 227.331C104.125 224.923 105.008 222.599 106.607 220.799C108.206 218.999 110.409 217.848 112.8 217.564C112.42 217.529 112.038 217.504 111.658 217.504H71.2757C68.671 217.51 66.1749 218.547 64.3323 220.388C62.4901 222.229 61.4518 224.724 61.4441 227.329Z" stroke="black" stroke-width="3" stroke-linecap="square" stroke-linejoin="round"/>
  <path d="M120.261 244.134C120.262 245.049 120.081 245.955 119.731 246.8C119.381 247.645 118.867 248.413 118.22 249.059C116.944 250.335 115.212 251.11 112.018 251.11H53.9827C54.9812 251.11 54.7101 251.091 54.4389 251.066C56.1369 250.866 57.7026 250.05 58.8389 248.772C59.9751 247.494 60.6026 245.844 60.6026 244.134C60.6026 242.424 59.9751 240.774 58.8389 239.496C57.7026 238.218 56.1369 237.402 54.4389 237.202C54.7101 237.176 54.9812 237.157 53.9827 237.157H112.018C117.129 237.16 120.261 240.299 120.261 244.134Z" stroke="black" stroke-width="3" stroke-linecap="square" stroke-linejoin="round"/>
  <path d="M102.302 244.134C102.297 245.983 101.561 247.755 100.254 249.062C98.9461 250.37 97.174 251.106 95.3251 251.11H55.2491C54.9812 251.11 54.71 251.091 54.4389 251.066C56.1369 250.866 57.7026 250.05 58.8388 248.772C59.9751 247.494 60.6026 245.844 60.6026 244.134C60.6026 242.424 59.9751 240.774 58.8388 239.496C57.7026 238.218 56.1369 237.402 54.4389 237.202C54.71 237.176 54.9812 237.157 55.2491 237.157H95.3251C97.1737 237.162 98.9454 237.899 100.253 239.206C101.56 240.513 102.297 242.285 102.302 244.134Z" stroke="black" stroke-width="3" stroke-linecap="square" stroke-linejoin="round"/>
  <path d="M167.266 190.906H185.168C185.987 190.905 186.788 190.665 187.474 190.216C188.159 189.768 188.699 189.13 189.028 188.379C189.155 188.1 189.21 187.793 189.186 187.488C189.163 187.182 189.062 186.887 188.894 186.63C188.726 186.374 188.496 186.164 188.225 186.02C187.953 185.876 187.651 185.804 187.344 185.808H168.312C169.209 187.317 168.753 189.413 167.266 190.906Z" fill="#D7E8F0"/>
  <path d="M155.689 189.062C155.69 189.55 155.884 190.017 156.23 190.362C156.574 190.707 157.042 190.901 157.53 190.902H167.266C168.753 189.412 169.209 187.317 168.312 185.798H159.715C158.897 185.798 158.097 186.036 157.411 186.482C156.725 186.928 156.184 187.564 155.852 188.312C155.749 188.549 155.694 188.803 155.689 189.062Z" fill="#2079FF"/>
  <path d="M160.168 190.906C160.219 191.003 160.277 191.096 160.344 191.183C161.62 192.928 164.392 193.097 166.545 191.521C166.8 191.333 167.04 191.128 167.266 190.906C168.753 189.416 169.209 187.32 168.312 185.802C168.262 185.704 168.203 185.612 168.137 185.524C166.861 183.766 164.102 183.61 161.948 185.173C161.689 185.367 161.445 185.581 161.218 185.811C159.744 187.295 159.285 189.378 160.168 190.906Z" fill="white"/>
  <path d="M151.188 200.301C151.192 200.789 151.388 201.257 151.735 201.601C152.081 201.945 152.55 202.138 153.039 202.138H171.825C170.919 200.613 171.372 198.534 172.861 197.034H155.214C154.395 197.035 153.593 197.273 152.907 197.721C152.221 198.169 151.681 198.807 151.351 199.558C151.246 199.791 151.191 200.044 151.188 200.301Z" fill="#2079FF"/>
  <path d="M171.824 202.137H180.664C181.482 202.138 182.283 201.901 182.969 201.454C183.655 201.008 184.196 200.372 184.527 199.624C184.631 199.389 184.687 199.137 184.69 198.88C184.69 198.639 184.643 198.4 184.551 198.177C184.458 197.954 184.323 197.751 184.153 197.58C183.982 197.409 183.779 197.274 183.556 197.182C183.333 197.09 183.094 197.043 182.852 197.043H172.861C171.372 198.533 170.909 200.612 171.824 202.137Z" fill="#D7E8F0"/>
  <path d="M171.825 202.138C171.866 202.238 171.921 202.332 171.987 202.418C173.263 204.173 176.026 204.332 178.176 202.766C178.436 202.572 178.681 202.359 178.909 202.128C180.386 200.638 180.839 198.558 179.956 197.024C179.905 196.926 179.846 196.832 179.78 196.743C178.504 194.998 175.732 194.829 173.582 196.408C173.326 196.594 173.085 196.8 172.861 197.024C171.372 198.533 170.909 200.613 171.825 202.138Z" fill="white"/>
  <path d="M165.566 213.294H176.814C177.632 213.293 178.432 213.055 179.117 212.609C179.803 212.163 180.345 211.527 180.677 210.78C180.803 210.5 180.857 210.192 180.834 209.886C180.81 209.58 180.709 209.284 180.541 209.027C180.373 208.77 180.142 208.559 179.871 208.414C179.6 208.269 179.297 208.196 178.989 208.199H166.612C167.499 209.727 167.043 211.804 165.566 213.294Z" fill="#2079FF"/>
  <path d="M147.338 211.469C147.341 211.954 147.536 212.419 147.88 212.761C148.224 213.103 148.69 213.294 149.176 213.293H165.566C167.043 211.804 167.499 209.724 166.612 208.189H151.364C150.545 208.189 149.743 208.428 149.057 208.876C148.371 209.324 147.83 209.962 147.501 210.713C147.396 210.951 147.34 211.208 147.338 211.469Z" fill="#D7E8F0"/>
  <path d="M158.468 213.294C158.519 213.392 158.578 213.485 158.643 213.574C159.919 215.329 162.679 215.488 164.832 213.922C165.091 213.727 165.335 213.514 165.563 213.284C167.04 211.794 167.496 209.715 166.609 208.18C166.56 208.082 166.503 207.987 166.437 207.899C165.161 206.154 162.389 206.005 160.235 207.564C159.979 207.75 159.738 207.956 159.514 208.18C158.028 209.689 157.575 211.782 158.468 213.294Z" fill="white"/>
  <path d="M243.446 111.593L243.166 111.673L243.271 112.081C243.338 111.922 243.396 111.759 243.446 111.593Z" fill="#353642"/>
  <path d="M193.524 137.115C189.325 135.882 187.119 130.803 188.596 125.77C190.073 120.738 194.675 117.657 198.874 118.89C203.073 120.123 205.279 125.202 203.802 130.234C202.325 135.267 197.723 138.347 193.524 137.115Z" fill="#D7E8F0"/>
</svg>
