<svg width="66" height="60" viewBox="0 0 66 60" fill="none" xmlns="http://www.w3.org/2000/svg">
<rect width="65.4954" height="60" rx="10" fill="#FAFF00"/>
<path d="M48.9851 20.625C50.7101 20.625 52.3644 21.2527 53.5842 22.3701C54.8039 23.4875 55.4892 25.0031 55.4892 26.5833V34.4583C55.4892 35.2408 55.3209 36.0156 54.9941 36.7385C54.6672 37.4614 54.1881 38.1182 53.5842 38.6715C52.9802 39.2248 52.2632 39.6637 51.4741 39.9631C50.685 40.2625 49.8392 40.4166 48.9851 40.4166H32.7477C32.7477 41.2291 33.4754 42.4166 34.3623 42.4166H44.1184V45.9166C44.1184 47.4969 43.4332 49.0124 42.2134 50.1298C40.9937 51.2472 39.3393 51.875 37.6144 51.875H27.881C26.156 51.875 24.5017 51.2472 23.282 50.1298C22.0622 49.0124 21.377 47.4969 21.377 45.9166V38.1041C21.377 37.3227 21.5453 36.5489 21.8725 35.8271C22.1996 35.1054 22.6791 34.4499 23.2833 33.8983C23.8876 33.3467 24.6048 32.9098 25.3937 32.6126C26.1827 32.3155 27.028 32.1639 27.881 32.1666H39.8203C40.6733 32.1667 41.518 32.0124 42.3058 31.7127C43.0937 31.413 43.8092 30.9738 44.4113 30.4202C45.0135 29.8667 45.4904 29.2097 45.8148 28.4869C46.1392 27.7641 46.3046 26.9898 46.3016 26.2083V20.625H48.9851ZM39.2517 45.1875C38.3421 45.1875 37.6144 45.8125 37.6144 47.0416C37.6144 48.2708 38.3421 48.5208 39.2517 48.5208C39.4638 48.5208 39.6737 48.4826 39.8696 48.4082C40.0655 48.3339 40.2435 48.2249 40.3935 48.0876C40.5434 47.9502 40.6623 47.7872 40.7435 47.6077C40.8246 47.4282 40.8664 47.2359 40.8664 47.0416C40.8664 45.8125 40.1387 45.1875 39.2517 45.1875ZM16.5103 41.4583C14.7853 41.4583 13.131 40.8306 11.9112 39.7132C10.6915 38.5958 10.0062 37.0802 10.0062 35.5V27.625C10.0062 26.8425 10.1745 26.0677 10.5013 25.3448C10.8282 24.6219 11.3073 23.9651 11.9112 23.4118C13.131 22.2944 14.7853 21.6666 16.5103 21.6666H32.7477C32.7477 20.8541 32.02 19.6666 31.133 19.6666H21.377V16.1666C21.377 14.5864 22.0622 13.0709 23.282 11.9535C24.5017 10.8361 26.156 10.2083 27.881 10.2083H37.6144C38.4685 10.2083 39.3143 10.3624 40.1034 10.6619C40.8925 10.9613 41.6095 11.4002 42.2134 11.9535C42.8174 12.5068 43.2965 13.1636 43.6233 13.8865C43.9502 14.6094 44.1184 15.3842 44.1184 16.1666V23.9791C44.1184 24.7606 43.95 25.5344 43.6229 26.2562C43.2958 26.9779 42.8163 27.6334 42.2121 28.185C41.6078 28.7366 40.8906 29.1735 40.1016 29.4707C39.3127 29.7678 38.4674 29.9194 37.6144 29.9166H25.6751C24.822 29.9166 23.9774 30.0709 23.1895 30.3706C22.4017 30.6703 21.6862 31.1095 21.0841 31.6631C20.4819 32.2166 20.005 32.8736 19.6806 33.5964C19.3562 34.3192 19.1908 35.0935 19.1938 35.875V41.4583H16.5103ZM26.2436 16.8958C27.1533 16.8958 27.881 16.2708 27.881 15.0416C27.881 13.8125 27.1533 13.5625 26.2436 13.5625C25.3567 13.5625 24.629 13.8125 24.629 15.0416C24.629 16.2708 25.3567 16.8958 26.2436 16.8958Z" fill="black"/>
</svg>
