<svg width="589" height="609" viewBox="0 0 589 609" fill="none" xmlns="http://www.w3.org/2000/svg">
<path d="M108.204 233.158C106.501 236.005 102.936 237.209 99.8701 237.824C95.9524 238.627 91.9009 238.84 87.9346 239.193L85.629 239.758C85.1928 239.893 84.7871 240.112 84.4361 240.404C84.0844 240.696 83.7943 241.054 83.582 241.458C83.369 241.862 83.2389 242.304 83.1975 242.759C83.1561 243.214 83.2054 243.672 83.3417 244.108C84.7682 249.017 86.7307 253.754 89.1938 258.233L85.5438 261.883C84.5097 260.484 84.461 258.033 83.074 258.27C81.7418 256.938 80.1601 256.287 78.5237 258.069C75.3238 261.567 75.8409 268.837 80.5433 270.844L79.4909 276.082C79.1277 277.913 78.1416 279.562 76.6999 280.748C75.2575 281.933 73.4496 282.583 71.5826 282.585L72.3917 276.386C66.9167 279.154 60.7056 273.168 61.1375 268.234C61.4173 264.852 60.6508 262.516 58.1506 260.064C57.9863 259.9 58.9901 259.292 58.838 259.128C58.1323 256.992 58.035 254.498 58.7346 253.087C59.9513 250.568 63.5343 249.096 61.8858 246.347C61.1624 245.148 60.6344 243.842 60.3223 242.478C59.9914 240.668 60.0516 238.809 60.5 237.025C60.9483 235.241 61.7732 233.574 62.9199 232.136C65.3532 229.216 69.3074 230.001 72.5377 228.966C76.4736 227.75 78.2925 223.534 82.4109 222.232C84.461 221.581 86.359 221.879 88.4091 222.348C90.1428 222.749 91.8583 223.199 93.5617 223.735C95.265 224.27 96.7615 224.714 98.4283 224.215C100.631 223.607 102.328 221.551 104.731 221.533C105.93 221.505 107.103 221.88 108.064 222.597C109.841 225.791 109.853 230.426 108.204 233.158Z" fill="#2079FF"/>
<path d="M32.917 315.525C32.917 315.525 -33.3123 242.477 64.2217 206.025C69.8774 203.952 75.7722 202.599 81.7661 201.998C97.3333 200.344 131.747 194.461 135.713 174.593" stroke="#CCDDE2" stroke-width="2.50025" stroke-miterlimit="10"/>
<path d="M310.937 213.266V213.246" stroke="#CCDDE2" stroke-width="2.50025" stroke-miterlimit="10"/>
<path d="M137.161 344.793V344.773" stroke="black" stroke-width="2.50025" stroke-miterlimit="10"/>
<path d="M85.3796 261.396C84.7311 260.275 83.9597 259.23 83.0801 258.281C81.7478 256.949 80.1662 256.298 78.5298 258.08C75.3299 261.578 75.847 268.848 80.5494 270.855L79.497 276.093C79.1338 277.924 78.1477 279.573 76.706 280.758C75.2636 281.944 73.4556 282.594 71.5887 282.596" stroke="black" stroke-width="2.50025" stroke-linecap="round" stroke-linejoin="round"/>
<path d="M68.6443 305.773C68.912 303.742 69.5751 298.406 70.2138 293.321C70.8222 288.606 71.3636 284.068 71.5765 282.572L72.3917 276.385" stroke="black" stroke-width="2.50025" stroke-linecap="round" stroke-linejoin="round"/>
<path d="M106.203 244.812C106.203 244.812 98.4344 245.196 96.9318 251.626" stroke="black" stroke-width="2.50025" stroke-miterlimit="10"/>
<path d="M109.026 261.803C111.143 261.749 113.892 261.438 114.89 259.291L109.537 253.384C108.23 251.937 107.458 250.087 107.347 248.14C107.134 244.873 107.517 239.69 104.39 236.241" stroke="black" stroke-width="2.50025" stroke-miterlimit="10"/>
<path d="M104.448 253.629C105.324 252.659 105.368 251.271 104.545 250.527C103.723 249.783 102.345 249.967 101.469 250.937C100.593 251.906 100.549 253.295 101.371 254.038C102.194 254.781 103.571 254.598 104.448 253.629Z" fill="black"/>
<path d="M103.922 300.603L99.8883 281.051" stroke="black" stroke-width="2.50025" stroke-miterlimit="10"/>
<path d="M206.164 388.598L180.17 409.853C211.445 457.547 187.774 466.301 187.774 466.301C183.183 467.18 178.546 467.803 173.886 468.168C151.28 469.799 128.091 463.965 109.457 450.898C71.7408 424.435 38.8907 371.474 56.4108 325.362C57.8848 321.462 59.686 317.693 61.7945 314.096C63.6116 310.969 65.9251 308.158 68.6443 305.774C73.4039 301.607 79.2652 298.903 85.5244 297.987C91.7829 297.071 98.1734 297.981 103.928 300.609C106.13 301.614 108.214 302.863 110.139 304.332C119.988 311.869 128.942 322.582 136.662 333.824C143.516 343.99 149.685 354.603 155.125 365.591C156.628 368.59 157.99 371.425 159.195 374.023C170.114 369.606 179.27 362.105 187.786 354.002C177.487 373.226 206.164 388.598 206.164 388.598Z" fill="#353642"/>
<path d="M187.975 404.146C187.476 404.53 186.959 404.931 186.442 405.314" stroke="black" stroke-width="2.50025" stroke-miterlimit="10"/>
<path d="M111.124 323.343C118.018 336.544 124.913 349.769 131.808 363.018C137.009 373.019 145.799 379.194 158.179 374.455C171.647 369.296 182.512 359.435 192.562 349.386C202.612 339.336 212.795 329.724 227.304 327.133C246.059 323.781 263.804 334.001 276.579 346.916C277.562 347.901 278.184 349.188 278.344 350.571C278.504 351.953 278.193 353.349 277.461 354.532C276.991 355.289 276.364 355.936 275.622 356.429C274.88 356.922 274.041 357.249 273.161 357.388C272.281 357.527 271.382 357.475 270.524 357.235C269.666 356.995 268.87 356.574 268.19 355.998C262.137 350.833 252.288 343.363 245.438 343.266" stroke="black" stroke-width="2.50025" stroke-miterlimit="10"/>
<path d="M226.75 360.986C228.855 362.392 231.775 363.949 234.208 363.949" stroke="black" stroke-width="2.50025" stroke-miterlimit="10"/>
<path d="M253.724 345.828C258.213 348.049 259.85 354.546 256.68 358.427C252.662 363.413 247.626 367.486 241.91 370.374C235.656 373.495 231.641 371.591 225.485 367.783" stroke="black" stroke-width="2.50025" stroke-miterlimit="10"/>
<path d="M243.333 351.649C243.333 351.649 252.227 353.852 251.99 362.484C251.974 362.852 251.908 363.216 251.795 363.567" stroke="black" stroke-width="2.50025" stroke-miterlimit="10"/>
<path d="M237.049 357.087C237.049 357.087 248.979 364.795 243.303 369.643" stroke="black" stroke-width="2.50025" stroke-miterlimit="10"/>
<path d="M467.492 387.296C453.439 425.92 414.099 427.008 409.597 427.008C411.483 423.036 411.994 416.058 407.863 403.831C410.63 399.79 412.087 394.996 412.036 390.098C411.985 385.201 410.428 380.439 407.577 376.456C407.632 376.407 407.662 376.34 407.711 376.292C409.678 376.172 411.631 375.877 413.545 375.41C420.334 373.791 433.717 370.239 444.339 365.238C451.541 361.838 459.943 367.288 459.328 375.239C459.328 375.343 459.328 375.44 459.292 375.556C460.698 375.555 462.084 375.893 463.331 376.543C464.578 377.193 465.65 378.134 466.455 379.287C467.26 380.44 467.775 381.77 467.956 383.165C468.136 384.559 467.977 385.977 467.492 387.296Z" fill="#2079FF"/>
<path d="M287.164 477.884C282.431 486.005 275.064 492.922 267.946 498.957C242.889 520.163 210.155 530.931 177.305 531.351C144.345 530.931 111.489 520.127 86.3164 499.109C6.77674 432.691 21.1517 354.271 34.0179 317.959C34.4711 316.704 35.0845 315.512 35.8429 314.413C36.8489 312.941 38.1549 311.699 39.6752 310.768C41.1955 309.837 42.8954 309.238 44.6638 309.011C51.4163 309.941 57.5483 315.544 56.4655 324.219C56.4655 324.554 56.3316 325.016 56.3012 325.351C38.7933 371.462 71.6556 424.424 109.348 450.886C126.448 462.889 147.387 468.789 168.192 468.406H168.429C170.213 468.37 171.996 468.287 173.776 468.157C185.463 467.305 196.82 464.507 208.068 461.118C221.269 457.17 234.324 452.383 247.513 449.031C252.148 447.851 256.796 446.713 261.468 445.648C264.164 445.096 266.921 444.905 269.668 445.083C285.868 446.178 297.25 460.583 287.164 477.884Z" fill="#D7E8F0"/>
<path d="M291.167 477.884C286.434 486.005 279.061 492.922 271.943 498.957C245.888 521.027 211.511 531.807 177.287 531.351C144.327 530.931 111.471 520.127 86.2982 499.109C6.77689 432.691 21.1518 354.271 34.018 317.959C34.4713 316.704 35.0846 315.512 35.843 314.413C36.849 312.941 38.1551 311.699 39.6754 310.768C41.1957 309.837 42.896 309.238 44.6638 309.011C51.4163 309.941 57.5483 315.544 56.4655 324.219C56.4655 324.554 56.3317 325.016 56.3012 325.351C38.7935 371.462 71.6556 424.424 109.348 450.886C126.448 462.889 147.387 468.789 168.192 468.406H168.429C171.564 468.455 174.681 468.372 177.779 468.157C189.465 467.305 200.817 464.507 212.071 461.118C225.272 457.17 238.327 452.383 251.515 449.031C256.145 447.851 260.799 446.713 265.464 445.648C266.851 445.365 268.256 445.176 269.668 445.083C287.882 443.86 302.068 459.184 291.167 477.884Z" fill="#D7E8F0"/>
<path d="M182.78 531.239L190.786 542.566C190.786 542.566 239.227 544.452 265.738 566.705C270.641 570.824 267.709 578.823 261.31 578.823C259.705 578.829 258.151 578.264 256.924 577.229C250.664 571.973 226.75 555.451 172.657 554.952C119.951 554.459 99.7363 570.769 94.1457 576.712C93.5081 577.384 92.7398 577.917 91.8882 578.28C91.0365 578.643 90.1197 578.828 89.1938 578.823H88.1536C81.5836 578.823 78.8035 570.525 83.9926 566.498C106.124 549.289 155.733 543.801 155.733 543.801L164.201 531.026" fill="#353642"/>
<path d="M397.163 468.432C397.163 468.432 412 482.527 407.37 526.223C407.033 529.343 405.948 532.336 404.207 534.947L402.595 537.38C399.951 541.339 395.965 544.209 391.371 545.459C381.68 548.105 364.1 554.237 353.241 565.856C348.654 570.778 352.067 578.795 358.795 578.795C360.049 578.799 361.286 578.492 362.393 577.902C363.499 577.312 364.443 576.456 365.14 575.413C369.562 568.758 382.952 554.626 415.248 554.924C451.675 555.259 466.348 569.743 471.051 575.985C471.7 576.856 472.544 577.562 473.515 578.05C474.485 578.538 475.555 578.793 476.641 578.795C478.003 578.792 479.334 578.393 480.471 577.645C481.608 576.897 482.503 575.833 483.045 574.584C483.587 573.335 483.752 571.955 483.522 570.613C483.29 569.271 482.674 568.026 481.745 567.03C467.541 551.597 450.167 545.842 440.579 543.707C435.763 542.668 431.507 539.868 428.65 535.853C426.462 532.757 425.218 529.093 425.067 525.305C424.532 511.757 424.252 478.871 433.431 468.444" fill="#353642"/>
<path d="M208.19 461.135C234.281 448.47 262.599 440.16 290.443 432.337C318.462 424.465 346.756 417.597 375.135 411.142C386.474 408.569 397.917 406.276 409.201 403.374" stroke="black" stroke-width="2.50025" stroke-miterlimit="10"/>
<path d="M232.669 363.773H232.687H232.699" stroke="black" stroke-width="2.50025" stroke-miterlimit="10"/>
<path d="M229.743 362.124C228.107 363.742 222.267 372.386 220.801 373.938C212.746 382.569 204.191 390.719 195.178 398.344C192.909 400.23 190.506 402.176 187.975 404.147C187.476 404.531 186.959 404.932 186.442 405.315C169.287 418.334 146.9 430.865 126.217 422.835C125.669 422.635 125.134 422.404 124.605 422.166C92.8803 407.962 70.7066 372.386 68.7721 338.046C68.7052 336.927 68.6687 335.813 68.6565 334.712C68.4862 325.326 69.8732 315.939 78.8765 310.987" stroke="black" stroke-width="2.50025" stroke-miterlimit="10"/>
<path d="M56.4594 325.229L56.5871 324.232C58.6068 308.038 35.6119 302.575 30.1551 317.96C17.295 354.265 2.91396 432.667 82.4717 499.097C133.821 541.99 216.956 542.289 268.111 498.957C275.228 492.928 282.595 486 287.334 477.878C299.324 457.341 281.013 440.873 260.361 445.929" stroke="black" stroke-width="2.50025" stroke-miterlimit="10"/>
<path d="M182.78 531.239L190.786 542.566C190.786 542.566 239.227 544.452 265.738 566.705C270.641 570.824 267.709 578.823 261.31 578.823C259.705 578.829 258.151 578.264 256.924 577.229C250.664 571.973 226.75 555.451 172.657 554.952C119.951 554.459 99.7363 570.769 94.1457 576.712C93.5081 577.384 92.7398 577.917 91.8882 578.28C91.0365 578.643 90.1197 578.828 89.1938 578.823H88.1536C81.5836 578.823 78.8035 570.525 83.9926 566.498C106.124 549.289 155.733 543.801 155.733 543.801L164.201 531.026" stroke="black" stroke-width="2.50025" stroke-miterlimit="10"/>
<path d="M155.733 364.621C176.039 359.146 184.404 330.499 187.774 311.239" stroke="black" stroke-width="2.50025" stroke-miterlimit="10"/>
<path d="M136.644 333.841C142.285 333.102 147.642 330.929 152.204 327.529C156.766 324.13 160.379 319.617 162.699 314.423C163.184 313.389 163.42 312.257 163.389 311.116C163.357 309.975 163.058 308.857 162.516 307.853C160.302 303.753 156.999 299.002 157.783 294.086C158.349 290.619 161.202 288.179 164.475 287.395C166.134 286.96 167.881 286.989 169.524 287.48C170.509 287.759 171.42 288.254 172.19 288.928C172.96 289.602 173.57 290.439 173.977 291.379C174.774 293.247 173.825 295.096 172.359 296.313C170.893 297.529 169.177 297.961 167.389 298.448C167.158 298.515 166.525 298.649 165.826 298.783" stroke="black" stroke-width="2.50025" stroke-miterlimit="10"/>
<path d="M409.177 403.364C409.177 403.364 449.206 394.981 456.725 382.905C458.134 380.704 459.012 378.205 459.292 375.605" stroke="black" stroke-width="2.50025" stroke-miterlimit="10"/>
<path d="M212.211 382.74C282.029 375.324 360.833 376.419 360.833 376.419H405.059C407.917 376.423 410.766 376.088 413.545 375.421C420.334 373.803 433.717 370.257 444.339 365.25C451.541 361.849 459.943 367.3 459.328 375.257C459.328 375.354 459.328 375.458 459.292 375.573C460.695 375.574 462.077 375.913 463.322 376.561C464.567 377.209 465.637 378.148 466.441 379.298C467.246 380.447 467.761 381.774 467.945 383.165C468.127 384.557 467.972 385.972 467.492 387.29C452.576 428.285 409.177 427.002 409.177 427.002C403.629 427.166 398.093 427.385 392.539 427.671C343.611 430.05 295.115 436.918 247.64 449.042C234.452 452.394 221.397 457.175 208.196 461.129C196.942 464.53 185.572 467.31 173.886 468.162C151.28 469.798 128.091 463.958 109.457 450.891C68.6443 422.251 33.5192 362.537 61.7945 314.065C71.7772 296.958 94.3829 292.274 110.139 304.331C132.361 321.334 150.112 354.458 159.219 373.998" stroke="black" stroke-width="2.50025" stroke-miterlimit="10"/>
<path d="M466.567 468.432H369.404" stroke="black" stroke-width="2.50025" stroke-miterlimit="10"/>
<path d="M349.792 448.805C349.806 443.604 351.878 438.62 355.555 434.941C359.232 431.263 364.216 429.19 369.416 429.174H466.592C471.794 429.188 476.778 431.261 480.457 434.94C484.135 438.618 486.208 443.603 486.223 448.805" stroke="black" stroke-width="2.50025" stroke-miterlimit="10"/>
<path d="M488.133 455.765C488.138 457.43 487.813 459.08 487.178 460.619C486.543 462.159 485.609 463.556 484.432 464.734C483.254 465.911 481.855 466.843 480.316 467.478C478.776 468.112 477.126 468.436 475.461 468.43H360.486C357.608 468.158 354.952 466.767 353.089 464.557C351.225 462.346 350.304 459.493 350.522 456.611C350.741 453.728 352.081 451.046 354.256 449.142C356.432 447.237 359.267 446.263 362.153 446.427H477.128C479.169 446.424 481.181 446.915 482.99 447.859C484.8 448.803 486.353 450.171 487.518 451.847C487.925 453.113 488.133 454.435 488.133 455.765Z" fill="#D7E8F0"/>
<path d="M488.133 455.765C488.138 457.43 487.813 459.08 487.178 460.619C486.543 462.158 485.609 463.557 484.432 464.734C483.254 465.911 481.855 466.844 480.316 467.478C478.776 468.113 477.126 468.436 475.461 468.431H360.486C358.799 468.468 357.121 468.168 355.552 467.548C353.983 466.927 352.553 466 351.347 464.82C350.141 463.64 349.182 462.231 348.528 460.675C347.874 459.12 347.537 457.45 347.537 455.762C347.537 454.075 347.874 452.404 348.528 450.849C349.182 449.293 350.141 447.885 351.347 446.704C352.553 445.524 353.983 444.597 355.552 443.977C357.121 443.357 358.799 443.057 360.486 443.094H475.461C478.138 443.093 480.746 443.939 482.912 445.511C485.078 447.084 486.69 449.302 487.518 451.848C487.925 453.114 488.132 454.436 488.133 455.765Z" stroke="black" stroke-width="2.50025" stroke-miterlimit="10"/>
<path d="M187.555 310.788L187.324 312.74C187.218 313.627 186.792 314.443 186.125 315.036C185.458 315.629 184.597 315.957 183.705 315.959H171.069C170.177 315.957 169.316 315.629 168.649 315.036C167.982 314.443 167.556 313.627 167.45 312.74L165.819 298.749C166.519 298.615 167.152 298.481 167.383 298.414C169.171 297.928 170.905 297.514 172.353 296.279C173.801 295.044 174.786 293.237 173.971 291.345C173.564 290.406 172.954 289.568 172.184 288.894C171.414 288.22 170.503 287.725 169.518 287.446C167.874 286.956 166.128 286.926 164.469 287.361L164.086 284.027C164.029 283.518 164.081 283.002 164.237 282.514C164.393 282.026 164.65 281.576 164.992 281.194C165.333 280.811 165.751 280.505 166.219 280.296C166.686 280.086 167.193 279.977 167.705 279.976H187.093C187.605 279.977 188.111 280.088 188.578 280.297C189.044 280.508 189.462 280.814 189.802 281.196C190.143 281.578 190.4 282.027 190.556 282.515C190.711 283.003 190.763 283.518 190.706 284.027L190.256 287.829" stroke="black" stroke-width="2.50025" stroke-miterlimit="10"/>
<path d="M189.24 296.521L189.222 296.656" stroke="black" stroke-width="2.50025" stroke-miterlimit="10"/>
<path d="M188.291 304.559V304.504" stroke="black" stroke-width="2.50025" stroke-miterlimit="10"/>
<path d="M188.474 304.556C188.42 304.547 188.364 304.547 188.31 304.556C188.233 304.548 188.155 304.548 188.078 304.556C187.29 304.56 186.531 304.858 185.953 305.394C185.374 305.929 185.018 306.663 184.954 307.449C184.891 308.234 185.125 309.015 185.61 309.637C186.095 310.258 186.795 310.675 187.573 310.804C187.909 310.871 188.254 310.871 188.589 310.804C190.108 310.562 191.494 309.795 192.507 308.638C193.857 306.418 194.795 303.972 195.275 301.417C195.284 301.392 195.284 301.364 195.275 301.338C195.646 299.456 195.787 297.536 195.695 295.62M195.695 295.62C195.695 294.799 195.591 293.984 195.494 293.187C195.308 291.853 194.699 290.615 193.756 289.655C192.812 288.694 191.586 288.062 190.256 287.852C190.189 287.852 190.11 287.852 190.043 287.815C187.488 287.499 183.905 288.466 183.242 291.35C182.634 293.953 185.457 296.186 187.774 296.387C187.774 296.387 188.383 296.466 189.24 296.52C190.956 296.636 193.809 296.618 195.695 295.62ZM195.695 295.62C195.972 295.477 196.233 295.303 196.473 295.103" stroke="black" stroke-width="2.50025" stroke-miterlimit="10"/>
<path d="M191.138 296.662H190.719H187.476H186.047C185.08 296.665 184.152 297.038 183.451 297.705C182.751 298.371 182.332 299.28 182.281 300.245C182.234 301.183 182.536 302.105 183.13 302.833C183.723 303.561 184.565 304.044 185.493 304.187C189.691 304.862 194.484 305.002 195.305 301.243" stroke="black" stroke-width="2.50025" stroke-miterlimit="10"/>
<path d="M397.163 468.432C397.163 468.432 412 482.527 407.37 526.223C407.033 529.343 405.948 532.336 404.207 534.947L402.595 537.38C399.951 541.339 395.965 544.209 391.371 545.459C381.68 548.105 364.1 554.237 353.241 565.856C348.654 570.778 352.067 578.795 358.795 578.795C360.049 578.799 361.286 578.492 362.393 577.902C363.499 577.312 364.443 576.456 365.14 575.413C369.562 568.758 382.952 554.626 415.248 554.924C451.675 555.259 466.348 569.743 471.051 575.985C471.7 576.856 472.544 577.562 473.515 578.05C474.485 578.538 475.555 578.793 476.641 578.795C478.003 578.792 479.334 578.393 480.471 577.645C481.608 576.897 482.503 575.833 483.045 574.584C483.587 573.335 483.752 571.955 483.522 570.613C483.29 569.271 482.674 568.026 481.745 567.03C467.541 551.597 450.167 545.842 440.579 543.707C435.763 542.668 431.507 539.868 428.65 535.853C426.462 532.757 425.218 529.093 425.067 525.305C424.531 511.757 424.252 478.871 433.431 468.444" stroke="black" stroke-width="2.50025" stroke-miterlimit="10"/>
<path d="M366.32 366.296V367.282C366.32 374.028 360.882 375.19 356.185 375.306L265.294 377.423C261.31 377.52 257.958 374.04 257.872 369.685V369.502C257.872 365.244 261.011 361.685 264.941 361.594C264.941 361.594 315.792 360.158 355.163 359.075C355.918 361.46 357.743 363.297 360.03 364.739C361.925 365.872 364.115 366.414 366.32 366.296Z" stroke="black" stroke-width="2.50025" stroke-miterlimit="10"/>
<path d="M414.634 270.119C414.639 271.229 414.384 272.324 413.892 273.318L373.243 356.648C372.766 357.615 372.083 358.467 371.243 359.143C370.402 359.818 369.424 360.302 368.376 360.559C366.698 360.99 364.921 360.808 363.364 360.048C362.115 359.434 361.065 358.48 360.332 357.297C359.6 356.114 359.215 354.749 359.221 353.357C359.224 353.015 359.248 352.674 359.294 352.335C359.402 351.58 359.628 350.848 359.963 350.163L400.606 266.821C401.34 265.326 402.559 264.123 404.064 263.409C405.569 262.695 407.272 262.511 408.895 262.889C410.518 263.266 411.965 264.182 413.001 265.487C414.036 266.793 414.599 268.41 414.597 270.076L414.634 270.119Z" stroke="black" stroke-width="2.50025" stroke-miterlimit="10"/>
<path d="M85.5499 261.895C85.5012 261.724 85.4343 261.56 85.3796 261.396C85.3248 261.231 85.2457 261.043 85.1971 260.86" stroke="black" stroke-width="2.50025" stroke-linecap="round" stroke-linejoin="round"/>
<path d="M85.5499 261.902L86.797 260.648L89.1817 258.233" stroke="black" stroke-width="2.50025" stroke-linecap="round" stroke-linejoin="round"/>
<path d="M99.5842 265.199C99.5842 265.199 101.184 269.975 107.298 270.297" stroke="black" stroke-width="2.50025" stroke-miterlimit="10"/>
<path d="M72.3917 276.385C66.9167 279.153 60.7056 273.167 61.1375 268.234C61.4173 264.851 60.6508 262.516 58.1506 260.064C57.9863 259.899 57.8343 259.729 57.6883 259.565C56.7362 258.529 56.1175 257.232 55.9113 255.84C55.7051 254.449 55.9217 253.027 56.5324 251.76C57.67 249.114 60.1216 247.562 58.4183 244.709C57.6706 243.476 57.1249 242.131 56.8001 240.725C56.46 238.861 56.5239 236.946 56.9868 235.108C57.4498 233.271 58.3008 231.554 59.4828 230.073C61.9892 227.031 66.0711 227.871 69.423 226.806C73.4563 225.522 75.3421 221.185 79.5761 219.853C81.6931 219.19 83.658 219.488 85.775 219.968C87.5574 220.388 89.3459 220.857 91.0797 221.404C92.8134 221.952 94.3951 222.42 96.1288 221.903C98.3979 221.24 100.144 219.153 102.614 219.135C105.083 219.117 106.981 220.571 108.089 222.602C109.841 225.79 109.853 230.426 108.204 233.175C106.501 236.022 102.936 237.227 99.8701 237.841C95.9524 238.644 91.9009 238.857 87.9346 239.21L85.629 239.776C84.7518 240.048 84.0187 240.657 83.5899 241.469C83.161 242.281 83.0716 243.23 83.3417 244.107C84.7682 249.016 86.7307 253.753 89.1938 258.233" stroke="black" stroke-width="2.50025" stroke-miterlimit="10"/>
<path d="M89.1817 277.085C89.1817 277.085 101.251 285.924 108.131 281.051C115.011 276.178 111.124 261.895 111.124 261.895" stroke="black" stroke-width="2.50025" stroke-linecap="round" stroke-linejoin="round"/>
<path d="M174.464 273.873C174.464 273.873 169.336 270.405 172.596 266.865C175.857 263.324 171.513 258.652 171.513 258.652" stroke="black" stroke-width="2.50025" stroke-miterlimit="10"/>
<path d="M179.197 274.475C179.197 274.475 182.591 272.182 180.413 269.833C178.236 267.485 181.137 264.358 181.137 264.358" stroke="black" stroke-width="2.50025" stroke-miterlimit="10"/>
<path d="M202.587 241.432C239.517 241.432 269.455 211.494 269.455 174.564C269.455 137.634 239.517 107.696 202.587 107.696C165.657 107.696 135.719 137.634 135.719 174.564C135.719 211.494 165.657 241.432 202.587 241.432Z" stroke="#CCDDE2" stroke-width="2.50025" stroke-miterlimit="10"/>
<path d="M202.587 211.287C222.87 211.287 239.312 194.844 239.312 174.562C239.312 154.279 222.87 137.837 202.587 137.837C182.304 137.837 165.862 154.279 165.862 174.562C165.862 194.844 182.304 211.287 202.587 211.287Z" stroke="#CCDDE2" stroke-width="2.50025" stroke-miterlimit="10"/>
<path d="M202.587 180.858C206.064 180.858 208.883 178.039 208.883 174.562C208.883 171.085 206.064 168.266 202.587 168.266C199.11 168.266 196.291 171.085 196.291 174.562C196.291 178.039 199.11 180.858 202.587 180.858Z" stroke="#CCDDE2" stroke-width="2.50025" stroke-miterlimit="10"/>
<path d="M215.624 153.54L205.903 169.211" stroke="#CCDDE2" stroke-width="2.50025" stroke-miterlimit="10"/>
<path d="M202.587 137.837V144.37" stroke="#CCDDE2" stroke-width="2.50025" stroke-miterlimit="10"/>
<path d="M239.312 174.563H233.119" stroke="#CCDDE2" stroke-width="2.50025" stroke-miterlimit="10"/>
<path d="M202.587 211.295V204.944" stroke="#CCDDE2" stroke-width="2.50025" stroke-miterlimit="10"/>
<path d="M165.856 174.563H171.44" stroke="#CCDDE2" stroke-width="2.50025" stroke-miterlimit="10"/>
<path d="M266.675 285.743C280.416 285.743 291.556 274.603 291.556 260.862C291.556 247.121 280.416 235.981 266.675 235.981C252.934 235.981 241.794 247.121 241.794 260.862C241.794 274.603 252.934 285.743 266.675 285.743Z" fill="#2079FF"/>
<path d="M274.857 252.552C274.506 251.743 274.034 250.992 273.458 250.326C272.472 249.159 271.095 248.392 269.584 248.168C268.074 247.945 266.533 248.279 265.252 249.109C264.416 249.654 263.717 250.385 263.21 251.245C262.704 252.106 262.403 253.071 262.332 254.067C261.022 253.587 259.592 253.545 258.256 253.949C256.922 254.353 255.754 255.18 254.93 256.305C254.106 257.431 253.67 258.794 253.688 260.188C253.707 261.583 254.178 262.934 255.032 264.037C256.814 266.361 259.843 267.888 262.587 268.776C264.026 269.237 265.508 269.551 267.01 269.713C267.77 269.798 272.107 270.382 272.485 269.713C275.192 265.479 277.114 257.723 274.857 252.552Z" fill="white"/>
<g opacity="0.72">
<path opacity="0.72" d="M328.689 250.56C336.255 250.56 342.388 244.427 342.388 236.861C342.388 229.295 336.255 223.161 328.689 223.161C321.123 223.161 314.989 229.295 314.989 236.861C314.989 244.427 321.123 250.56 328.689 250.56Z" fill="#2079FF"/>
<path opacity="0.72" d="M334.632 239.286C334.971 238.941 335.254 238.545 335.471 238.112C335.862 237.367 335.967 236.503 335.767 235.686C335.566 234.868 335.074 234.152 334.383 233.672C333.931 233.359 333.413 233.156 332.869 233.078C332.326 233 331.771 233.049 331.25 233.221C331.22 232.454 330.942 231.716 330.457 231.121C329.972 230.525 329.306 230.104 328.56 229.919C327.814 229.736 327.029 229.799 326.322 230.101C325.616 230.402 325.026 230.925 324.643 231.591C323.898 233.097 323.608 234.789 323.81 236.458C323.878 237.281 324.029 238.097 324.26 238.891C324.375 239.299 324.984 241.629 325.397 241.702C328.117 242.158 332.472 241.519 334.632 239.286Z" fill="white"/>
</g>
<path d="M309.057 301.556L302.545 315.327C300.183 320.32 302.317 326.281 307.31 328.643L321.08 335.155C326.073 337.517 332.036 335.383 334.397 330.39L340.909 316.619C343.27 311.626 341.137 305.664 336.144 303.303L322.373 296.791C317.38 294.429 311.418 296.563 309.057 301.556Z" fill="#2079FF"/>
<path d="M337.193 319.031L332.478 329.002C331.489 331.078 329.718 332.68 327.553 333.456C325.388 334.231 323.003 334.12 320.92 333.144L308.96 327.487C306.885 326.496 305.285 324.726 304.51 322.56C303.735 320.395 303.848 318.011 304.824 315.929L305.14 315.259C308.388 312.668 314.003 309.176 316.053 313.927C319.004 320.789 322.842 318.575 327.746 315.703C331.84 313.282 336.755 312.473 337.193 319.031Z" fill="white"/>
<path d="M318.669 308.433C320.702 308.433 322.35 306.785 322.35 304.753C322.35 302.72 320.702 301.072 318.669 301.072C316.637 301.072 314.989 302.72 314.989 304.753C314.989 306.785 316.637 308.433 318.669 308.433Z" fill="white"/>
<path d="M381.462 256.389C382.193 257.723 382.724 259.158 383.037 260.648C383.594 263.372 383.434 266.194 382.573 268.838C381.711 271.481 380.177 273.856 378.122 275.728C376.491 277.17 374.417 278.295 372.768 279.804C371.566 280.842 370.68 282.198 370.213 283.716C370.128 284.234 369.92 284.725 369.605 285.145C368.644 286.179 367.701 284.537 366.868 284.257C365.524 283.82 364.067 283.891 362.774 284.458C359.371 285.881 355.582 286.083 352.047 285.03C348.513 283.978 345.452 281.735 343.382 278.683C341.312 275.631 340.362 271.957 340.692 268.284C341.022 264.611 342.612 261.165 345.193 258.531C347.742 255.933 351.075 254.272 354.318 252.581C357.153 251.079 359.975 249.479 363.053 248.578C370.268 246.419 377.97 250.014 381.462 256.389Z" fill="#2079FF"/>
<path d="M352.407 275.181C354.323 275.181 355.875 273.629 355.875 271.714C355.875 269.799 354.323 268.246 352.407 268.246C350.492 268.246 348.94 269.799 348.94 271.714C348.94 273.629 350.492 275.181 352.407 275.181Z" fill="white"/>
<path d="M361.745 270.187C363.66 270.187 365.213 268.634 365.213 266.719C365.213 264.804 363.66 263.252 361.745 263.252C359.83 263.252 358.278 264.804 358.278 266.719C358.278 268.634 359.83 270.187 361.745 270.187Z" fill="white"/>
<path d="M370.505 265.503C372.42 265.503 373.973 263.951 373.973 262.036C373.973 260.121 372.42 258.568 370.505 258.568C368.59 258.568 367.038 260.121 367.038 262.036C367.038 263.951 368.59 265.503 370.505 265.503Z" fill="white"/>
<path d="M264.783 149.98C264.783 149.98 287.614 220.596 375.5 216.782C404.7 213.132 439.454 216.782 470.4 257.54C517.442 319.541 498.554 388.611 477.177 432.453" stroke="#CCDDE2" stroke-width="2.50025" stroke-miterlimit="10"/>
<g opacity="0.54">
<path opacity="0.54" d="M391.821 177.714C391.735 178.779 391.571 179.837 391.329 180.877L388.591 192.752C387.752 196.402 386.809 200.222 384.205 202.887C379.338 207.851 371.248 206.713 364.483 205.211L347.875 201.524C344.061 200.679 340.186 199.809 336.767 197.917C333.348 196.025 330.38 192.928 329.589 189.102C328.981 186.279 329.632 183.359 330.252 180.549L332.758 169.149C333.592 165.414 334.529 161.472 337.224 158.752C342.023 153.916 349.999 155.017 356.629 156.459L373.638 160.158C383.895 162.372 392.637 167.129 391.821 177.714Z" fill="#2079FF"/>
<path opacity="0.54" d="M368.918 178.03C369.629 178.692 370.154 179.529 370.439 180.457C370.724 181.386 370.759 182.373 370.542 183.32C370.324 184.266 369.861 185.139 369.199 185.85C368.537 186.56 367.699 187.084 366.77 187.368L361.709 188.92L356.648 190.471C355.719 190.755 354.731 190.79 353.785 190.571C352.839 190.353 351.967 189.89 351.255 189.227C350.545 188.566 350.021 187.728 349.736 186.8C349.452 185.871 349.416 184.884 349.634 183.937L350.85 178.779L352.036 173.626C352.253 172.679 352.715 171.806 353.377 171.094C354.039 170.383 354.876 169.858 355.805 169.573C356.734 169.288 357.721 169.253 358.668 169.471C359.615 169.69 360.487 170.153 361.198 170.816L365.073 174.423L368.918 178.03Z" fill="white"/>
</g>
</svg>
