<svg width="80" height="80" viewBox="0 0 80 80" fill="none" xmlns="http://www.w3.org/2000/svg">
<g clip-path="url(#clip0_91_170)">
<g filter="url(#filter0_d_91_170)">
<path d="M40 8C22.328 8 8 22.328 8 40C8 57.672 22.328 72 40 72C57.672 72 72 57.672 72 40C72 22.328 57.672 8 40 8ZM55.7173 29.9227L50.464 54.6693C50.0773 56.424 49.032 56.8507 47.5733 56.024L39.5733 50.1307L35.7173 53.848C35.5284 54.0926 35.2859 54.2906 35.0086 54.427C34.7313 54.5634 34.4264 54.6344 34.1173 54.6347H34.104L34.672 46.4907L49.4986 33.0987C50.1386 32.5307 49.3546 32.208 48.504 32.776L30.1867 44.312L22.2933 41.848C20.5867 41.3067 20.5387 40.1413 22.6533 39.304L53.496 27.416C54.9306 26.8933 56.1786 27.7573 55.7146 29.9253L55.7173 29.9227Z" fill="#2079FF"/>
</g>
</g>
<defs>
<filter id="filter0_d_91_170" x="-2" y="-2" width="84" height="84" filterUnits="userSpaceOnUse" color-interpolation-filters="sRGB">
<feFlood flood-opacity="0" result="BackgroundImageFix"/>
<feColorMatrix in="SourceAlpha" type="matrix" values="0 0 0 0 0 0 0 0 0 0 0 0 0 0 0 0 0 0 127 0" result="hardAlpha"/>
<feOffset/>
<feGaussianBlur stdDeviation="5"/>
<feComposite in2="hardAlpha" operator="out"/>
<feColorMatrix type="matrix" values="0 0 0 0 0 0 0 0 0 0 0 0 0 0 0 0 0 0 0.25 0"/>
<feBlend mode="normal" in2="BackgroundImageFix" result="effect1_dropShadow_91_170"/>
<feBlend mode="normal" in="SourceGraphic" in2="effect1_dropShadow_91_170" result="shape"/>
</filter>
<clipPath id="clip0_91_170">
<rect width="80" height="80" fill="white"/>
</clipPath>
</defs>
</svg>
