<svg width="380" height="463" viewBox="0 0 380 463" fill="none" xmlns="http://www.w3.org/2000/svg">
<path d="M105.342 311.75C111.212 298.386 114.917 282.966 115.267 265.084C116.963 177.621 215.857 110.128 325.56 184.314C435.263 258.499 338.307 462.588 338.307 462.588" stroke="#CCDDE2" stroke-width="2.29758" stroke-miterlimit="10"/>
<path d="M28.6426 462.589C23.7956 458.78 -13.1558 422.651 9.03865 401.973C18.522 393.148 38.9329 382.842 59.3798 367.129" stroke="#CCDDE2" stroke-width="2.29758" stroke-miterlimit="10"/>
<path d="M293.06 243.367C293.458 245.437 294.504 247.327 296.046 248.764" stroke="#CCDDE2" stroke-width="2.29758" stroke-miterlimit="10"/>
<path d="M206.934 283.08C206.173 283.28 205.531 283.424 205.022 283.543C204.641 283.609 204.328 283.676 204.112 283.707H204.066L203.768 283.758C203.768 283.758 203.737 283.722 203.716 283.722C198.576 279.95 200.154 272.928 200.154 272.928C215.523 275.349 218.71 262.9 218.71 262.9C218.509 256.933 217.373 254.126 214.752 252.512C212.012 250.796 207.643 250.354 200.966 248.914L199.861 248.668C189.931 246.411 185.3 236.219 183.47 230.565C183.044 229.312 182.7 228.033 182.442 226.735C171.195 230.96 164.154 236.943 160.098 241.431C158.494 209.619 190.424 214.189 190.424 214.189C195.797 214.266 201.137 215.046 206.307 216.512C207.479 217.026 208.599 217.54 209.668 218.054C210.182 218.316 210.727 218.599 211.21 218.892C211.693 219.185 212.238 219.472 212.711 219.765C213.056 219.966 213.405 220.182 213.739 220.408C220.763 224.865 226.377 231.225 229.93 238.747C229.981 238.849 230.025 238.954 230.064 239.061C230.226 239.409 230.368 239.766 230.49 240.13C237.717 271.751 215.42 280.803 206.934 283.08Z" fill="#2079FF"/>
<path d="M206.934 283.079C204.693 279.352 205.731 274.855 205.731 274.855C221.084 277.281 224.281 264.832 224.281 264.832C223.952 255.677 221.48 253.96 214.752 252.496C212.259 251.935 209.195 251.421 205.433 250.583C203.87 250.232 202.366 249.66 200.966 248.882C190.743 243.28 187.988 228.636 187.988 228.636C186.405 229.227 184.904 229.869 183.47 230.532C183.044 229.28 182.7 228.001 182.442 226.703C171.195 230.928 164.154 236.911 160.098 241.398C158.494 209.587 190.424 214.156 190.424 214.156C195.797 214.233 201.137 215.015 206.307 216.48C207.479 216.994 208.599 217.508 209.668 218.022C210.182 218.284 210.727 218.566 211.21 218.859C211.693 219.152 212.238 219.44 212.711 219.733C213.056 219.934 213.405 220.15 213.739 220.376C220.763 224.834 226.377 231.193 229.93 238.715C229.981 238.817 230.025 238.922 230.064 239.029C230.226 239.377 230.368 239.734 230.49 240.098C237.717 271.75 215.42 280.802 206.934 283.079Z" fill="#2079FF"/>
<path d="M260.816 423.869C263.191 439.371 266.095 454.621 269.128 462.588H132.81C116.398 415.989 124.18 365.083 124.18 365.083L99.9704 365.843C114.532 340.298 109.351 318.699 106.894 311.493C125.912 308.26 144.93 305.721 164.148 305.505C163.634 316.504 175.641 329.149 192.958 325.823C199.979 324.487 208.537 321.711 208.722 309.411L213.241 310.203C219.491 311.231 225.145 312.331 230.506 313.57C244.384 316.767 256.309 320.766 271.168 325.823C250.608 341.043 260.827 376.195 260.827 376.195L261.341 377.367L254.777 376.195C254.777 376.195 257.208 400.307 260.816 423.869Z" fill="#353642"/>
<path d="M119.384 85.0908C132.976 85.0908 143.994 74.0721 143.994 60.4804C143.994 46.8882 132.976 35.8701 119.384 35.8701C105.792 35.8701 94.7738 46.8882 94.7738 60.4804C94.7738 74.0721 105.792 85.0908 119.384 85.0908Z" fill="#2079FF"/>
<path d="M127.475 52.2676C127.129 51.4663 126.662 50.7225 126.092 50.0626C125.119 48.9056 123.758 48.1438 122.263 47.9207C120.769 47.6971 119.244 48.0276 117.976 48.8495C117.147 49.3851 116.454 50.1068 115.953 50.9574C115.452 51.8076 115.155 52.7631 115.087 53.748C113.793 53.2797 112.381 53.2442 111.066 53.6467C109.749 54.0492 108.599 54.8674 107.788 55.9797C106.977 57.0915 106.549 58.4367 106.567 59.8126C106.586 61.1886 107.05 62.5219 107.891 63.6116C109.654 65.9092 112.651 67.4203 115.365 68.2993C116.788 68.7521 118.254 69.0641 119.739 69.2296C120.489 69.3119 124.781 69.8875 125.182 69.2296C127.803 65.0508 129.705 57.3768 127.475 52.2676Z" fill="white"/>
<path d="M77.9763 52.4828C76.3624 52.3029 74.7278 52.1898 73.0985 52.1024C71.3509 52.1898 69.6033 52.3183 67.8557 52.5342C62.3363 53.1499 56.9296 54.5341 51.7932 56.6462C49.4925 57.5924 47.2746 58.7289 45.1626 60.0437C43.6385 60.9596 42.1793 61.9779 40.7936 63.0917C39.7707 61.6253 38.9498 60.0278 38.3521 58.3424C37.3349 55.4984 36.9617 52.4648 37.2583 49.4589C37.5554 46.453 38.515 43.551 40.0688 40.9609C41.6226 38.3709 43.7311 36.1576 46.2435 34.4809C48.7554 32.8043 51.6081 31.7053 54.596 31.2643C57.5839 30.8228 60.6324 31.0495 63.5221 31.9279C66.4113 32.8068 69.0702 34.3154 71.3067 36.3457C73.5426 38.3755 75.3009 40.8761 76.4544 43.6677C77.6078 46.4592 78.1274 49.4718 77.9763 52.4879V52.4828Z" fill="#2079FF"/>
<path d="M67.8557 52.5338C62.3363 53.1496 56.9296 54.5338 51.7932 56.6458C51.4951 55.8543 51.2483 55.1038 51.1661 54.8468C50.7539 53.679 50.4563 52.4742 50.2769 51.2488C49.9633 48.905 50.0096 46.1088 51.0993 43.9757C51.6081 42.9513 52.4367 42.1207 53.4596 41.6088C54.4824 41.0968 55.6441 40.9318 56.7692 41.1385C57.8944 41.3451 58.9213 41.9125 59.6954 42.7545C60.4695 43.5964 60.9491 44.6671 61.0606 45.8056C61.8244 45.508 62.6463 45.3887 63.463 45.4576C64.2803 45.526 65.0703 45.7804 65.774 46.2014C66.8169 46.8377 67.5992 47.8241 67.9806 48.9847C68.362 50.1448 68.3178 51.403 67.8557 52.5338Z" fill="white"/>
<path d="M45.1626 60.0388C43.6386 60.9542 42.1793 61.9729 40.7936 63.0868C39.8648 63.8059 38.973 64.5707 38.1208 65.3792C37.029 66.4206 36.0673 67.591 35.2578 68.8641C34.5002 70.0489 33.8433 71.2959 33.2943 72.5906C32.4647 74.5706 31.8027 76.6168 31.3154 78.7072C30.3383 83.2166 29.7487 87.8009 29.5524 92.4105C25.9379 90.6053 23.0369 87.6359 21.3155 83.9809C19.5942 80.3258 19.1537 76.1979 20.064 72.2617C20.9748 68.326 23.1834 64.8107 26.3353 62.2829C29.4866 59.755 33.3971 58.3616 37.4372 58.3271C37.7507 58.3271 38.0437 58.3271 38.3572 58.3271C40.717 58.4402 43.0305 59.0221 45.1626 60.0388Z" fill="#2079FF"/>
<path d="M35.2578 68.8645C34.5001 70.0497 33.8432 71.2962 33.2943 72.591C32.4647 74.5709 31.8027 76.6171 31.3154 78.7076C30.2463 77.2221 29.3365 75.4437 29.1926 73.6652C29.1422 73.0258 29.2244 72.3833 29.4342 71.7768C29.6434 71.1708 29.9754 70.6141 30.4097 70.1417C30.8435 69.6694 31.3704 69.2921 31.9569 69.0325C32.5433 68.773 33.1771 68.6373 33.8186 68.6331C34.3079 68.627 34.7947 68.7056 35.2578 68.8645Z" fill="white"/>
<g opacity="0.72">
<path opacity="0.72" d="M147.834 57.3823C155.317 57.3823 161.383 51.3165 161.383 43.8332C161.383 36.3504 155.317 30.2842 147.834 30.2842C140.351 30.2842 134.285 36.3504 134.285 43.8332C134.285 51.3165 140.351 57.3823 147.834 57.3823Z" fill="#2079FF"/>
<path opacity="0.72" d="M153.714 46.2488C154.047 45.9044 154.328 45.5132 154.547 45.0871C154.933 44.3495 155.037 43.4963 154.838 42.6878C154.639 41.8792 154.152 41.1715 153.468 40.6976C153.022 40.3907 152.513 40.1902 151.978 40.1126C151.443 40.0355 150.898 40.0823 150.384 40.2504C150.355 39.4907 150.081 38.7608 149.601 38.1713C149.122 37.5817 148.463 37.1643 147.725 36.9819C146.987 36.7999 146.21 36.8626 145.511 37.1607C144.812 37.4594 144.229 37.9775 143.851 38.6364C143.049 40.0191 142.905 41.8592 143.028 43.4269C143.093 44.2467 143.242 45.0578 143.47 45.8478C143.583 46.2488 144.185 48.5515 144.596 48.6234C147.269 49.0758 151.576 48.4435 153.714 46.2488Z" fill="white"/>
</g>
<g opacity="0.72">
<path opacity="0.72" d="M141.795 195.529C147.137 195.529 151.468 191.198 151.468 185.855C151.468 180.513 147.137 176.182 141.795 176.182C136.452 176.182 132.121 180.513 132.121 185.855C132.121 191.198 136.452 195.529 141.795 195.529Z" fill="#2079FF"/>
<path opacity="0.72" d="M145.989 187.598C146.227 187.352 146.426 187.072 146.58 186.765C146.855 186.24 146.929 185.632 146.789 185.056C146.647 184.479 146.301 183.974 145.814 183.635C145.495 183.414 145.128 183.269 144.744 183.214C144.359 183.159 143.967 183.194 143.599 183.316C143.576 182.776 143.378 182.258 143.036 181.839C142.694 181.421 142.225 181.124 141.701 180.993C141.176 180.863 140.623 180.907 140.125 181.117C139.627 181.327 139.21 181.693 138.937 182.16C138.413 183.22 138.208 184.409 138.346 185.583C138.393 186.168 138.5 186.747 138.664 187.31C138.747 187.593 139.178 189.243 139.466 189.289C141.389 189.597 144.462 189.14 145.989 187.598Z" fill="white"/>
</g>
<path d="M120.277 69.7324L113.839 83.3467C111.502 88.2868 113.613 94.1854 118.553 96.5216L132.167 102.96C137.107 105.296 143.006 103.185 145.342 98.2455L151.781 84.6307C154.117 79.6906 152.006 73.792 147.066 71.4558L133.452 65.0175C128.512 62.6813 122.613 64.7923 120.277 69.7324Z" fill="#2079FF"/>
<path d="M148.112 87.0173L143.45 96.8758C142.474 98.9349 140.722 100.524 138.578 101.295C136.434 102.065 134.071 101.955 132.008 100.988L120.186 95.3955C118.127 94.4189 116.54 92.6672 115.769 90.5233C114.999 88.3794 115.108 86.0176 116.074 83.9539L116.388 83.2857C119.6 80.7157 125.156 77.2616 127.182 81.975C130.101 88.7598 133.894 86.565 138.747 83.7277C142.817 81.3273 147.68 80.5306 148.112 87.0173Z" fill="white"/>
<path d="M129.788 76.5341C131.797 76.5341 133.427 74.9047 133.427 72.895C133.427 70.8852 131.797 69.2559 129.788 69.2559C127.778 69.2559 126.148 70.8852 126.148 72.895C126.148 74.9047 127.778 76.5341 129.788 76.5341Z" fill="white"/>
<path d="M165.203 114.235L156.723 132.166C153.647 138.669 156.426 146.434 162.929 149.509L180.86 157.989C187.363 161.064 195.128 158.286 198.203 151.782L206.683 133.852C209.758 127.348 206.98 119.584 200.477 116.509L182.546 108.029C176.042 104.953 168.278 107.732 165.203 114.235Z" fill="#2079FF"/>
<path d="M201.845 137L195.677 149.978C194.389 152.685 192.08 154.772 189.257 155.783C186.434 156.793 183.326 156.645 180.612 155.37L165.068 148.02C162.361 146.731 160.274 144.422 159.264 141.599C158.253 138.777 158.402 135.668 159.677 132.955L160.093 132.076C164.323 128.704 171.632 124.145 174.3 130.349C178.15 139.282 183.141 136.393 189.53 132.656C194.87 129.515 201.28 128.457 201.845 137Z" fill="white"/>
<path d="M177.718 123.193C180.364 123.193 182.509 121.048 182.509 118.403C182.509 115.757 180.364 113.612 177.718 113.612C175.072 113.612 172.928 115.757 172.928 118.403C172.928 121.048 175.072 123.193 177.718 123.193Z" fill="white"/>
<path d="M200.041 63.1491C200.755 64.4639 201.275 65.8748 201.583 67.3382C202.13 70.0321 201.97 72.821 201.116 75.4337C200.263 78.0463 198.747 80.3933 196.715 82.2442C195.107 83.668 193.056 84.7833 191.421 86.2739C190.233 87.3019 189.359 88.6435 188.898 90.1444C188.811 90.6568 188.606 91.141 188.296 91.5579C187.34 92.5859 186.41 90.9719 185.582 90.6789C184.255 90.2482 182.815 90.3196 181.537 90.8794C178.178 92.2641 174.445 92.4491 170.965 91.4037C167.486 90.3582 164.473 88.1459 162.433 85.1395C160.394 82.1326 159.453 78.5151 159.768 74.8955C160.083 71.2765 161.635 67.8758 164.164 65.2668C166.682 62.6968 169.982 61.0674 173.164 59.3815C175.97 57.8909 178.761 56.2975 181.804 55.4185C188.969 53.2906 196.582 56.8423 200.041 63.1491Z" fill="#2079FF"/>
<path d="M171.298 81.7347C173.192 81.7347 174.727 80.1999 174.727 78.3063C174.727 76.4127 173.192 74.8779 171.298 74.8779C169.405 74.8779 167.87 76.4127 167.87 78.3063C167.87 80.1999 169.405 81.7347 171.298 81.7347Z" fill="white"/>
<path d="M180.535 76.7952C182.428 76.7952 183.963 75.2604 183.963 73.3669C183.963 71.4733 182.428 69.9385 180.535 69.9385C178.641 69.9385 177.106 71.4733 177.106 73.3669C177.106 75.2604 178.641 76.7952 180.535 76.7952Z" fill="white"/>
<path d="M189.201 72.1585C191.094 72.1585 192.629 70.6237 192.629 68.7301C192.629 66.8371 191.094 65.3018 189.201 65.3018C187.307 65.3018 185.772 66.8371 185.772 68.7301C185.772 70.6237 187.307 72.1585 189.201 72.1585Z" fill="white"/>
<path d="M306.496 294.026V294.108L305.226 323.293L304.517 339.283C304.517 338.692 304.548 338.081 304.583 337.49C295.81 334.555 284.538 330.381 275.841 327.431C258.724 321.592 245.828 317.104 230.496 313.578C229.57 309.112 228.697 299.531 232.999 285.545C239.167 265.591 241.197 245.345 238.062 241.433C238.032 241.389 237.994 241.35 237.949 241.32C235.718 233.276 229.817 238.483 229.817 238.483C229.817 238.483 229.853 238.565 229.868 238.611C228.641 236.576 227.291 234.616 225.828 232.742C225.877 232.451 225.954 232.165 226.06 231.888C227.956 226.183 238.062 224.811 238.062 224.811C252.855 225.9 260.637 232.495 264.563 241.156C268.023 252.089 265.982 263.941 265.535 275.157C265.355 280.019 264.661 287.493 268.372 291.43C271.801 297.912 280.426 295.11 282.764 294.401C283.525 294.185 285.499 294.051 288.089 293.969C293.368 293.841 301.135 293.938 305.868 294.021C306.1 294.026 306.3 294.026 306.496 294.026Z" fill="#2079FF"/>
<path d="M101.769 31.7074C100.692 31.9474 99.5859 32.0302 98.4849 31.9541C96.4659 31.7948 94.5225 31.1132 92.8458 29.9773C91.1686 28.8408 89.8158 27.2885 88.9194 25.4724C88.2358 24.0384 87.8914 22.3576 87.1461 20.8978C86.6598 19.8496 85.8883 18.9591 84.9205 18.3278C84.5745 18.1632 84.2733 17.9182 84.0415 17.6134C83.5275 16.7293 84.8434 16.4003 85.2186 15.876C85.7917 15.0231 86.0348 13.9908 85.9022 12.9719C85.5969 10.3052 86.2219 7.61473 87.6719 5.3558C89.1219 3.09693 91.3074 1.40813 93.8594 0.575089C96.4109 -0.257951 99.1721 -0.184039 101.675 0.784234C104.179 1.75251 106.271 3.55578 107.598 5.88903C108.904 8.19689 109.382 10.8645 109.927 13.4602C110.41 15.7475 110.955 18.0451 110.955 20.3838C111.001 25.8786 106.935 30.5458 101.769 31.7074Z" fill="#2079FF"/>
<path d="M96.8967 10.7916C98.2906 10.7916 99.4204 9.66169 99.4204 8.26788C99.4204 6.87407 98.2906 5.74414 96.8967 5.74414C95.5027 5.74414 94.3729 6.87407 94.3729 8.26788C94.3729 9.66169 95.5027 10.7916 96.8967 10.7916Z" fill="white"/>
<path d="M98.5106 18.3375C99.9046 18.3375 101.034 17.2076 101.034 15.8138C101.034 14.42 99.9046 13.29 98.5106 13.29C97.1167 13.29 95.9869 14.42 95.9869 15.8138C95.9869 17.2076 97.1167 18.3375 98.5106 18.3375Z" fill="white"/>
<path d="M100.027 25.4205C101.421 25.4205 102.551 24.2906 102.551 22.8968C102.551 21.5029 101.421 20.373 100.027 20.373C98.6329 20.373 97.5032 21.5029 97.5032 22.8968C97.5032 24.2906 98.6329 25.4205 100.027 25.4205Z" fill="white"/>
<g opacity="0.72">
<path opacity="0.72" d="M252.248 123.466C262.842 123.466 271.43 114.877 271.43 104.283C271.43 93.689 262.842 85.1006 252.248 85.1006C241.654 85.1006 233.066 93.689 233.066 104.283C233.066 114.877 241.654 123.466 252.248 123.466Z" fill="#2079FF"/>
<path opacity="0.72" d="M252.968 113.242C253.614 113.448 254.289 113.554 254.967 113.556C256.145 113.571 257.289 113.156 258.183 112.389C259.077 111.621 259.661 110.554 259.824 109.387C259.93 108.626 259.857 107.85 259.612 107.121C259.367 106.392 258.956 105.731 258.411 105.188C259.351 104.666 260.095 103.852 260.533 102.87C260.97 101.887 261.076 100.79 260.836 99.7421C260.595 98.694 260.02 97.7529 259.198 97.06C258.376 96.3671 257.352 95.9601 256.278 95.8999C254.021 95.7714 251.606 96.7634 249.699 97.9148C248.706 98.5218 247.776 99.226 246.923 100.017C246.486 100.418 243.957 102.654 244.132 103.214C245.263 106.9 248.815 111.952 252.968 113.242Z" fill="white"/>
</g>
<path d="M261.156 182.576C259.956 184.319 258.509 185.878 256.859 187.202C253.804 189.616 250.175 191.195 246.327 191.786C242.479 192.377 238.544 191.959 234.906 190.574C232.074 189.448 229.36 187.562 226.43 186.462C224.373 185.618 222.12 185.369 219.928 185.743C219.226 185.961 218.483 186.01 217.759 185.886C215.857 185.331 217.296 183.131 217.137 181.898C216.832 179.946 215.825 178.173 214.305 176.912C210.383 173.556 207.742 168.948 206.829 163.869C205.916 158.789 206.787 153.55 209.294 149.038C211.801 144.527 215.79 141.02 220.586 139.113C225.382 137.206 230.689 137.015 235.61 138.573C240.472 140.115 244.631 143.245 248.794 146.19C252.464 148.786 256.242 151.33 259.315 154.579C266.558 162.294 266.923 174.188 261.156 182.576Z" fill="#2079FF"/>
<path d="M223.659 160.782C226.339 160.782 228.511 158.61 228.511 155.93C228.511 153.251 226.339 151.078 223.659 151.078C220.979 151.078 218.807 153.251 218.807 155.93C218.807 158.61 220.979 160.782 223.659 160.782Z" fill="white"/>
<path d="M235.795 169.306C238.475 169.306 240.647 167.134 240.647 164.454C240.647 161.774 238.475 159.602 235.795 159.602C233.115 159.602 230.943 161.774 230.943 164.454C230.943 167.134 233.115 169.306 235.795 169.306Z" fill="white"/>
<path d="M247.185 177.296C249.865 177.296 252.037 175.124 252.037 172.444C252.037 169.764 249.865 167.592 247.185 167.592C244.505 167.592 242.333 169.764 242.333 172.444C242.333 175.124 244.505 177.296 247.185 177.296Z" fill="white"/>
<g opacity="0.54">
<path opacity="0.54" d="M113.807 38.59C113.743 39.4279 113.614 40.2595 113.422 41.0778L111.273 50.3966C110.615 53.2493 109.875 56.2562 107.835 58.3533C104.031 62.2443 97.6625 61.3551 92.3529 60.1729L79.3179 57.2791C76.3264 56.6109 73.2835 55.9324 70.5799 54.4418C67.8762 52.9512 65.5735 50.5303 64.9259 47.5234C64.4684 45.308 64.9619 43.0207 65.4399 40.8105L67.4702 31.8566C68.123 28.9268 68.8631 25.8274 70.9757 23.6995C74.7433 19.9011 80.9832 20.7646 86.2106 21.8954L99.5386 24.7892C107.588 26.5522 114.45 30.2838 113.807 38.59Z" fill="#2079FF"/>
<path opacity="0.54" d="M95.8327 38.8412C96.3904 39.3608 96.8011 40.0177 97.0247 40.7466C97.2477 41.4754 97.2755 42.25 97.1049 42.9927C96.9337 43.7355 96.5703 44.4201 96.0511 44.9778C95.532 45.5355 94.8751 45.9472 94.1468 46.1708L90.1736 47.389L86.2055 48.602C85.4751 48.8266 84.6989 48.8544 83.9547 48.6827C83.2099 48.511 82.5242 48.1461 81.966 47.6249C81.4073 47.1037 80.9966 46.4443 80.7745 45.7133C80.552 44.9824 80.5268 44.2058 80.7005 43.462L81.6309 39.4117L82.5612 35.3665C82.7334 34.6238 83.0973 33.9392 83.6175 33.382C84.1371 32.8243 84.7946 32.4131 85.5234 32.19C86.2528 31.9664 87.0274 31.9387 87.7706 32.1093C88.5133 32.28 89.1985 32.6428 89.7572 33.1615L92.795 35.9936L95.8327 38.8412Z" fill="white"/>
</g>
<g opacity="0.54">
<path opacity="0.54" d="M260.287 56.5266C260.222 57.3644 260.094 58.1966 259.901 59.0144L257.753 68.3486C257.095 71.2013 256.355 74.2082 254.314 76.3002C250.511 80.1963 244.142 79.302 238.833 78.1249L225.798 75.2259C222.806 74.5629 219.763 73.8793 217.06 72.3938C214.356 70.9083 212.053 68.4771 211.406 65.4754C210.948 63.26 211.442 60.9727 211.92 58.7625L213.955 49.8446C214.603 46.9097 215.343 43.8154 217.455 41.6823C221.223 37.889 227.463 38.7474 232.69 39.8833L245.998 42.7566C254.068 44.499 260.929 48.2358 260.287 56.5266Z" fill="#2079FF"/>
<path opacity="0.54" d="M242.312 56.7883C242.87 57.3084 243.281 57.9658 243.504 58.6947C243.727 59.4235 243.754 60.1987 243.583 60.9414C243.413 61.6846 243.049 62.3693 242.531 62.928C242.012 63.4862 241.355 63.8984 240.626 64.123L236.653 65.3361L232.685 66.5543C231.955 66.7784 231.179 66.8061 230.434 66.6345C229.69 66.4633 229.004 66.0984 228.446 65.5772C227.887 65.0554 227.476 64.3965 227.254 63.6656C227.032 62.9347 227.007 62.158 227.18 61.4143L228.111 57.3691L229.041 53.3239C229.213 52.5812 229.577 51.8965 230.097 51.3388C230.617 50.7812 231.274 50.3705 232.003 50.1469C232.732 49.9238 233.507 49.8955 234.25 50.0662C234.993 50.2368 235.678 50.5997 236.237 51.1189L239.275 53.951L242.312 56.7883Z" fill="white"/>
</g>
<g opacity="0.54">
<path opacity="0.54" d="M198.777 181.573C198.744 181.963 198.683 182.35 198.592 182.73L197.594 187.083C197.286 188.409 196.942 189.807 195.991 190.784C194.223 192.598 191.257 192.182 188.795 191.632L182.724 190.285C181.315 190.041 179.948 189.596 178.664 188.964C178.023 188.644 177.459 188.19 177.007 187.635C176.555 187.079 176.226 186.434 176.042 185.742C175.903 184.695 175.985 183.63 176.284 182.617L177.209 178.453C177.512 177.091 177.857 175.647 178.844 174.655C180.596 172.887 183.501 173.287 185.932 173.817L192.141 175.164C195.878 175.965 199.075 177.703 198.777 181.573Z" fill="#2079FF"/>
<path opacity="0.54" d="M190.404 181.691C190.664 181.933 190.856 182.238 190.96 182.578C191.065 182.918 191.077 183.279 190.998 183.625C190.918 183.971 190.748 184.29 190.506 184.55C190.264 184.81 189.957 185.001 189.617 185.104L187.772 185.669L185.921 186.235C185.582 186.341 185.22 186.355 184.873 186.277C184.526 186.198 184.206 186.029 183.945 185.787C183.684 185.545 183.492 185.239 183.388 184.898C183.284 184.558 183.271 184.196 183.351 183.85L183.804 181.943L184.236 180.057C184.314 179.71 184.483 179.389 184.725 179.129C184.967 178.868 185.273 178.675 185.613 178.571C185.953 178.467 186.315 178.454 186.662 178.535C187.008 178.615 187.327 178.785 187.587 179.029L189 180.344L190.404 181.691Z" fill="white"/>
</g>
<g opacity="0.54">
<path opacity="0.54" d="M134.789 1.08284C135.21 1.30216 135.616 1.55124 136.002 1.82813L140.319 4.98409C141.645 5.94527 143.028 6.98869 143.655 8.49985C144.822 11.3114 142.961 14.3903 141.188 16.8575L136.834 22.9227C135.903 24.3667 134.767 25.6685 133.463 26.788C132.106 27.816 130.348 28.5048 128.667 28.1604C127.428 27.9137 126.359 27.1324 125.331 26.4179L121.168 23.4316C119.806 22.455 118.377 21.3756 117.744 19.8336C116.619 17.058 118.433 14.0408 120.165 11.6096L124.581 5.39015C127.228 1.63795 130.656 -1.07082 134.789 1.08284Z" fill="#2079FF"/>
<path opacity="0.54" d="M130.965 10.382C131.353 10.2101 131.779 10.1428 132.201 10.187C132.623 10.2312 133.026 10.3854 133.37 10.634C133.713 10.8826 133.986 11.2171 134.16 11.604C134.334 11.9909 134.404 12.4167 134.362 12.8389L134.115 15.1519L133.869 17.4649C133.823 17.8888 133.668 18.2933 133.416 18.6377C133.165 18.982 132.828 19.2542 132.438 19.4266C132.048 19.5991 131.62 19.6659 131.196 19.6202C130.772 19.5745 130.368 19.4179 130.024 19.1663L128.148 17.799L126.272 16.4369C125.926 16.1862 125.653 15.8488 125.48 15.4588C125.306 15.0688 125.239 14.6399 125.284 14.2155C125.33 13.7911 125.486 13.3862 125.738 13.0416C125.99 12.697 126.328 12.425 126.719 12.2529L128.842 11.3123L130.965 10.382Z" fill="white"/>
</g>
<path d="M338.286 389.087C338.284 389.177 338.274 389.266 338.256 389.355C338.248 389.376 338.248 389.4 338.256 389.421C337.532 394.222 335.54 398.741 332.483 402.513C332.447 402.544 332.432 402.595 332.401 402.626C327.703 408.48 320.893 412.706 314 415.358C306.958 418.097 299.819 419.203 294.735 418.822H294.622C288.403 418.36 281.577 419.167 275.604 420.287C274.977 420.405 274.35 420.518 273.723 420.652C269.781 421.444 265.89 422.43 262.035 423.52L261.31 423.721L260.827 423.849C257.229 400.287 254.792 376.16 254.792 376.16L328.294 389.221C331.602 389.821 334.995 389.776 338.286 389.087Z" fill="#2079FF"/>
<path d="M187.34 277.085C183.475 280.919 178.299 281.66 173.215 282.79C161.666 285.36 151.982 282.441 151.473 269.164C151.144 260.622 152.049 252.074 157.22 244.98C163.413 236.484 172.928 230.825 182.406 226.692C182.406 226.692 186.754 248.938 206.564 249.905C226.373 250.871 221.552 276.987 198.34 272.634" stroke="black" stroke-width="2.29758" stroke-miterlimit="10"/>
<path d="M202.231 283.758C202.745 283.758 203.218 283.758 203.696 283.722C203.812 283.714 203.929 283.714 204.045 283.722H204.091L205.001 283.64" stroke="black" stroke-width="2.29758" stroke-miterlimit="10"/>
<path d="M224.179 229.422C220.931 225.561 217.049 222.282 212.701 219.723C212.217 219.404 211.716 219.113 211.2 218.849C210.686 218.556 210.172 218.273 209.658 218.011C208.573 217.451 207.448 216.922 206.296 216.469C199.499 213.623 192.201 212.168 184.832 212.188C145.192 212.188 156.207 246.487 156.207 246.487" stroke="black" stroke-width="2.29758" stroke-miterlimit="10"/>
<path d="M230.758 313.241C229.39 305.952 231.102 294.608 232.999 285.536C234.7 277.456 236.561 271.191 236.561 271.191C239.367 254.701 239.249 245.86 237.949 241.311C235.718 233.278 229.817 238.484 229.817 238.484" stroke="black" stroke-width="2.29758" stroke-miterlimit="10"/>
<path d="M237.949 241.312C235.718 233.278 229.817 238.485 229.817 238.485C228.797 236.162 227.538 233.952 226.06 231.89C225.463 231.061 224.836 230.252 224.178 229.464C225.941 224.781 230.645 221.99 235.486 221.615C248.198 220.638 260.729 229.053 264.558 241.147C268.018 252.08 265.977 263.933 265.53 275.148C265.35 280.011 264.656 287.484 268.367 291.421C268.562 291.622 268.747 291.802 268.958 291.982C272.042 294.639 276.956 294.788 282.78 294.392C284.476 294.274 286.259 294.13 288.105 293.961C293.759 293.447 299.927 293.005 305.884 294.012L306.475 294.11C306.295 303.824 305.699 313.57 305.205 323.284C304.943 328.013 304.691 332.747 304.563 337.481C295.789 334.546 284.517 330.372 275.82 327.422L271.184 325.823C256.324 320.761 244.42 316.767 230.521 313.57C225.16 312.331 219.506 311.226 213.256 310.203L206.61 309.036C206.164 308.959 205.761 308.725 205.471 308.378C205.181 308.031 205.024 307.592 205.027 307.14V283.624C209.465 283.247 213.756 281.848 217.563 279.537C221.371 277.226 224.592 274.065 226.975 270.301C233.405 259.959 234.016 249.376 230.501 240.088C230.375 239.717 230.23 239.353 230.064 238.999C230.025 238.892 229.981 238.787 229.93 238.685C229.93 238.654 229.899 238.603 229.884 238.567" stroke="black" stroke-width="2.29758" stroke-miterlimit="10"/>
<path d="M66.3856 325.823C68.4416 309.889 69.3874 293.683 71.3817 277.656" stroke="black" stroke-width="2.29758" stroke-miterlimit="10"/>
<path d="M71.7107 275.149C72.2709 270.811 72.934 266.472 73.7667 262.186C73.7975 261.975 73.8335 261.774 73.8798 261.579C74.3424 259.04 74.8564 256.516 75.4218 253.993C77.1385 246.442 83.1317 240.916 87.3928 234.764L87.6549 234.106C96.8478 220.732 101.937 204.965 102.299 188.74C102.402 182.87 102.17 171.264 95.442 168.869C91.6641 167.517 87.6549 170.159 85.563 173.176C84.7036 174.422 84.0127 175.775 83.507 177.201" stroke="black" stroke-width="2.29758" stroke-miterlimit="10"/>
<path d="M132.81 462.587C116.398 415.988 124.18 365.081 124.18 365.081L99.9755 365.842L36.1264 367.867C32.3763 367.991 28.6436 367.308 25.1803 365.866C21.7164 364.422 18.6031 362.253 16.0506 359.503C13.4976 356.753 11.5649 353.488 10.3827 349.927C9.20053 346.366 8.79653 342.593 9.19797 338.862L28.1646 269.621" stroke="black" stroke-width="2.29758" stroke-miterlimit="10"/>
<path d="M29.0847 266.24L30.75 260.175L32.6827 253.298" stroke="black" stroke-width="2.29758" stroke-miterlimit="10"/>
<path d="M34.3275 247.377L35.4325 243.404C36.8964 238.129 36.534 232.514 34.4045 227.47L32.2098 222.227C30.7757 217.858 30.3285 215.746 32.1275 211.474C32.9787 209.459 34.1738 207.607 35.6587 206C39.9917 201.22 46.0929 198.845 52.3791 198.033C58.6653 197.221 65.6044 197.853 70.6621 201.929C74.0956 204.695 77.3441 211.279 75.0979 215.581C73.4686 218.711 70.0196 219.621 67.0847 218.501C66.0577 218.116 65.1325 217.501 64.381 216.702C60.9167 213.073 53.587 212.281 51.017 215.812" stroke="black" stroke-width="2.29758" stroke-miterlimit="10"/>
<path d="M304.419 343.254C304.419 341.964 304.465 340.684 304.517 339.378V339.275C304.517 338.684 304.548 338.073 304.583 337.481" stroke="black" stroke-width="2.29758" stroke-miterlimit="10"/>
<path d="M297.824 219.789C291.805 223.007 284.414 231.097 296.884 250.115C300.996 256.381 305.339 263.155 305.951 270.891C306.521 278.621 306.703 286.375 306.496 294.124" stroke="black" stroke-width="2.29758" stroke-miterlimit="10"/>
<path d="M239.449 373.461L253.759 376L254.787 376.18L261.351 377.352L328.279 389.241C331.592 389.843 334.991 389.798 338.286 389.107C344.01 387.902 349.167 384.82 352.939 380.351C356.711 375.881 358.882 370.279 359.109 364.435L349.219 283.475L347.03 266.194C346.335 260.759 347.501 255.25 350.34 250.564L353.275 245.681C353.275 245.681 358.384 238.228 349.445 237.683C344.629 237.4 339.618 238.711 335.264 240.685C332.776 241.79 329.281 243.769 327.878 246.488C327.307 247.517 327.115 248.713 327.333 249.87C328.361 255.179 335.043 257.42 339.453 255.179" stroke="black" stroke-width="2.29758" stroke-miterlimit="10"/>
<path d="M352.396 238.068C352.396 238.068 357.448 235.061 354.03 227.664C352.817 225.033 349.142 223.208 341.232 223.712C320.158 225.053 311.903 246.723 327.904 246.487" stroke="black" stroke-width="2.29758" stroke-miterlimit="10"/>
<path d="M347.595 223.677C352.272 217.231 343.997 211.063 337.968 211.274C332.283 211.474 326.531 213.577 321.551 216.208C314.622 219.868 305.678 226.956 308.238 235.925C308.994 238.567 314.971 241.831 318.878 239.945" stroke="black" stroke-width="2.29758" stroke-miterlimit="10"/>
<path d="M307.796 232.737C307.796 232.737 307.796 232.737 307.796 232.768C304.532 239.003 289.081 232.768 297.804 219.789C299.841 216.918 302.284 214.357 305.056 212.187C326.809 194.413 331.671 212.485 331.64 211.411" stroke="black" stroke-width="2.29758" stroke-miterlimit="10"/>
<path d="M317.264 240.088C317.264 240.088 325.221 245.742 322.779 255.164" stroke="black" stroke-width="2.29758" stroke-miterlimit="10"/>
<path d="M37.1339 194.861C36.6199 192.836 36.6867 190.281 37.8895 187.012C39.6217 182.314 44.6691 179.23 49.583 177.2C51.3768 176.46 53.181 175.848 54.723 175.37C60.084 173.725 65.9693 172.852 71.685 173.427C73.6115 173.614 75.5158 173.979 77.375 174.517C79.5194 175.135 81.5713 176.038 83.4761 177.2C88.1741 180.089 91.3558 184.473 93.2678 190.23C94.9332 195.195 95.5757 201.096 91.4534 204.195" stroke="black" stroke-width="2.29758" stroke-miterlimit="10"/>
<path d="M91.8286 270.266L90.3123 277.606C90.2619 277.853 90.1627 278.087 90.0198 278.294C89.877 278.502 89.694 278.678 89.4817 278.814C89.2689 278.949 89.0314 279.04 88.7832 279.082C88.5344 279.123 88.28 279.114 88.0353 279.055C82.2014 277.673 77.0871 276.388 71.7107 275.149C69.043 274.522 66.288 273.931 63.3684 273.319C51.9576 270.96 40.5623 268.297 29.0898 266.241C24.2942 265.383 19.4934 264.638 14.6618 264.077C11.9582 263.764 9.21854 263.635 6.49948 263.435C5.9053 263.421 5.3291 263.226 4.84954 262.874C2.27954 260.993 4.84954 254.877 5.4098 252.337C5.4098 252.307 5.4098 252.271 5.4098 252.24C5.80558 250.292 17.0005 250.852 32.6518 253.294C38.1105 254.152 44.1089 255.221 50.3951 256.511C59.2307 258.326 67.1977 260.284 73.7101 262.165C74.8306 262.494 75.9049 262.808 76.9278 263.121C76.9278 263.121 76.9278 263.121 76.9586 263.121C78.259 263.532 79.4823 263.928 80.6337 264.324C87.9068 266.807 92.0959 268.965 91.8286 270.266Z" fill="#2079FF"/>
<path d="M91.8286 270.266L90.3123 277.606C90.2619 277.853 90.1627 278.087 90.0198 278.294C89.877 278.502 89.694 278.678 89.4817 278.814C89.2689 278.949 89.0314 279.04 88.7832 279.082C88.5344 279.123 88.28 279.114 88.0353 279.055C82.2014 277.673 77.0871 276.388 71.7107 275.149C69.043 274.522 66.288 273.931 63.3684 273.319C51.9576 270.96 40.5623 268.297 29.0898 266.241C24.2942 265.383 19.4934 264.638 14.6618 264.077C11.9582 263.764 9.21854 263.635 6.49948 263.435C5.9053 263.421 5.3291 263.226 4.84954 262.874C2.27954 260.993 4.84954 254.877 5.4098 252.337C5.4098 252.307 5.4098 252.271 5.4098 252.24C5.80558 250.292 17.0005 250.852 32.6518 253.294C38.1105 254.152 44.1089 255.221 50.3951 256.511C59.2307 258.326 67.1977 260.284 73.7101 262.165C74.8306 262.494 75.9049 262.808 76.9278 263.121C76.9278 263.121 76.9278 263.121 76.9586 263.121C78.259 263.532 79.4823 263.928 80.6337 264.324C87.9068 266.807 92.0959 268.965 91.8286 270.266Z" stroke="black" stroke-width="2.29758" stroke-miterlimit="10"/>
<path d="M75.8227 211.627L77.2824 214.552C79.1174 216.562 81.6566 217.831 85.1363 216.957C91.9623 215.261 92.6356 209.602 91.4483 204.195C91.2442 203.213 90.98 202.245 90.6567 201.296C89.0582 196.526 86.5858 192.686 83.1215 189.885C80.6599 187.892 77.8154 186.426 74.7638 185.578C72.2776 184.86 69.7122 184.45 67.1258 184.36C62.0439 184.184 56.9697 184.88 52.1221 186.416C47.2751 187.901 40.6445 190.456 37.1185 194.84C36.3284 195.803 35.7034 196.89 35.2681 198.058C34.1835 201.008 33.9985 203.398 34.3788 205.331L34.7438 207.13" stroke="black" stroke-width="2.29758" stroke-miterlimit="10"/>
<path d="M77.7142 174.631L79.4104 167.604L81.4253 159.329C81.7095 158.135 81.7455 156.897 81.5301 155.689C81.3147 154.481 80.8527 153.331 80.1732 152.31C79.4936 151.288 78.6111 150.418 77.5805 149.753C76.55 149.087 75.3935 148.641 74.183 148.442C73.7091 148.364 73.2295 148.326 72.7489 148.329C70.715 148.324 68.7408 149.017 67.1561 150.292C65.572 151.567 64.4725 153.347 64.0418 155.335C63.5278 157.73 62.8853 160.645 62.176 163.929C61.5026 167.044 60.7573 170.457 59.9658 174.055" stroke="black" stroke-width="2.29758" stroke-miterlimit="10"/>
<path d="M57.5808 185.1V185.084" stroke="black" stroke-width="1.53172" stroke-miterlimit="10"/>
<path d="M51.0325 215.806C50.5185 218.329 50.2255 219.918 50.2409 220.19C50.2409 220.19 50.2409 220.19 50.2409 220.226C48.0153 235.183 41.4669 243.181 34.3429 247.35C29.9857 249.829 25.1191 251.279 20.1154 251.59" stroke="black" stroke-width="2.29758" stroke-miterlimit="10"/>
<path d="M67.1258 218.494C67.1258 218.494 55.1907 250.306 73.854 261.583C74.8409 262.175 75.872 262.691 76.938 263.125C78.2153 263.655 79.5337 264.08 80.8804 264.394" stroke="black" stroke-width="2.29758" stroke-miterlimit="10"/>
<path d="M89.3255 278.905C89.3255 278.905 89.4077 280.375 71.3817 277.656C65.2137 276.731 56.9229 275.313 45.7742 273.169C38.7838 271.833 32.9756 270.645 28.1646 269.623C2.88608 264.215 4.84442 262.879 4.84442 262.879" stroke="black" stroke-width="2.29758" stroke-miterlimit="10"/>
<path d="M140.114 100.09C136.269 120.47 123.604 141.924 108.246 155.695C101.965 161.349 94.6608 165.291 86.776 166.843C84.3566 167.335 81.8946 167.589 79.4258 167.599L81.4253 159.329C81.9161 157.292 81.6766 155.147 80.7489 153.268C79.8206 151.39 78.2631 149.897 76.347 149.049C75.6546 148.751 74.9304 148.536 74.1882 148.406C73.7127 148.327 73.2311 148.289 72.749 148.293C70.7109 148.29 68.7336 148.987 67.1479 150.268C65.5627 151.549 64.4664 153.336 64.0418 155.33C63.7283 156.83 63.3479 158.532 62.9367 160.393C43.4047 147.481 34.934 119.864 35.8746 97.4378C36.1727 89.9848 36.5839 80.1725 39.8478 72.5859C40.9493 69.8823 42.5936 67.4331 44.6794 65.3899C53.9314 56.6827 66.5964 52.7095 79.6571 52.1133C89.6817 52.5862 99.5474 54.802 108.811 58.6616C126.082 65.9553 144.102 78.8875 140.114 100.09Z" fill="#2079FF"/>
<path d="M140.114 100.09C136.269 120.47 123.604 141.924 108.246 155.695C101.965 161.349 94.6608 165.291 86.776 166.843L88.6007 159.329C88.885 158.136 88.9209 156.896 88.7056 155.688C88.4897 154.481 88.0281 153.331 87.3486 152.309C86.6691 151.288 85.7866 150.417 84.756 149.752C83.7254 149.087 82.5689 148.641 81.3585 148.442C80.8846 148.363 80.405 148.326 79.9244 148.329C78.6851 148.324 77.4587 148.581 76.3264 149.085C75.634 148.787 74.9098 148.572 74.1676 148.442C73.6922 148.363 73.2105 148.325 72.7284 148.329C70.6986 148.328 68.73 149.023 67.15 150.297C65.5694 151.57 64.4725 153.346 64.0418 155.33C63.7283 156.83 63.3479 158.532 62.9367 160.393C43.4047 147.481 34.934 119.864 35.8746 97.4378C36.1727 89.9848 36.5839 80.1725 39.8478 72.5859C40.9493 69.8823 42.5936 67.4331 44.6794 65.3899C53.9314 56.6827 66.5964 52.7095 79.6571 52.1133C89.6817 52.5862 99.5474 54.802 108.811 58.6616C126.082 65.9553 144.102 78.8875 140.114 100.09Z" fill="#2079FF"/>
<path d="M140.114 100.095C136.274 120.475 123.609 141.929 108.246 155.699C100.022 163.07 90.0964 167.552 79.4104 167.604L81.4253 159.328C81.7095 158.135 81.7455 156.896 81.5301 155.688C81.3142 154.481 80.8527 153.33 80.1731 152.309C79.4936 151.288 78.6111 150.417 77.5805 149.752C76.55 149.086 75.3935 148.641 74.183 148.442C73.7091 148.363 73.2295 148.326 72.7489 148.329C70.715 148.324 68.7408 149.017 67.1561 150.292C65.5714 151.567 64.4725 153.347 64.0418 155.335C63.5278 157.73 62.8853 160.644 62.1759 163.929C38.0693 153.243 27.6608 122.192 28.7043 97.4427C28.9972 89.9897 29.4084 80.1774 32.6775 72.5908C33.7769 69.8861 35.4217 67.4364 37.5091 65.3948C55.7098 48.2786 87.0279 49.4608 108.811 58.6665C126.076 65.9602 144.102 78.8873 140.114 100.095Z" stroke="black" stroke-width="2.29758" stroke-miterlimit="10"/>
<path d="M140.011 100.83C144.169 105.806 148.07 114.143 144.637 126.53C144.109 128.485 143.354 130.37 142.386 132.148C136.927 141.914 126.39 143.626 119.286 143.523" stroke="black" stroke-width="2.29758" stroke-miterlimit="10"/>
<path d="M136.845 111.249C140.443 115.556 143.768 122.377 142.381 132.159C142.16 133.729 141.836 135.283 141.409 136.81C136.269 155.273 117.4 154.363 110.924 153.464" stroke="black" stroke-width="2.29758" stroke-miterlimit="10"/>
<path d="M36.0751 136.712C32.0556 137.539 9.31108 132.872 9.03352 113.911C8.95179 111.341 9.4365 108.784 10.4522 106.422C14.0142 98.3931 23.4101 95.8539 28.8225 95.0264" stroke="black" stroke-width="2.29758" stroke-miterlimit="10"/>
<path d="M31.9836 127.207C27.8716 127.459 6.02146 119.662 8.39101 100.844C8.67371 98.2952 9.5105 95.8393 10.8428 93.6482C15.4688 86.19 25.1525 84.9924 30.6215 84.9102" stroke="black" stroke-width="2.29758" stroke-miterlimit="10"/>
<path d="M124.18 365.087C124.18 365.087 124.648 361.515 127.218 353.445" stroke="black" stroke-width="2.29758" stroke-miterlimit="10"/>
<path d="M208.712 309.379V309.415C208.527 321.705 199.974 324.491 192.948 325.827C175.631 329.137 163.609 316.508 164.138 305.509" stroke="black" stroke-width="2.29758" stroke-miterlimit="10"/>
<path d="M167.423 241.759C167.423 241.759 167.937 247.413 163.018 254.706C161.702 256.67 166.256 257.477 167.34 257.842" stroke="black" stroke-width="2.29758" stroke-miterlimit="10"/>
<path d="M187.255 253.995C190.176 248.935 189.21 242.909 185.097 240.535C180.983 238.16 175.282 240.336 172.361 245.396C169.44 250.455 170.405 256.482 174.518 258.857C178.631 261.231 184.334 259.054 187.255 253.995Z" stroke="black" stroke-width="2.29758" stroke-miterlimit="10"/>
<path d="M166.85 247.449C169.771 242.366 168.79 236.321 164.658 233.947C160.526 231.572 154.809 233.767 151.887 238.85C148.966 243.933 149.948 249.978 154.08 252.352C158.212 254.727 163.929 252.532 166.85 247.449Z" stroke="black" stroke-width="2.30549" stroke-miterlimit="10"/>
<path d="M159.733 236.655C160.592 236.648 161.436 236.869 162.18 237.298C162.871 237.722 163.458 238.299 163.895 238.982C164.332 239.666 164.608 240.44 164.704 241.245C164.983 243.256 164.564 245.3 163.516 247.038C161.974 249.685 159.404 251.392 156.86 251.392C156.002 251.402 155.157 251.182 154.413 250.754C153.722 250.329 153.136 249.753 152.7 249.069C152.263 248.386 151.986 247.613 151.89 246.807C151.61 244.795 152.029 242.749 153.077 241.009C154.619 238.367 157.189 236.655 159.733 236.655ZM159.733 235.113C156.762 235.113 153.611 237.005 151.751 240.253C149.181 244.705 150.029 250.019 153.647 252.075C154.624 252.638 155.733 252.931 156.86 252.923C159.831 252.923 162.982 251.027 164.847 247.783C167.417 243.337 166.564 238.017 162.946 235.961C161.968 235.402 160.859 235.112 159.733 235.118V235.113Z" fill="white"/>
<path d="M164.845 247.791C167.414 243.341 166.565 238.041 162.948 235.953C159.332 233.865 154.318 235.78 151.749 240.23C149.18 244.68 150.029 249.979 153.645 252.067C157.261 254.155 162.275 252.24 164.845 247.791Z" fill="#2079FF"/>
<path d="M187.48 252.531C190.049 248.061 189.187 242.745 185.554 240.657C181.921 238.569 176.893 240.5 174.324 244.97C171.755 249.441 172.618 254.757 176.251 256.845C179.884 258.933 184.911 257.002 187.48 252.531Z" fill="#2079FF"/>
<path d="M167.356 243.624C167.356 243.624 168.898 241.327 172.378 245.392" stroke="black" stroke-width="2.29758" stroke-miterlimit="10"/>
<path d="M182.486 249.24C183.323 248.144 183.248 246.679 182.319 245.969C181.389 245.26 179.957 245.574 179.12 246.67C178.282 247.767 178.357 249.231 179.287 249.941C180.217 250.65 181.649 250.337 182.486 249.24Z" fill="#353642"/>
<path d="M165.146 244.249C165.983 243.152 165.908 241.688 164.979 240.978C164.049 240.269 162.617 240.582 161.779 241.679C160.942 242.776 161.017 244.24 161.947 244.949C162.876 245.659 164.309 245.346 165.146 244.249Z" fill="#353642"/>
<path d="M177.908 267.005C167.381 275.948 161.856 267.981 161.856 267.981" stroke="black" stroke-width="2.29758" stroke-miterlimit="10"/>
<path d="M66.3856 318.417C75.4886 316.787 84.6737 315.513 93.6944 313.847C98.0943 313.039 102.491 312.254 106.884 311.493C126.457 308.162 145.999 305.572 165.788 305.49C166.744 305.49 167.667 305.145 168.388 304.518C169.109 303.89 169.578 303.023 169.71 302.077L170.075 299.337L172.383 282.257" stroke="black" stroke-width="2.29758" stroke-miterlimit="10"/>
<path d="M205.001 283.623V283.541V283.13" stroke="black" stroke-width="2.29758" stroke-miterlimit="10"/>
<path d="M254.782 376.18C254.782 376.18 257.208 400.307 260.816 423.869C263.191 439.371 266.095 454.621 269.128 462.588" stroke="black" stroke-width="2.29758" stroke-miterlimit="10"/>
<path d="M260.816 423.867L261.294 423.739L262.024 423.538C265.879 422.449 269.77 421.482 273.713 420.67C274.34 420.537 274.967 420.423 275.594 420.305C279.99 419.495 284.447 419.06 288.917 419.005C290.896 419.005 292.792 418.938 294.607 418.84H294.72C302.322 418.409 308.675 417.19 313.985 415.376C322.656 412.426 328.51 407.892 332.386 402.644C332.417 402.613 332.432 402.562 332.468 402.531C335.287 398.62 337.254 394.16 338.24 389.44C338.233 389.418 338.233 389.394 338.24 389.373L338.292 389.126" stroke="black" stroke-width="2.29758" stroke-miterlimit="10"/>
</svg>
