<svg width="599" height="599" viewBox="0 0 599 599" fill="none" xmlns="http://www.w3.org/2000/svg">
<path d="M450.388 145.958C447.896 139.046 445.123 132.181 442.086 125.508C436.036 112.229 434.646 99.6435 426.147 88.5381" stroke="#CCDDE2" stroke-width="6.60085" stroke-miterlimit="10"/>
<path d="M406.445 75.8091C399.132 68.3695 392.291 60.3728 379.862 54.4007C353.596 41.8217 320.01 40.5458 277.139 58.3361" stroke="#CCDDE2" stroke-width="6.60085" stroke-miterlimit="10"/>
<path d="M96.9062 563.348C55.3656 504.628 41.93 438.241 48.8724 370.345" stroke="#CCDDE2" stroke-width="6.60085" stroke-miterlimit="10"/>
<path d="M473.761 274.277V275.002C473.354 288.18 485.531 342.809 520.07 360.162C554.608 377.515 579.233 453.684 501.363 483.568C423.493 513.452 427.734 563.349 427.734 563.349" stroke="#CCDDE2" stroke-width="6.60085" stroke-miterlimit="10"/>
<path d="M277.133 114.738V50.2018C277.123 45.7681 275.356 41.5191 272.221 38.384C269.086 35.2489 264.837 33.4828 260.403 33.4717H46.6801C42.2464 33.4828 37.9974 35.2489 34.8623 38.384C31.7272 41.5191 29.9611 45.7681 29.95 50.2018V353.655C29.9579 358.087 31.7242 362.334 34.8611 365.464C37.9979 368.594 42.2487 370.351 46.6801 370.349H260.403C262.476 370.363 264.532 369.967 266.453 369.187" stroke="black" stroke-width="6.60085" stroke-linecap="round" stroke-linejoin="round"/>
<path d="M254.683 43.6963H52.4005C44.1466 43.6963 37.4555 50.3874 37.4555 58.6413V345.209C37.4555 353.463 44.1466 360.154 52.4005 360.154H254.683C262.937 360.154 269.628 353.463 269.628 345.209V58.6413C269.628 50.3874 262.937 43.6963 254.683 43.6963Z" fill="#2079FF"/>
<path d="M251.023 68.1836H58.6002C54.4716 68.1836 51.1247 71.5308 51.1247 75.6591V119.961C51.1247 124.09 54.4716 127.437 58.6002 127.437H251.023C255.152 127.437 258.498 124.09 258.498 119.961V75.6591C258.498 71.5308 255.152 68.1836 251.023 68.1836Z" fill="#2079FF"/>
<path d="M153.542 93.1393C156.926 93.1393 159.669 90.3959 159.669 87.0116C159.669 83.6272 156.926 80.8838 153.542 80.8838C150.157 80.8838 147.414 83.6272 147.414 87.0116C147.414 90.3959 150.157 93.1393 153.542 93.1393Z" fill="#D7E8F0"/>
<path d="M136.416 114.739C136.416 110.196 138.22 105.841 141.432 102.629C144.644 99.4175 148.999 97.6133 153.542 97.6133C158.084 97.6133 162.439 99.4175 165.651 102.629C168.863 105.841 170.667 110.196 170.667 114.739H136.416Z" fill="#D7E8F0"/>
<path d="M154.788 190.924C148.255 190.92 141.868 192.854 136.434 196.482C131.001 200.109 126.766 205.266 124.264 211.301C121.762 217.336 121.107 223.977 122.38 230.385C123.654 236.792 126.799 242.678 131.419 247.298C136.038 251.917 141.924 255.062 148.332 256.336C154.739 257.61 161.38 256.954 167.415 254.453C173.45 251.951 178.607 247.716 182.234 242.282C185.862 236.849 187.796 230.462 187.793 223.929C187.788 215.177 184.309 206.785 178.12 200.596C171.932 194.408 163.54 190.929 154.788 190.924ZM154.788 248.973C153.509 248.973 152.284 248.466 151.38 247.562C150.477 246.658 149.969 245.432 149.969 244.154C149.969 242.876 150.477 241.65 151.38 240.747C152.284 239.843 153.509 239.335 154.788 239.335C156.066 239.335 157.291 239.843 158.195 240.747C159.099 241.65 159.607 242.876 159.607 244.154C159.607 245.432 159.099 246.658 158.195 247.562C157.291 248.466 156.066 248.973 154.788 248.973ZM160.903 211.835C159.867 218.987 158.993 226.528 156.89 233.483C156.375 235.136 153.236 235.136 152.697 233.483C151.19 228.249 150.034 222.919 149.235 217.531C148.588 213.614 146.294 207.277 148.492 203.455C150.403 200.059 155.836 199.639 158.975 201.418C162.874 203.659 161.353 208.301 160.903 211.859V211.835Z" fill="#D7E8F0"/>
<path d="M71.862 153.89H233.107" stroke="white" stroke-width="6.60085" stroke-miterlimit="10"/>
<path d="M71.862 169.756H233.107" stroke="white" stroke-width="6.60085" stroke-miterlimit="10"/>
<path d="M71.862 271.965H233.107" stroke="white" stroke-width="6.60085" stroke-miterlimit="10"/>
<path d="M109.317 286.976H195.651" stroke="white" stroke-width="6.60085" stroke-miterlimit="10"/>
<path d="M88.9934 385.277C88.9934 385.277 117.686 271.263 207.05 243.416L243.374 234.748C243.374 234.748 249.118 209.093 247.004 206.398C244.889 203.702 240.546 198.179 232.592 199.377C224.637 200.575 204.073 200.959 198.808 175.819C193.543 150.679 212.998 90.9224 263.56 81.9853C314.122 73.0482 315.302 110.174 315.302 110.174L278.164 196.233L283.926 265.657L284.651 369.074L88.9934 385.277Z" fill="white"/>
<path d="M397.808 297.202C397.209 297.376 389.566 299.598 386.559 304.894C385.986 303.681 385.08 302.657 383.948 301.94C382.815 301.223 381.502 300.843 380.161 300.844H290.401C288.804 300.841 287.253 301.381 286.003 302.374C284.753 303.368 283.877 304.756 283.519 306.313L265.842 382.105C264.644 381.871 263.446 381.727 262.2 381.607L220.486 371.197C218.697 370.748 216.804 370.982 215.178 371.854C213.552 372.725 212.31 374.172 211.693 375.91C211.415 376.691 211.277 377.515 211.285 378.342C211.285 380.224 211.999 382.035 213.281 383.412C214.564 384.788 216.321 385.626 218.198 385.759L237.923 387.028C218.923 395.971 195.807 413.006 176.513 428.658C157.741 399.265 175.357 369.879 188.607 354.053C186.9 336.611 178.25 296.112 135.092 297.214C149.96 278.148 168.499 261.807 191.47 250.869C270.155 338.084 360.173 266.779 362.083 265.245C375.545 274.026 387.591 284.807 397.808 297.214" fill="#2E2E2E"/>
<path d="M389.632 547.392V562.463H129.779V541.114C139.902 541.713 150.553 539.317 160.238 534.951C172.5 529.368 183.09 520.695 192.147 510.799C201.462 500.556 206.577 486.354 212.513 474.002C221.426 455.404 233.233 442.154 251.969 436.541L250.771 441.692C250.531 442.729 250.528 443.807 250.761 444.846C250.995 445.884 251.46 446.857 252.121 447.691C252.782 448.525 253.623 449.199 254.581 449.663C255.539 450.128 256.589 450.37 257.654 450.372H347.863C346.066 465.946 338.489 551.004 389.632 547.41" fill="#2E2E2E"/>
<path d="M347.905 151.027C347.833 159.085 346.783 167.104 344.778 174.909C343.864 178.609 341.901 181.967 339.126 184.58C336.351 187.192 332.881 188.949 329.133 189.638C328.983 184.199 326.671 179.425 323.143 176.46C323.465 171.856 323.419 167.233 323.005 162.635C322.771 159.598 322.406 156.765 322.022 154.219C321.794 152.77 321.464 151.339 321.034 149.936C319.83 148.643 318.412 147.567 316.841 146.756C311.288 143.629 299.859 140.305 278.685 145.192C275.227 145.984 271.975 147.492 269.137 149.619C269.074 149.659 269.018 149.706 268.969 149.763C267.058 151.524 264.626 153.752 262.11 154.908C259.505 156.106 256.785 156.154 254.503 153.321C254.443 153.261 254.413 153.207 254.359 153.147C253.161 151.584 252.017 149.553 249.903 149.152C245.446 148.313 243.278 152.746 242.715 156.472C242.224 159.916 243.236 162.953 244.715 165.846C245.955 168.198 247.574 170.329 249.507 172.153C250.004 172.634 250.459 173.154 250.867 173.711C250.682 173.744 250.499 173.794 250.322 173.861C249.912 173.998 249.512 174.162 249.124 174.352C243.733 176.778 239.894 182.858 239.81 189.974C239.81 190.195 230.771 190.064 229.627 189.974C225.218 189.566 220.875 188.296 217.772 184.972C208.967 175.538 209.009 161.539 212.627 150.589C216.053 140.197 220.414 130.05 226.129 120.699C238.51 100.465 257.72 85.538 282.039 84.1962C287.872 83.9033 293.718 84.2448 299.476 85.2145C302.201 85.644 304.896 86.2442 307.545 87.0115C332.337 97.8295 348.073 122.353 347.929 151.027" fill="#2E2E2E"/>
<path d="M333.547 381.702C330.618 389.22 323.646 393.521 317.973 391.286C312.301 389.052 310.072 381.193 312.995 373.676C315.919 366.158 322.897 361.852 328.569 364.092C334.242 366.332 336.476 374.191 333.547 381.708" fill="#2079FF"/>
<path d="M348.618 448.838C348.618 448.838 332.709 559.743 396.346 547.451C459.637 535.213 483.591 277.733 300.393 240.703" stroke="black" stroke-width="6.60085" stroke-miterlimit="10"/>
<path d="M199.623 342.067C199.623 342.067 148.276 385.37 175.944 428.677" stroke="black" stroke-width="6.60085" stroke-miterlimit="10"/>
<path d="M349.774 418.033C348.894 418.087 347.636 417.5 346.779 417.266C345.693 416.979 344.617 416.671 343.55 416.344C337.295 414.396 331.409 411.416 326.138 407.526C324.94 406.67 322.807 406.119 321.346 406.682C320.532 406.98 319.814 407.492 319.266 408.163C318.718 408.834 318.36 409.64 318.231 410.497C317.781 413.588 319.962 416.613 322.34 418.596C325.161 420.956 328.09 423.13 331.511 424.544C334.812 425.869 338.218 426.917 341.694 427.677C343.269 428.042 344.868 428.276 346.432 428.677" stroke="black" stroke-width="6.60085" stroke-miterlimit="10"/>
<path d="M369.481 388.026C370.128 391.441 370.601 394.987 370.278 398.455C370.008 401.39 368.954 404.816 365.69 405.529C365.069 405.693 364.425 405.752 363.785 405.703C351.493 404.978 341.364 400.731 329.797 392.369C318.231 384.007 314.158 403.265 324.724 406.679" stroke="black" stroke-width="6.60085" stroke-miterlimit="10"/>
<path d="M325.167 420.919C324.883 420.686 324.614 420.435 324.359 420.171C318.602 414.151 317.56 426.244 323.604 429.803L324.382 430.264C324.79 430.437 325.227 430.641 325.658 430.863C325.862 430.917 326.09 431.006 326.299 431.066M326.299 431.066C331.762 433.462 337.578 434.996 343.305 436.559C337.638 434.708 331.99 432.887 326.299 431.066ZM326.299 431.066C325.808 430.863 325.341 430.659 324.85 430.425C324.699 430.363 324.542 430.315 324.382 430.282C324.281 430.236 324.169 430.216 324.057 430.227C323.946 430.237 323.839 430.277 323.748 430.342C323.611 430.454 323.511 430.604 323.46 430.773C322.532 433.001 323.286 435.81 324.472 437.805C325.718 439.914 327.857 441.537 329.965 442.693C335.638 445.874 342.233 447.755 348.6 448.881C349.781 449.125 350.991 449.204 352.194 449.114" stroke="black" stroke-width="6.60085" stroke-miterlimit="10"/>
<path d="M403.558 462.836C403.558 462.836 384.037 429.568 381.863 400.642C380.533 382.738 375.274 378.946 371.512 378.688" stroke="black" stroke-width="6.60085" stroke-miterlimit="10"/>
<path d="M365.69 405.524L369.487 388.027L371.512 378.683L386.523 309.403C386.746 308.371 386.734 307.303 386.49 306.276C386.246 305.249 385.776 304.29 385.113 303.469C384.45 302.648 383.612 301.985 382.66 301.529C381.708 301.074 380.666 300.838 379.61 300.837H289.844C288.248 300.836 286.698 301.375 285.447 302.369C284.197 303.362 283.321 304.75 282.962 306.306L265.285 382.103L252.383 437.409L251.185 442.59C250.946 443.628 250.944 444.705 251.18 445.743C251.415 446.78 251.88 447.752 252.542 448.585C253.203 449.418 254.044 450.092 255.002 450.555C255.959 451.019 257.009 451.261 258.073 451.264H348.277" stroke="black" stroke-width="6.60085" stroke-miterlimit="10"/>
<path d="M254.395 151.328C254.395 151.328 259.145 131.183 285.969 128.512C312.792 125.84 319.513 145.883 319.513 145.883L318.668 147.901C318.668 147.901 283.405 133.753 263.931 153.945C263.931 153.945 256.917 157.126 254.395 151.34" fill="#2079FF"/>
<path d="M261.631 381.607L219.911 371.184C218.916 370.938 217.88 370.902 216.87 371.076C215.86 371.252 214.898 371.635 214.044 372.203C213.19 372.77 212.464 373.509 211.91 374.372C211.357 375.235 210.99 376.204 210.831 377.217C210.673 378.23 210.727 379.265 210.99 380.256C211.253 381.246 211.719 382.172 212.359 382.973C212.998 383.773 213.798 384.433 214.706 384.909C215.615 385.384 216.612 385.665 217.635 385.734L237.36 387.034" stroke="black" stroke-width="6.60085" stroke-miterlimit="10"/>
<path d="M361.544 265.216C361.544 265.216 270.419 339.037 190.907 250.869" stroke="black" stroke-width="6.60085" stroke-miterlimit="10"/>
<path d="M188.05 354.04C186.343 336.597 177.699 296.069 134.505 297.201" stroke="black" stroke-width="6.60085" stroke-miterlimit="10"/>
<path d="M397.263 297.19C397.263 297.19 389.122 299.431 386.002 304.906" stroke="black" stroke-width="6.60085" stroke-miterlimit="10"/>
<path d="M323.143 176.484C326.79 179.551 329.133 184.559 329.133 190.225C329.133 199.63 322.597 207.237 314.523 207.237C313.609 207.232 312.7 207.126 311.809 206.92C321.214 199.732 323.119 176.484 323.119 176.484" fill="#2079FF"/>
<path d="M269.945 214.445C274.479 216.701 279.44 217.969 284.499 218.164C289.559 218.359 294.603 217.477 299.296 215.577C325.76 204.526 324.748 171.952 321.998 154.246C321.779 152.809 321.467 151.388 321.064 149.993V149.963C318.027 139.84 310.102 131.592 299.662 129.249C279.439 124.679 260.948 136.144 253.275 151.58" stroke="black" stroke-width="6.60085" stroke-miterlimit="10"/>
<path d="M321.316 150.309C321.316 150.309 321.232 150.189 321.058 149.991V149.961C319.261 147.937 308.856 138.275 278.739 145.217C275.283 146.007 272.032 147.516 269.197 149.644C269.129 149.682 269.069 149.731 269.017 149.788" stroke="black" stroke-width="6.60085" stroke-miterlimit="10"/>
<path d="M241.038 199.379H226.14C215.388 199.379 206.865 189.531 203.157 180.289C197.946 167.291 201.282 153.987 205.972 141.354C209.902 130.782 214.897 120.509 221.468 111.314C236.18 90.7384 258.391 79.0819 283.92 81.2383C286.184 81.4299 288.438 81.7091 290.683 82.0769C324.964 87.6356 348.079 116.298 347.905 151.01C347.833 159.074 346.784 167.099 344.778 174.91C343.857 178.608 341.891 181.962 339.116 184.574C336.341 187.185 332.873 188.943 329.127 189.639" stroke="black" stroke-width="6.60085" stroke-miterlimit="10"/>
<path d="M250.879 173.712C250.469 173.155 250.014 172.632 249.519 172.148C247.585 170.327 245.965 168.198 244.727 165.847C243.248 162.954 242.236 159.917 242.727 156.472C243.278 152.771 245.446 148.314 249.915 149.153C252.029 149.56 253.155 151.585 254.371 153.148C258.996 159.138 265.363 153.118 269.268 149.5" stroke="black" stroke-width="6.60085" stroke-miterlimit="10"/>
<path d="M323.143 176.484C326.79 179.551 329.133 184.559 329.133 190.225C329.133 199.63 322.597 207.237 314.523 207.237C313.609 207.232 312.7 207.126 311.809 206.92" stroke="black" stroke-width="6.60085" stroke-miterlimit="10"/>
<path d="M291.881 188.029C295.151 190.228 303.052 192.031 301.465 185.514C299.56 177.792 296.996 161.296 312.696 160.038C312.696 160.038 319.608 160.332 323.023 162.68" stroke="black" stroke-width="6.60085" stroke-miterlimit="10"/>
<path d="M297.793 200.936C297.793 200.936 289.886 205.129 285.969 196.772" stroke="black" stroke-width="6.60085" stroke-miterlimit="10"/>
<path d="M281.758 171.315C281.452 173.969 282.488 176.263 284.076 176.449C285.663 176.635 287.197 174.652 287.508 171.98C287.82 169.309 286.771 167.039 285.19 166.853C283.609 166.667 282.063 168.65 281.758 171.315Z" fill="black"/>
<path d="M307.503 172.879C307.197 175.527 308.233 177.827 309.821 178.013C311.408 178.198 312.942 176.216 313.247 173.544C313.553 170.873 312.516 168.596 310.935 168.417C309.354 168.237 307.808 170.214 307.503 172.879Z" fill="black"/>
<path d="M291.881 161.733C291.881 161.733 287.041 154.269 276.073 161.349" stroke="black" stroke-width="6.60085" stroke-miterlimit="10"/>
<path d="M300.387 215.085V256.488" stroke="black" stroke-width="6.60085" stroke-miterlimit="10"/>
<path d="M136.704 462.836C136.704 462.836 153.769 446.663 175.932 428.693C195.226 413.042 218.365 395.976 237.372 387.039C239.804 385.907 242.164 384.895 244.458 384.044C249.932 381.958 255.807 381.138 261.643 381.648C262.865 381.749 264.081 381.912 265.285 382.139" stroke="black" stroke-width="6.60085" stroke-miterlimit="10"/>
<path d="M252.383 437.409C233.64 443.022 221.834 456.272 212.927 474.871C207.002 487.222 201.875 501.424 192.561 511.667C183.51 521.557 172.919 530.236 160.658 535.819C138.411 545.942 111.019 545.163 96.5648 523.15C86.7891 508.223 82.9435 489.678 80.9908 472.235C77.6364 441.92 88.2267 356.466 134.505 297.195C149.373 278.129 167.918 261.788 190.883 250.851C207.002 243.195 225.224 238.188 245.878 236.768L251.664 206.92" stroke="black" stroke-width="6.60085" stroke-miterlimit="10"/>
<path d="M390.045 548.397V563.36" stroke="black" stroke-width="6.60085" stroke-miterlimit="10"/>
<path d="M130.193 543.057V563.363" stroke="black" stroke-width="6.60085" stroke-miterlimit="10"/>
<path d="M268.987 190.226C269.044 194.717 267.449 199.072 264.506 202.464C262.856 203.227 261.059 203.621 259.241 203.62C251.173 203.62 244.632 196.013 244.632 186.608C244.573 182.118 246.171 177.764 249.118 174.377C250.767 173.61 252.564 173.213 254.383 173.215C262.452 173.215 268.987 180.828 268.987 190.226Z" fill="#2079FF"/>
<path d="M254.395 207.238C262.454 207.238 268.987 199.622 268.987 190.226C268.987 180.831 262.454 173.215 254.395 173.215C246.336 173.215 239.804 180.831 239.804 190.226C239.804 199.622 246.336 207.238 254.395 207.238Z" stroke="black" stroke-width="6.60085" stroke-miterlimit="10"/>
<path d="M427.878 41.5596C418.888 38.8798 409.306 38.9258 400.342 41.692C391.379 44.4581 383.437 49.8201 377.521 57.0999C371.605 64.3798 367.981 73.2504 367.106 82.59C366.232 91.9296 368.146 101.319 372.608 109.571C377.069 117.822 383.878 124.566 392.172 128.947C400.466 133.329 409.873 135.153 419.204 134.19C428.535 133.225 437.37 129.516 444.593 123.53C451.816 117.544 457.101 109.551 459.78 100.561C463.374 88.5063 462.031 75.5182 456.049 64.4529C450.066 53.3882 439.933 45.1532 427.878 41.5596ZM404.049 121.49C403.177 121.23 402.364 120.8 401.658 120.226C400.952 119.651 400.366 118.943 399.933 118.142C399.5 117.342 399.229 116.463 399.136 115.558C399.043 114.652 399.129 113.737 399.389 112.865C399.65 111.993 400.079 111.18 400.654 110.473C401.228 109.767 401.936 109.181 402.737 108.748C404.354 107.874 406.253 107.679 408.015 108.204C409.776 108.73 411.257 109.934 412.131 111.552C413.005 113.17 413.201 115.068 412.675 116.83C412.149 118.592 410.945 120.072 409.327 120.946C407.71 121.82 405.811 122.016 404.049 121.49ZM428.009 73.0072C427.909 73.2468 427.814 73.4804 427.722 73.708C423.835 83.2693 419.001 92.4178 413.292 101.016C411.908 103.113 407.572 101.819 407.56 99.3033C407.64 91.4851 408.241 83.6808 409.357 75.9423C410.051 70.2877 409.512 60.6079 414.083 56.2591C418.138 52.3656 425.787 54.0368 429.393 57.7746C433.376 61.9257 429.926 68.4488 427.992 73.0072H428.009Z" fill="#D7E8F0"/>
<path d="M460.691 313.518C457.4 316.864 455.175 321.11 454.298 325.721C453.421 330.331 453.931 335.099 455.764 339.42C457.597 343.74 460.669 347.42 464.593 349.994C468.517 352.568 473.117 353.921 477.81 353.881C482.503 353.84 487.079 352.409 490.958 349.768C494.838 347.127 497.847 343.395 499.605 339.043C501.364 334.692 501.791 329.917 500.836 325.322C499.88 320.728 497.583 316.519 494.235 313.23C489.748 308.822 483.694 306.376 477.403 306.43C471.113 306.483 465.102 309.033 460.691 313.518ZM490.449 342.767C489.804 343.423 488.925 343.796 488.005 343.804C487.085 343.812 486.199 343.454 485.543 342.809C484.888 342.164 484.514 341.285 484.507 340.365C484.499 339.445 484.856 338.559 485.502 337.903C485.821 337.578 486.201 337.319 486.62 337.142C487.04 336.964 487.49 336.87 487.945 336.866C488.401 336.862 488.853 336.948 489.275 337.119C489.698 337.289 490.083 337.542 490.407 337.861C490.732 338.181 490.991 338.561 491.169 338.98C491.347 339.4 491.441 339.85 491.444 340.305C491.448 340.761 491.362 341.213 491.191 341.635C491.021 342.057 490.769 342.442 490.449 342.767ZM474.492 320.933C477.649 325.066 481.081 329.319 483.561 333.896C484.16 334.998 482.572 336.615 481.458 336.028C478.017 334.164 474.705 332.071 471.545 329.762C469.209 328.133 464.8 326.103 463.949 323.066C463.177 320.358 465.705 317.369 468.202 316.65C471.269 315.776 472.899 318.909 474.492 320.933Z" fill="#2079FF"/>
<path d="M553.716 123.485C556.079 120.577 557.528 117.034 557.877 113.303C558.227 109.573 557.463 105.822 555.681 102.525C553.899 99.229 551.18 96.5353 547.867 94.7838C544.554 93.0329 540.797 92.3034 537.069 92.6879C533.342 93.0725 529.812 94.5538 526.927 96.9438C524.042 99.3344 521.93 102.526 520.858 106.118C519.786 109.708 519.804 113.536 520.908 117.116C522.012 120.697 524.153 123.87 527.06 126.234C528.991 127.804 531.212 128.978 533.596 129.69C535.981 130.402 538.482 130.636 540.958 130.381C543.433 130.125 545.833 129.385 548.023 128.202C550.211 127.018 552.146 125.415 553.716 123.485ZM527.857 102.466C528.086 102.183 528.369 101.949 528.689 101.776C529.009 101.603 529.36 101.494 529.721 101.457C530.083 101.419 530.449 101.453 530.797 101.557C531.146 101.661 531.471 101.832 531.753 102.062C532.036 102.291 532.27 102.574 532.443 102.894C532.616 103.214 532.725 103.564 532.763 103.926C532.8 104.288 532.766 104.654 532.662 105.002C532.558 105.351 532.387 105.675 532.158 105.958C531.695 106.528 531.024 106.891 530.293 106.967C529.563 107.043 528.831 106.826 528.261 106.362C527.691 105.899 527.328 105.229 527.252 104.498C527.176 103.767 527.394 103.036 527.857 102.466ZM542.191 118.639C539.37 115.59 536.333 112.487 534.003 109.013C533.439 108.18 534.602 106.779 535.512 107.162C538.397 108.392 541.197 109.813 543.892 111.415C545.869 112.535 549.529 113.811 550.433 116.171C551.248 118.262 549.463 120.831 547.528 121.562C545.138 122.485 543.604 120.119 542.191 118.603V118.639Z" fill="#2079FF"/>
<path d="M365.39 248.4C372.075 259.781 371.769 267.885 370.032 281.021C369.337 286.023 374.722 289.407 379.089 286.891C417.671 264.728 453.683 282.255 499.686 271.389C516.578 267.424 537.638 259.206 552.074 245.992C556.865 238.879 559.424 230.499 559.424 221.924C559.424 185.984 510.306 156.807 449.729 156.807C410.908 156.807 376.801 168.787 357.304 186.835C357.304 186.835 357.303 186.835 357.25 186.888C352.302 194.298 349.582 202.397 349.582 210.848C349.552 223.745 359.142 237.726 365.39 248.4Z" fill="#D7E8F0"/>
<path d="M349.726 210.848C349.726 211.148 349.726 211.447 349.726 211.759C349.942 224.338 356.255 236.06 363.731 246.201C368.738 252.982 374.68 260.517 373.273 268.831C372.674 272.497 370.607 275.822 370.092 279.499C369.577 283.177 371.536 287.766 375.25 287.957C377.61 288.077 379.616 286.4 381.485 284.962C392.537 276.397 406.901 273.192 420.869 272.629C434.838 272.066 448.789 273.911 462.763 274.306C482.914 274.905 503.382 272.365 521.993 264.638C538.669 257.726 553.949 246.381 563.982 231.226C573.842 216.347 568.014 194.741 557.495 181.803C547.636 169.661 533.35 161.892 518.698 156.417C479.29 141.705 434.311 142.041 395.448 158.16C383.911 162.952 372.752 169.182 364.102 178.197C355.674 186.978 349.816 198.682 349.726 210.848Z" stroke="black" stroke-width="6.60085" stroke-miterlimit="10"/>
<path d="M511.42 225.164C519.777 225.164 526.551 218.39 526.551 210.033C526.551 201.676 519.777 194.902 511.42 194.902C503.064 194.902 496.289 201.676 496.289 210.033C496.289 218.39 503.064 225.164 511.42 225.164Z" fill="white"/>
<path d="M462.482 225.164C470.839 225.164 477.613 218.39 477.613 210.033C477.613 201.676 470.839 194.902 462.482 194.902C454.125 194.902 447.351 201.676 447.351 210.033C447.351 218.39 454.125 225.164 462.482 225.164Z" fill="white"/>
<path d="M412.591 225.164C420.948 225.164 427.722 218.39 427.722 210.033C427.722 201.676 420.948 194.902 412.591 194.902C404.235 194.902 397.46 201.676 397.46 210.033C397.46 218.39 404.235 225.164 412.591 225.164Z" fill="white"/>
</svg>
