<svg width="490" height="490" viewBox="0 0 490 490" fill="none" xmlns="http://www.w3.org/2000/svg">
<path d="M326.467 430.529L316.785 439.668C316.533 439.906 316.332 440.193 316.195 440.512C316.058 440.83 315.987 441.173 315.986 441.52V456.078C315.986 456.711 316.222 457.322 316.648 457.79C317.074 458.258 317.659 458.551 318.289 458.611L337.345 460.463L347.851 450.546C348.105 450.309 348.307 450.022 348.445 449.703C348.584 449.385 348.655 449.041 348.655 448.694V434.048C348.655 433.412 348.418 432.8 347.99 432.33C347.562 431.861 346.974 431.568 346.342 431.509L328.452 429.848C328.092 429.815 327.729 429.859 327.387 429.976C327.045 430.093 326.731 430.282 326.467 430.529Z" fill="#2079FF"/>
<path d="M325.453 427.99L314.09 438.716C313.794 438.996 313.558 439.333 313.398 439.707C313.236 440.081 313.154 440.484 313.154 440.892V457.973C313.153 458.716 313.429 459.432 313.929 459.982C314.428 460.532 315.115 460.876 315.854 460.947L338.218 463.123L350.551 451.48C350.847 451.201 351.083 450.864 351.244 450.489C351.404 450.115 351.487 449.712 351.487 449.305V432.116C351.486 431.371 351.208 430.653 350.706 430.103C350.204 429.552 349.514 429.209 348.772 429.141L327.781 427.181C327.357 427.143 326.931 427.195 326.53 427.334C326.128 427.473 325.761 427.697 325.453 427.99Z" fill="#2079FF"/>
<path d="M385.14 333.087V347.728C385.14 348.075 385.068 348.418 384.931 348.737C384.794 349.055 384.593 349.342 384.341 349.581L373.826 359.498L354.76 357.646C354.209 357.597 353.691 357.362 353.29 356.98C356.441 356.597 359.092 355.132 359.905 353.55C361.155 351.1 360.821 346.827 355.495 346.082C354.464 345.944 353.444 345.735 352.442 345.455V340.55C352.442 340.204 352.512 339.861 352.65 339.543C352.787 339.225 352.988 338.939 353.241 338.703L362.919 329.554C363.181 329.313 363.491 329.128 363.828 329.012C364.165 328.896 364.523 328.85 364.879 328.878L382.768 330.544C383.413 330.588 384.016 330.875 384.457 331.347C384.897 331.82 385.141 332.441 385.14 333.087Z" fill="#2079FF"/>
<path d="M387.977 331.156V348.341C387.976 348.75 387.892 349.155 387.729 349.531C387.566 349.907 387.329 350.245 387.031 350.526L374.708 362.159L352.344 359.988C351.604 359.916 350.918 359.571 350.419 359.02C349.919 358.469 349.643 357.752 349.644 357.009V356.94C350.861 357.134 352.099 357.147 353.319 356.979C356.47 356.597 359.121 355.132 359.934 353.549C361.184 351.099 360.851 346.826 355.524 346.082C354.493 345.944 353.473 345.734 352.472 345.454C350.081 344.724 349.934 343.926 349.934 343.926L349.64 344.112V339.947C349.636 339.541 349.717 339.138 349.878 338.764C350.038 338.39 350.274 338.054 350.571 337.776L361.939 327.045C362.247 326.754 362.615 326.531 363.016 326.392C363.417 326.252 363.843 326.199 364.266 326.237L385.258 328.197C385.997 328.267 386.683 328.608 387.185 329.155C387.688 329.701 387.97 330.414 387.977 331.156Z" fill="#2079FF"/>
<path d="M388.683 377.447L377.241 388.227C376.943 388.509 376.705 388.848 376.542 389.225C376.38 389.601 376.296 390.007 376.296 390.417V407.621C376.295 408.37 376.572 409.092 377.076 409.646C377.578 410.201 378.27 410.548 379.015 410.62L401.555 412.81L413.976 401.089C414.275 400.808 414.513 400.469 414.675 400.092C414.838 399.715 414.922 399.309 414.922 398.899V381.602C414.923 380.851 414.643 380.127 414.137 379.573C413.631 379.017 412.936 378.672 412.188 378.603L391.049 376.643C390.62 376.6 390.187 376.649 389.779 376.788C389.37 376.927 388.996 377.151 388.683 377.447Z" fill="#2079FF"/>
<path d="M387.482 374.448L374.051 387.124C373.702 387.455 373.424 387.853 373.233 388.294C373.043 388.736 372.944 389.211 372.944 389.692V409.88C372.944 410.758 373.272 411.605 373.863 412.255C374.453 412.905 375.265 413.313 376.139 413.398L402.569 415.966L417.142 402.207C417.493 401.877 417.772 401.48 417.963 401.038C418.153 400.596 418.251 400.12 418.249 399.639V379.324C418.243 378.445 417.91 377.601 417.314 376.955C416.72 376.309 415.905 375.908 415.03 375.83L390.221 373.522C389.725 373.475 389.225 373.534 388.753 373.693C388.281 373.853 387.848 374.11 387.482 374.448Z" fill="#2079FF"/>
<path d="M419.7 387.952L407.793 399.193C407.483 399.486 407.237 399.839 407.068 400.231C406.899 400.622 406.813 401.045 406.813 401.471V419.371C406.813 420.15 407.103 420.901 407.626 421.478C408.15 422.055 408.869 422.417 409.645 422.492L433.082 424.771L446.003 412.579C446.313 412.286 446.559 411.933 446.728 411.541C446.896 411.149 446.983 410.727 446.983 410.301V392.274C446.981 391.493 446.689 390.74 446.163 390.163C445.636 389.586 444.914 389.225 444.136 389.152L422.14 387.099C421.696 387.059 421.248 387.114 420.827 387.261C420.406 387.408 420.022 387.644 419.7 387.952Z" fill="#2079FF"/>
<path d="M418.46 384.832L404.485 398.023C404.121 398.367 403.832 398.782 403.634 399.242C403.436 399.702 403.334 400.198 403.334 400.699V421.71C403.333 422.623 403.673 423.503 404.286 424.178C404.899 424.854 405.743 425.278 406.651 425.365L434.14 428.041L449.33 413.723C449.694 413.379 449.984 412.964 450.182 412.504C450.38 412.044 450.481 411.548 450.481 411.047V389.904C450.481 388.988 450.138 388.105 449.521 387.428C448.904 386.751 448.056 386.329 447.145 386.244L421.326 383.843C420.806 383.795 420.281 383.858 419.787 384.029C419.293 384.199 418.84 384.473 418.46 384.832Z" fill="#2079FF"/>
<path d="M385.312 400.942L368.617 416.7C368.182 417.11 367.835 417.605 367.598 418.155C367.361 418.704 367.239 419.297 367.24 419.895V444.993C367.244 446.083 367.652 447.132 368.383 447.939C369.116 448.746 370.121 449.253 371.204 449.364L404.064 452.559L422.194 435.453C422.628 435.042 422.974 434.546 423.211 433.997C423.447 433.448 423.57 432.856 423.571 432.258V407.003C423.566 405.91 423.155 404.857 422.418 404.05C421.681 403.242 420.67 402.737 419.582 402.632L388.742 399.761C388.119 399.703 387.491 399.779 386.9 399.983C386.308 400.186 385.767 400.513 385.312 400.942Z" fill="#2079FF"/>
<path d="M383.562 396.567L363.962 415.06C363.452 415.542 363.045 416.123 362.767 416.768C362.489 417.412 362.345 418.107 362.345 418.809V448.262C362.344 449.543 362.82 450.779 363.681 451.727C364.542 452.676 365.725 453.27 367 453.393L405.558 457.141L426.824 437.051C427.335 436.57 427.742 435.988 428.02 435.344C428.298 434.699 428.441 434.005 428.441 433.303V403.682C428.442 402.398 427.963 401.161 427.098 400.212C426.233 399.262 425.045 398.671 423.767 398.552L387.59 395.186C386.859 395.116 386.121 395.202 385.427 395.441C384.732 395.679 384.096 396.063 383.562 396.567Z" fill="#2079FF"/>
<path d="M267.54 184.969C281.26 174.562 302.041 165.217 329.844 170.063" stroke="#CCDDE2" stroke-width="2.2491" stroke-miterlimit="10"/>
<path d="M274.508 193.104C286.719 184.622 303.349 178.11 325.037 179.506" stroke="white" stroke-width="2.2491" stroke-linecap="round" stroke-linejoin="round"/>
<path d="M370.342 188.713C383.748 201.096 390.795 218.549 393.372 236.336C395.08 248.167 395.095 260.179 393.416 272.013C393.288 272.708 393.201 273.41 393.156 274.115C394.024 273.724 394.922 273.405 395.842 273.16C406.925 270.313 418.715 269.852 429.441 274.233C438.364 277.874 445.959 284.258 451.76 291.873C459.517 302.117 464.208 314.35 465.289 327.153C467.249 351.653 455.533 371.41 437.962 385.345L437.761 385.507" stroke="#CCDDE2" stroke-width="2.2491" stroke-linejoin="round"/>
<path d="M368.201 200.503C385.576 220.922 386.679 248.376 385.145 274.542C385.111 275.116 384.895 276.635 384.694 278.178" stroke="white" stroke-width="2.2491" stroke-linecap="round" stroke-linejoin="round"/>
<path d="M391.77 281.133C404.588 279.859 418.818 279.481 429.72 285.851C440.5 292.153 448.526 302.34 453.147 313.874C458.395 326.967 459.238 342.294 453.372 355.338C446.792 369.94 435.894 380.392 423.561 390.177C423.527 390.202 425.031 390.535 426.599 390.888" stroke="white" stroke-width="2.2491" stroke-linecap="round" stroke-linejoin="round"/>
<path d="M168.707 431.652C165.963 432.64 163.089 433.223 160.176 433.382C118.805 435.925 79.9827 413.292 52.6407 387.954C51.3912 386.797 50.1907 385.612 49.0343 384.411" stroke="black" stroke-width="2.2491" stroke-miterlimit="10"/>
<path d="M208.505 415.397C210.896 419.053 216.506 417.593 216.506 417.593C247.798 411.174 238.669 369.744 212.199 350.517" stroke="black" stroke-width="2.2491" stroke-miterlimit="10"/>
<path d="M244.951 316.54C233.607 327.418 223.479 334.019 213.988 337.929L217.908 310.523C175.155 284.955 163.778 313.463 163.778 313.463C162.141 316.139 161.381 347.881 161.166 358.715C161.112 358.715 159.755 358.715 159.696 358.715C132.746 357.274 108.388 332.622 108.388 332.622C122.005 298.43 170.618 256.182 170.618 256.182C204.359 232.52 230.114 240.478 230.114 240.478C222.181 241.051 232.99 263.018 232.99 263.018C248.92 276.85 254.8 256.192 254.8 256.192C270.215 293.089 244.951 316.54 244.951 316.54Z" fill="#353642"/>
<path d="M272.827 300.581C272.827 300.581 270.029 336.527 245.71 335.337C245.71 335.337 236.592 325.473 236.822 317.971C237.052 310.469 257.402 263.62 257.402 263.62C257.402 263.62 270.593 296.519 272.827 300.581Z" fill="#353642"/>
<path d="M51.2687 386.527V386.649L53.3463 388.609C53.3463 388.609 52.4839 389.408 51.2687 390.569C49.686 392.039 47.5055 394.068 45.8787 395.616C43.0612 398.292 28.6552 412.693 24.8087 399.595C25.5682 395.014 28.4788 385.591 39.6361 374.145C55.5023 357.837 53.2924 359.861 57.2761 360.131C59.1136 360.248 61.495 361.326 63.5334 362.458C58.3786 364.604 50.5631 370.558 51.2687 386.527Z" fill="#2079FF"/>
<path d="M67.8405 365.167C67.8405 365.167 52.2438 366.638 51.2687 386.527V386.649C51.205 387.874 51.205 389.163 51.2687 390.535C49.686 392.005 47.5055 394.033 45.8787 395.582C43.0612 398.257 28.6552 412.658 24.8087 399.561C25.5682 394.979 28.4788 385.556 39.6361 374.11C55.5023 357.803 53.2924 359.826 57.2761 360.096C59.1136 360.214 61.495 361.292 63.5334 362.423C65.0152 363.264 66.4528 364.18 67.8405 365.167Z" fill="#2079FF"/>
<path d="M213.885 338.756C231.525 327.697 259.827 313.536 259.759 281.745C259.759 274.194 258.98 268.025 257.309 262.184L257.147 261.625C256.564 259.735 255.777 257.913 254.8 256.191" stroke="black" stroke-width="2.2491" stroke-miterlimit="10"/>
<path d="M128.797 393.788C124.715 390.314 121.03 386.962 118.58 384.649L118.541 384.61C116.61 382.812 115.454 381.67 115.454 381.67C113.812 379.431 112.352 377.26 111.044 375.173C111.018 375.141 111 375.105 110.99 375.065C101.474 359.679 100.901 347.419 109.765 329.382C109.816 329.252 109.875 329.124 109.941 329C110.921 327.04 112.004 324.992 113.2 322.875C130.943 291.515 183 233.082 227.909 240.472" stroke="black" stroke-width="2.2491" stroke-miterlimit="10"/>
<path d="M52.6554 387.938C43.3454 399.492 36.8137 403.594 32.3988 404.5C27.9839 405.407 23.9169 401.492 24.5588 396.964C26.607 382.656 43.2572 365.54 51.45 357.886C52.7049 356.706 54.315 355.975 56.0295 355.806C57.7441 355.637 59.4659 356.042 60.9266 356.956L65.0279 359.508C77.1456 367.064 89.7925 374.434 102.508 381.225C114.165 387.458 126.974 395.469 140.772 393.656" stroke="black" stroke-width="2.2491" stroke-miterlimit="10"/>
<path d="M219.647 280.632C219.806 286.32 219.66 292.012 219.211 297.684C217.658 318.21 213.464 338.457 211.156 358.9C209.686 371.983 208.784 385.125 208.608 398.291C208.461 409.346 208.431 417.778 208.76 428.833C208.97 435.948 212.993 440.49 219.118 443.533C224.278 446.091 227.874 445.571 231.089 450.731C237.699 461.364 224.719 462.119 219.437 460.717C204.619 456.797 182.819 454.646 174.357 439.912C167.609 428.152 166.752 420.464 165.047 407.322C163.185 393.082 161.617 378.784 161.283 364.417C160.769 341.285 162.562 304.074 170.853 282.195" stroke="black" stroke-width="2.2491" stroke-miterlimit="10"/>
<path d="M404.74 390.349L404.662 390.428L402.824 390.241L402.893 390.178L404.74 390.349Z" fill="#2079FF"/>
<path d="M375.59 387.845L390.687 389.339L375.59 387.967V387.845Z" fill="#2079FF"/>
<path d="M404.74 390.348L404.662 390.426L402.824 390.24L402.623 390.426L401.746 390.348L401.947 390.162L402.011 390.093L402.893 390.177L404.74 390.348Z" fill="#2079FF"/>
<path d="M404.74 390.348L404.662 390.426L402.824 390.24L401.947 390.162L402.011 390.093L402.893 390.177L404.74 390.348Z" fill="#2079FF"/>
<path d="M366.192 416.563L388.511 418.743L366.192 416.739V416.563Z" fill="#2079FF"/>
<path d="M409.302 420.23L409.184 420.347L406.465 420.073L406.171 420.347L404.872 420.23L405.166 419.955L405.264 419.857L406.568 419.975L409.302 420.23Z" fill="#2079FF"/>
<path d="M409.302 420.23L409.184 420.347L406.465 420.073L405.166 419.955L405.264 419.857L406.568 419.975L409.302 420.23Z" fill="#2079FF"/>
<path d="M257.137 261.622C257.137 261.622 271.553 309.71 288.414 320.912C304.3 331.461 325.63 326.885 342.383 321.122C347.008 319.53 351.658 317.976 356.593 318.05C363.536 318.148 377.687 319.687 379.525 327.767" stroke="black" stroke-width="2.2491" stroke-miterlimit="10"/>
<path d="M238.189 322.64C263.066 373.017 307.176 362.967 329.883 353.863C331.94 353.026 334.171 352.707 336.38 352.932C338.575 353.172 340.3 354.103 342.343 354.892C345.817 356.264 349.742 357.249 353.511 356.994C357.279 356.739 361.87 353.868 360.282 349.424C359.018 345.881 355.078 346.136 352.06 345.455C349.042 344.773 348.316 340.373 351.139 338.947C351.174 338.937 351.206 338.918 351.232 338.893" stroke="black" stroke-width="2.2491" stroke-miterlimit="10"/>
<path d="M351.487 429.401L338.218 441.94L313.154 439.607L326.438 427.073L351.487 429.401Z" stroke="black" stroke-width="2.2491" stroke-linecap="square" stroke-linejoin="round"/>
<path d="M338.218 441.941V463.128L313.154 460.693V439.608L338.218 441.941Z" stroke="black" stroke-width="2.2491" stroke-linecap="square" stroke-linejoin="round"/>
<path d="M351.487 429.401V450.603L338.218 463.128V441.94L351.487 429.401Z" stroke="black" stroke-width="2.2491" stroke-linecap="square" stroke-linejoin="round"/>
<path d="M428.647 399.188L405.94 420.646L363.065 416.652L373.101 407.175V412.521L402.623 415.398L418.249 400.639V398.213L428.647 399.188Z" stroke="black" stroke-width="2.2491" stroke-linecap="square" stroke-linejoin="round"/>
<path d="M405.94 420.64V456.886L363.065 452.721V416.657L405.94 420.64Z" stroke="black" stroke-width="2.2491" stroke-linecap="square" stroke-linejoin="round"/>
<path d="M428.642 399.193V435.463L405.94 456.886V420.641L428.642 399.193Z" stroke="black" stroke-width="2.2491" stroke-linecap="square" stroke-linejoin="round"/>
<path d="M418.249 375.668L402.623 390.427L373.101 387.688L388.741 372.924L418.249 375.668Z" stroke="black" stroke-width="2.2491" stroke-linecap="square" stroke-linejoin="round"/>
<path d="M402.623 395.846V390.427L373.101 387.688V410.473" stroke="black" stroke-width="2.2491" stroke-linecap="square" stroke-linejoin="round"/>
<path d="M418.249 375.669V400.64L402.623 415.399V390.428L418.249 375.669Z" stroke="black" stroke-width="2.2491" stroke-linecap="square" stroke-linejoin="round"/>
<path d="M418.685 384.459L419.357 383.827L450.54 386.727L434.022 402.344L429.392 401.908" stroke="black" stroke-width="2.2491" stroke-linecap="square" stroke-linejoin="round"/>
<path d="M429.118 401.878L434.022 402.344V428.711L428.647 428.191" stroke="black" stroke-width="2.2491" stroke-linecap="square" stroke-linejoin="round"/>
<path d="M450.535 386.727V413.118L434.017 428.71V402.333L450.535 386.727Z" stroke="black" stroke-width="2.2491" stroke-linecap="square" stroke-linejoin="round"/>
<path d="M387.972 328.544L374.703 341.083L349.639 338.751L362.923 326.211L387.972 328.544Z" stroke="black" stroke-width="2.2491" stroke-linecap="square" stroke-linejoin="round"/>
<path d="M349.635 356.872V359.841L374.698 362.276V341.089L351.232 338.903L349.635 338.756V340.594V342.5" stroke="black" stroke-width="2.2491" stroke-linecap="square" stroke-linejoin="round"/>
<path d="M387.972 328.545V349.747L374.703 362.272V341.084L387.972 328.545Z" stroke="black" stroke-width="2.2491" stroke-linecap="square" stroke-linejoin="round"/>
<path d="M259.759 237.694C262.037 240.747 266.036 241.354 268.687 239.252" stroke="black" stroke-width="2.2491" stroke-miterlimit="10"/>
<path d="M295.984 207.271C295.003 209.714 293.277 211.786 291.052 213.193C288.827 214.6 286.215 215.271 283.587 215.111C283.53 214.037 283.212 212.992 282.661 212.068C280.304 208.226 278.09 214.425 269.554 208.432C257.73 200.102 252.316 203.042 252.316 203.042C251.826 203.297 251.439 206.247 251.306 206.761C250.498 209.75 249.694 212.724 248.856 215.708C248.366 217.531 247.876 219.339 247.386 221.147C247.26 220.813 247.115 220.485 246.95 220.167C246.411 215.86 245.083 210.676 240.262 212.087C239.285 212.392 238.393 212.922 237.66 213.636C234.088 217.095 235.773 221.216 238.458 224.484C239.106 225.471 239.858 226.385 240.703 227.209C240.031 228.189 237.297 232.109 237.297 232.109C237.013 232.501 230.961 223.112 230.55 222.123C230.074 219.79 229.992 217.393 230.31 215.032C231.667 205.33 237.322 194.663 245.99 190.307C248.146 189.229 247.724 187.808 248.136 185.956C248.149 185.848 248.197 185.747 248.273 185.669C248.349 185.592 248.449 185.542 248.557 185.527C248.665 185.512 248.774 185.534 248.869 185.589C248.963 185.644 249.036 185.728 249.077 185.828C251.135 188.974 257.25 189.631 257.25 189.631C278.246 187.519 284.768 198.024 288.835 200.337C290.476 201.245 292.377 201.568 294.225 201.253C294.238 201.852 294.414 202.435 294.735 202.94C295.057 203.445 295.511 203.851 296.048 204.115L295.793 205.095C295.609 205.821 295.676 206.588 295.984 207.271Z" fill="#2079FF"/>
<path d="M283.573 215.111C286.196 215.271 288.804 214.602 291.026 213.2C293.249 211.798 294.975 209.732 295.96 207.296C296.344 206.364 296.643 205.4 296.852 204.414L296.695 204.37C296.47 204.315 296.252 204.231 296.048 204.12C295.511 203.856 295.057 203.45 294.735 202.945C294.414 202.44 294.238 201.857 294.225 201.259C294.209 200.928 294.246 200.598 294.333 200.279L295.602 195.585C295.602 195.585 291.354 197.839 287.37 195.536C283.387 193.233 277.703 182.756 255.785 184.829C255.785 184.829 250.968 184.383 248.925 181.179C248.882 181.08 248.808 180.998 248.715 180.945C248.621 180.893 248.513 180.873 248.406 180.887C248.3 180.903 248.202 180.952 248.126 181.029C248.051 181.105 248.003 181.204 247.989 181.311C247.577 183.163 246.676 184.378 244.525 185.456C235.837 189.817 230.177 200.485 228.845 210.182C228.343 214.231 228.928 218.34 230.54 222.089C230.952 223.069 237.003 232.467 237.287 232.075C237.287 232.075 240.022 228.155 240.693 227.175L240.855 226.959L240.644 226.768C239.861 226.046 239.127 225.272 238.449 224.45C235.763 221.182 234.078 217.061 237.65 213.602C238.383 212.888 239.275 212.357 240.252 212.053C245.073 210.642 246.401 215.826 246.94 220.134C247.044 220.956 247.059 221.787 246.984 222.613L247.376 221.143C247.866 219.335 248.356 217.527 248.846 215.704C249.665 212.72 250.468 209.746 251.296 206.757C251.429 206.242 251.835 203.292 252.306 203.037C252.306 203.037 257.72 200.127 269.544 208.427C278.08 214.42 280.295 208.222 282.652 212.063C283.202 212.987 283.52 214.032 283.578 215.106C283.59 215.451 283.58 215.797 283.548 216.14C283.556 216.186 283.556 216.232 283.548 216.277C283.48 217.027 283.382 217.777 283.284 218.507C282.304 225.553 280.393 232.78 276.634 238.891C272.077 246.295 262.003 252.753 253.33 247.652C250.63 246.059 248.317 243.796 246.249 241.453" stroke="black" stroke-width="2.2491" stroke-miterlimit="10"/>
<path d="M277.198 230.175C277.739 229.121 277.471 227.903 276.6 227.456C275.728 227.009 274.583 227.501 274.042 228.555C273.501 229.61 273.768 230.828 274.64 231.275C275.511 231.722 276.657 231.23 277.198 230.175Z" fill="black"/>
<path d="M263.527 227.643C264.068 226.588 263.801 225.371 262.929 224.924C262.058 224.476 260.912 224.968 260.371 226.023C259.83 227.077 260.098 228.295 260.969 228.742C261.841 229.19 262.986 228.697 263.527 227.643Z" fill="black"/>
<path d="M265.854 231.921C265.854 231.921 270.034 235.214 270.72 232.563C270.936 231.745 273.293 223.787 273.293 223.787C273.293 223.787 277.585 220.436 282.808 224.189" stroke="black" stroke-width="2.2491" stroke-miterlimit="10"/>
<path d="M268.613 220.741C268.613 220.741 261.792 215.929 256.108 220.506" stroke="black" stroke-width="2.2491" stroke-miterlimit="10"/>
<path d="M235.518 229.844L231.981 241.251L227.938 240.492C225.395 244.735 228.673 258.45 233.01 263.032C245.382 276.144 252.992 261.008 252.992 261.008L254.8 256.177L257.421 249.189" stroke="black" stroke-width="2.2491" stroke-miterlimit="10"/>
<path d="M342.681 194.892C343.604 195.72 344.342 196.732 344.848 197.863C345.354 198.994 345.618 200.218 345.621 201.458V202.859C345.625 203.85 345.837 204.829 346.241 205.733C346.646 206.637 347.235 207.447 347.971 208.11C348.707 208.773 349.573 209.275 350.515 209.583C351.456 209.891 352.451 209.999 353.437 209.9C357.097 209.528 359.773 206.201 359.773 202.501V201.453C359.77 200.223 360.025 199.006 360.519 197.881C361.015 196.755 361.741 195.745 362.649 194.916" stroke="#CCDDE2" stroke-width="2.2491" stroke-linejoin="round"/>
<path d="M342.681 194.892C343.604 195.72 344.342 196.732 344.848 197.863C345.354 198.994 345.618 200.218 345.621 201.458V202.859C345.625 203.85 345.837 204.829 346.241 205.733C346.646 206.637 347.235 207.447 347.971 208.11C348.707 208.773 349.573 209.275 350.515 209.583C351.456 209.891 352.451 209.999 353.437 209.9C357.097 209.528 359.773 206.201 359.773 202.501V201.453C359.77 200.223 360.025 199.006 360.519 197.881C361.015 196.755 361.741 195.745 362.649 194.916" stroke="#CCDDE2" stroke-width="2.2491" stroke-linejoin="round"/>
<path d="M342.682 194.893C342.212 194.485 341.703 194.123 341.163 193.815C337.019 191.437 333.713 187.834 331.698 183.501C329.683 179.169 329.059 174.319 329.909 169.617C330.76 164.916 333.046 160.593 336.451 157.242C339.857 153.89 344.216 151.675 348.93 150.899C353.645 150.124 358.484 150.827 362.784 152.911C367.083 154.995 370.633 158.359 372.944 162.54C375.256 166.722 376.218 171.516 375.696 176.265C375.175 181.015 373.197 185.487 370.033 189.067C369.984 189.115 369.94 189.167 369.901 189.224C368.229 191.06 366.28 192.623 364.124 193.854C363.592 194.15 363.099 194.509 362.654 194.923" stroke="#CCDDE2" stroke-width="2.2491" stroke-linejoin="round"/>
<path d="M350.218 193.384C348.723 190.67 346.205 187.073 344.431 184.51C342.502 181.792 340.926 178.84 339.741 175.725C339.585 175.388 339.524 175.015 339.565 174.647C339.59 174.464 339.684 174.297 339.828 174.182C339.972 174.067 340.156 174.012 340.339 174.029C340.668 174.093 340.829 174.436 341.001 174.735C341.705 176.135 342.709 177.363 343.941 178.331C344.632 178.865 345.612 179.311 346.332 178.821C346.551 178.63 346.726 178.394 346.847 178.129C346.968 177.865 347.031 177.578 347.033 177.288C347.249 175.224 346.71 173.152 345.514 171.457C345.024 170.79 344.171 170.143 343.48 170.58C342.789 171.016 342.99 172.094 343.402 172.819C344.133 174.163 345.131 175.344 346.334 176.29C347.537 177.236 348.92 177.928 350.399 178.322C351.124 178.565 351.908 178.573 352.638 178.346C353.044 178.161 353.398 177.881 353.671 177.528C353.943 177.175 354.125 176.761 354.201 176.322C354.347 175.44 354.271 174.536 353.981 173.691C353.579 172.373 352.8 171.025 351.492 170.584C351.082 170.425 350.627 170.425 350.218 170.584C349.946 170.73 349.72 170.949 349.567 171.217C349.414 171.485 349.339 171.79 349.35 172.099C349.383 172.715 349.571 173.314 349.899 173.838C350.659 175.163 351.728 176.284 353.016 177.105C354.304 177.926 355.771 178.422 357.293 178.552C358.31 178.696 359.343 178.449 360.184 177.861C360.535 177.536 360.818 177.144 361.015 176.707C361.213 176.272 361.322 175.801 361.336 175.323C361.447 173.888 361.042 172.462 360.194 171.3C360.023 171.07 359.763 170.81 359.484 170.903C359.204 170.996 359.126 171.31 359.092 171.589C358.964 172.687 359.056 173.798 359.362 174.86C359.668 175.921 360.183 176.912 360.875 177.773C361.64 178.709 362.801 179.522 363.977 179.243C364.422 179.107 364.821 178.853 365.133 178.507C365.444 178.162 365.656 177.739 365.746 177.283C365.915 176.368 365.824 175.424 365.481 174.558C365.06 174.817 364.699 175.163 364.424 175.575C364.149 175.986 363.967 176.451 363.889 176.94C363.673 177.92 363.688 178.9 363.521 179.88C362.6 185.378 356.544 187.832 355.368 193.11" stroke="#CCDDE2" stroke-width="2.2491" stroke-linejoin="round"/>
<path d="M352.668 142.306L352.437 128.38" stroke="#CCDDE2" stroke-width="2.2491" stroke-linejoin="round"/>
<path d="M326.105 155.262L316.466 145.212" stroke="#CCDDE2" stroke-width="2.2491" stroke-linejoin="round"/>
<path d="M379.324 155.889L389.178 146.045" stroke="#CCDDE2" stroke-width="2.2491" stroke-linejoin="round"/>
<path d="M384.586 287.453C387.374 287.453 389.633 285.194 389.633 282.406C389.633 279.619 387.374 277.359 384.586 277.359C381.799 277.359 379.539 279.619 379.539 282.406C379.539 285.194 381.799 287.453 384.586 287.453Z" fill="#2079FF"/>
</svg>
