<svg width="92" height="100" viewBox="0 0 92 100" fill="none" xmlns="http://www.w3.org/2000/svg">
<rect width="92" height="100" rx="30" fill="#2079FF"/>
<path d="M66.3937 28.0834L67.6229 29.3126C69.3167 31.0084 69.0604 34.0147 67.0458 36.0272L41.6979 61.3751L33.4854 64.3792C32.4542 64.7584 31.45 64.2667 31.2458 63.2855C31.1768 62.9295 31.2093 62.5614 31.3396 62.223L34.4021 53.9397L59.6792 28.6605C61.6937 26.648 64.7 26.3876 66.3937 28.0834ZM40.5917 30.6042C40.8652 30.6042 41.1361 30.6581 41.3889 30.7628C41.6417 30.8675 41.8713 31.021 42.0648 31.2144C42.2582 31.4079 42.4117 31.6376 42.5164 31.8903C42.6211 32.1431 42.675 32.414 42.675 32.6876C42.675 32.9612 42.6211 33.2321 42.5164 33.4848C42.4117 33.7376 42.2582 33.9673 42.0648 34.1607C41.8713 34.3542 41.6417 34.5076 41.3889 34.6123C41.1361 34.717 40.8652 34.7709 40.5917 34.7709H32.2583C31.1533 34.7709 30.0934 35.2099 29.312 35.9913C28.5306 36.7727 28.0917 37.8325 28.0917 38.9376V63.9376C28.0917 65.0426 28.5306 66.1024 29.312 66.8839C30.0934 67.6652 31.1533 68.1042 32.2583 68.1042H57.2583C58.3634 68.1042 59.4232 67.6652 60.2046 66.8839C60.986 66.1024 61.425 65.0426 61.425 63.9376V55.6042C61.425 55.0517 61.6445 54.5218 62.0352 54.1311C62.4259 53.7404 62.9558 53.5209 63.5083 53.5209C64.0609 53.5209 64.5908 53.7404 64.9815 54.1311C65.3722 54.5218 65.5917 55.0517 65.5917 55.6042V63.9376C65.5917 66.1477 64.7137 68.2673 63.1509 69.8301C61.5881 71.3929 59.4685 72.2709 57.2583 72.2709H32.2583C30.0482 72.2709 27.9286 71.3929 26.3658 69.8301C24.803 68.2673 23.925 66.1477 23.925 63.9376V38.9376C23.925 36.7274 24.803 34.6078 26.3658 33.045C27.9286 31.4822 30.0482 30.6042 32.2583 30.6042H40.5917Z" fill="white"/>
</svg>
