<svg width="207" height="122" viewBox="0 0 207 122" fill="none" xmlns="http://www.w3.org/2000/svg">
<path d="M197.574 -49C158.968 7.22098 85.6379 113.683 84.7198 115.085C79.7203 122.685 69.5212 127.136 60.122 127.136C50.241 127.136 40.451 121.12 38.0239 108.498C38.0239 108.498 11.7353 -5.40024 11.2808 -7.97877C10.8253 -10.6984 10.8253 -13.4743 11.2808 -16.1939C11.7331 -18.9164 12.5145 -21.5746 13.6079 -24.1104L13.4534 -24.0199L0 4.07246L33.0971 135.722C35.2424 143.666 44.4325 148.389 54.6316 148.886C70.7392 149.728 81.1383 145.946 88.4559 136.012C89.5285 134.555 173.303 14.3594 207 -37.6454C204.031 -41.5781 200.888 -45.3629 197.574 -49Z" fill="#FF6700"/>
</svg>
