<svg width="12" height="20" viewBox="0 0 12 20" fill="none" xmlns="http://www.w3.org/2000/svg">
<path d="M2.87501 19.1L11.3 10.7C11.4 10.6 11.4707 10.4917 11.512 10.375C11.554 10.2584 11.575 10.1334 11.575 10C11.575 9.86669 11.554 9.74169 11.512 9.62502C11.4707 9.50836 11.4 9.40002 11.3 9.30002L2.87501 0.875024C2.64168 0.641691 2.35001 0.525024 2.00001 0.525024C1.65001 0.525024 1.35001 0.650024 1.10001 0.900024C0.850013 1.15002 0.725013 1.44169 0.725013 1.77502C0.725013 2.10836 0.850013 2.40002 1.10001 2.65002L8.45001 10L1.10001 17.35C0.866679 17.5834 0.750012 17.8707 0.750012 18.212C0.750012 18.554 0.875012 18.85 1.12501 19.1C1.37501 19.35 1.66668 19.475 2.00001 19.475C2.33335 19.475 2.62501 19.35 2.87501 19.1Z" fill="#2079FF"/>
</svg>
