<svg width="270" height="122" viewBox="0 0 270 122" fill="none" xmlns="http://www.w3.org/2000/svg">
<path d="M270 -40.5851L263.47 -48C224.033 9.36573 151.998 114.087 151.208 115.263C146.213 122.858 136.022 127.307 126.63 127.307C116.758 127.307 106.975 121.294 104.55 108.68C104.55 108.68 78.2834 -5.15655 77.8292 -7.73367C77.3741 -10.4518 77.3741 -13.2262 77.8292 -15.9443C78.3418 -19.0259 79.2769 -22.0229 80.6085 -24.8512L80.554 -24.9235L0 143.674C19.6952 177.337 50.8001 202.905 87.7284 215.788C124.657 228.67 164.989 228.023 201.48 213.962L270 -40.5851Z" fill="url(#paint0_linear_1718_21547)"/>
<defs>
<linearGradient id="paint0_linear_1718_21547" x1="135.005" y1="224.985" x2="135.005" y2="-48" gradientUnits="userSpaceOnUse">
<stop offset="0.26" stop-color="#FF6700"/>
<stop offset="0.72" stop-color="#FAFF00"/>
</linearGradient>
</defs>
</svg>
