<svg width="306" height="259" viewBox="0 0 306 259" fill="none" xmlns="http://www.w3.org/2000/svg">
<path d="M131.787 7.31319C131.771 7.28361 131.756 7.25267 131.743 7.22139L131.764 7.20099C131.774 7.23771 131.782 7.27511 131.787 7.31319Z" fill="#2079FF"/>
<path d="M131.869 7.72153C131.837 7.61035 131.815 7.49645 131.801 7.38153C131.856 7.48591 131.88 7.60389 131.869 7.72153Z" fill="#2079FF"/>
<path d="M147.142 124.794C147.057 124.988 146.985 125.178 146.9 125.378C140.624 140.661 136.245 158.947 135.228 180.829C117.803 138.146 88.8964 117.484 63.1482 107.562C63.6106 93.2995 65.5928 68.4965 73.6882 53.2577C73.6882 53.2577 87.397 56.4639 104.652 69.9823C118.266 80.6481 134.106 97.7535 147.142 124.794Z" fill="#2079FF"/>
<path d="M149.712 124.563L149.124 124.431C149.209 124.227 149.284 124.033 149.365 123.836C149.481 124.074 149.6 124.342 149.712 124.563Z" fill="#2079FF"/>
<path d="M149.712 124.563L149.124 124.431C149.209 124.227 149.284 124.033 149.365 123.836C149.481 124.074 149.6 124.342 149.712 124.563Z" fill="#2079FF"/>
<path d="M138.445 222.536C138.278 222.536 138.105 222.536 137.941 222.536C72.9266 222.536 19.0706 173.267 9.42133 108.898C8.77193 103.404 8.67333 100.123 8.67333 100.123C8.67333 100.123 32.1334 97.7426 59.3334 108.449C83.4564 117.945 110.527 137.717 126.844 178.558V178.588C126.942 178.833 127.041 179.074 127.129 179.329C132.005 191.688 135.888 205.965 138.424 222.444C138.434 222.475 138.445 222.506 138.445 222.536Z" fill="#2079FF"/>
<path d="M289.789 102.095C283.577 175.002 224.434 232.247 152.32 232.54C152.361 229.228 153.398 191.804 175.987 157.876C186.084 142.565 199.649 129.851 215.58 120.765C216.033 120.503 216.471 120.255 216.94 120.007C217.495 119.69 218.062 119.388 218.64 119.085C218.787 119 218.943 118.922 219.103 118.837C219.657 118.545 220.211 118.252 220.779 117.97C221.071 117.82 221.364 117.667 221.67 117.528C222.275 117.215 222.894 116.909 223.513 116.617C224.131 116.324 224.675 116.066 225.264 115.797L225.471 115.699C225.913 115.491 226.352 115.298 226.8 115.104C227.358 114.842 227.912 114.604 228.477 114.366C230.122 113.652 231.819 112.972 233.549 112.326L234.148 112.098C234.879 111.816 235.613 111.547 236.358 111.286C251.318 105.982 268.981 102.612 289.789 102.095Z" fill="#2079FF"/>
<path d="M191.641 68.2721C176.909 79.4309 160.313 97.0191 149.365 123.835C136.34 96.2609 120.544 78.8121 106.957 67.9355C114.981 52.9755 133.168 22.5693 149.712 8.34711C149.712 8.34711 174.76 33.0889 191.641 68.2721Z" fill="#2079FF"/>
<path d="M234.872 108.44C234.144 108.695 233.424 108.96 232.703 109.236L232.118 109.46C230.418 110.096 228.759 110.766 227.144 111.466C226.59 111.701 226.046 111.932 225.502 112.187C225.06 112.381 224.628 112.571 224.196 112.772L223.989 112.867C223.414 113.132 222.839 113.397 222.289 113.676C221.738 113.955 221.075 114.257 220.476 114.567C220.181 114.703 219.892 114.852 219.606 115.002C219.048 115.277 218.504 115.563 217.96 115.852C217.807 115.937 217.651 116.008 217.508 116.093C216.954 116.393 216.4 116.688 215.852 116.998C215.4 117.243 214.968 117.484 214.526 117.739C198.893 126.651 185.58 139.123 175.668 154.143C153.513 187.422 152.493 224.135 152.453 227.382L152.402 227.287C149.75 210.056 145.693 195.13 140.593 182.21L140.995 180.894L140.298 181.435C140.298 181.435 140.298 181.435 140.298 181.414C141.294 159.525 145.578 141.223 151.725 125.947L152.3 126.072L151.96 125.362C162.7 99.0561 178.979 81.8045 193.44 70.8599C210.47 57.9739 224.988 53.8021 224.988 53.8021C232.733 63.3765 234.501 92.6641 234.872 108.44Z" fill="#2079FF"/>
<path d="M136.796 184.641V184.607C136.796 184.607 136.796 184.627 136.796 184.641Z" stroke="#CCDDE2" stroke-width="3" stroke-miterlimit="10"/>
<path d="M149.362 124.168C149.274 124.376 149.195 124.58 149.107 124.797C142.48 141.274 137.86 161.011 136.782 184.617C118.388 138.571 87.8662 116.277 60.6696 105.577C61.1558 90.1885 63.2502 63.4339 71.8046 46.9915C71.8046 46.9915 86.2784 50.4493 104.499 65.0353C118.874 76.5409 135.599 94.9961 149.362 124.168Z" stroke="#CCDDE2" stroke-width="3" stroke-miterlimit="10"/>
<path d="M149.729 124.936L149.107 124.796C149.195 124.579 149.274 124.375 149.362 124.167C149.484 124.419 149.6 124.681 149.729 124.936Z" stroke="#CCDDE2" stroke-width="3" stroke-miterlimit="10"/>
<path d="M136.796 184.641V184.607C136.796 184.607 136.796 184.627 136.796 184.641Z" stroke="#CCDDE2" stroke-width="3" stroke-miterlimit="10"/>
<path d="M149.729 124.936L149.107 124.796C149.195 124.579 149.274 124.375 149.362 124.167C149.484 124.419 149.6 124.681 149.729 124.936Z" stroke="#CCDDE2" stroke-width="3" stroke-miterlimit="10"/>
<path opacity="0.9" d="M37.2334 179.808C36.0332 178.343 34.8534 176.844 33.7178 175.32C18.4311 154.983 8.36115 131.21 4.38937 106.079C3.39997 99.922 3.55297 96.1888 3.55297 96.1888C3.55297 96.1888 29.988 93.5096 60.673 105.576C87.873 116.279 118.385 138.556 136.782 184.616V184.653C136.894 184.929 137.01 185.204 137.102 185.49C142.61 199.43 146.982 215.519 149.845 234.11C149.845 234.144 149.845 234.178 149.845 234.215C149.651 234.215 149.467 234.215 149.274 234.215C111.34 234.161 76.7448 219.031 50.66 194.313C47.94 191.739 45.2914 189.05 42.7618 186.265" stroke="#CCDDE2" stroke-width="3" stroke-miterlimit="10"/>
<path d="M136.796 184.641V184.607C136.796 184.607 136.796 184.627 136.796 184.641Z" stroke="#CCDDE2" stroke-width="3" stroke-miterlimit="10"/>
<path opacity="0.9" d="M295.331 96.1997C288.759 173.329 226.199 233.879 149.906 234.189C149.95 230.687 151.048 191.097 174.94 155.203C185.625 139.008 199.977 125.559 216.832 115.947C217.311 115.672 217.777 115.41 218.263 115.148C218.851 114.808 219.45 114.495 220.048 114.172C220.201 114.08 220.368 114.002 220.534 113.91C221.122 113.601 221.711 113.292 222.309 112.996C222.618 112.833 222.928 112.656 223.251 112.523C223.893 112.183 224.546 111.874 225.202 111.564C225.859 111.255 226.43 110.979 227.052 110.694L227.273 110.588C227.739 110.371 228.205 110.167 228.681 109.96C229.269 109.684 229.854 109.433 230.452 109.181C232.193 108.426 233.988 107.705 235.817 107.018L236.45 106.777C237.225 106.481 238 106.192 238.789 105.92C254.636 100.297 273.323 96.7471 295.331 96.1997Z" stroke="#CCDDE2" stroke-width="3" stroke-miterlimit="10"/>
<path d="M194.082 65.393C178.5 77.1944 160.942 95.7992 149.362 124.169C135.599 94.9968 118.874 76.5416 104.499 65.036C112.999 49.2022 132.229 17.045 149.719 2C149.729 2 176.205 28.1732 194.082 65.393Z" stroke="#CCDDE2" stroke-width="3" stroke-miterlimit="10"/>
<path d="M47.3484 149.651C47.3518 149.628 47.3518 149.605 47.3484 149.583C47.3484 149.559 47.3484 149.535 47.3484 149.491C47.343 149.453 47.343 149.414 47.3484 149.375C47.3579 149.457 47.3739 149.538 47.396 149.617C47.3909 149.626 47.3841 149.633 47.3759 149.639C47.3674 149.645 47.3583 149.649 47.3484 149.651Z" fill="white"/>
<path d="M47.4742 171.632C46.9496 173.324 46.2794 174.968 45.4716 176.545C45.2404 176.99 45.0126 177.425 44.761 177.861C43.9022 179.473 42.8482 180.973 41.6228 182.328C41.4052 182.257 41.1876 182.165 40.9938 182.087C40.9496 182.087 40.9122 182.053 40.8782 182.039C36.9172 180.312 33.9422 177.072 33.0582 173.43C32.2694 170.224 32.98 166.756 31.4568 163.747C29.58 160.041 24.5208 157.722 23.8884 153.534C23.3172 149.617 26.843 146.023 26.2684 142.188C25.6156 137.846 20.281 135.272 19.295 131.036C18.666 128.404 19.227 125.368 18.9992 122.655C18.736 119.622 18.222 116.616 17.4624 113.669C17.8296 113.645 18.1968 113.635 18.564 113.621C26.044 113.495 33.4458 117.701 35.8734 123.627C37.8318 128.414 36.8356 133.943 39.4332 138.431C39.5906 138.721 39.7664 139 39.9602 139.267C40.3009 139.74 40.6677 140.194 41.0584 140.627L41.8846 141.487C42.0206 141.623 42.1702 141.749 42.3062 141.899C42.4422 142.048 42.5918 142.174 42.7312 142.324C44.0232 143.558 45.3424 144.806 46.1992 146.285C46.2784 146.413 46.3474 146.547 46.4066 146.686C46.4868 146.82 46.5548 146.961 46.6106 147.108C46.6844 147.257 46.7503 147.41 46.8078 147.567C46.8758 147.737 46.9336 147.907 46.988 148.094C47.0696 148.369 47.1512 148.631 47.2056 148.906C47.2056 148.974 47.2056 149.032 47.2294 149.09C47.2532 149.148 47.2294 149.134 47.2294 149.158C47.2345 149.18 47.2345 149.203 47.2294 149.226C47.2342 149.265 47.2423 149.304 47.2532 149.341V149.365C47.2546 149.408 47.2614 149.45 47.2736 149.491C47.2736 149.535 47.2736 149.559 47.2736 149.583C47.277 149.605 47.277 149.628 47.2736 149.651V149.675L46.393 162.452C46.9574 165.542 48.3684 168.623 47.4742 171.632Z" fill="white"/>
<path d="M54.1246 140.617C54.6992 137.846 54.7434 134.939 56.049 132.294C58.4766 127.418 65.569 123.879 73.0048 123.651H73.1408C73.8208 123.651 74.5008 123.651 75.1808 123.685C74.4114 126.22 73.8868 128.822 73.6134 131.457C73.3618 133.803 73.9534 136.428 73.304 138.682C72.2602 142.344 66.708 144.568 66.0348 148.311C65.4364 151.63 69.1118 154.734 68.5066 158.11C67.8538 161.728 62.5872 163.73 60.6424 166.95C59.0716 169.551 59.806 172.536 58.9934 175.297C58.0414 178.445 54.9134 181.25 50.796 182.726C50.5308 182.818 50.2928 182.91 50.0276 182.991C49.8882 183.025 49.7284 183.083 49.5924 183.117C49.5448 183.083 49.5006 183.035 49.4428 182.991C48.1134 181.859 46.6242 179.948 45.39 177.891L45.4818 176.586C46.2896 175.009 46.9598 173.365 47.4844 171.673C48.3786 168.664 46.9676 165.583 46.4644 162.493L47.345 149.715L47.6204 149.488C47.721 149.413 47.8162 149.333 47.906 149.246C49.266 148.148 50.7348 147.094 51.7854 145.846C53.091 144.313 53.6996 142.63 54.0872 140.865" fill="white"/>
<path d="M54.0906 140.801C54.0906 140.743 54.1144 140.689 54.1246 140.618L54.0906 140.801Z" fill="white"/>
<path d="M54.1246 140.608C54.1246 140.679 54.1008 140.734 54.0906 140.791C53.703 142.556 53.0944 144.239 51.7888 145.772C50.7382 147.02 49.2728 148.074 47.9094 149.172C47.82 149.259 47.7244 149.34 47.6238 149.414L47.3484 149.652C47.3532 149.637 47.3532 149.622 47.3484 149.608C47.3379 149.568 47.3256 149.53 47.311 149.492C47.3056 149.454 47.3056 149.415 47.311 149.376V149.353C47.3001 149.315 47.2923 149.276 47.2872 149.237C47.2923 149.215 47.2923 149.191 47.2872 149.169C47.2923 149.158 47.295 149.147 47.295 149.135C47.295 149.123 47.2923 149.112 47.2872 149.101C47.2787 149.039 47.2661 148.978 47.2498 148.917C47.1954 148.642 47.1138 148.38 47.0322 148.105C46.9778 147.931 46.92 147.748 46.852 147.578C46.7945 147.421 46.7286 147.268 46.6548 147.119C46.6065 146.97 46.5378 146.827 46.4508 146.697C46.392 146.559 46.3226 146.424 46.2434 146.296C45.3866 144.817 44.0674 143.576 42.7754 142.335C42.636 142.185 42.4898 142.036 42.3504 141.91C42.211 141.784 42.0648 141.635 41.9288 141.499L41.1026 140.638C40.7119 140.206 40.3454 139.751 40.0044 139.278C40.0044 139.278 40.766 126.042 47.532 122.037C53.9206 118.222 54.1246 138.374 54.1246 140.608Z" fill="white"/>
<path d="M54.0906 140.801C54.0906 140.743 54.1144 140.689 54.1246 140.618L54.0906 140.801Z" fill="white"/>
<path d="M47.3382 149.607V149.661C47.3416 149.639 47.3416 149.616 47.3382 149.593C47.3382 149.57 47.3382 149.546 47.3382 149.502C47.3328 149.463 47.3328 149.424 47.3382 149.386C47.3331 149.46 47.3331 149.533 47.3382 149.607Z" fill="white"/>
<path d="M70.2372 127.888C58.0414 141.012 52.309 168.688 50.0752 182.968C49.8916 184.175 49.7352 185.276 49.5856 186.269" fill="white"/>
<path d="M71.3626 194.31L65.7526 227.412C65.6197 228.317 65.1715 229.145 64.4875 229.751C63.803 230.357 62.9265 230.701 62.0126 230.724H32.6842C31.7628 230.7 30.8798 230.349 30.194 229.732C29.5086 229.116 29.0652 228.275 28.9442 227.361L23.7694 194.31H71.3626Z" fill="white"/>
<path d="M76.6904 190.618C76.6394 191.599 76.2202 192.523 75.5167 193.208C74.8133 193.893 73.8772 194.286 72.896 194.311H22.3142C21.3425 194.287 20.415 193.901 19.7135 193.229C19.0118 192.556 18.5875 191.646 18.5232 190.676C18.309 188.317 20.0668 186.256 22.3142 186.256H72.896C75.1196 186.273 76.8706 188.262 76.6904 190.618Z" fill="white"/>
<path d="M47.3722 149.675C47.3715 149.601 47.3589 149.528 47.3348 149.458L47.3722 149.675Z" fill="white"/>
<path d="M22.3074 118.531C34.0136 133.736 39.5216 165.791 41.6874 182.339C41.871 183.773 42.0274 185.089 42.1668 186.266" fill="white"/>
<path d="M48.4024 134.688C46.937 139.2 46.8656 143.756 47.0424 146.642C47.0893 147.574 47.1879 148.502 47.3382 149.423" fill="white"/>
<path d="M47.3484 149.651C47.3518 149.628 47.3518 149.605 47.3484 149.583C47.3484 149.559 47.3484 149.535 47.3484 149.491C47.343 149.453 47.343 149.414 47.3484 149.375C47.3579 149.457 47.3739 149.538 47.396 149.617C47.3909 149.626 47.3841 149.633 47.3759 149.639C47.3674 149.645 47.3583 149.649 47.3484 149.651Z" stroke="#CCDDE2" stroke-width="3" stroke-miterlimit="10"/>
<path d="M47.4742 171.632C46.9496 173.324 46.2794 174.968 45.4716 176.545C45.2404 176.99 45.0126 177.425 44.761 177.861C43.9022 179.473 42.8482 180.973 41.6228 182.328C41.4052 182.257 41.1876 182.165 40.9938 182.087C40.9496 182.087 40.9122 182.053 40.8782 182.039C36.9172 180.312 33.9422 177.072 33.0582 173.43C32.2694 170.224 32.98 166.756 31.4568 163.747C29.58 160.041 24.5208 157.722 23.8884 153.534C23.3172 149.617 26.843 146.023 26.2684 142.188C25.6156 137.846 20.281 135.272 19.295 131.036C18.666 128.404 19.227 125.368 18.9992 122.655C18.736 119.622 18.222 116.616 17.4624 113.669C17.8296 113.645 18.1968 113.635 18.564 113.621C26.044 113.495 33.4458 117.701 35.8734 123.627C37.8318 128.414 36.8356 133.943 39.4332 138.431C39.5906 138.721 39.7664 139 39.9602 139.267C40.3009 139.74 40.6677 140.194 41.0584 140.627L41.8846 141.487C42.0206 141.623 42.1702 141.749 42.3062 141.899C42.4422 142.048 42.5918 142.174 42.7312 142.324C44.0232 143.558 45.3424 144.806 46.1992 146.285C46.2784 146.413 46.3474 146.547 46.4066 146.686C46.4868 146.82 46.5548 146.961 46.6106 147.108C46.6844 147.257 46.7503 147.41 46.8078 147.567C46.8758 147.737 46.9336 147.907 46.988 148.094C47.0696 148.369 47.1512 148.631 47.2056 148.906C47.2056 148.974 47.2056 149.032 47.2294 149.09C47.2532 149.148 47.2294 149.134 47.2294 149.158C47.2345 149.18 47.2345 149.203 47.2294 149.226C47.2342 149.265 47.2423 149.304 47.2532 149.341V149.365C47.2546 149.408 47.2614 149.45 47.2736 149.491C47.2736 149.535 47.2736 149.559 47.2736 149.583C47.277 149.605 47.277 149.628 47.2736 149.651V149.675L46.393 162.452C46.9574 165.542 48.3684 168.623 47.4742 171.632Z" stroke="#CCDDE2" stroke-width="3" stroke-miterlimit="10"/>
<path d="M54.1246 140.617C54.6992 137.846 54.7434 134.939 56.049 132.294C58.4766 127.418 65.569 123.879 73.0048 123.651H73.1408C73.8208 123.651 74.5008 123.651 75.1808 123.685C74.4114 126.22 73.8868 128.822 73.6134 131.457C73.3618 133.803 73.9534 136.428 73.304 138.682C72.2602 142.344 66.708 144.568 66.0348 148.311C65.4364 151.63 69.1118 154.734 68.5066 158.11C67.8538 161.728 62.5872 163.73 60.6424 166.95C59.0716 169.551 59.806 172.536 58.9934 175.297C58.0414 178.445 54.9134 181.25 50.796 182.726C50.5308 182.818 50.2928 182.91 50.0276 182.991C49.8882 183.025 49.7284 183.083 49.5924 183.117C49.5448 183.083 49.5006 183.035 49.4428 182.991C48.1134 181.859 46.6242 179.948 45.39 177.891L45.4818 176.586C46.2896 175.009 46.9598 173.365 47.4844 171.673C48.3786 168.664 46.9676 165.583 46.4644 162.493L47.345 149.715L47.6204 149.488C47.721 149.413 47.8162 149.333 47.906 149.246C49.266 148.148 50.7348 147.094 51.7854 145.846C53.091 144.313 53.6996 142.63 54.0872 140.865" stroke="#CCDDE2" stroke-width="3" stroke-miterlimit="10"/>
<path d="M54.0906 140.801C54.0906 140.743 54.1144 140.689 54.1246 140.618" stroke="#CCDDE2" stroke-width="3" stroke-miterlimit="10"/>
<path d="M54.1246 140.608C54.1246 140.679 54.1008 140.734 54.0906 140.791C53.703 142.556 53.0944 144.239 51.7888 145.772C50.7382 147.02 49.2728 148.074 47.9094 149.172C47.82 149.259 47.7244 149.34 47.6238 149.414L47.3484 149.652C47.3532 149.637 47.3532 149.622 47.3484 149.608C47.3379 149.568 47.3256 149.53 47.311 149.492C47.3056 149.454 47.3056 149.415 47.311 149.376V149.353C47.3001 149.315 47.2923 149.276 47.2872 149.237C47.2923 149.215 47.2923 149.191 47.2872 149.169C47.2923 149.158 47.295 149.147 47.295 149.135C47.295 149.123 47.2923 149.112 47.2872 149.101C47.2787 149.039 47.2661 148.978 47.2498 148.917C47.1954 148.642 47.1138 148.38 47.0322 148.105C46.9778 147.931 46.92 147.748 46.852 147.578C46.7945 147.421 46.7286 147.268 46.6548 147.119C46.6065 146.97 46.5378 146.827 46.4508 146.697C46.392 146.559 46.3226 146.424 46.2434 146.296C45.3866 144.817 44.0674 143.576 42.7754 142.335C42.636 142.185 42.4898 142.036 42.3504 141.91C42.211 141.784 42.0648 141.635 41.9288 141.499L41.1026 140.638C40.7119 140.206 40.3454 139.751 40.0044 139.278C40.0044 139.278 40.766 126.042 47.532 122.037C53.9206 118.222 54.1246 138.374 54.1246 140.608Z" stroke="#CCDDE2" stroke-width="3" stroke-miterlimit="10"/>
<path d="M54.0906 140.801C54.0906 140.743 54.1144 140.689 54.1246 140.618" stroke="#CCDDE2" stroke-width="3" stroke-miterlimit="10"/>
<path d="M47.3382 149.607V149.661C47.3416 149.639 47.3416 149.616 47.3382 149.593C47.3382 149.57 47.3382 149.546 47.3382 149.502C47.3328 149.463 47.3328 149.424 47.3382 149.386C47.3331 149.46 47.3331 149.533 47.3382 149.607Z" stroke="#CCDDE2" stroke-width="3" stroke-miterlimit="10"/>
<path d="M70.2372 127.888C58.0414 141.012 52.309 168.688 50.0752 182.968C49.8916 184.175 49.7352 185.276 49.5856 186.269" stroke="#CCDDE2" stroke-width="3" stroke-miterlimit="10"/>
<path d="M71.3626 194.31L65.7526 227.412C65.6197 228.317 65.1715 229.145 64.4875 229.751C63.803 230.357 62.9265 230.701 62.0126 230.724H32.6842C31.7628 230.7 30.8798 230.349 30.194 229.732C29.5086 229.116 29.0652 228.275 28.9442 227.361L23.7694 194.31H71.3626Z" stroke="#CCDDE2" stroke-width="3" stroke-miterlimit="10"/>
<path d="M76.6904 190.618C76.6394 191.599 76.2202 192.523 75.5167 193.208C74.8133 193.893 73.8772 194.286 72.896 194.311H22.3142C21.3425 194.287 20.415 193.901 19.7135 193.229C19.0118 192.556 18.5875 191.646 18.5232 190.676C18.309 188.317 20.0668 186.256 22.3142 186.256H72.896C75.1196 186.273 76.8706 188.262 76.6904 190.618Z" stroke="#CCDDE2" stroke-width="3" stroke-miterlimit="10"/>
<path d="M47.3722 149.675C47.3715 149.601 47.3589 149.528 47.3348 149.458L47.3722 149.675Z" stroke="#CCDDE2" stroke-width="3" stroke-miterlimit="10"/>
<path d="M22.3074 118.531C34.0136 133.736 39.5216 165.791 41.6874 182.339C41.871 183.773 42.0274 185.089 42.1668 186.266" stroke="#CCDDE2" stroke-width="3" stroke-miterlimit="10"/>
<path d="M48.4024 134.688C46.937 139.2 46.8656 143.756 47.0424 146.642C47.0893 147.574 47.1879 148.502 47.3382 149.423" stroke="#CCDDE2" stroke-width="3" stroke-miterlimit="10"/>
<path d="M238.789 105.92C238 106.192 237.225 106.481 236.45 106.777L235.817 107.019C233.988 107.699 232.193 108.426 230.452 109.181C229.854 109.433 229.269 109.684 228.681 109.96C228.205 110.167 227.739 110.371 227.273 110.589L227.052 110.694C226.43 110.98 225.811 111.265 225.202 111.564C224.594 111.864 223.893 112.193 223.251 112.523C222.911 112.673 222.618 112.833 222.309 112.996C221.711 113.292 221.122 113.601 220.534 113.91C220.368 114.002 220.194 114.08 220.048 114.172C219.45 114.495 218.851 114.815 218.263 115.148C217.777 115.41 217.311 115.672 216.832 115.947C199.977 125.559 185.625 139.008 174.94 155.203C151.048 191.097 149.95 230.683 149.906 234.189L149.848 234.087C146.989 215.506 142.613 199.407 137.115 185.467L137.547 184.049L136.796 184.634C136.796 184.634 136.796 184.634 136.796 184.61C137.873 161.004 142.494 141.267 149.121 124.79L149.743 124.93C149.62 124.675 149.498 124.413 149.376 124.161C160.956 95.7917 178.514 77.1869 194.096 65.3855C212.456 51.4863 228.12 46.9847 228.12 46.9847C236.484 57.3207 238.388 88.9067 238.789 105.92Z" stroke="#CCDDE2" stroke-width="3" stroke-miterlimit="10"/>
<path d="M239.901 228.041C237.462 227.551 235.073 226.966 232.733 226.286C223.139 223.481 211.993 218.694 208.172 208.63C207.215 206.03 206.914 203.234 207.294 200.49C207.674 197.746 208.724 195.137 210.351 192.895C212.075 190.504 214.499 188.706 217.287 187.751C223.356 185.789 230.071 188.846 234.573 193.368C239.074 197.89 241.971 203.71 245.497 209.028C242.308 201.888 239.071 194.541 238.632 186.734C238.292 180.648 239.945 174.049 244.14 169.476C248.003 165.267 257.033 161.972 262.351 165.056C265.86 167.096 267.26 171.434 267.862 175.446C269.515 186.425 267.393 197.58 265.282 208.481C266.699 202.653 268.223 196.771 271.113 191.515C274.003 186.258 278.433 181.614 284.107 179.666C288.082 178.306 292.801 178.452 296.13 181.026C299.234 183.406 300.621 187.462 301.05 191.358C301.764 197.893 300.227 204.52 297.582 210.534C287.711 232.984 260.338 232.121 239.901 228.041Z" fill="white"/>
<path d="M262.171 216.927C262.171 216.927 277.386 221.153 282.758 200.005L262.171 216.927Z" fill="white"/>
<path d="M255.401 180.829C251.172 190.417 255.401 219.185 255.401 219.185V180.829Z" fill="white"/>
<path d="M241.301 216.273C240.666 216.165 234.563 215.311 229.361 212.921C225.332 211.071 221.84 208.297 221.84 204.237" fill="white"/>
<path d="M230.581 204.242C230.581 204.242 224.635 211.174 229.361 212.925L230.581 204.242Z" fill="white"/>
<path d="M226.634 219.231C227.48 218.055 231.883 220.415 234.76 214.862L226.634 219.231Z" fill="white"/>
<path d="M253.521 193.522C252.018 192.393 248.081 193.522 247.503 184.495L253.521 193.522Z" fill="white"/>
<path d="M254.177 201.98C254.177 201.98 260.76 199.6 260.76 194.449L254.177 201.98Z" fill="white"/>
<path d="M268.325 217.049C268.325 217.049 271.759 208.185 273.17 204.237L268.325 217.049Z" fill="white"/>
<path d="M278.987 208.58C278.987 208.58 282.758 211.568 287.269 206.774L278.987 208.58Z" fill="white"/>
<path d="M278.987 204.242C278.987 204.242 276.553 203.184 277.681 197.102L278.987 204.242Z" fill="white"/>
<path d="M239.901 228.041C237.439 227.701 235.069 226.97 232.733 226.286C223.139 223.481 211.993 218.694 208.172 208.63C207.215 206.03 206.914 203.234 207.294 200.49C207.674 197.746 208.724 195.137 210.351 192.895C212.075 190.504 214.499 188.706 217.287 187.751C223.356 185.789 230.071 188.846 234.573 193.368C239.074 197.89 241.971 203.71 245.497 209.028C242.308 201.888 239.071 194.541 238.632 186.734C238.292 180.648 239.945 174.049 244.14 169.476C248.003 165.267 257.033 161.972 262.351 165.056C265.86 167.096 267.26 171.434 267.862 175.446C269.515 186.425 267.393 197.58 265.282 208.481C266.699 202.653 268.223 196.771 271.113 191.515C274.003 186.258 278.433 181.614 284.107 179.666C288.082 178.306 292.801 178.452 296.13 181.026C299.234 183.406 300.621 187.462 301.05 191.358C301.764 197.893 300.319 204.564 297.582 210.534C287.552 232.393 259.967 230.74 239.901 228.041Z" stroke="#CCDDE2" stroke-width="3" stroke-miterlimit="10"/>
<path d="M262.171 216.927C262.171 216.927 277.386 221.153 282.758 200.005" stroke="#CCDDE2" stroke-width="3" stroke-miterlimit="10"/>
<path d="M255.401 180.829C251.172 190.417 255.401 219.185 255.401 219.185" stroke="#CCDDE2" stroke-width="3" stroke-miterlimit="10"/>
<path d="M241.301 216.273C240.666 216.165 234.563 215.311 229.361 212.921C225.332 211.071 221.84 208.297 221.84 204.237" stroke="#CCDDE2" stroke-width="3" stroke-miterlimit="10"/>
<path d="M230.581 204.242C230.581 204.242 224.635 211.174 229.361 212.925" stroke="#CCDDE2" stroke-width="3" stroke-miterlimit="10"/>
<path d="M226.634 219.231C227.48 218.055 231.883 220.415 234.76 214.862" stroke="#CCDDE2" stroke-width="3" stroke-miterlimit="10"/>
<path d="M253.521 193.522C252.018 192.393 248.081 193.522 247.503 184.495" stroke="#CCDDE2" stroke-width="3" stroke-miterlimit="10"/>
<path d="M254.177 201.98C254.177 201.98 260.76 199.6 260.76 194.449" stroke="#CCDDE2" stroke-width="3" stroke-miterlimit="10"/>
<path d="M268.325 217.049C268.325 217.049 271.759 208.185 273.17 204.237" stroke="#CCDDE2" stroke-width="3" stroke-miterlimit="10"/>
<path d="M278.987 208.58C278.987 208.58 282.758 211.568 287.269 206.774" stroke="#CCDDE2" stroke-width="3" stroke-miterlimit="10"/>
<path d="M278.987 204.242C278.987 204.242 276.553 203.184 277.681 197.102" stroke="#CCDDE2" stroke-width="3" stroke-miterlimit="10"/>
<path d="M280.024 151.348C283.064 153.967 285.778 156.943 288.106 160.212C292.386 166.063 294.808 173.067 295.055 180.312" stroke="#CCDDE2" stroke-width="3" stroke-miterlimit="10"/>
<path d="M173.988 31.4811C180.108 27.7955 186.49 24.5212 193.276 22.2092C210.198 16.4292 229.065 17.7111 242.471 30.3964C254.092 41.3818 259.587 57.7018 260.709 73.3418C260.709 73.5696 260.746 73.811 260.756 74.0524C261.27 82.1104 260.848 91.0082 260.79 99.9128" stroke="#CCDDE2" stroke-width="3" stroke-miterlimit="10"/>
<path d="M40.5892 99.4195C42.1226 89.6309 40.2492 80.4237 39.2292 70.3495C36.6044 44.1015 44.9514 12.6957 75.1876 8.76872C91.6164 6.62672 104.951 12.7637 116.059 24.5345C118.555 27.1763 121.05 30.2805 123.692 33.2793" stroke="#CCDDE2" stroke-width="3" stroke-miterlimit="10"/>
<path d="M28.798 186.106C28.798 186.106 5.89893 176.021 8.19053 157.073C8.82973 151.725 11.3491 146.941 14.5315 142.545" stroke="#CCDDE2" stroke-width="3" stroke-miterlimit="10"/>
<path d="M235.62 198.74C234.75 198.112 233.843 197.516 232.9 196.952C223.496 191.386 210.681 189.227 199.937 188.581C199.281 188.533 198.635 188.499 197.996 188.472C197.149 188.435 196.32 188.213 195.568 187.823C194.788 187.429 194.111 186.86 193.589 186.16C193.062 184.089 192.429 182.046 191.692 180.04L190.182 173.24C189.619 171.273 189.178 169.274 188.86 167.253C187.296 157.029 186.14 144.323 185.732 139.566C185.781 139.587 185.832 139.602 185.885 139.611L190.553 141.107C190.57 141.105 190.587 141.105 190.604 141.107L192.26 141.593C198.679 143.415 205.414 144.782 212.102 144.928C218.406 145.061 225.321 144.027 230.707 140.539C231.16 140.253 231.6 139.947 232.026 139.621C236.181 136.493 239.068 131.692 240.703 126.82C243.712 117.808 244.362 108.176 242.59 98.8412C242.087 96.2711 241.381 93.7449 240.479 91.2864C238.099 84.7414 234.661 78.6078 231.71 72.2464C231.03 70.764 230.058 69.2102 229.939 67.5646C229.796 65.6028 230.802 63.7158 231.118 61.8084C231.487 59.5164 231.658 57.197 231.628 54.8758C231.624 52.1225 231.097 49.395 230.075 46.8382C229.194 44.6894 227.63 41.0854 224.852 41.218C223.961 38.3688 222.472 35.0708 219.851 34.7002C219.17 34.5958 218.476 34.7644 217.92 35.1694C217.727 34.8936 217.52 34.6291 217.297 34.3772C216.203 33.1464 214.132 32.038 212.469 32.6772C209.171 33.9828 210.681 38.5218 212.316 41.966C211.475 41.7848 210.611 41.7276 209.753 41.796C207.832 41.966 205.608 42.7412 204.864 44.5908C204.459 45.6108 204.602 47.4502 205.635 48.0282C206.948 48.7456 208.559 48.2696 209.872 48.9428C211.337 49.6976 211.912 51.7206 211.698 53.2506C211.656 53.8503 211.417 54.4195 211.018 54.869C208.699 57.1878 207.108 50.789 206.227 49.735C205.03 48.2968 203.276 48.5586 202.028 49.7724C199.563 52.1524 200.634 56.9464 201.668 59.8228C202.79 62.9712 204.248 66.2828 206.577 68.7342C210.45 72.7972 210.875 79.2742 211.898 84.5136C212.32 86.6794 212.724 88.8656 213.051 91.0484C213.697 95.2848 214.071 99.5484 213.731 103.826C213.645 105 213.317 106.143 212.768 107.185C212.219 108.226 211.461 109.142 210.54 109.877C209.62 110.611 208.558 111.147 207.421 111.452C206.284 111.756 205.096 111.822 203.932 111.646C201.161 111.224 197.917 110.721 194.463 110.18C194.463 110.18 194.49 110.153 194.507 110.146C189.798 108.545 185.633 108.348 181.489 108.13C169.796 106.321 159.297 104.621 159.297 104.621C159.058 104.577 158.842 104.451 158.685 104.265C158.529 104.079 158.442 103.844 158.44 103.601L158.297 90.62C159.096 91.5992 160.83 91.7352 161.891 91.1674C162.313 90.9525 162.659 90.6149 162.886 90.1994C163.112 89.7836 163.207 89.3093 163.159 88.8384C163.847 88.8326 164.523 88.6589 165.128 88.3318C165.307 88.2315 165.479 88.1179 165.641 87.9918C165.977 87.6909 166.247 87.3247 166.436 86.9153C166.625 86.506 166.728 86.0623 166.739 85.6118C166.754 85.3629 166.741 85.1133 166.702 84.8672C166.702 84.7754 166.675 84.687 166.658 84.5884C166.62 84.398 166.576 84.211 166.522 84.0104C166.495 83.8948 166.461 83.7792 166.423 83.6704C166.335 83.3304 166.236 82.9904 166.161 82.6504C166.201 82.6555 166.241 82.6555 166.28 82.6504C166.616 82.6313 166.949 82.5837 167.277 82.5076C167.588 82.4335 167.892 82.3308 168.184 82.2016C168.349 82.1288 168.509 82.0472 168.664 81.9568C168.691 81.9476 168.715 81.9323 168.735 81.9126C168.998 81.7514 169.247 81.5682 169.48 81.3652C169.559 81.3006 169.633 81.2312 169.704 81.1578C169.837 81.033 169.963 80.9014 170.082 80.7634C170.234 80.5856 170.375 80.3992 170.507 80.2058C170.571 80.1235 170.628 80.0361 170.677 79.944C171.149 79.1871 171.493 78.3579 171.697 77.4892C171.714 77.4076 171.734 77.326 171.751 77.2478C172.431 74.011 171.411 70.3152 168.569 69.1082C168.001 68.8668 165.988 68.6322 165.988 67.7788C165.989 67.7179 165.998 67.6571 166.015 67.5986C166.012 67.5863 166.012 67.5734 166.015 67.5612C166.069 67.4344 166.146 67.3191 166.243 67.2212C166.287 67.1668 166.348 67.1124 166.403 67.058C166.522 66.9526 166.654 66.854 166.78 66.752C166.909 66.6666 167.033 66.5738 167.151 66.4732C167.201 66.4317 167.248 66.3872 167.294 66.3406C167.382 66.242 167.474 66.1434 167.555 66.0448C167.636 65.9475 167.711 65.8452 167.78 65.7388C167.851 65.63 167.923 65.5212 167.987 65.3988C168.058 65.2917 168.118 65.1778 168.167 65.0588C168.27 64.8572 168.354 64.6467 168.419 64.4298C168.534 64.0735 168.606 63.7049 168.633 63.3316C168.633 63.199 168.633 63.063 168.633 62.927C168.633 59.9418 166.199 56.8512 163.122 56.5248C162.624 56.4704 162.121 56.5295 161.65 56.6982C161.418 56.7784 161.191 56.8716 160.97 56.977L160.63 57.1368C160.398 57.2456 160.164 57.3612 159.922 57.4768C159.719 57.5737 159.498 57.6291 159.273 57.64C159.221 57.6383 159.17 57.6315 159.12 57.6196L159.021 57.5924C158.95 57.5767 158.885 57.54 158.834 57.487C158.775 57.4435 158.725 57.388 158.688 57.3238C158.658 57.2616 158.636 57.1949 158.624 57.1266C158.621 57.1225 158.62 57.1177 158.62 57.113C158.62 57.1082 158.621 57.1035 158.624 57.0994C158.607 57.0202 158.598 56.9392 158.6 56.858C158.599 56.69 158.624 56.5227 158.671 56.3616C158.767 56.0104 158.815 55.6479 158.814 55.2838C158.814 55.1519 158.804 55.0203 158.787 54.8894C158.769 54.7078 158.742 54.5273 158.705 54.3488C158.372 53.0337 157.581 51.88 156.475 51.095C153.357 48.8918 147.512 48.8816 145.901 52.965C145.867 53.0262 145.85 53.0908 145.823 53.152C145.615 52.9106 145.408 52.659 145.2 52.4074C145.057 52.3152 144.907 52.2333 144.752 52.1626C142.593 51.2208 139.502 51.6254 137.928 53.4682C136.622 54.9982 136.194 57.3612 137.353 59.0952C136.703 58.2554 135.821 57.6243 134.817 57.2796C134.937 57.6158 135.097 57.9368 135.293 58.235C135.201 58.1099 135.102 57.9895 134.997 57.8746C134.915 57.7828 134.834 57.7012 134.752 57.623C134.671 57.5448 134.555 57.4326 134.456 57.351C134.358 57.2694 134.249 57.181 134.144 57.0994C132.121 55.617 129.142 55.464 127.255 57.317C125.78 58.7654 125.474 60.768 125.997 62.7094C126.521 64.6508 127.775 66.0006 128.717 67.6734C125.525 68.4758 122.971 72.0152 123.978 75.3336C124.188 76.02 124.556 76.6477 125.053 77.1662C125.549 77.6843 126.16 78.0794 126.837 78.3188C127.079 78.3796 127.326 78.4218 127.575 78.4446C127.658 78.4531 127.738 78.4786 127.811 78.5197C127.884 78.5609 127.948 78.6163 127.998 78.6829C128.048 78.7496 128.084 78.8261 128.104 78.9073C128.124 78.9886 128.127 79.0729 128.112 79.1552C128.061 79.3782 128.035 79.6064 128.034 79.8352C128.036 80.3829 128.179 80.9211 128.449 81.3975C128.72 81.8738 129.108 82.2726 129.577 82.5552C129.647 82.5939 129.708 82.647 129.757 82.7102C129.805 82.7735 129.84 82.8462 129.86 82.9234C129.879 83.0009 129.882 83.0815 129.869 83.16C129.857 83.2389 129.828 83.3141 129.785 83.3814C129.312 84.0536 129.034 84.8434 128.982 85.6638C128.93 86.4839 129.105 87.3023 129.489 88.0292C130.54 90.1338 133.113 91.9596 135.541 91.2388C136.322 91.0021 136.998 90.5037 137.455 89.8278C137.504 89.7768 137.546 89.7197 137.581 89.6578C137.59 89.6374 137.602 89.619 137.618 89.6034C137.968 89.0815 138.2 88.4899 138.298 87.8694C138.896 88.8176 139.566 89.719 140.301 90.5656L140.743 91.0586L139.4 99.341L139.203 100.834C139.13 101.35 138.873 101.823 138.48 102.165C138.086 102.507 137.582 102.696 137.061 102.697C136.765 102.697 136.459 102.697 136.163 102.697C135.561 102.697 134.966 102.714 134.375 102.731C132.576 102.775 130.784 102.857 128.996 102.965C127.636 103.054 126.307 103.152 124.97 103.271C124.29 103.326 123.638 103.387 122.964 103.458C122.291 103.53 121.625 103.594 120.958 103.666C119.656 103.812 118.344 103.962 117.038 104.135C115.464 104.342 113.9 104.557 112.326 104.781C109.864 105.141 107.409 105.536 104.944 105.961C102.544 106.376 100.154 106.807 97.7534 107.246C94.3806 107.868 90.9738 108.388 87.5534 108.946C86.6551 109.091 85.7364 109.043 84.8586 108.805C83.9807 108.566 83.1633 108.143 82.4619 107.564C81.7605 106.985 81.1906 106.262 80.7905 105.445C80.3903 104.628 80.1689 103.735 80.1414 102.826C79.7572 91.606 86.1118 71.1414 86.1118 71.1414C86.258 69.5502 88.1518 68.4214 89.2602 67.517C92.4324 65.0112 94.3058 60.5232 95.4006 56.7458C96.1758 54.0496 96.9102 50.2008 94.6288 47.9908C93.3776 46.777 91.6232 46.5152 90.4298 47.9534C89.5492 49.0142 87.958 55.4062 85.6358 53.0874C85.2366 52.6379 84.9973 52.0687 84.9558 51.469C84.7552 49.9424 85.2958 47.9194 86.7782 47.1612C88.0906 46.4812 89.7022 46.964 91.0146 46.2466C92.0346 45.6686 92.191 43.819 91.7864 42.8092C91.0418 40.9596 88.8216 40.1844 86.8972 40.0144C86.039 39.946 85.1754 40.0032 84.3336 40.1844C85.969 36.7402 87.482 32.2012 84.1806 30.899C82.518 30.2428 80.4406 31.3478 79.3526 32.5786C79.1316 32.8309 78.9249 33.0954 78.7338 33.3708C78.1752 32.9672 77.4806 32.7986 76.7992 32.9016C74.1642 33.2722 72.692 36.5702 71.8012 39.4228C69.0506 39.2868 67.4934 42.8228 66.6026 44.9682C65.5931 47.4393 65.057 50.0784 65.0216 52.7474C64.9366 55.5867 65.1372 58.4278 65.62 61.227C65.8444 62.434 66.249 63.5832 66.538 64.763C66.8542 66.0482 66.5108 67.3232 66.045 68.5302C64.2192 73.1508 61.6454 77.4756 59.7142 82.0622C57.6201 86.9164 55.9416 91.9388 54.6958 97.0766C52.2954 107.219 51.8024 117.973 54.6074 128.088C59.9114 147.203 86.785 140.926 102.18 135.568C108.616 133.331 113.06 131.243 113.06 131.243C113.06 131.243 113.094 132.726 113.094 135.235V135.575C113.077 138.975 112.781 166.1 108.212 186.017L108.059 186.279C108.096 186.252 108.168 186.252 108.212 186.493C107.961 187.037 107.559 187.498 107.054 187.819C106.549 188.141 105.962 188.311 105.363 188.309C94.4214 188.265 48.348 189.818 57.0826 219.589C58.718 225.182 62.9884 228.769 68.9826 230.89C73.7426 232.59 79.594 233.328 86.0744 233.383H86.1186C73.4502 235.783 70.5024 254.629 84.6362 257.478C90.0762 258.573 94.384 255.051 99.2732 253.548C102.067 252.722 104.977 252.352 107.889 252.453C109.789 252.499 111.684 252.676 113.56 252.984C134.1 256.346 154.942 257.479 175.726 256.363C189.778 255.591 204.102 253.827 217.437 249.125C227.487 245.575 238.517 239.363 243.467 229.745C245.221 226.36 246.128 222.599 246.109 218.786C246.095 209.725 241.907 203.279 235.62 198.74Z" fill="white"/>
<path d="M23.6028 230.38L23.0894 229.894" stroke="#CCDDE2" stroke-width="3" stroke-miterlimit="10"/>
<path d="M191.702 179.544L190.189 172.727C189.627 170.76 189.186 168.76 188.87 166.739C187.306 156.515 186.15 143.813 185.739 139.056L190.614 140.61L188.914 136.826C188.914 136.826 183.314 117.98 194.517 109.68C186.415 106.923 179.925 108.341 172.343 106.597C169.422 105.917 166.338 105.322 162.931 104.764L160.466 104.332C160.368 111.03 155.706 112.55 151.871 113.278C142.429 115.086 135.891 108.198 136.163 102.2C125.681 102.319 115.321 103.703 104.948 105.464C106.287 109.395 109.109 121.172 101.17 135.099L102.19 135.065C108.627 132.824 113.07 130.74 113.07 130.74C113.07 130.74 113.108 132.222 113.108 134.732V135.072C113.091 138.451 112.795 165.597 108.225 185.511C107.885 186.16 108.151 185.361 108.225 186.082C107.948 186.635 107.758 187.228 107.661 187.84L107.882 186.959C106.651 188.724 109.732 190.862 114.182 191.94C125.817 194.782 189.951 199.76 193.572 187.84C193.785 187.129 193.793 186.372 193.593 185.657C193.067 183.588 192.436 181.548 191.702 179.544Z" fill="#353642"/>
<path d="M107.885 251.94C104.977 251.842 102.071 252.213 99.28 253.038C94.3874 254.537 90.0728 258.063 84.6396 256.965C70.5058 254.116 73.457 235.27 86.1254 232.869C87.3392 232.842 88.553 232.835 89.7566 232.835H89.8382C95.6726 232.835 101.357 232.988 106.022 231.377C105.584 231.781 94.2174 241.862 107.885 251.94Z" fill="#2079FF"/>
<path d="M160.456 104.319V104.336C160.358 111.034 155.696 112.554 151.861 113.282C142.419 115.09 135.881 108.202 136.153 102.204" stroke="black" stroke-width="3" stroke-miterlimit="10"/>
<path d="M86.1356 232.87C73.4672 235.27 70.516 254.116 84.6498 256.966C90.0898 258.064 94.3976 254.538 99.2902 253.039C102.083 252.213 104.991 251.843 107.902 251.94C109.799 251.992 111.689 252.175 113.56 252.488C134.099 255.858 154.942 256.998 175.726 255.888C189.778 255.113 204.099 253.351 217.433 248.649C227.487 245.096 238.513 238.884 243.464 229.269C245.219 225.883 246.126 222.122 246.106 218.308C246.106 209.236 241.907 202.79 235.634 198.248C234.76 197.619 233.852 197.027 232.914 196.459C223.509 190.893 210.698 188.734 199.954 188.088C199.298 188.044 198.648 188.007 198.013 187.98C197.166 187.945 196.337 187.724 195.585 187.334C194.804 186.942 194.126 186.373 193.606 185.671C193.1 185.006 192.744 184.24 192.562 183.424L191.709 179.548L190.196 172.731L188.87 166.74C187.306 156.516 186.15 143.814 185.739 139.057" stroke="black" stroke-width="3" stroke-miterlimit="10"/>
<path d="M204.398 223.727C200.206 233.311 189.839 230.03 178.449 223.132C171.38 218.851 165.349 218.242 161.789 218.372C166.807 217.923 171.193 216.376 172.428 210.701C173.424 206.091 170.826 201.861 166.331 200.501C177.137 200.025 188.224 200.841 197.016 207.641C197.023 207.641 208.597 214.132 204.398 223.727Z" fill="#2079FF"/>
<path d="M166.26 82.1142C166.222 82.1193 166.183 82.1193 166.144 82.1142C166.25 82.6446 166.45 83.2124 166.583 83.7768C166.689 84.2035 166.735 84.6428 166.719 85.0824C166.576 87.1394 165.118 88.2546 163.139 88.309C163.189 88.7809 163.095 89.2572 162.869 89.6748C162.643 90.0923 162.296 90.4316 161.874 90.6482C160.813 91.2058 159.076 91.08 158.277 90.0974C157.332 88.9584 157.801 87.544 158.375 86.2962C158.583 85.8576 158.79 85.4428 158.96 85.0654C159.168 84.5962 159.348 84.1304 159.508 83.6544C160.073 81.8928 160.512 80.0929 160.82 78.2688C161.196 76.426 161.445 74.5594 161.565 72.6826C161.439 72.227 161.52 71.5674 161.34 71.0914C161.078 70.3566 160.605 69.7157 159.98 69.2486C158.688 68.2966 156.968 68.3578 155.594 67.5146C154.35 66.7401 153.369 65.6086 152.779 64.2676C152.663 63.9888 152.555 63.6284 152.391 63.3156C152.319 63.1456 152.208 62.9946 152.068 62.8736C151.45 62.3534 151.089 63.2714 150.708 63.6284C150.318 63.9888 149.855 64.2621 149.351 64.4298C148.847 64.5974 148.313 64.6555 147.784 64.6008C147.385 64.5481 146.996 64.4332 146.632 64.2608C146.364 64.1153 146.114 63.9398 145.887 63.7372C145.617 63.4744 145.303 63.2615 144.959 63.1082C144.313 62.8668 144.279 63.9344 144.187 64.305C144.126 64.6253 143.993 64.9275 143.798 65.189C143.603 65.4504 143.351 65.6643 143.062 65.8146C142.712 65.9863 142.329 66.0781 141.94 66.0832C141.486 66.1016 141.033 66.0404 140.6 65.903C140.182 65.7789 139.785 65.5946 139.42 65.3556C139.355 65.3114 139.279 65.2866 139.2 65.2838C139.121 65.2811 139.043 65.3005 138.975 65.3396C138.906 65.379 138.85 65.4368 138.813 65.5062C138.776 65.5756 138.759 65.6541 138.764 65.733C138.89 69.2486 135.602 70.4726 134.252 70.833C133.799 76.6351 135.217 82.4301 138.298 87.3672C138.185 88.0815 137.893 88.7561 137.452 89.329C135.232 89.8866 132.668 89.2814 131.706 87.3672C130.686 85.3272 130.825 82.5018 132.41 81.0466C131.311 80.8766 131.005 79.2548 131.634 78.3028C131.689 78.211 131.713 78.1566 131.679 78.0682C131.543 77.6976 129.928 77.3882 129.486 77.2522C128.855 77.0271 128.285 76.6579 127.823 76.1737C127.36 75.6895 127.017 75.1044 126.82 74.4642C125.885 71.3804 128.258 68.0892 131.223 67.3446C130.342 65.7874 129.183 64.5294 128.69 62.7308C128.197 60.9322 128.476 59.0622 129.849 57.7022C130.408 57.1708 131.091 56.7873 131.835 56.5867C132.58 56.3861 133.363 56.3745 134.113 56.553C134.55 56.8709 134.938 57.2524 135.262 57.6852C135.063 57.3901 134.902 57.0698 134.786 56.7332C135.792 57.0746 136.675 57.7063 137.323 58.5488C136.163 56.8148 136.595 54.4484 137.897 52.9184C139.471 51.0756 142.565 50.671 144.721 51.6162C144.877 51.6862 145.028 51.7672 145.173 51.8576C145.377 52.1126 145.585 52.3642 145.792 52.6056C145.815 52.5403 145.842 52.4767 145.874 52.4152C146.311 52.865 146.725 53.3369 147.115 53.8296C148.515 49.8448 154.081 49.8346 157.022 51.912C157.715 52.406 158.282 53.0557 158.678 53.8092C158.827 54.4712 158.814 55.1593 158.641 55.8152C158.46 56.4442 158.603 56.9202 159.008 57.0562C159.312 57.1303 159.633 57.0888 159.909 56.9406C160.987 56.4544 161.877 55.8594 163.129 55.9954C167.209 56.4272 170.184 61.7312 167.766 65.1924C167.623 65.4073 167.46 65.6089 167.28 65.7942C166.94 66.1342 166.175 66.532 166.005 67.0182C166 67.0301 166 67.0433 166.005 67.0556C165.699 68.0756 167.957 68.3034 168.558 68.5652C173.89 70.8126 172.764 81.7742 166.26 82.1142Z" fill="#2079FF"/>
<path d="M73.576 54.4681C72.3078 51.7685 73.236 47.9843 74.681 45.1249C75.786 42.9047 74.9054 39.3449 72.0834 38.9471C69.1526 38.5527 67.5138 42.2485 66.5992 44.4789C65.5877 46.9507 65.0502 49.5908 65.0148 52.2615C64.9397 55.1015 65.1481 57.9422 65.637 60.7411C65.8614 61.9447 66.266 63.0973 66.5516 64.2737C66.8678 65.5589 66.5244 66.8373 66.0586 68.0409C64.2328 72.6615 61.6624 76.9863 59.7278 81.5729C57.6368 86.4278 55.9592 91.4503 54.7128 96.5873C52.3124 106.73 51.816 117.484 54.621 127.599C59.925 146.714 86.802 140.437 102.194 135.079C108.63 132.838 113.074 130.754 113.074 130.754C113.074 130.754 113.111 132.236 113.111 134.746C113.111 134.861 113.111 134.98 113.111 135.086C113.132 145.173 112.727 170.52 108.382 185.579C108.194 186.228 107.799 186.799 107.257 187.203C106.715 187.607 106.056 187.824 105.38 187.82C94.4384 187.775 48.3684 189.329 57.0996 219.083C60.0508 229.133 71.4782 232.747 86.0778 232.873H86.1424C87.329 232.873 88.5428 232.873 89.7736 232.839H89.8552C95.2785 232.651 100.687 232.161 106.056 231.374C125.076 228.694 145.313 222.976 158.386 218.855C159.139 218.656 159.91 218.527 160.687 218.471C161.01 218.433 161.367 218.406 161.769 218.389H161.803C165.356 218.246 171.387 218.855 178.463 223.149C189.853 230.048 200.223 233.329 204.411 223.744C208.6 214.159 197.023 207.642 197.023 207.642C188.231 200.842 177.143 200.036 166.338 200.502C163.003 200.648 159.684 200.927 156.478 201.182C143.647 202.204 130.813 203.224 117.977 204.242L101.16 205.602" stroke="black" stroke-width="3" stroke-miterlimit="10"/>
<path d="M78.149 52.6658C78.149 52.6658 76.3164 48.9629 78.5842 43.1727C79.5192 40.7927 80.597 37.9132 80.155 35.3054C80.0166 34.3398 79.5035 33.4677 78.727 32.8775C78.1687 32.4735 77.4734 32.3059 76.7924 32.4117C74.1608 32.7789 72.6852 36.0806 71.7944 38.9298" stroke="black" stroke-width="3" stroke-miterlimit="10"/>
<path d="M81.9774 50.517C81.9774 50.517 80.2366 47.5692 82.6098 43.037C83.0076 42.2822 83.6808 41.0752 84.3098 39.7016C85.9486 36.2574 87.4582 31.7184 84.1568 30.4128C82.4942 29.7566 80.4168 30.8616 79.3288 32.0958C79.1078 32.3467 78.9011 32.6102 78.71 32.8846" stroke="black" stroke-width="3" stroke-miterlimit="10"/>
<path d="M84.32 39.6812C85.1615 39.4986 86.0254 39.4411 86.8836 39.5112C88.808 39.6812 91.0282 40.453 91.7762 42.306C92.1808 43.326 92.0346 45.1654 91.001 45.74C89.6886 46.4608 88.0804 45.9848 86.768 46.658C85.3026 47.4128 84.728 49.4358 84.9422 50.9658C84.9837 51.5655 85.2227 52.1347 85.6222 52.5842C87.941 54.903 89.5322 48.5042 90.4128 47.4502C91.6096 46.012 93.3606 46.2704 94.6118 47.4842C96.8966 49.6942 96.1588 53.5396 95.3802 56.2392C94.2888 60.0166 92.4154 64.5046 89.2602 67.007C88.1314 67.8978 86.2546 69.047 86.1118 70.6382C86.1118 70.6382 79.7572 91.0892 80.138 102.319C80.1655 103.229 80.3865 104.121 80.7867 104.938C81.1866 105.755 81.7561 106.477 82.4575 107.056C83.1586 107.635 83.9752 108.058 84.8528 108.297C85.7303 108.535 86.6487 108.584 87.5466 108.439C90.9466 107.885 94.367 107.365 97.7466 106.739C100.147 106.301 102.537 105.869 104.938 105.454C115.61 103.639 126.266 102.228 137.054 102.18C137.575 102.181 138.079 101.993 138.473 101.651C138.867 101.31 139.124 100.837 139.196 100.32L139.4 98.8412L140.743 90.5418" stroke="black" stroke-width="3" stroke-miterlimit="10"/>
<path d="M223.071 56.2671C224.339 53.5675 223.411 49.7833 221.966 46.9239C220.85 44.7037 221.741 41.1439 224.563 40.7461C224.662 40.7461 224.76 40.7291 224.852 40.7291C227.63 40.5931 229.194 44.2005 230.075 46.3493C231.098 48.9057 231.627 51.6332 231.632 54.3869C231.658 56.7084 231.486 59.0275 231.118 61.3195C230.806 63.2235 229.796 65.1139 229.942 67.0723C230.058 68.7179 231.03 70.2751 231.713 71.7575C234.661 78.1053 238.112 84.2355 240.479 90.7975C241.381 93.255 242.087 95.7798 242.59 98.3489C244.367 107.681 243.723 117.312 240.72 126.324C239.081 131.2 236.198 136 232.043 139.128C231.612 139.453 231.172 139.759 230.721 140.046C225.335 143.535 218.419 144.568 212.119 144.432C205.428 144.29 198.696 142.923 192.273 141.097C191.151 140.775 190.034 140.435 188.921 140.077C187.751 139.706 186.592 139.329 185.433 138.935C184.219 138.513 183.005 138.088 181.801 137.639" stroke="black" stroke-width="3" stroke-miterlimit="10"/>
<path d="M224.852 40.729C223.961 37.8798 222.472 34.5784 219.854 34.2112C219.173 34.1055 218.478 34.2731 217.92 34.677C217.143 35.2673 216.63 36.1394 216.492 37.1046C216.05 39.7124 217.127 42.5888 218.062 44.9722C220.33 50.7522 218.494 54.4684 218.494 54.4684" stroke="black" stroke-width="3" stroke-miterlimit="10"/>
<path d="M217.92 34.6764C217.729 34.3976 217.515 34.1392 217.301 33.8842C216.203 32.6534 214.135 31.5484 212.469 32.2046C209.171 33.5068 210.681 38.0492 212.32 41.4934C212.966 42.8534 213.639 44.074 214.02 44.8288C216.4 49.3678 214.649 52.3088 214.649 52.3088" stroke="black" stroke-width="3" stroke-miterlimit="10"/>
<path d="M212.32 41.4944C211.478 41.3122 210.615 41.2537 209.756 41.321C207.832 41.4944 205.612 42.2662 204.864 44.1192C204.459 45.1392 204.605 46.9786 205.639 47.5532C206.951 48.274 208.559 47.7946 209.872 48.4712C211.337 49.226 211.912 51.249 211.698 52.779C211.656 53.3788 211.417 53.9479 211.018 54.3974C208.699 56.7162 207.108 50.3174 206.227 49.2634C205.03 47.8218 203.279 48.0836 202.028 49.2974C199.563 51.6774 200.634 56.4714 201.668 59.3512C202.793 62.4962 204.248 65.8112 206.577 68.2592C210.453 72.3392 210.875 78.7992 211.902 84.0386C212.323 86.2078 212.728 88.3906 213.051 90.5768C213.697 94.8098 214.071 99.0768 213.731 103.354C213.644 104.528 213.316 105.672 212.767 106.713C212.217 107.755 211.459 108.671 210.538 109.405C209.618 110.14 208.556 110.676 207.418 110.98C206.281 111.285 205.093 111.35 203.929 111.174C188.724 108.845 159.297 104.116 159.297 104.116C159.056 104.074 158.837 103.949 158.68 103.763C158.522 103.576 158.435 103.34 158.433 103.096L158.29 90.111" stroke="black" stroke-width="3" stroke-miterlimit="10"/>
<path d="M134.239 70.8221C133.617 77.5099 135.939 85.0715 140.291 90.0559C148.41 99.3413 155.251 90.0559 155.251 90.0559" stroke="black" stroke-width="3" stroke-miterlimit="10"/>
<path d="M161.653 72.8968C161.415 72.4548 161.554 71.6558 161.35 71.0948C161.087 70.3597 160.614 69.7181 159.99 69.2486C158.692 68.3 156.975 68.3578 155.604 67.5214C154.36 66.7428 153.377 65.6096 152.782 64.2676C152.592 63.8392 152.442 63.1864 152.079 62.877C151.456 62.3568 151.096 63.2714 150.719 63.6318C150.18 64.1336 149.503 64.4621 148.776 64.575C148.048 64.6875 147.304 64.5794 146.639 64.2642C146.027 63.9616 145.602 63.353 144.962 63.1116C144.323 62.8702 144.282 63.9344 144.187 64.3084C144.126 64.6283 143.994 64.9303 143.801 65.1924C143.607 65.4542 143.357 65.6691 143.069 65.8214C141.943 66.3756 140.406 66.0118 139.427 65.3556C139.362 65.31 139.284 65.2845 139.205 65.2811C139.125 65.2781 139.046 65.2975 138.977 65.3372C138.908 65.3774 138.852 65.4358 138.815 65.5065C138.777 65.5769 138.761 65.6568 138.768 65.7364C138.921 70.1564 133.685 70.9486 133.685 70.9486" stroke="black" stroke-width="3" stroke-miterlimit="10"/>
<path d="M141.627 80.5495C144.245 80.5495 146.367 78.4276 146.367 75.8099C146.367 73.1923 144.245 71.0703 141.627 71.0703C139.009 71.0703 136.887 73.1923 136.887 75.8099C136.887 78.4276 139.009 80.5495 141.627 80.5495Z" stroke="black" stroke-width="3" stroke-miterlimit="10"/>
<path d="M153.911 80.1273C156.529 80.1273 158.651 78.0053 158.651 75.3877C158.651 72.77 156.529 70.6481 153.911 70.6481C151.294 70.6481 149.172 72.77 149.172 75.3877C149.172 78.0053 151.294 80.1273 153.911 80.1273Z" stroke="black" stroke-width="3" stroke-miterlimit="10"/>
<path d="M139.645 76.2859C139.645 76.2859 141.556 78.4789 143.521 76.2859" stroke="black" stroke-width="3" stroke-miterlimit="10"/>
<path d="M151.98 76.2859C151.98 76.2859 153.891 78.4789 155.859 76.2859" stroke="black" stroke-width="3" stroke-miterlimit="10"/>
<path d="M148.339 86.7409C149.261 86.7409 150.008 85.9936 150.008 85.0715C150.008 84.1494 149.261 83.4021 148.339 83.4021C147.417 83.4021 146.669 84.1494 146.669 85.0715C146.669 85.9936 147.417 86.7409 148.339 86.7409Z" stroke="black" stroke-width="3" stroke-miterlimit="10"/>
<path d="M146.367 75.8099C146.367 75.8099 147.441 74.0589 149.172 75.3883" stroke="black" stroke-width="3" stroke-miterlimit="10"/>
<path d="M144.187 68.775C144.187 68.775 139.267 65.0146 135.143 68.5608" stroke="black" stroke-width="3" stroke-miterlimit="10"/>
<path d="M158.583 66.8033C158.583 66.8033 152.738 64.7633 149.916 69.4043" stroke="black" stroke-width="3" stroke-miterlimit="10"/>
<path d="M138.142 87.203C138.131 87.9911 137.872 88.7554 137.402 89.3885C136.932 90.0212 136.275 90.4901 135.524 90.7288C133.096 91.4462 130.526 89.6238 129.472 87.5192C129.088 86.7919 128.912 85.9725 128.965 85.1514C129.018 84.3306 129.297 83.5401 129.771 82.868C129.814 82.8006 129.842 82.7255 129.854 82.6469C129.866 82.5684 129.863 82.4882 129.843 82.4113C129.823 82.3341 129.788 82.2621 129.739 82.1992C129.691 82.1363 129.63 82.0839 129.56 82.0452C129.088 81.7613 128.698 81.3601 128.428 80.8803C128.157 80.4006 128.016 79.859 128.017 79.3082C128.018 79.0797 128.043 78.8515 128.092 78.6282C128.107 78.5455 128.105 78.4605 128.086 78.3789C128.067 78.297 128.031 78.2202 127.98 78.1528C127.93 78.0859 127.866 78.0298 127.793 77.9886C127.719 77.9475 127.638 77.9223 127.554 77.9142C127.307 77.8917 127.061 77.8509 126.82 77.7917C126.144 77.5517 125.533 77.157 125.036 76.6385C124.54 76.1203 124.171 75.4927 123.961 74.8065C122.941 71.4881 125.508 67.9454 128.7 67.1464C127.748 65.4736 126.487 64.1237 125.98 62.1823C125.474 60.2409 125.766 58.235 127.238 56.7866C129.533 54.5392 133.426 55.2396 135.276 57.7046C134.028 55.8346 134.494 53.2846 135.898 51.6458C137.598 49.667 140.913 49.2352 143.235 50.2416C144.34 50.7278 145.051 51.7342 145.806 52.6216C147.315 48.3512 153.286 48.324 156.461 50.5612C158.114 51.741 159.181 53.8796 158.654 55.8312C158.375 56.8206 158.889 57.4122 159.922 56.9566C160.956 56.501 161.891 55.8754 163.142 56.0114C167.474 56.4704 170.551 62.4034 167.294 65.8102C166.954 66.1706 166.189 66.548 166.019 67.0342C165.648 68.0542 167.95 68.3194 168.562 68.5812C173.941 70.8388 172.761 81.916 166.182 82.1404C166.379 83.0822 166.828 84.126 166.756 85.0984C166.614 87.1554 165.155 88.2706 163.176 88.3352C163.225 88.8057 163.13 89.28 162.904 89.6955C162.678 90.111 162.333 90.4489 161.911 90.6642C160.851 91.2286 159.113 91.096 158.314 90.1134C157.036 88.5698 158.348 86.5467 158.994 85.0711C159.946 82.9121 160.415 80.5831 160.847 78.2711C161.243 76.3556 161.497 74.4135 161.609 72.4606V72.379" stroke="black" stroke-width="3" stroke-miterlimit="10"/>
<path d="M0 230.38H69.0982" stroke="black" stroke-width="3" stroke-miterlimit="10"/>
<path d="M242.971 230.38H306" stroke="black" stroke-width="3" stroke-miterlimit="10"/>
</svg>
