<svg width="340" height="340" viewBox="0 0 340 340" fill="none" xmlns="http://www.w3.org/2000/svg">
<g opacity="0.1">
<path d="M148.787 47.3132C148.771 47.2836 148.756 47.2527 148.743 47.2214L148.764 47.201C148.774 47.2377 148.782 47.2751 148.787 47.3132Z" fill="#2079FF"/>
<path d="M148.869 47.7215C148.837 47.6104 148.815 47.4965 148.801 47.3815C148.856 47.4859 148.88 47.6039 148.869 47.7215Z" fill="#2079FF"/>
<path d="M164.142 164.794C164.057 164.988 163.985 165.178 163.9 165.378C157.624 180.661 153.245 198.947 152.228 220.829C134.803 178.146 105.896 157.484 80.1482 147.562C80.6106 133.299 82.5928 108.496 90.6882 93.2577C90.6882 93.2577 104.397 96.4639 121.652 109.982C135.266 120.648 151.106 137.753 164.142 164.794Z" fill="#2079FF"/>
<path d="M166.712 164.563L166.124 164.431C166.209 164.227 166.284 164.033 166.365 163.836C166.481 164.074 166.6 164.342 166.712 164.563Z" fill="#2079FF"/>
<path d="M166.712 164.563L166.124 164.431C166.209 164.227 166.284 164.033 166.365 163.836C166.481 164.074 166.6 164.342 166.712 164.563Z" fill="#2079FF"/>
<path d="M155.445 262.536C155.278 262.536 155.105 262.536 154.941 262.536C89.9266 262.536 36.0706 213.267 26.4213 148.898C25.7719 143.404 25.6733 140.123 25.6733 140.123C25.6733 140.123 49.1334 137.743 76.3334 148.449C100.456 157.946 127.527 177.717 143.844 218.558V218.588C143.942 218.833 144.041 219.074 144.129 219.329C149.005 231.688 152.888 245.965 155.424 262.445C155.434 262.475 155.445 262.506 155.445 262.536Z" fill="#2079FF"/>
<path d="M306.789 142.095C300.577 215.002 241.434 272.247 169.32 272.54C169.361 269.228 170.398 231.804 192.987 197.876C203.084 182.565 216.649 169.851 232.58 160.765C233.033 160.503 233.471 160.255 233.94 160.007C234.495 159.69 235.062 159.388 235.64 159.085C235.787 159 235.943 158.922 236.103 158.837C236.657 158.545 237.211 158.252 237.779 157.97C238.071 157.82 238.364 157.667 238.67 157.528C239.275 157.215 239.894 156.909 240.513 156.617C241.131 156.324 241.675 156.066 242.264 155.797L242.471 155.699C242.913 155.491 243.352 155.298 243.8 155.104C244.358 154.842 244.912 154.604 245.477 154.366C247.122 153.652 248.819 152.972 250.549 152.326L251.148 152.098C251.879 151.816 252.613 151.547 253.358 151.286C268.318 145.982 285.981 142.612 306.789 142.095Z" fill="#2079FF"/>
<path d="M208.641 108.272C193.909 119.431 177.313 137.019 166.365 163.835C153.34 136.261 137.544 118.812 123.957 107.936C131.981 92.9755 150.168 62.5693 166.712 48.3471C166.712 48.3471 191.76 73.0889 208.641 108.272Z" fill="#2079FF"/>
<path d="M251.872 148.44C251.144 148.695 250.424 148.96 249.703 149.236L249.118 149.46C247.418 150.096 245.759 150.766 244.144 151.466C243.59 151.701 243.046 151.932 242.502 152.187C242.06 152.381 241.628 152.571 241.196 152.772L240.989 152.867C240.414 153.132 239.839 153.397 239.289 153.676C238.738 153.955 238.075 154.257 237.476 154.567C237.181 154.703 236.892 154.852 236.606 155.002C236.048 155.277 235.504 155.563 234.96 155.852C234.807 155.937 234.651 156.008 234.508 156.093C233.954 156.393 233.4 156.688 232.852 156.998C232.4 157.243 231.968 157.484 231.526 157.739C215.893 166.651 202.58 179.123 192.668 194.143C170.513 227.422 169.493 264.135 169.453 267.382L169.402 267.287C166.75 250.056 162.693 235.13 157.593 222.21L157.995 220.894L157.298 221.435C157.298 221.435 157.298 221.435 157.298 221.414C158.294 199.525 162.578 181.223 168.725 165.947L169.3 166.072L168.96 165.362C179.7 139.056 195.979 121.804 210.44 110.86C227.47 97.9739 241.988 93.8021 241.988 93.8021C249.733 103.376 251.501 132.664 251.872 148.44Z" fill="#2079FF"/>
<path d="M153.796 224.641V224.607C153.796 224.607 153.796 224.627 153.796 224.641Z" stroke="#CCDDE2" stroke-width="3" stroke-miterlimit="10"/>
<path d="M166.362 164.168C166.274 164.376 166.195 164.58 166.107 164.797C159.48 181.274 154.86 201.011 153.782 224.617C135.388 178.571 104.866 156.277 77.6697 145.577C78.1559 130.189 80.2503 103.434 88.8047 86.9915C88.8047 86.9915 103.278 90.4493 121.499 105.035C135.874 116.541 152.599 134.996 166.362 164.168Z" stroke="#CCDDE2" stroke-width="3" stroke-miterlimit="10"/>
<path d="M166.729 164.936L166.107 164.796C166.195 164.579 166.274 164.375 166.362 164.167C166.484 164.419 166.6 164.681 166.729 164.936Z" stroke="#CCDDE2" stroke-width="3" stroke-miterlimit="10"/>
<path d="M153.796 224.641V224.607C153.796 224.607 153.796 224.627 153.796 224.641Z" stroke="#CCDDE2" stroke-width="3" stroke-miterlimit="10"/>
<path d="M166.729 164.936L166.107 164.796C166.195 164.579 166.274 164.375 166.362 164.167C166.484 164.419 166.6 164.681 166.729 164.936Z" stroke="#CCDDE2" stroke-width="3" stroke-miterlimit="10"/>
<path opacity="0.9" d="M54.2334 219.808C53.0332 218.343 51.8534 216.844 50.7178 215.32C35.4311 194.983 25.3611 171.21 21.3894 146.079C20.4 139.922 20.553 136.189 20.553 136.189C20.553 136.189 46.988 133.51 77.673 145.576C104.873 156.279 135.385 178.556 153.782 224.616V224.653C153.894 224.929 154.01 225.204 154.102 225.49C159.61 239.43 163.982 255.519 166.845 274.11C166.845 274.144 166.845 274.178 166.845 274.215C166.651 274.215 166.467 274.215 166.274 274.215C128.34 274.161 93.7448 259.031 67.66 234.313C64.94 231.739 62.2914 229.05 59.7618 226.265" stroke="#CCDDE2" stroke-width="3" stroke-miterlimit="10"/>
<path d="M153.796 224.641V224.607C153.796 224.607 153.796 224.627 153.796 224.641Z" stroke="#CCDDE2" stroke-width="3" stroke-miterlimit="10"/>
<path opacity="0.9" d="M312.331 136.2C305.759 213.329 243.199 273.879 166.906 274.189C166.95 270.687 168.048 231.097 191.94 195.203C202.625 179.008 216.977 165.559 233.832 155.947C234.311 155.672 234.777 155.41 235.263 155.148C235.851 154.808 236.45 154.495 237.048 154.172C237.201 154.08 237.368 154.002 237.534 153.91C238.122 153.601 238.711 153.292 239.309 152.996C239.618 152.833 239.928 152.656 240.251 152.523C240.893 152.183 241.546 151.874 242.202 151.564C242.859 151.255 243.43 150.979 244.052 150.694L244.273 150.588C244.739 150.371 245.205 150.167 245.681 149.96C246.269 149.684 246.854 149.433 247.452 149.181C249.193 148.426 250.988 147.705 252.817 147.018L253.45 146.777C254.225 146.481 255 146.192 255.789 145.92C271.636 140.297 290.323 136.747 312.331 136.2Z" stroke="#CCDDE2" stroke-width="3" stroke-miterlimit="10"/>
<path d="M211.082 105.393C195.5 117.194 177.942 135.799 166.362 164.169C152.599 134.997 135.874 116.542 121.499 105.036C129.999 89.2022 149.229 57.045 166.719 42C166.729 42 193.205 68.1732 211.082 105.393Z" stroke="#CCDDE2" stroke-width="3" stroke-miterlimit="10"/>
<path d="M64.3483 189.651C64.3517 189.628 64.3517 189.605 64.3483 189.583C64.3483 189.559 64.3483 189.535 64.3483 189.491C64.3429 189.453 64.3429 189.414 64.3483 189.375C64.3578 189.457 64.3738 189.538 64.3959 189.617C64.3908 189.626 64.384 189.633 64.3759 189.639C64.3674 189.645 64.3582 189.649 64.3483 189.651Z" fill="white"/>
<path d="M64.4742 211.632C63.9496 213.324 63.2794 214.968 62.4716 216.545C62.2404 216.99 62.0126 217.425 61.761 217.861C60.9022 219.473 59.8482 220.973 58.6228 222.328C58.4052 222.257 58.1876 222.165 57.9938 222.087C57.9496 222.087 57.9122 222.053 57.8782 222.039C53.9172 220.312 50.9422 217.072 50.0582 213.43C49.2694 210.224 49.98 206.756 48.4568 203.747C46.58 200.041 41.5208 197.722 40.8884 193.534C40.3172 189.617 43.843 186.023 43.2684 182.188C42.6156 177.846 37.281 175.272 36.295 171.036C35.666 168.404 36.227 165.368 35.9992 162.655C35.736 159.622 35.222 156.616 34.4624 153.669C34.8296 153.645 35.1968 153.635 35.564 153.621C43.044 153.495 50.4458 157.701 52.8734 163.627C54.8318 168.414 53.8356 173.943 56.4332 178.431C56.5906 178.721 56.7664 179 56.9602 179.267C57.3009 179.74 57.6677 180.194 58.0584 180.627L58.8846 181.487C59.0206 181.623 59.1702 181.749 59.3062 181.899C59.4422 182.048 59.5918 182.174 59.7312 182.324C61.0232 183.558 62.3424 184.806 63.1992 186.285C63.2784 186.413 63.3474 186.547 63.4066 186.686C63.4868 186.82 63.5548 186.961 63.6106 187.108C63.6844 187.257 63.7503 187.41 63.8078 187.567C63.8758 187.737 63.9336 187.907 63.988 188.094C64.0696 188.369 64.1512 188.631 64.2056 188.906C64.2056 188.974 64.2056 189.032 64.2294 189.09C64.2532 189.148 64.2294 189.134 64.2294 189.158C64.2345 189.18 64.2345 189.203 64.2294 189.226C64.2342 189.265 64.2423 189.304 64.2532 189.341V189.365C64.2546 189.408 64.2614 189.45 64.2736 189.491C64.2736 189.535 64.2736 189.559 64.2736 189.583C64.277 189.605 64.277 189.628 64.2736 189.651V189.675L63.393 202.452C63.9574 205.542 65.3684 208.623 64.4742 211.632Z" fill="white"/>
<path d="M71.1245 180.617C71.6991 177.846 71.7433 174.939 73.0489 172.294C75.4765 167.418 82.5689 163.879 90.0047 163.651H90.1407C90.8207 163.651 91.5007 163.651 92.1807 163.685C91.4113 166.22 90.8867 168.822 90.6133 171.457C90.3617 173.803 90.9533 176.428 90.3039 178.682C89.2601 182.344 83.7079 184.568 83.0347 188.311C82.4363 191.63 86.1117 194.734 85.5065 198.11C84.8537 201.728 79.5871 203.73 77.6423 206.95C76.0715 209.551 76.8059 212.536 75.9933 215.297C75.0413 218.445 71.9133 221.25 67.7959 222.726C67.5307 222.818 67.2927 222.91 67.0275 222.991C66.8881 223.025 66.7283 223.083 66.5923 223.117C66.5447 223.083 66.5005 223.035 66.4427 222.991C65.1133 221.859 63.6241 219.948 62.3899 217.891L62.4817 216.586C63.2895 215.009 63.9597 213.365 64.4843 211.673C65.3785 208.664 63.9675 205.583 63.4643 202.493L64.3449 189.715L64.6203 189.488C64.7209 189.413 64.8161 189.333 64.9059 189.246C66.2659 188.148 67.7347 187.094 68.7853 185.846C70.0909 184.313 70.6995 182.63 71.0871 180.865" fill="white"/>
<path d="M71.0906 180.801C71.0906 180.743 71.1144 180.689 71.1246 180.618L71.0906 180.801Z" fill="white"/>
<path d="M71.1246 180.608C71.1246 180.679 71.1008 180.734 71.0906 180.791C70.703 182.556 70.0944 184.239 68.7888 185.772C67.7382 187.02 66.2728 188.074 64.9094 189.172C64.82 189.259 64.7244 189.34 64.6238 189.414L64.3484 189.652C64.3532 189.637 64.3532 189.622 64.3484 189.608C64.3379 189.568 64.3256 189.53 64.311 189.492C64.3056 189.454 64.3056 189.415 64.311 189.376V189.353C64.3001 189.315 64.2923 189.276 64.2872 189.237C64.2923 189.215 64.2923 189.191 64.2872 189.169C64.2923 189.158 64.295 189.147 64.295 189.135C64.295 189.123 64.2923 189.112 64.2872 189.101C64.2787 189.039 64.2661 188.978 64.2498 188.917C64.1954 188.642 64.1138 188.38 64.0322 188.105C63.9778 187.931 63.92 187.748 63.852 187.578C63.7945 187.421 63.7286 187.268 63.6548 187.119C63.6065 186.97 63.5378 186.827 63.4508 186.697C63.392 186.559 63.3226 186.424 63.2434 186.296C62.3866 184.817 61.0674 183.576 59.7754 182.335C59.636 182.185 59.4898 182.036 59.3504 181.91C59.211 181.784 59.0648 181.635 58.9288 181.499L58.1026 180.638C57.7119 180.206 57.3454 179.751 57.0044 179.278C57.0044 179.278 57.766 166.042 64.532 162.037C70.9206 158.222 71.1246 178.374 71.1246 180.608Z" fill="white"/>
<path d="M71.0906 180.801C71.0906 180.743 71.1144 180.689 71.1246 180.618L71.0906 180.801Z" fill="white"/>
<path d="M64.3383 189.607V189.661C64.3417 189.639 64.3417 189.616 64.3383 189.593C64.3383 189.57 64.3383 189.546 64.3383 189.502C64.3329 189.463 64.3329 189.424 64.3383 189.386C64.3332 189.46 64.3332 189.533 64.3383 189.607Z" fill="white"/>
<path d="M87.2373 167.888C75.0415 181.012 69.3091 208.688 67.0753 222.968C66.8917 224.175 66.7353 225.276 66.5857 226.269" fill="white"/>
<path d="M88.3625 234.31L82.7525 267.412C82.6195 268.317 82.1714 269.145 81.4873 269.751C80.8029 270.357 79.9264 270.701 79.0125 270.724H49.6841C48.7627 270.7 47.8797 270.349 47.1939 269.732C46.5085 269.116 46.0651 268.275 45.9441 267.361L40.7693 234.31H88.3625Z" fill="white"/>
<path d="M93.6905 230.618C93.6395 231.599 93.2203 232.523 92.5168 233.208C91.8134 233.893 90.8773 234.286 89.8961 234.311H39.3143C38.3426 234.287 37.4151 233.901 36.7137 233.229C36.0119 232.556 35.5876 231.646 35.5233 230.676C35.3091 228.317 37.0669 226.256 39.3143 226.256H89.8961C92.1197 226.273 93.8707 228.262 93.6905 230.618Z" fill="white"/>
<path d="M64.3721 189.675C64.3714 189.601 64.3589 189.528 64.3347 189.458L64.3721 189.675Z" fill="white"/>
<path d="M39.3074 158.531C51.0136 173.736 56.5216 205.791 58.6874 222.339C58.871 223.773 59.0274 225.089 59.1668 226.266" fill="white"/>
<path d="M65.4023 174.688C63.9369 179.2 63.8655 183.756 64.0423 186.642C64.0892 187.574 64.1878 188.502 64.3381 189.423" fill="white"/>
<path d="M64.3483 189.651C64.3517 189.628 64.3517 189.605 64.3483 189.583C64.3483 189.559 64.3483 189.535 64.3483 189.491C64.3429 189.453 64.3429 189.414 64.3483 189.375C64.3578 189.457 64.3738 189.538 64.3959 189.617C64.3908 189.626 64.384 189.633 64.3759 189.639C64.3674 189.645 64.3582 189.649 64.3483 189.651Z" stroke="#CCDDE2" stroke-width="3" stroke-miterlimit="10"/>
<path d="M64.4742 211.632C63.9496 213.324 63.2794 214.968 62.4716 216.545C62.2404 216.99 62.0126 217.425 61.761 217.861C60.9022 219.473 59.8482 220.973 58.6228 222.328C58.4052 222.257 58.1876 222.165 57.9938 222.087C57.9496 222.087 57.9122 222.053 57.8782 222.039C53.9172 220.312 50.9422 217.072 50.0582 213.43C49.2694 210.224 49.98 206.756 48.4568 203.747C46.58 200.041 41.5208 197.722 40.8884 193.534C40.3172 189.617 43.843 186.023 43.2684 182.188C42.6156 177.846 37.281 175.272 36.295 171.036C35.666 168.404 36.227 165.368 35.9992 162.655C35.736 159.622 35.222 156.616 34.4624 153.669C34.8296 153.645 35.1968 153.635 35.564 153.621C43.044 153.495 50.4458 157.701 52.8734 163.627C54.8318 168.414 53.8356 173.943 56.4332 178.431C56.5906 178.721 56.7664 179 56.9602 179.267C57.3009 179.74 57.6677 180.194 58.0584 180.627L58.8846 181.487C59.0206 181.623 59.1702 181.749 59.3062 181.899C59.4422 182.048 59.5918 182.174 59.7312 182.324C61.0232 183.558 62.3424 184.806 63.1992 186.285C63.2784 186.413 63.3474 186.547 63.4066 186.686C63.4868 186.82 63.5548 186.961 63.6106 187.108C63.6844 187.257 63.7503 187.41 63.8078 187.567C63.8758 187.737 63.9336 187.907 63.988 188.094C64.0696 188.369 64.1512 188.631 64.2056 188.906C64.2056 188.974 64.2056 189.032 64.2294 189.09C64.2532 189.148 64.2294 189.134 64.2294 189.158C64.2345 189.18 64.2345 189.203 64.2294 189.226C64.2342 189.265 64.2423 189.304 64.2532 189.341V189.365C64.2546 189.408 64.2614 189.45 64.2736 189.491C64.2736 189.535 64.2736 189.559 64.2736 189.583C64.277 189.605 64.277 189.628 64.2736 189.651V189.675L63.393 202.452C63.9574 205.542 65.3684 208.623 64.4742 211.632Z" stroke="#CCDDE2" stroke-width="3" stroke-miterlimit="10"/>
<path d="M71.1245 180.617C71.6991 177.846 71.7433 174.939 73.0489 172.294C75.4765 167.418 82.5689 163.879 90.0047 163.651H90.1407C90.8207 163.651 91.5007 163.651 92.1807 163.685C91.4113 166.22 90.8867 168.822 90.6133 171.457C90.3617 173.803 90.9533 176.428 90.3039 178.682C89.2601 182.344 83.7079 184.568 83.0347 188.311C82.4363 191.63 86.1117 194.734 85.5065 198.11C84.8537 201.728 79.5871 203.73 77.6423 206.95C76.0715 209.551 76.8059 212.536 75.9933 215.297C75.0413 218.445 71.9133 221.25 67.7959 222.726C67.5307 222.818 67.2927 222.91 67.0275 222.991C66.8881 223.025 66.7283 223.083 66.5923 223.117C66.5447 223.083 66.5005 223.035 66.4427 222.991C65.1133 221.859 63.6241 219.948 62.3899 217.891L62.4817 216.586C63.2895 215.009 63.9597 213.365 64.4843 211.673C65.3785 208.664 63.9675 205.583 63.4643 202.493L64.3449 189.715L64.6203 189.488C64.7209 189.413 64.8161 189.333 64.9059 189.246C66.2659 188.148 67.7347 187.094 68.7853 185.846C70.0909 184.313 70.6995 182.63 71.0871 180.865" stroke="#CCDDE2" stroke-width="3" stroke-miterlimit="10"/>
<path d="M71.0906 180.801C71.0906 180.743 71.1144 180.689 71.1246 180.618" stroke="#CCDDE2" stroke-width="3" stroke-miterlimit="10"/>
<path d="M71.1246 180.608C71.1246 180.679 71.1008 180.734 71.0906 180.791C70.703 182.556 70.0944 184.239 68.7888 185.772C67.7382 187.02 66.2728 188.074 64.9094 189.172C64.82 189.259 64.7244 189.34 64.6238 189.414L64.3484 189.652C64.3532 189.637 64.3532 189.622 64.3484 189.608C64.3379 189.568 64.3256 189.53 64.311 189.492C64.3056 189.454 64.3056 189.415 64.311 189.376V189.353C64.3001 189.315 64.2923 189.276 64.2872 189.237C64.2923 189.215 64.2923 189.191 64.2872 189.169C64.2923 189.158 64.295 189.147 64.295 189.135C64.295 189.123 64.2923 189.112 64.2872 189.101C64.2787 189.039 64.2661 188.978 64.2498 188.917C64.1954 188.642 64.1138 188.38 64.0322 188.105C63.9778 187.931 63.92 187.748 63.852 187.578C63.7945 187.421 63.7286 187.268 63.6548 187.119C63.6065 186.97 63.5378 186.827 63.4508 186.697C63.392 186.559 63.3226 186.424 63.2434 186.296C62.3866 184.817 61.0674 183.576 59.7754 182.335C59.636 182.185 59.4898 182.036 59.3504 181.91C59.211 181.784 59.0648 181.635 58.9288 181.499L58.1026 180.638C57.7119 180.206 57.3454 179.751 57.0044 179.278C57.0044 179.278 57.766 166.042 64.532 162.037C70.9206 158.222 71.1246 178.374 71.1246 180.608Z" stroke="#CCDDE2" stroke-width="3" stroke-miterlimit="10"/>
<path d="M71.0906 180.801C71.0906 180.743 71.1144 180.689 71.1246 180.618" stroke="#CCDDE2" stroke-width="3" stroke-miterlimit="10"/>
<path d="M64.3383 189.607V189.661C64.3417 189.639 64.3417 189.616 64.3383 189.593C64.3383 189.57 64.3383 189.546 64.3383 189.502C64.3329 189.463 64.3329 189.424 64.3383 189.386C64.3332 189.46 64.3332 189.533 64.3383 189.607Z" stroke="#CCDDE2" stroke-width="3" stroke-miterlimit="10"/>
<path d="M87.2373 167.888C75.0415 181.012 69.3091 208.688 67.0753 222.968C66.8917 224.175 66.7353 225.276 66.5857 226.269" stroke="#CCDDE2" stroke-width="3" stroke-miterlimit="10"/>
<path d="M88.3625 234.31L82.7525 267.412C82.6195 268.317 82.1714 269.145 81.4873 269.751C80.8029 270.357 79.9264 270.701 79.0125 270.724H49.6841C48.7627 270.7 47.8797 270.349 47.1939 269.732C46.5085 269.116 46.0651 268.275 45.9441 267.361L40.7693 234.31H88.3625Z" stroke="#CCDDE2" stroke-width="3" stroke-miterlimit="10"/>
<path d="M93.6905 230.618C93.6395 231.599 93.2203 232.523 92.5168 233.208C91.8134 233.893 90.8773 234.286 89.8961 234.311H39.3143C38.3426 234.287 37.4151 233.901 36.7137 233.229C36.0119 232.556 35.5876 231.646 35.5233 230.676C35.3091 228.317 37.0669 226.256 39.3143 226.256H89.8961C92.1197 226.273 93.8707 228.262 93.6905 230.618Z" stroke="#CCDDE2" stroke-width="3" stroke-miterlimit="10"/>
<path d="M64.3721 189.675C64.3714 189.601 64.3589 189.528 64.3347 189.458L64.3721 189.675Z" stroke="#CCDDE2" stroke-width="3" stroke-miterlimit="10"/>
<path d="M39.3074 158.531C51.0136 173.736 56.5216 205.791 58.6874 222.339C58.871 223.773 59.0274 225.089 59.1668 226.266" stroke="#CCDDE2" stroke-width="3" stroke-miterlimit="10"/>
<path d="M65.4023 174.688C63.9369 179.2 63.8655 183.756 64.0423 186.642C64.0892 187.574 64.1878 188.502 64.3381 189.423" stroke="#CCDDE2" stroke-width="3" stroke-miterlimit="10"/>
<path d="M255.789 145.92C255 146.192 254.225 146.481 253.45 146.777L252.817 147.019C250.988 147.699 249.193 148.426 247.452 149.181C246.854 149.433 246.269 149.684 245.681 149.96C245.205 150.167 244.739 150.371 244.273 150.589L244.052 150.694C243.43 150.98 242.811 151.265 242.202 151.564C241.594 151.864 240.893 152.193 240.251 152.523C239.911 152.673 239.618 152.833 239.309 152.996C238.711 153.292 238.122 153.601 237.534 153.91C237.368 154.002 237.194 154.08 237.048 154.172C236.45 154.495 235.851 154.815 235.263 155.148C234.777 155.41 234.311 155.672 233.832 155.947C216.977 165.559 202.625 179.008 191.94 195.203C168.048 231.097 166.95 270.683 166.906 274.189L166.848 274.087C163.989 255.506 159.613 239.407 154.115 225.467L154.547 224.049L153.796 224.634C153.796 224.634 153.796 224.634 153.796 224.61C154.873 201.004 159.494 181.267 166.121 164.79L166.743 164.93C166.62 164.675 166.498 164.413 166.376 164.161C177.956 135.792 195.514 117.187 211.096 105.386C229.456 91.4863 245.12 86.9847 245.12 86.9847C253.484 97.3207 255.388 128.907 255.789 145.92Z" stroke="#CCDDE2" stroke-width="3" stroke-miterlimit="10"/>
<path d="M256.901 268.041C254.462 267.551 252.073 266.966 249.734 266.286C240.139 263.481 228.994 258.694 225.172 248.63C224.216 246.03 223.914 243.234 224.294 240.49C224.674 237.746 225.724 235.137 227.351 232.895C229.075 230.504 231.499 228.706 234.287 227.751C240.356 225.789 247.071 228.846 251.573 233.368C256.075 237.89 258.971 243.71 262.497 249.028C259.308 241.888 256.071 234.541 255.633 226.734C255.293 220.648 256.945 214.049 261.141 209.476C265.003 205.267 274.033 201.972 279.351 205.056C282.86 207.096 284.261 211.434 284.862 215.446C286.515 226.425 284.393 237.58 282.282 248.481C283.7 242.653 285.223 236.771 288.113 231.515C291.003 226.258 295.433 221.614 301.108 219.666C305.082 218.306 309.801 218.452 313.13 221.026C316.234 223.406 317.621 227.462 318.05 231.358C318.764 237.893 317.227 244.52 314.582 250.534C304.712 272.984 277.338 272.121 256.901 268.041Z" fill="white"/>
<path d="M279.171 256.927C279.171 256.927 294.386 261.153 299.758 240.005L279.171 256.927Z" fill="white"/>
<path d="M272.401 220.829C268.172 230.417 272.401 259.185 272.401 259.185V220.829Z" fill="white"/>
<path d="M258.301 256.273C257.666 256.165 251.563 255.311 246.361 252.921C242.332 251.071 238.84 248.297 238.84 244.237" fill="white"/>
<path d="M247.581 244.242C247.581 244.242 241.635 251.174 246.361 252.925L247.581 244.242Z" fill="white"/>
<path d="M243.634 259.231C244.48 258.055 248.883 260.415 251.76 254.862L243.634 259.231Z" fill="white"/>
<path d="M270.521 233.522C269.018 232.393 265.081 233.522 264.503 224.495L270.521 233.522Z" fill="white"/>
<path d="M271.177 241.98C271.177 241.98 277.76 239.6 277.76 234.449L271.177 241.98Z" fill="white"/>
<path d="M285.325 257.049C285.325 257.049 288.759 248.185 290.17 244.237L285.325 257.049Z" fill="white"/>
<path d="M295.987 248.58C295.987 248.58 299.758 251.568 304.269 246.774L295.987 248.58Z" fill="white"/>
<path d="M295.987 244.242C295.987 244.242 293.553 243.184 294.681 237.102L295.987 244.242Z" fill="white"/>
<path d="M256.901 268.041C254.439 267.701 252.069 266.97 249.734 266.286C240.139 263.481 228.994 258.694 225.172 248.63C224.216 246.03 223.914 243.234 224.294 240.49C224.674 237.746 225.724 235.137 227.351 232.895C229.075 230.504 231.499 228.706 234.287 227.751C240.356 225.789 247.071 228.846 251.573 233.368C256.075 237.89 258.971 243.71 262.497 249.028C259.308 241.888 256.071 234.541 255.633 226.734C255.293 220.648 256.945 214.049 261.141 209.476C265.003 205.267 274.033 201.972 279.351 205.056C282.86 207.096 284.261 211.434 284.862 215.446C286.515 226.425 284.393 237.58 282.282 248.481C283.7 242.653 285.223 236.771 288.113 231.515C291.003 226.258 295.433 221.614 301.108 219.666C305.082 218.306 309.801 218.452 313.13 221.026C316.234 223.406 317.621 227.462 318.05 231.358C318.764 237.893 317.319 244.564 314.582 250.534C304.552 272.393 276.968 270.74 256.901 268.041Z" stroke="#CCDDE2" stroke-width="3" stroke-miterlimit="10"/>
<path d="M279.171 256.927C279.171 256.927 294.386 261.153 299.758 240.005" stroke="#CCDDE2" stroke-width="3" stroke-miterlimit="10"/>
<path d="M272.401 220.829C268.172 230.417 272.401 259.185 272.401 259.185" stroke="#CCDDE2" stroke-width="3" stroke-miterlimit="10"/>
<path d="M258.301 256.273C257.666 256.165 251.563 255.311 246.361 252.921C242.332 251.071 238.84 248.297 238.84 244.237" stroke="#CCDDE2" stroke-width="3" stroke-miterlimit="10"/>
<path d="M247.581 244.242C247.581 244.242 241.635 251.174 246.361 252.925" stroke="#CCDDE2" stroke-width="3" stroke-miterlimit="10"/>
<path d="M243.634 259.231C244.48 258.055 248.883 260.415 251.76 254.862" stroke="#CCDDE2" stroke-width="3" stroke-miterlimit="10"/>
<path d="M270.521 233.522C269.018 232.393 265.081 233.522 264.503 224.495" stroke="#CCDDE2" stroke-width="3" stroke-miterlimit="10"/>
<path d="M271.177 241.98C271.177 241.98 277.76 239.6 277.76 234.449" stroke="#CCDDE2" stroke-width="3" stroke-miterlimit="10"/>
<path d="M285.325 257.049C285.325 257.049 288.759 248.185 290.17 244.237" stroke="#CCDDE2" stroke-width="3" stroke-miterlimit="10"/>
<path d="M295.987 248.58C295.987 248.58 299.758 251.568 304.269 246.774" stroke="#CCDDE2" stroke-width="3" stroke-miterlimit="10"/>
<path d="M295.987 244.242C295.987 244.242 293.553 243.184 294.681 237.102" stroke="#CCDDE2" stroke-width="3" stroke-miterlimit="10"/>
<path d="M297.024 191.348C300.064 193.967 302.777 196.943 305.106 200.212C309.386 206.063 311.807 213.067 312.055 220.312" stroke="#CCDDE2" stroke-width="3" stroke-miterlimit="10"/>
<path d="M190.988 71.4811C197.108 67.7955 203.49 64.5212 210.276 62.2092C227.198 56.4292 246.065 57.7111 259.471 70.3964C271.092 81.3818 276.587 97.7018 277.709 113.342C277.709 113.57 277.746 113.811 277.756 114.052C278.27 122.11 277.848 131.008 277.79 139.913" stroke="#CCDDE2" stroke-width="3" stroke-miterlimit="10"/>
<path d="M57.5892 139.42C59.1226 129.631 57.2492 120.424 56.2292 110.35C53.6044 84.1015 61.9514 52.6957 92.1876 48.7687C108.616 46.6267 121.951 52.7637 133.059 64.5345C135.555 67.1763 138.05 70.2805 140.692 73.2793" stroke="#CCDDE2" stroke-width="3" stroke-miterlimit="10"/>
<path d="M45.798 226.106C45.798 226.106 22.8989 216.021 25.1905 197.073C25.8297 191.725 28.3491 186.941 31.5315 182.545" stroke="#CCDDE2" stroke-width="3" stroke-miterlimit="10"/>
<path d="M252.62 238.74C251.75 238.112 250.843 237.516 249.9 236.952C240.496 231.386 227.681 229.227 216.937 228.581C216.281 228.533 215.635 228.499 214.996 228.472C214.149 228.435 213.321 228.213 212.568 227.823C211.788 227.429 211.111 226.86 210.589 226.16C210.062 224.089 209.429 222.046 208.692 220.04L207.182 213.24C206.619 211.273 206.178 209.274 205.86 207.253C204.296 197.029 203.14 184.323 202.732 179.566C202.781 179.587 202.832 179.602 202.885 179.611L207.553 181.107C207.57 181.105 207.587 181.105 207.604 181.107L209.26 181.593C215.679 183.415 222.414 184.782 229.102 184.928C235.406 185.061 242.321 184.027 247.707 180.539C248.16 180.253 248.6 179.947 249.026 179.621C253.181 176.493 256.068 171.692 257.703 166.82C260.712 157.808 261.362 148.176 259.59 138.841C259.088 136.271 258.381 133.745 257.479 131.286C255.099 124.741 251.661 118.608 248.71 112.246C248.03 110.764 247.058 109.21 246.939 107.565C246.796 105.603 247.802 103.716 248.118 101.808C248.487 99.5164 248.658 97.197 248.628 94.8758C248.624 92.1225 248.097 89.395 247.075 86.8382C246.194 84.6894 244.63 81.0854 241.852 81.218C240.962 78.3688 239.472 75.0708 236.851 74.7002C236.171 74.5958 235.476 74.7644 234.92 75.1694C234.728 74.8936 234.52 74.6291 234.297 74.3772C233.203 73.1464 231.132 72.038 229.469 72.6772C226.171 73.9828 227.681 78.5218 229.316 81.966C228.475 81.7848 227.611 81.7276 226.753 81.796C224.832 81.966 222.608 82.7412 221.864 84.5908C221.459 85.6108 221.602 87.4502 222.635 88.0282C223.948 88.7456 225.559 88.2696 226.872 88.9428C228.337 89.6976 228.912 91.7206 228.698 93.2506C228.656 93.8503 228.417 94.4195 228.018 94.869C225.699 97.1878 224.108 90.789 223.227 89.735C222.03 88.2968 220.276 88.5586 219.028 89.7724C216.563 92.1524 217.634 96.9464 218.668 99.8228C219.79 102.971 221.248 106.283 223.577 108.734C227.45 112.797 227.875 119.274 228.898 124.514C229.32 126.679 229.724 128.866 230.051 131.048C230.697 135.285 231.071 139.548 230.731 143.826C230.645 145 230.317 146.143 229.768 147.185C229.219 148.226 228.461 149.142 227.54 149.877C226.62 150.611 225.558 151.147 224.421 151.452C223.284 151.756 222.096 151.822 220.932 151.646C218.161 151.224 214.917 150.721 211.463 150.18C211.463 150.18 211.49 150.153 211.507 150.146C206.798 148.545 202.633 148.348 198.489 148.13C186.796 146.321 176.297 144.621 176.297 144.621C176.058 144.577 175.842 144.451 175.686 144.265C175.529 144.079 175.442 143.844 175.44 143.601L175.297 130.62C176.096 131.599 177.83 131.735 178.891 131.167C179.313 130.952 179.659 130.615 179.886 130.199C180.112 129.784 180.208 129.309 180.159 128.838C180.847 128.833 181.523 128.659 182.128 128.332C182.307 128.231 182.479 128.118 182.641 127.992C182.977 127.691 183.248 127.325 183.437 126.915C183.625 126.506 183.728 126.062 183.739 125.612C183.754 125.363 183.742 125.113 183.702 124.867C183.702 124.775 183.675 124.687 183.658 124.588C183.62 124.398 183.576 124.211 183.522 124.01C183.495 123.895 183.461 123.779 183.423 123.67C183.335 123.33 183.236 122.99 183.161 122.65C183.201 122.655 183.241 122.655 183.28 122.65C183.616 122.631 183.949 122.584 184.277 122.508C184.588 122.433 184.892 122.331 185.184 122.202C185.349 122.129 185.509 122.047 185.664 121.957C185.691 121.948 185.715 121.932 185.735 121.913C185.998 121.751 186.247 121.568 186.48 121.365C186.559 121.301 186.634 121.231 186.704 121.158C186.837 121.033 186.963 120.901 187.082 120.763C187.234 120.586 187.375 120.399 187.507 120.206C187.571 120.123 187.628 120.036 187.677 119.944C188.149 119.187 188.493 118.358 188.697 117.489C188.714 117.408 188.734 117.326 188.751 117.248C189.431 114.011 188.411 110.315 185.569 109.108C185.001 108.867 182.988 108.632 182.988 107.779C182.989 107.718 182.998 107.657 183.015 107.599C183.012 107.586 183.012 107.573 183.015 107.561C183.069 107.434 183.146 107.319 183.243 107.221C183.287 107.167 183.348 107.112 183.403 107.058C183.522 106.953 183.655 106.854 183.78 106.752C183.91 106.667 184.033 106.574 184.151 106.473C184.201 106.432 184.248 106.387 184.294 106.341C184.382 106.242 184.474 106.143 184.555 106.045C184.636 105.948 184.712 105.845 184.78 105.739C184.851 105.63 184.923 105.521 184.987 105.399C185.058 105.292 185.119 105.178 185.167 105.059C185.27 104.857 185.354 104.647 185.419 104.43C185.534 104.073 185.606 103.705 185.633 103.332C185.633 103.199 185.633 103.063 185.633 102.927C185.633 99.9418 183.199 96.8512 180.122 96.5248C179.624 96.4704 179.121 96.5295 178.65 96.6982C178.418 96.7784 178.191 96.8716 177.97 96.977L177.63 97.1368C177.398 97.2456 177.164 97.3612 176.922 97.4768C176.719 97.5737 176.498 97.6291 176.273 97.64C176.221 97.6383 176.17 97.6315 176.12 97.6196L176.021 97.5924C175.95 97.5767 175.885 97.54 175.834 97.487C175.775 97.4435 175.725 97.388 175.688 97.3238C175.658 97.2616 175.636 97.1949 175.624 97.1266C175.621 97.1225 175.62 97.1177 175.62 97.113C175.62 97.1082 175.621 97.1035 175.624 97.0994C175.607 97.0202 175.599 96.9392 175.6 96.858C175.6 96.69 175.624 96.5227 175.671 96.3616C175.767 96.0104 175.815 95.6479 175.814 95.2838C175.814 95.1519 175.805 95.0203 175.787 94.8894C175.77 94.7078 175.742 94.5273 175.705 94.3488C175.372 93.0337 174.582 91.88 173.475 91.095C170.357 88.8918 164.512 88.8816 162.901 92.965C162.867 93.0262 162.85 93.0908 162.823 93.152C162.615 92.9106 162.408 92.659 162.2 92.4074C162.057 92.3152 161.907 92.2333 161.752 92.1626C159.593 91.2208 156.502 91.6254 154.928 93.4682C153.622 94.9982 153.194 97.3612 154.353 99.0952C153.703 98.2554 152.822 97.6243 151.817 97.2796C151.937 97.6158 152.097 97.9368 152.293 98.235C152.201 98.1099 152.102 97.9895 151.997 97.8746C151.915 97.7828 151.834 97.7012 151.752 97.623C151.671 97.5448 151.555 97.4326 151.456 97.351C151.358 97.2694 151.249 97.181 151.144 97.0994C149.121 95.617 146.142 95.464 144.255 97.317C142.78 98.7654 142.474 100.768 142.997 102.709C143.521 104.651 144.775 106.001 145.717 107.673C142.525 108.476 139.971 112.015 140.978 115.334C141.188 116.02 141.556 116.648 142.053 117.166C142.549 117.684 143.16 118.079 143.837 118.319C144.08 118.38 144.326 118.422 144.575 118.445C144.658 118.453 144.738 118.479 144.811 118.52C144.884 118.561 144.948 118.616 144.998 118.683C145.049 118.75 145.085 118.826 145.104 118.907C145.124 118.989 145.127 119.073 145.112 119.155C145.061 119.378 145.035 119.606 145.034 119.835C145.036 120.383 145.179 120.921 145.449 121.397C145.72 121.874 146.108 122.273 146.577 122.555C146.647 122.594 146.708 122.647 146.757 122.71C146.805 122.773 146.84 122.846 146.86 122.923C146.879 123.001 146.882 123.081 146.87 123.16C146.857 123.239 146.828 123.314 146.785 123.381C146.312 124.054 146.035 124.843 145.982 125.664C145.93 126.484 146.106 127.302 146.489 128.029C147.54 130.134 150.113 131.96 152.541 131.239C153.322 131.002 153.998 130.504 154.455 129.828C154.504 129.777 154.546 129.72 154.581 129.658C154.59 129.637 154.603 129.619 154.618 129.603C154.968 129.081 155.2 128.49 155.298 127.869C155.897 128.818 156.566 129.719 157.301 130.566L157.743 131.059L156.4 139.341L156.203 140.834C156.13 141.35 155.873 141.823 155.48 142.165C155.086 142.507 154.582 142.696 154.061 142.697C153.765 142.697 153.459 142.697 153.163 142.697C152.561 142.697 151.966 142.714 151.375 142.731C149.576 142.775 147.784 142.857 145.996 142.965C144.636 143.054 143.307 143.152 141.97 143.271C141.29 143.326 140.638 143.387 139.964 143.458C139.291 143.53 138.625 143.594 137.958 143.666C136.656 143.812 135.344 143.962 134.038 144.135C132.464 144.342 130.9 144.557 129.326 144.781C126.864 145.141 124.409 145.536 121.944 145.961C119.544 146.376 117.154 146.807 114.753 147.246C111.381 147.868 107.974 148.388 104.553 148.946C103.655 149.091 102.737 149.043 101.859 148.805C100.981 148.566 100.163 148.143 99.462 147.564C98.7606 146.985 98.1907 146.262 97.7905 145.445C97.3904 144.628 97.169 143.735 97.1415 142.826C96.7573 131.606 103.112 111.141 103.112 111.141C103.258 109.55 105.152 108.421 106.26 107.517C109.432 105.011 111.306 100.523 112.401 96.7458C113.176 94.0496 113.91 90.2008 111.629 87.9908C110.378 86.777 108.623 86.5152 107.43 87.9534C106.549 89.0142 104.958 95.4062 102.636 93.0874C102.237 92.6379 101.997 92.0687 101.956 91.469C101.755 89.9424 102.296 87.9194 103.778 87.1612C105.091 86.4812 106.702 86.964 108.015 86.2466C109.035 85.6686 109.191 83.819 108.786 82.8092C108.042 80.9596 105.822 80.1844 103.897 80.0144C103.039 79.946 102.176 80.0032 101.334 80.1844C102.969 76.7402 104.482 72.2012 101.181 70.899C99.5181 70.2428 97.4407 71.3478 96.3527 72.5786C96.1317 72.8309 95.925 73.0954 95.7339 73.3708C95.1753 72.9672 94.4806 72.7986 93.7993 72.9016C91.1643 73.2722 89.6921 76.5702 88.8013 79.4228C86.0507 79.2868 84.4935 82.8228 83.6027 84.9682C82.5932 87.4393 82.057 90.0784 82.0217 92.7474C81.9367 95.5867 82.1373 98.4278 82.6201 101.227C82.8445 102.434 83.2491 103.583 83.5381 104.763C83.8543 106.048 83.5109 107.323 83.0451 108.53C81.2193 113.151 78.6455 117.476 76.7143 122.062C74.6202 126.916 72.9416 131.939 71.6959 137.077C69.2955 147.219 68.8025 157.973 71.6075 168.088C76.9115 187.203 103.785 180.926 119.18 175.568C125.616 173.331 130.06 171.243 130.06 171.243C130.06 171.243 130.094 172.726 130.094 175.235V175.575C130.077 178.975 129.781 206.1 125.212 226.017L125.059 226.279C125.096 226.252 125.168 226.252 125.212 226.493C124.961 227.037 124.559 227.498 124.054 227.819C123.549 228.141 122.962 228.311 122.363 228.309C111.421 228.265 65.3481 229.818 74.0827 259.589C75.7181 265.182 79.9885 268.769 85.9827 270.89C90.7427 272.59 96.5941 273.328 103.074 273.383H103.119C90.4503 275.783 87.5025 294.629 101.636 297.478C107.076 298.573 111.384 295.051 116.273 293.548C119.067 292.722 121.977 292.352 124.889 292.453C126.789 292.499 128.684 292.676 130.56 292.984C151.1 296.346 171.943 297.479 192.726 296.363C206.778 295.591 221.102 293.827 234.437 289.125C244.487 285.575 255.517 279.363 260.467 269.745C262.221 266.36 263.128 262.599 263.109 258.786C263.095 249.725 258.907 243.279 252.62 238.74Z" fill="white"/>
<path d="M40.6028 270.38L40.0894 269.894" stroke="#CCDDE2" stroke-width="3" stroke-miterlimit="10"/>
<path d="M208.702 219.544L207.189 212.727C206.627 210.76 206.186 208.76 205.87 206.739C204.306 196.515 203.15 183.813 202.739 179.056L207.614 180.61L205.914 176.826C205.914 176.826 200.314 157.98 211.517 149.68C203.415 146.923 196.925 148.341 189.343 146.597C186.422 145.917 183.338 145.322 179.931 144.764L177.466 144.332C177.368 151.03 172.706 152.55 168.871 153.278C159.429 155.086 152.891 148.198 153.163 142.2C142.681 142.319 132.321 143.703 121.948 145.464C123.287 149.395 126.109 161.172 118.17 175.099L119.19 175.065C125.627 172.824 130.07 170.74 130.07 170.74C130.07 170.74 130.108 172.222 130.108 174.732V175.072C130.091 178.451 129.795 205.597 125.225 225.511C124.885 226.16 125.151 225.361 125.225 226.082C124.948 226.635 124.758 227.228 124.661 227.84L124.882 226.959C123.651 228.724 126.732 230.862 131.182 231.94C142.817 234.782 206.951 239.76 210.572 227.84C210.785 227.129 210.793 226.372 210.593 225.657C210.067 223.588 209.436 221.548 208.702 219.544Z" fill="#353642"/>
<path d="M124.886 291.94C121.977 291.842 119.071 292.213 116.28 293.038C111.388 294.537 107.073 298.063 101.64 296.965C87.5059 294.116 90.4571 275.27 103.125 272.869C104.339 272.842 105.553 272.835 106.757 272.835H106.838C112.673 272.835 118.357 272.988 123.022 271.377C122.584 271.781 111.218 281.862 124.886 291.94Z" fill="#2079FF"/>
<path d="M177.456 144.319V144.336C177.358 151.034 172.696 152.554 168.861 153.282C159.419 155.09 152.881 148.202 153.153 142.204" stroke="black" stroke-width="3" stroke-miterlimit="10"/>
<path d="M103.136 272.87C90.4671 275.27 87.5159 294.116 101.65 296.966C107.09 298.064 111.398 294.538 116.29 293.039C119.083 292.213 121.991 291.843 124.902 291.94C126.798 291.992 128.689 292.175 130.56 292.488C151.099 295.858 171.942 296.998 192.726 295.888C206.778 295.113 221.099 293.351 234.433 288.649C244.487 285.096 255.513 278.884 260.464 269.269C262.219 265.883 263.126 262.122 263.106 258.308C263.106 249.236 258.907 242.79 252.634 238.248C251.76 237.619 250.852 237.027 249.914 236.459C240.509 230.893 227.698 228.734 216.954 228.088C216.298 228.044 215.648 228.007 215.013 227.98C214.166 227.945 213.337 227.724 212.585 227.334C211.804 226.942 211.126 226.373 210.606 225.671C210.1 225.006 209.744 224.24 209.562 223.424L208.709 219.548L207.196 212.731L205.87 206.74C204.306 196.516 203.15 183.814 202.739 179.057" stroke="black" stroke-width="3" stroke-miterlimit="10"/>
<path d="M221.398 263.727C217.206 273.311 206.839 270.03 195.449 263.132C188.38 258.851 182.349 258.242 178.789 258.372C183.807 257.923 188.193 256.376 189.428 250.701C190.424 246.091 187.826 241.861 183.331 240.501C194.137 240.025 205.224 240.841 214.016 247.641C214.023 247.641 225.597 254.132 221.398 263.727Z" fill="#2079FF"/>
<path d="M183.26 122.114C183.221 122.119 183.183 122.119 183.144 122.114C183.25 122.645 183.45 123.212 183.583 123.777C183.689 124.203 183.735 124.643 183.719 125.082C183.576 127.139 182.118 128.255 180.139 128.309C180.189 128.781 180.095 129.257 179.869 129.675C179.643 130.092 179.296 130.432 178.874 130.648C177.813 131.206 176.076 131.08 175.277 130.097C174.332 128.958 174.801 127.544 175.375 126.296C175.583 125.858 175.79 125.443 175.96 125.065C176.168 124.596 176.348 124.13 176.508 123.654C177.073 121.893 177.512 120.093 177.82 118.269C178.196 116.426 178.445 114.559 178.565 112.683C178.439 112.227 178.52 111.567 178.34 111.091C178.078 110.357 177.605 109.716 176.98 109.249C175.688 108.297 173.968 108.358 172.594 107.515C171.35 106.74 170.369 105.609 169.779 104.268C169.663 103.989 169.554 103.628 169.391 103.316C169.319 103.146 169.208 102.995 169.068 102.874C168.45 102.353 168.089 103.271 167.708 103.628C167.318 103.989 166.855 104.262 166.351 104.43C165.847 104.597 165.313 104.656 164.784 104.601C164.385 104.548 163.996 104.433 163.632 104.261C163.364 104.115 163.114 103.94 162.887 103.737C162.617 103.474 162.303 103.262 161.959 103.108C161.313 102.867 161.279 103.934 161.187 104.305C161.126 104.625 160.993 104.928 160.797 105.189C160.603 105.45 160.351 105.664 160.062 105.815C159.712 105.986 159.329 106.078 158.94 106.083C158.486 106.102 158.033 106.04 157.6 105.903C157.182 105.779 156.785 105.595 156.42 105.356C156.355 105.311 156.279 105.287 156.2 105.284C156.121 105.281 156.043 105.301 155.975 105.34C155.906 105.379 155.85 105.437 155.813 105.506C155.776 105.576 155.759 105.654 155.764 105.733C155.89 109.249 152.602 110.473 151.252 110.833C150.799 116.635 152.217 122.43 155.298 127.367C155.184 128.082 154.893 128.756 154.452 129.329C152.231 129.887 149.668 129.281 148.706 127.367C147.686 125.327 147.825 122.502 149.41 121.047C148.311 120.877 148.005 119.255 148.634 118.303C148.689 118.211 148.713 118.157 148.679 118.068C148.543 117.698 146.927 117.388 146.485 117.252C145.855 117.027 145.285 116.658 144.823 116.174C144.36 115.69 144.016 115.104 143.82 114.464C142.885 111.38 145.258 108.089 148.223 107.345C147.342 105.787 146.183 104.529 145.69 102.731C145.197 100.932 145.476 99.0622 146.849 97.7022C147.408 97.1708 148.091 96.7873 148.835 96.5867C149.58 96.3861 150.363 96.3745 151.113 96.553C151.55 96.8709 151.938 97.2524 152.262 97.6852C152.063 97.3901 151.902 97.0698 151.786 96.7332C152.792 97.0746 153.675 97.7063 154.323 98.5488C153.163 96.8148 153.595 94.4484 154.897 92.9184C156.471 91.0756 159.565 90.671 161.721 91.6162C161.877 91.6862 162.028 91.7672 162.173 91.8576C162.377 92.1126 162.584 92.3642 162.792 92.6056C162.815 92.5403 162.842 92.4767 162.874 92.4152C163.311 92.865 163.725 93.3369 164.115 93.8296C165.515 89.8448 171.081 89.8346 174.022 91.912C174.715 92.406 175.282 93.0557 175.678 93.8092C175.827 94.4712 175.814 95.1593 175.641 95.8152C175.46 96.4442 175.603 96.9202 176.008 97.0562C176.312 97.1303 176.633 97.0888 176.909 96.9406C177.987 96.4544 178.877 95.8594 180.128 95.9954C184.208 96.4272 187.183 101.731 184.766 105.192C184.623 105.407 184.46 105.609 184.28 105.794C183.94 106.134 183.175 106.532 183.005 107.018C183 107.03 183 107.043 183.005 107.056C182.699 108.076 184.957 108.303 185.558 108.565C190.89 110.813 189.764 121.774 183.26 122.114Z" fill="#2079FF"/>
<path d="M90.5761 94.4681C89.3079 91.7685 90.2361 87.9843 91.6811 85.1249C92.7861 82.9047 91.9055 79.3449 89.0835 78.9471C86.1527 78.5527 84.5139 82.2485 83.5993 84.4789C82.5878 86.9507 82.0502 89.5908 82.0149 92.2615C81.9397 95.1015 82.1481 97.9422 82.6371 100.741C82.8615 101.945 83.2661 103.097 83.5517 104.274C83.8679 105.559 83.5245 106.837 83.0587 108.041C81.2329 112.662 78.6625 116.986 76.7279 121.573C74.6369 126.428 72.9593 131.45 71.7129 136.587C69.3125 146.73 68.8161 157.484 71.6211 167.599C76.9251 186.714 103.802 180.437 119.194 175.079C125.63 172.838 130.074 170.754 130.074 170.754C130.074 170.754 130.111 172.236 130.111 174.746C130.111 174.861 130.111 174.98 130.111 175.086C130.132 185.173 129.727 210.52 125.382 225.579C125.194 226.228 124.799 226.799 124.257 227.203C123.715 227.607 123.056 227.824 122.38 227.82C111.438 227.775 65.3685 229.329 74.0997 259.083C77.0509 269.133 88.4783 272.747 103.078 272.873H103.142C104.329 272.873 105.543 272.873 106.774 272.839H106.855C112.279 272.651 117.687 272.161 123.056 271.374C142.076 268.694 162.313 262.976 175.386 258.855C176.139 258.656 176.91 258.527 177.687 258.471C178.01 258.433 178.367 258.406 178.769 258.389H178.803C182.356 258.246 188.387 258.855 195.463 263.149C206.853 270.048 217.223 273.329 221.411 263.744C225.6 254.159 214.023 247.642 214.023 247.642C205.231 240.842 194.143 240.036 183.338 240.502C180.003 240.648 176.684 240.927 173.478 241.182C160.647 242.204 147.813 243.224 134.977 244.242L118.16 245.602" stroke="black" stroke-width="3" stroke-miterlimit="10"/>
<path d="M95.149 92.6658C95.149 92.6658 93.3164 88.9629 95.5842 83.1727C96.5192 80.7927 97.597 77.9132 97.155 75.3054C97.0167 74.3398 96.5036 73.4677 95.727 72.8775C95.1687 72.4735 94.4734 72.3059 93.7924 72.4117C91.1608 72.7789 89.6852 76.0806 88.7944 78.9298" stroke="black" stroke-width="3" stroke-miterlimit="10"/>
<path d="M98.9774 90.517C98.9774 90.517 97.2366 87.5692 99.6098 83.037C100.008 82.2822 100.681 81.0752 101.31 79.7016C102.949 76.2574 104.458 71.7184 101.157 70.4128C99.4942 69.7566 97.4168 70.8616 96.3288 72.0958C96.1078 72.3467 95.901 72.6102 95.71 72.8846" stroke="black" stroke-width="3" stroke-miterlimit="10"/>
<path d="M101.32 79.6812C102.162 79.4986 103.025 79.4411 103.884 79.5112C105.808 79.6812 108.028 80.453 108.776 82.306C109.181 83.326 109.035 85.1654 108.001 85.74C106.689 86.4608 105.08 85.9848 103.768 86.658C102.303 87.4128 101.728 89.4358 101.942 90.9658C101.984 91.5655 102.223 92.1347 102.622 92.5842C104.941 94.903 106.532 88.5042 107.413 87.4502C108.61 86.012 110.361 86.2704 111.612 87.4842C113.897 89.6942 113.159 93.5396 112.38 96.2392C111.289 100.017 109.415 104.505 106.26 107.007C105.131 107.898 103.255 109.047 103.112 110.638C103.112 110.638 96.7572 131.089 97.138 142.319C97.1656 143.229 97.3866 144.121 97.7868 144.938C98.1866 145.755 98.7561 146.477 99.4575 147.056C100.159 147.635 100.975 148.058 101.853 148.297C102.73 148.535 103.649 148.584 104.547 148.439C107.947 147.885 111.367 147.365 114.747 146.739C117.147 146.301 119.537 145.869 121.938 145.454C132.61 143.639 143.266 142.228 154.054 142.18C154.575 142.181 155.079 141.993 155.473 141.651C155.867 141.31 156.124 140.837 156.196 140.32L156.4 138.841L157.743 130.542" stroke="black" stroke-width="3" stroke-miterlimit="10"/>
<path d="M240.071 96.2671C241.339 93.5675 240.411 89.7833 238.966 86.9239C237.851 84.7037 238.741 81.1439 241.563 80.7461C241.662 80.7461 241.761 80.7291 241.852 80.7291C244.63 80.5931 246.194 84.2005 247.075 86.3493C248.098 88.9057 248.627 91.6332 248.632 94.3869C248.658 96.7084 248.486 99.0275 248.119 101.319C247.806 103.223 246.796 105.114 246.942 107.072C247.058 108.718 248.03 110.275 248.714 111.757C251.661 118.105 255.112 124.235 257.479 130.797C258.381 133.255 259.087 135.78 259.59 138.349C261.367 147.681 260.723 157.312 257.72 166.324C256.081 171.2 253.198 176 249.043 179.128C248.613 179.453 248.172 179.759 247.721 180.046C242.335 183.535 235.42 184.568 229.119 184.432C222.428 184.29 215.696 182.923 209.274 181.097C208.152 180.775 207.034 180.435 205.921 180.077C204.752 179.706 203.592 179.329 202.433 178.935C201.219 178.513 200.005 178.088 198.802 177.639" stroke="black" stroke-width="3" stroke-miterlimit="10"/>
<path d="M241.852 80.729C240.961 77.8798 239.472 74.5784 236.854 74.2112C236.173 74.1055 235.478 74.2731 234.92 74.677C234.143 75.2673 233.63 76.1394 233.492 77.1046C233.05 79.7124 234.127 82.5888 235.062 84.9722C237.33 90.7522 235.494 94.4684 235.494 94.4684" stroke="black" stroke-width="3" stroke-miterlimit="10"/>
<path d="M234.92 74.6764C234.729 74.3976 234.515 74.1392 234.301 73.8842C233.203 72.6534 231.135 71.5484 229.469 72.2046C226.171 73.5068 227.681 78.0492 229.32 81.4934C229.966 82.8534 230.639 84.074 231.02 84.8288C233.4 89.3678 231.649 92.3088 231.649 92.3088" stroke="black" stroke-width="3" stroke-miterlimit="10"/>
<path d="M229.32 81.4944C228.478 81.3122 227.615 81.2537 226.756 81.321C224.832 81.4944 222.611 82.2662 221.863 84.1192C221.459 85.1392 221.605 86.9786 222.639 87.5532C223.951 88.274 225.559 87.7946 226.872 88.4712C228.337 89.226 228.912 91.249 228.697 92.779C228.656 93.3788 228.417 93.9479 228.017 94.3974C225.699 96.7162 224.107 90.3174 223.227 89.2634C222.03 87.8218 220.279 88.0836 219.028 89.2974C216.563 91.6774 217.634 96.4714 218.667 99.3512C219.793 102.496 221.248 105.811 223.577 108.259C227.453 112.339 227.875 118.799 228.901 124.039C229.323 126.208 229.728 128.391 230.051 130.577C230.697 134.81 231.071 139.077 230.731 143.354C230.644 144.528 230.316 145.672 229.766 146.713C229.217 147.755 228.458 148.671 227.538 149.405C226.618 150.14 225.556 150.676 224.418 150.98C223.281 151.285 222.093 151.35 220.928 151.174C205.724 148.845 176.297 144.116 176.297 144.116C176.056 144.074 175.837 143.949 175.68 143.763C175.521 143.576 175.434 143.34 175.433 143.096L175.29 130.111" stroke="black" stroke-width="3" stroke-miterlimit="10"/>
<path d="M151.239 110.822C150.617 117.51 152.939 125.072 157.291 130.056C165.41 139.341 172.251 130.056 172.251 130.056" stroke="black" stroke-width="3" stroke-miterlimit="10"/>
<path d="M178.653 112.897C178.415 112.455 178.554 111.656 178.35 111.095C178.087 110.36 177.614 109.718 176.99 109.249C175.692 108.3 173.975 108.358 172.604 107.521C171.36 106.743 170.377 105.61 169.782 104.268C169.592 103.839 169.442 103.186 169.079 102.877C168.456 102.357 168.096 103.271 167.719 103.632C167.18 104.134 166.503 104.462 165.776 104.575C165.048 104.687 164.304 104.579 163.639 104.264C163.027 103.962 162.602 103.353 161.962 103.112C161.323 102.87 161.282 103.934 161.187 104.308C161.126 104.628 160.994 104.93 160.801 105.192C160.607 105.454 160.357 105.669 160.069 105.821C158.943 106.376 157.406 106.012 156.427 105.356C156.362 105.31 156.284 105.285 156.205 105.281C156.125 105.278 156.046 105.297 155.977 105.337C155.908 105.377 155.852 105.436 155.814 105.507C155.777 105.577 155.761 105.657 155.768 105.736C155.921 110.156 150.685 110.949 150.685 110.949" stroke="black" stroke-width="3" stroke-miterlimit="10"/>
<path d="M158.627 120.55C161.245 120.55 163.367 118.428 163.367 115.81C163.367 113.192 161.245 111.07 158.627 111.07C156.009 111.07 153.887 113.192 153.887 115.81C153.887 118.428 156.009 120.55 158.627 120.55Z" stroke="black" stroke-width="3" stroke-miterlimit="10"/>
<path d="M170.911 120.127C173.529 120.127 175.651 118.005 175.651 115.388C175.651 112.77 173.529 110.648 170.911 110.648C168.294 110.648 166.172 112.77 166.172 115.388C166.172 118.005 168.294 120.127 170.911 120.127Z" stroke="black" stroke-width="3" stroke-miterlimit="10"/>
<path d="M156.645 116.286C156.645 116.286 158.556 118.479 160.521 116.286" stroke="black" stroke-width="3" stroke-miterlimit="10"/>
<path d="M168.98 116.286C168.98 116.286 170.891 118.479 172.859 116.286" stroke="black" stroke-width="3" stroke-miterlimit="10"/>
<path d="M165.339 126.741C166.261 126.741 167.008 125.994 167.008 125.072C167.008 124.149 166.261 123.402 165.339 123.402C164.417 123.402 163.669 124.149 163.669 125.072C163.669 125.994 164.417 126.741 165.339 126.741Z" stroke="black" stroke-width="3" stroke-miterlimit="10"/>
<path d="M163.367 115.81C163.367 115.81 164.441 114.059 166.172 115.388" stroke="black" stroke-width="3" stroke-miterlimit="10"/>
<path d="M161.187 108.775C161.187 108.775 156.268 105.015 152.143 108.561" stroke="black" stroke-width="3" stroke-miterlimit="10"/>
<path d="M175.583 106.803C175.583 106.803 169.738 104.763 166.916 109.404" stroke="black" stroke-width="3" stroke-miterlimit="10"/>
<path d="M155.142 127.203C155.131 127.991 154.872 128.755 154.402 129.388C153.932 130.021 153.275 130.49 152.524 130.729C150.096 131.446 147.526 129.624 146.472 127.519C146.088 126.792 145.912 125.972 145.965 125.151C146.018 124.331 146.297 123.54 146.771 122.868C146.814 122.801 146.842 122.725 146.854 122.647C146.866 122.568 146.863 122.488 146.843 122.411C146.823 122.334 146.788 122.262 146.739 122.199C146.691 122.136 146.63 122.084 146.56 122.045C146.088 121.761 145.698 121.36 145.428 120.88C145.157 120.401 145.016 119.859 145.017 119.308C145.018 119.08 145.043 118.852 145.092 118.628C145.107 118.546 145.105 118.461 145.086 118.379C145.067 118.297 145.031 118.22 144.98 118.153C144.93 118.086 144.866 118.03 144.793 117.989C144.719 117.947 144.638 117.922 144.554 117.914C144.307 117.892 144.061 117.851 143.82 117.792C143.144 117.552 142.533 117.157 142.036 116.638C141.54 116.12 141.171 115.493 140.961 114.807C139.941 111.488 142.508 107.945 145.7 107.146C144.748 105.474 143.487 104.124 142.98 102.182C142.474 100.241 142.766 98.235 144.238 96.7866C146.533 94.5392 150.426 95.2396 152.276 97.7046C151.028 95.8346 151.494 93.2846 152.898 91.6458C154.598 89.667 157.913 89.2352 160.235 90.2416C161.34 90.7278 162.051 91.7342 162.806 92.6216C164.315 88.3512 170.286 88.324 173.461 90.5612C175.114 91.741 176.181 93.8796 175.654 95.8312C175.375 96.8206 175.889 97.4122 176.922 96.9566C177.956 96.501 178.891 95.8754 180.142 96.0114C184.474 96.4704 187.551 102.403 184.294 105.81C183.954 106.171 183.189 106.548 183.019 107.034C182.648 108.054 184.95 108.319 185.562 108.581C190.941 110.839 189.761 121.916 183.182 122.14C183.379 123.082 183.828 124.126 183.756 125.098C183.614 127.155 182.155 128.271 180.176 128.335C180.225 128.806 180.13 129.28 179.904 129.695C179.678 130.111 179.333 130.449 178.911 130.664C177.851 131.229 176.113 131.096 175.314 130.113C174.036 128.57 175.348 126.547 175.994 125.071C176.946 122.912 177.415 120.583 177.847 118.271C178.243 116.356 178.497 114.414 178.609 112.461V112.379" stroke="black" stroke-width="3" stroke-miterlimit="10"/>
<path d="M17 270.38H86.0982" stroke="black" stroke-width="3" stroke-miterlimit="10"/>
<path d="M259.971 270.38H323" stroke="black" stroke-width="3" stroke-miterlimit="10"/>
</g>
</svg>
