<svg width="80" height="80" viewBox="0 0 80 80" fill="none" xmlns="http://www.w3.org/2000/svg">
<path d="M33.3333 50.0001L50.6333 40.0001L33.3333 30.0001V50.0001ZM71.8666 23.9001C72.3 25.4667 72.6 27.5667 72.8 30.2334C73.0333 32.9001 73.1333 35.2001 73.1333 37.2001L73.3333 40.0001C73.3333 47.3001 72.8 52.6667 71.8666 56.1001C71.0333 59.1001 69.1 61.0334 66.1 61.8667C64.5333 62.3001 61.6666 62.6001 57.2666 62.8001C52.9333 63.0334 48.9666 63.1334 45.3 63.1334L40 63.3334C26.0333 63.3334 17.3333 62.8001 13.9 61.8667C10.9 61.0334 8.96666 59.1001 8.13333 56.1001C7.7 54.5334 7.4 52.4334 7.2 49.7667C6.96666 47.1001 6.86666 44.8001 6.86666 42.8001L6.66666 40.0001C6.66666 32.7001 7.2 27.3334 8.13333 23.9001C8.96666 20.9001 10.9 18.9667 13.9 18.1334C15.4667 17.7001 18.3333 17.4001 22.7333 17.2001C27.0667 16.9667 31.0333 16.8667 34.7 16.8667L40 16.6667C53.9666 16.6667 62.6666 17.2001 66.1 18.1334C69.1 18.9667 71.0333 20.9001 71.8666 23.9001Z" fill="white"/>
</svg>
